G04 #@! TF.GenerationSoftware,KiCad,Pcbnew,8.0.9*
G04 #@! TF.CreationDate,2025-10-04T21:55:59-05:00*
G04 #@! TF.ProjectId,hengrun2_horns_v1.0,68656e67-7275-46e3-925f-686f726e735f,1.0*
G04 #@! TF.SameCoordinates,Original*
G04 #@! TF.FileFunction,Copper,L1,Top*
G04 #@! TF.FilePolarity,Positive*
%FSLAX46Y46*%
G04 Gerber Fmt 4.6, Leading zero omitted, Abs format (unit mm)*
G04 Created by KiCad (PCBNEW 8.0.9) date 2025-10-04 21:55:59*
%MOMM*%
%LPD*%
G01*
G04 APERTURE LIST*
G04 Aperture macros list*
%AMRoundRect*
0 Rectangle with rounded corners*
0 $1 Rounding radius*
0 $2 $3 $4 $5 $6 $7 $8 $9 X,Y pos of 4 corners*
0 Add a 4 corners polygon primitive as box body*
4,1,4,$2,$3,$4,$5,$6,$7,$8,$9,$2,$3,0*
0 Add four circle primitives for the rounded corners*
1,1,$1+$1,$2,$3*
1,1,$1+$1,$4,$5*
1,1,$1+$1,$6,$7*
1,1,$1+$1,$8,$9*
0 Add four rect primitives between the rounded corners*
20,1,$1+$1,$2,$3,$4,$5,0*
20,1,$1+$1,$4,$5,$6,$7,0*
20,1,$1+$1,$6,$7,$8,$9,0*
20,1,$1+$1,$8,$9,$2,$3,0*%
G04 Aperture macros list end*
G04 #@! TA.AperFunction,SMDPad,CuDef*
%ADD10RoundRect,0.237500X-0.250000X-0.237500X0.250000X-0.237500X0.250000X0.237500X-0.250000X0.237500X0*%
G04 #@! TD*
G04 #@! TA.AperFunction,ComponentPad*
%ADD11R,2.000000X1.905000*%
G04 #@! TD*
G04 #@! TA.AperFunction,ComponentPad*
%ADD12O,2.000000X1.905000*%
G04 #@! TD*
G04 #@! TA.AperFunction,ComponentPad*
%ADD13RoundRect,0.250000X-0.620000X-0.845000X0.620000X-0.845000X0.620000X0.845000X-0.620000X0.845000X0*%
G04 #@! TD*
G04 #@! TA.AperFunction,ComponentPad*
%ADD14O,1.740000X2.190000*%
G04 #@! TD*
G04 #@! TA.AperFunction,ComponentPad*
%ADD15RoundRect,0.250000X0.620000X0.845000X-0.620000X0.845000X-0.620000X-0.845000X0.620000X-0.845000X0*%
G04 #@! TD*
G04 #@! TA.AperFunction,SMDPad,CuDef*
%ADD16RoundRect,0.250000X-0.375000X-0.625000X0.375000X-0.625000X0.375000X0.625000X-0.375000X0.625000X0*%
G04 #@! TD*
G04 #@! TA.AperFunction,SMDPad,CuDef*
%ADD17R,2.500000X1.800000*%
G04 #@! TD*
G04 #@! TA.AperFunction,ComponentPad*
%ADD18R,1.600000X1.600000*%
G04 #@! TD*
G04 #@! TA.AperFunction,ComponentPad*
%ADD19C,1.600000*%
G04 #@! TD*
G04 #@! TA.AperFunction,SMDPad,CuDef*
%ADD20RoundRect,0.225000X-0.225000X-0.250000X0.225000X-0.250000X0.225000X0.250000X-0.225000X0.250000X0*%
G04 #@! TD*
G04 #@! TA.AperFunction,ViaPad*
%ADD21C,0.800000*%
G04 #@! TD*
G04 #@! TA.AperFunction,Conductor*
%ADD22C,0.250000*%
G04 #@! TD*
G04 APERTURE END LIST*
D10*
X156000000Y-101000000D03*
X157825000Y-101000000D03*
D11*
X170000000Y-90080000D03*
D12*
X170000000Y-87540000D03*
X170000000Y-85000000D03*
D13*
X159460000Y-76000000D03*
D14*
X162000000Y-76000000D03*
D13*
X150460000Y-76000000D03*
D14*
X153000000Y-76000000D03*
D15*
X165000000Y-101000000D03*
D14*
X162460000Y-101000000D03*
D13*
X150920000Y-94000000D03*
D14*
X153460000Y-94000000D03*
X156000000Y-94000000D03*
D16*
X162600000Y-95000000D03*
X165400000Y-95000000D03*
X167200000Y-78000000D03*
X170000000Y-78000000D03*
D17*
X155000000Y-85000000D03*
X159000000Y-85000000D03*
D18*
X141465000Y-101000000D03*
D19*
X143965000Y-101000000D03*
D20*
X141675000Y-96000000D03*
X143225000Y-96000000D03*
X141450000Y-93000000D03*
X143000000Y-93000000D03*
X141450000Y-90000000D03*
X143000000Y-90000000D03*
X141675000Y-87000000D03*
X143225000Y-87000000D03*
X141675000Y-84000000D03*
X143225000Y-84000000D03*
X141675000Y-81000000D03*
X143225000Y-81000000D03*
X141675000Y-78000000D03*
X143225000Y-78000000D03*
X150450000Y-101000000D03*
X152000000Y-101000000D03*
D21*
X173000000Y-85000000D03*
X148000000Y-101000000D03*
D22*
X148000000Y-101000000D02*
X143965000Y-101000000D01*
X148000000Y-101000000D02*
X150450000Y-101000000D01*
X170000000Y-78000000D02*
X175000000Y-78000000D01*
X175000000Y-87540000D02*
X170000000Y-87540000D01*
X175000000Y-78000000D02*
X175000000Y-87540000D01*
X170000000Y-85000000D02*
X173000000Y-85000000D01*
X142000000Y-74000000D02*
X147000000Y-74000000D01*
X147000000Y-74000000D02*
X147000000Y-83080000D01*
X141675000Y-78000000D02*
X141675000Y-74325000D01*
X141675000Y-74325000D02*
X142000000Y-74000000D01*
X147000000Y-83080000D02*
X150460000Y-86540000D01*
X141675000Y-81000000D02*
X141675000Y-78000000D01*
X141675000Y-84000000D02*
X141675000Y-81000000D01*
X141675000Y-87000000D02*
X141675000Y-84000000D01*
X141450000Y-90000000D02*
X141450000Y-87225000D01*
X141450000Y-87225000D02*
X141675000Y-87000000D01*
X141450000Y-93000000D02*
X141450000Y-90000000D01*
X141675000Y-96000000D02*
X141675000Y-93225000D01*
X141675000Y-93225000D02*
X141450000Y-93000000D01*
X141465000Y-101000000D02*
X141465000Y-96210000D01*
X141465000Y-96210000D02*
X141675000Y-96000000D01*
X143225000Y-96000000D02*
X144000000Y-96000000D01*
X144000000Y-96000000D02*
X143965000Y-96035000D01*
X143965000Y-96035000D02*
X143965000Y-101000000D01*
X143000000Y-93000000D02*
X143000000Y-95775000D01*
X143000000Y-95775000D02*
X143225000Y-96000000D01*
X143000000Y-90000000D02*
X143000000Y-93000000D01*
X143225000Y-87000000D02*
X143225000Y-87775000D01*
X143225000Y-87775000D02*
X143000000Y-88000000D01*
X143000000Y-88000000D02*
X143000000Y-90000000D01*
X143225000Y-84000000D02*
X143225000Y-87000000D01*
X143225000Y-81000000D02*
X143225000Y-84000000D01*
X143225000Y-78000000D02*
X143225000Y-81000000D01*
X156000000Y-101000000D02*
X152000000Y-101000000D01*
X162460000Y-101000000D02*
X157825000Y-101000000D01*
X164600000Y-97000000D02*
X165000000Y-97000000D01*
X162600000Y-95000000D02*
X164600000Y-97000000D01*
X165000000Y-97000000D02*
X165000000Y-101000000D01*
X170000000Y-90080000D02*
X170000000Y-95000000D01*
X170000000Y-95000000D02*
X165400000Y-95000000D01*
X150460000Y-76000000D02*
X150460000Y-86540000D01*
X150460000Y-86540000D02*
X153460000Y-89540000D01*
X155000000Y-88000000D02*
X153460000Y-89540000D01*
X153460000Y-89540000D02*
X153460000Y-94000000D01*
X155000000Y-85000000D02*
X155000000Y-88000000D01*
X162000000Y-76000000D02*
X162000000Y-83000000D01*
X162000000Y-83000000D02*
X160000000Y-85000000D01*
X160000000Y-85000000D02*
X159000000Y-85000000D01*
X162000000Y-76000000D02*
X165200000Y-76000000D01*
X165200000Y-76000000D02*
X167200000Y-78000000D01*
X153000000Y-76000000D02*
X159460000Y-76000000D01*
G04 #@! TA.AperFunction,Conductor*
G36*
X173000733Y-66000008D02*
G01*
X173191077Y-66002343D01*
X173201681Y-66002930D01*
X173581224Y-66040312D01*
X173593249Y-66042096D01*
X173966527Y-66116345D01*
X173978329Y-66119301D01*
X174342544Y-66229785D01*
X174354002Y-66233885D01*
X174705627Y-66379532D01*
X174716626Y-66384734D01*
X175052282Y-66564147D01*
X175062713Y-66570399D01*
X175379169Y-66781849D01*
X175388942Y-66789097D01*
X175683148Y-67030544D01*
X175692165Y-67038717D01*
X175961282Y-67307834D01*
X175969455Y-67316851D01*
X176210902Y-67611057D01*
X176218150Y-67620830D01*
X176429600Y-67937286D01*
X176435856Y-67947724D01*
X176615264Y-68283372D01*
X176620467Y-68294372D01*
X176766114Y-68645997D01*
X176770214Y-68657455D01*
X176880698Y-69021670D01*
X176883654Y-69033474D01*
X176957902Y-69406744D01*
X176959688Y-69418781D01*
X176997068Y-69798304D01*
X176997656Y-69808937D01*
X176999991Y-69999266D01*
X177000000Y-70000787D01*
X177000000Y-109999212D01*
X176999991Y-110000733D01*
X176997656Y-110191062D01*
X176997068Y-110201695D01*
X176959688Y-110581218D01*
X176957902Y-110593255D01*
X176883654Y-110966525D01*
X176880698Y-110978329D01*
X176770214Y-111342544D01*
X176766114Y-111354002D01*
X176620467Y-111705627D01*
X176615264Y-111716627D01*
X176435856Y-112052275D01*
X176429600Y-112062713D01*
X176218150Y-112379169D01*
X176210902Y-112388942D01*
X175969455Y-112683148D01*
X175961282Y-112692165D01*
X175692165Y-112961282D01*
X175683148Y-112969455D01*
X175388942Y-113210902D01*
X175379169Y-113218150D01*
X175062713Y-113429600D01*
X175052275Y-113435856D01*
X174716627Y-113615264D01*
X174705627Y-113620467D01*
X174354002Y-113766114D01*
X174342544Y-113770214D01*
X173978329Y-113880698D01*
X173966525Y-113883654D01*
X173593255Y-113957902D01*
X173581218Y-113959688D01*
X173201695Y-113997068D01*
X173191062Y-113997656D01*
X173000734Y-113999991D01*
X172999213Y-114000000D01*
X140000787Y-114000000D01*
X139999266Y-113999991D01*
X139808937Y-113997656D01*
X139798304Y-113997068D01*
X139418781Y-113959688D01*
X139406744Y-113957902D01*
X139033474Y-113883654D01*
X139021670Y-113880698D01*
X138657455Y-113770214D01*
X138645997Y-113766114D01*
X138294372Y-113620467D01*
X138283372Y-113615264D01*
X137947724Y-113435856D01*
X137937286Y-113429600D01*
X137620830Y-113218150D01*
X137611057Y-113210902D01*
X137316851Y-112969455D01*
X137307834Y-112961282D01*
X137038717Y-112692165D01*
X137030544Y-112683148D01*
X136789097Y-112388942D01*
X136781849Y-112379169D01*
X136570399Y-112062713D01*
X136564143Y-112052275D01*
X136384735Y-111716627D01*
X136379532Y-111705627D01*
X136233885Y-111354002D01*
X136229785Y-111342544D01*
X136193444Y-111222743D01*
X136119300Y-110978327D01*
X136116345Y-110966525D01*
X136042097Y-110593255D01*
X136040311Y-110581218D01*
X136018699Y-110361785D01*
X136002930Y-110201681D01*
X136002343Y-110191075D01*
X136000009Y-110000732D01*
X136000000Y-109999212D01*
X136000000Y-109878711D01*
X138149500Y-109878711D01*
X138149500Y-110121288D01*
X138181161Y-110361785D01*
X138243947Y-110596104D01*
X138336773Y-110820205D01*
X138336776Y-110820212D01*
X138458064Y-111030289D01*
X138458066Y-111030292D01*
X138458067Y-111030293D01*
X138605733Y-111222736D01*
X138605739Y-111222743D01*
X138777256Y-111394260D01*
X138777262Y-111394265D01*
X138969711Y-111541936D01*
X139179788Y-111663224D01*
X139403900Y-111756054D01*
X139638211Y-111818838D01*
X139818586Y-111842584D01*
X139878711Y-111850500D01*
X139878712Y-111850500D01*
X140121289Y-111850500D01*
X140169388Y-111844167D01*
X140361789Y-111818838D01*
X140596100Y-111756054D01*
X140820212Y-111663224D01*
X141030289Y-111541936D01*
X141222738Y-111394265D01*
X141394265Y-111222738D01*
X141541936Y-111030289D01*
X141663224Y-110820212D01*
X141756054Y-110596100D01*
X141818838Y-110361789D01*
X141850500Y-110121288D01*
X141850500Y-109878712D01*
X141850500Y-109878711D01*
X171149500Y-109878711D01*
X171149500Y-110121288D01*
X171181161Y-110361785D01*
X171243947Y-110596104D01*
X171336773Y-110820205D01*
X171336776Y-110820212D01*
X171458064Y-111030289D01*
X171458066Y-111030292D01*
X171458067Y-111030293D01*
X171605733Y-111222736D01*
X171605739Y-111222743D01*
X171777256Y-111394260D01*
X171777262Y-111394265D01*
X171969711Y-111541936D01*
X172179788Y-111663224D01*
X172403900Y-111756054D01*
X172638211Y-111818838D01*
X172818586Y-111842584D01*
X172878711Y-111850500D01*
X172878712Y-111850500D01*
X173121289Y-111850500D01*
X173169388Y-111844167D01*
X173361789Y-111818838D01*
X173596100Y-111756054D01*
X173820212Y-111663224D01*
X174030289Y-111541936D01*
X174222738Y-111394265D01*
X174394265Y-111222738D01*
X174541936Y-111030289D01*
X174663224Y-110820212D01*
X174756054Y-110596100D01*
X174818838Y-110361789D01*
X174850500Y-110121288D01*
X174850500Y-109878712D01*
X174818838Y-109638211D01*
X174756054Y-109403900D01*
X174663224Y-109179788D01*
X174541936Y-108969711D01*
X174394265Y-108777262D01*
X174394260Y-108777256D01*
X174222743Y-108605739D01*
X174222736Y-108605733D01*
X174030293Y-108458067D01*
X174030292Y-108458066D01*
X174030289Y-108458064D01*
X173820212Y-108336776D01*
X173820205Y-108336773D01*
X173596104Y-108243947D01*
X173361785Y-108181161D01*
X173121289Y-108149500D01*
X173121288Y-108149500D01*
X172878712Y-108149500D01*
X172878711Y-108149500D01*
X172638214Y-108181161D01*
X172403895Y-108243947D01*
X172179794Y-108336773D01*
X172179785Y-108336777D01*
X171969706Y-108458067D01*
X171777263Y-108605733D01*
X171777256Y-108605739D01*
X171605739Y-108777256D01*
X171605733Y-108777263D01*
X171458067Y-108969706D01*
X171336777Y-109179785D01*
X171336773Y-109179794D01*
X171243947Y-109403895D01*
X171181161Y-109638214D01*
X171149500Y-109878711D01*
X141850500Y-109878711D01*
X141818838Y-109638211D01*
X141756054Y-109403900D01*
X141663224Y-109179788D01*
X141541936Y-108969711D01*
X141394265Y-108777262D01*
X141394260Y-108777256D01*
X141222743Y-108605739D01*
X141222736Y-108605733D01*
X141030293Y-108458067D01*
X141030292Y-108458066D01*
X141030289Y-108458064D01*
X140820212Y-108336776D01*
X140820205Y-108336773D01*
X140596104Y-108243947D01*
X140361785Y-108181161D01*
X140121289Y-108149500D01*
X140121288Y-108149500D01*
X139878712Y-108149500D01*
X139878711Y-108149500D01*
X139638214Y-108181161D01*
X139403895Y-108243947D01*
X139179794Y-108336773D01*
X139179785Y-108336777D01*
X138969706Y-108458067D01*
X138777263Y-108605733D01*
X138777256Y-108605739D01*
X138605739Y-108777256D01*
X138605733Y-108777263D01*
X138458067Y-108969706D01*
X138336777Y-109179785D01*
X138336773Y-109179794D01*
X138243947Y-109403895D01*
X138181161Y-109638214D01*
X138149500Y-109878711D01*
X136000000Y-109878711D01*
X136000000Y-100152155D01*
X140165000Y-100152155D01*
X140165000Y-100750000D01*
X141149314Y-100750000D01*
X141144920Y-100754394D01*
X141092259Y-100845606D01*
X141065000Y-100947339D01*
X141065000Y-101052661D01*
X141092259Y-101154394D01*
X141144920Y-101245606D01*
X141149314Y-101250000D01*
X140165000Y-101250000D01*
X140165000Y-101847844D01*
X140171401Y-101907372D01*
X140171403Y-101907379D01*
X140221645Y-102042086D01*
X140221649Y-102042093D01*
X140307809Y-102157187D01*
X140307812Y-102157190D01*
X140422906Y-102243350D01*
X140422913Y-102243354D01*
X140557620Y-102293596D01*
X140557627Y-102293598D01*
X140617155Y-102299999D01*
X140617172Y-102300000D01*
X141215000Y-102300000D01*
X141215000Y-101315686D01*
X141219394Y-101320080D01*
X141310606Y-101372741D01*
X141412339Y-101400000D01*
X141517661Y-101400000D01*
X141619394Y-101372741D01*
X141710606Y-101320080D01*
X141715000Y-101315686D01*
X141715000Y-102300000D01*
X142312828Y-102300000D01*
X142312844Y-102299999D01*
X142372372Y-102293598D01*
X142372379Y-102293596D01*
X142507086Y-102243354D01*
X142507093Y-102243350D01*
X142622187Y-102157190D01*
X142622190Y-102157187D01*
X142708350Y-102042093D01*
X142708354Y-102042086D01*
X142761309Y-101900108D01*
X142763433Y-101900900D01*
X142792338Y-101850113D01*
X142854241Y-101817712D01*
X142923834Y-101823922D01*
X142966144Y-101851642D01*
X143120700Y-102006198D01*
X143308251Y-102137523D01*
X143373048Y-102167738D01*
X143515750Y-102234281D01*
X143515752Y-102234281D01*
X143515757Y-102234284D01*
X143736913Y-102293543D01*
X143899832Y-102307796D01*
X143964998Y-102313498D01*
X143965000Y-102313498D01*
X143965002Y-102313498D01*
X144022021Y-102308509D01*
X144193087Y-102293543D01*
X144414243Y-102234284D01*
X144621749Y-102137523D01*
X144809300Y-102006198D01*
X144971198Y-101844300D01*
X145081779Y-101686374D01*
X145136354Y-101642751D01*
X145183352Y-101633500D01*
X147292691Y-101633500D01*
X147359730Y-101653185D01*
X147384840Y-101674527D01*
X147388747Y-101678866D01*
X147543248Y-101791118D01*
X147717712Y-101868794D01*
X147904513Y-101908500D01*
X148095487Y-101908500D01*
X148282288Y-101868794D01*
X148456752Y-101791118D01*
X148611253Y-101678866D01*
X148615160Y-101674527D01*
X148674646Y-101637879D01*
X148707309Y-101633500D01*
X149530532Y-101633500D01*
X149597571Y-101653185D01*
X149636069Y-101692402D01*
X149642820Y-101703346D01*
X149645716Y-101708041D01*
X149766959Y-101829284D01*
X149766963Y-101829287D01*
X149912890Y-101919297D01*
X149912893Y-101919298D01*
X149912899Y-101919302D01*
X150075664Y-101973236D01*
X150176128Y-101983500D01*
X150176133Y-101983500D01*
X150723867Y-101983500D01*
X150723872Y-101983500D01*
X150824336Y-101973236D01*
X150987101Y-101919302D01*
X151133040Y-101829285D01*
X151137319Y-101825006D01*
X151198642Y-101791521D01*
X151268334Y-101796505D01*
X151312681Y-101825006D01*
X151316959Y-101829284D01*
X151316963Y-101829287D01*
X151462890Y-101919297D01*
X151462893Y-101919298D01*
X151462899Y-101919302D01*
X151625664Y-101973236D01*
X151726128Y-101983500D01*
X151726133Y-101983500D01*
X152273867Y-101983500D01*
X152273872Y-101983500D01*
X152374336Y-101973236D01*
X152537101Y-101919302D01*
X152683040Y-101829285D01*
X152804285Y-101708040D01*
X152813929Y-101692403D01*
X152865875Y-101645679D01*
X152919468Y-101633500D01*
X155048554Y-101633500D01*
X155115593Y-101653185D01*
X155154092Y-101692403D01*
X155156251Y-101695904D01*
X155160841Y-101703345D01*
X155284153Y-101826657D01*
X155284157Y-101826660D01*
X155432571Y-101918204D01*
X155432574Y-101918205D01*
X155432580Y-101918209D01*
X155598119Y-101973062D01*
X155700287Y-101983500D01*
X156299712Y-101983499D01*
X156401881Y-101973062D01*
X156567420Y-101918209D01*
X156715846Y-101826658D01*
X156824819Y-101717685D01*
X156886142Y-101684200D01*
X156955834Y-101689184D01*
X157000181Y-101717685D01*
X157109153Y-101826657D01*
X157109157Y-101826660D01*
X157257571Y-101918204D01*
X157257574Y-101918205D01*
X157257580Y-101918209D01*
X157423119Y-101973062D01*
X157525287Y-101983500D01*
X158124712Y-101983499D01*
X158226881Y-101973062D01*
X158392420Y-101918209D01*
X158540846Y-101826658D01*
X158664158Y-101703346D01*
X158670907Y-101692403D01*
X158722854Y-101645679D01*
X158776446Y-101633500D01*
X161053198Y-101633500D01*
X161120237Y-101653185D01*
X161165992Y-101705989D01*
X161171129Y-101719181D01*
X161182495Y-101754164D01*
X161281001Y-101947492D01*
X161408539Y-102123033D01*
X161561967Y-102276461D01*
X161737508Y-102403999D01*
X161930840Y-102502506D01*
X162137200Y-102569557D01*
X162217566Y-102582285D01*
X162351505Y-102603500D01*
X162351510Y-102603500D01*
X162568495Y-102603500D01*
X162687551Y-102584642D01*
X162782800Y-102569557D01*
X162989160Y-102502506D01*
X163182492Y-102403999D01*
X163358033Y-102276461D01*
X163492636Y-102141857D01*
X163553955Y-102108375D01*
X163623647Y-102113359D01*
X163679581Y-102155230D01*
X163685852Y-102164444D01*
X163780967Y-102318648D01*
X163780970Y-102318652D01*
X163906348Y-102444030D01*
X164057262Y-102537115D01*
X164225574Y-102592887D01*
X164329455Y-102603500D01*
X165670544Y-102603499D01*
X165774426Y-102592887D01*
X165942738Y-102537115D01*
X166093652Y-102444030D01*
X166219030Y-102318652D01*
X166312115Y-102167738D01*
X166367887Y-101999426D01*
X166378500Y-101895545D01*
X166378499Y-100104456D01*
X166367887Y-100000574D01*
X166312115Y-99832262D01*
X166219030Y-99681348D01*
X166093652Y-99555970D01*
X165942738Y-99462885D01*
X165942735Y-99462884D01*
X165774426Y-99407112D01*
X165744897Y-99404096D01*
X165680205Y-99377699D01*
X165640054Y-99320518D01*
X165633500Y-99280738D01*
X165633500Y-96937605D01*
X165633499Y-96937601D01*
X165629858Y-96919297D01*
X165609155Y-96815215D01*
X165561400Y-96699925D01*
X165561399Y-96699924D01*
X165561396Y-96699918D01*
X165492071Y-96596167D01*
X165492068Y-96596163D01*
X165491085Y-96595180D01*
X165490734Y-96594537D01*
X165488206Y-96591457D01*
X165488790Y-96590977D01*
X165457600Y-96533857D01*
X165462584Y-96464165D01*
X165504456Y-96408232D01*
X165569920Y-96383815D01*
X165578766Y-96383499D01*
X165825537Y-96383499D01*
X165825544Y-96383499D01*
X165929426Y-96372887D01*
X166097738Y-96317115D01*
X166248652Y-96224030D01*
X166374030Y-96098652D01*
X166467115Y-95947738D01*
X166522887Y-95779426D01*
X166526415Y-95744896D01*
X166552812Y-95680205D01*
X166609993Y-95640054D01*
X166649773Y-95633500D01*
X170062395Y-95633500D01*
X170062396Y-95633499D01*
X170184785Y-95609155D01*
X170300075Y-95561400D01*
X170403833Y-95492071D01*
X170492071Y-95403833D01*
X170561400Y-95300075D01*
X170609155Y-95184785D01*
X170633500Y-95062394D01*
X170633500Y-91665000D01*
X170653185Y-91597961D01*
X170705989Y-91552206D01*
X170757500Y-91541000D01*
X171048638Y-91541000D01*
X171048654Y-91540999D01*
X171075692Y-91538091D01*
X171109201Y-91534489D01*
X171246204Y-91483389D01*
X171363261Y-91395761D01*
X171450889Y-91278704D01*
X171501989Y-91141701D01*
X171505591Y-91108192D01*
X171508499Y-91081154D01*
X171508500Y-91081137D01*
X171508500Y-89078862D01*
X171508499Y-89078845D01*
X171503800Y-89035144D01*
X171501989Y-89018299D01*
X171450889Y-88881296D01*
X171363261Y-88764239D01*
X171246204Y-88676611D01*
X171246202Y-88676610D01*
X171246203Y-88676610D01*
X171227117Y-88669491D01*
X171171185Y-88627618D01*
X171146770Y-88562153D01*
X171161624Y-88493881D01*
X171170126Y-88480440D01*
X171297060Y-88305731D01*
X171297063Y-88305726D01*
X171329939Y-88241205D01*
X171377913Y-88190409D01*
X171440423Y-88173500D01*
X175062395Y-88173500D01*
X175062396Y-88173499D01*
X175184785Y-88149155D01*
X175300075Y-88101400D01*
X175403833Y-88032071D01*
X175492071Y-87943833D01*
X175561400Y-87840075D01*
X175609155Y-87724785D01*
X175633500Y-87602394D01*
X175633500Y-77937606D01*
X175609155Y-77815215D01*
X175562126Y-77701677D01*
X175561401Y-77699927D01*
X175561396Y-77699918D01*
X175492071Y-77596167D01*
X175492068Y-77596163D01*
X175403836Y-77507931D01*
X175403832Y-77507928D01*
X175300081Y-77438603D01*
X175300072Y-77438598D01*
X175184785Y-77390845D01*
X175184777Y-77390843D01*
X175062398Y-77366500D01*
X175062394Y-77366500D01*
X171249772Y-77366500D01*
X171182733Y-77346815D01*
X171136978Y-77294011D01*
X171126414Y-77255101D01*
X171122887Y-77220574D01*
X171067115Y-77052262D01*
X170974030Y-76901348D01*
X170848652Y-76775970D01*
X170697738Y-76682885D01*
X170658307Y-76669819D01*
X170529427Y-76627113D01*
X170425546Y-76616500D01*
X169574462Y-76616500D01*
X169574446Y-76616501D01*
X169470572Y-76627113D01*
X169302264Y-76682884D01*
X169302259Y-76682886D01*
X169151346Y-76775971D01*
X169025971Y-76901346D01*
X168932886Y-77052259D01*
X168932884Y-77052264D01*
X168877113Y-77220572D01*
X168866500Y-77324447D01*
X168866500Y-78675537D01*
X168866501Y-78675553D01*
X168877113Y-78779427D01*
X168913171Y-78888245D01*
X168932885Y-78947738D01*
X169025970Y-79098652D01*
X169151348Y-79224030D01*
X169302262Y-79317115D01*
X169470574Y-79372887D01*
X169574455Y-79383500D01*
X170425544Y-79383499D01*
X170529426Y-79372887D01*
X170697738Y-79317115D01*
X170848652Y-79224030D01*
X170974030Y-79098652D01*
X171067115Y-78947738D01*
X171122887Y-78779426D01*
X171126415Y-78744896D01*
X171152812Y-78680205D01*
X171209993Y-78640054D01*
X171249773Y-78633500D01*
X174242500Y-78633500D01*
X174309539Y-78653185D01*
X174355294Y-78705989D01*
X174366500Y-78757500D01*
X174366500Y-86782500D01*
X174346815Y-86849539D01*
X174294011Y-86895294D01*
X174242500Y-86906500D01*
X171440423Y-86906500D01*
X171373384Y-86886815D01*
X171329939Y-86838795D01*
X171297063Y-86774273D01*
X171244319Y-86701677D01*
X171161889Y-86588222D01*
X170999278Y-86425611D01*
X170923172Y-86370316D01*
X170880508Y-86314988D01*
X170874529Y-86245375D01*
X170907135Y-86183580D01*
X170923169Y-86169685D01*
X170999278Y-86114389D01*
X171161889Y-85951778D01*
X171297060Y-85765731D01*
X171297063Y-85765726D01*
X171329939Y-85701205D01*
X171377913Y-85650409D01*
X171440423Y-85633500D01*
X172292691Y-85633500D01*
X172359730Y-85653185D01*
X172384840Y-85674527D01*
X172388747Y-85678866D01*
X172543248Y-85791118D01*
X172717712Y-85868794D01*
X172904513Y-85908500D01*
X173095487Y-85908500D01*
X173282288Y-85868794D01*
X173456752Y-85791118D01*
X173611253Y-85678866D01*
X173739040Y-85536944D01*
X173834527Y-85371556D01*
X173893542Y-85189928D01*
X173913504Y-85000000D01*
X173893542Y-84810072D01*
X173834527Y-84628444D01*
X173739040Y-84463056D01*
X173611253Y-84321134D01*
X173456752Y-84208882D01*
X173282288Y-84131206D01*
X173282286Y-84131205D01*
X173095487Y-84091500D01*
X172904513Y-84091500D01*
X172717714Y-84131205D01*
X172543246Y-84208883D01*
X172388745Y-84321135D01*
X172384840Y-84325473D01*
X172325354Y-84362121D01*
X172292691Y-84366500D01*
X171440423Y-84366500D01*
X171373384Y-84346815D01*
X171329939Y-84298795D01*
X171297063Y-84234273D01*
X171222180Y-84131206D01*
X171161889Y-84048222D01*
X170999278Y-83885611D01*
X170813231Y-83750440D01*
X170717528Y-83701677D01*
X170608333Y-83646039D01*
X170389618Y-83574973D01*
X170162488Y-83539000D01*
X170162483Y-83539000D01*
X169837517Y-83539000D01*
X169837512Y-83539000D01*
X169610381Y-83574973D01*
X169391666Y-83646039D01*
X169186768Y-83750440D01*
X169000719Y-83885613D01*
X168838113Y-84048219D01*
X168702940Y-84234268D01*
X168598539Y-84439166D01*
X168527473Y-84657881D01*
X168491500Y-84885011D01*
X168491500Y-85114988D01*
X168527473Y-85342118D01*
X168598539Y-85560833D01*
X168702937Y-85765726D01*
X168702940Y-85765731D01*
X168838111Y-85951778D01*
X169000722Y-86114389D01*
X169044512Y-86146204D01*
X169076826Y-86169682D01*
X169119491Y-86225013D01*
X169125470Y-86294626D01*
X169092864Y-86356421D01*
X169076826Y-86370318D01*
X169000720Y-86425612D01*
X168838113Y-86588219D01*
X168702940Y-86774268D01*
X168598539Y-86979166D01*
X168527473Y-87197881D01*
X168491500Y-87425011D01*
X168491500Y-87654988D01*
X168527473Y-87882118D01*
X168598539Y-88100833D01*
X168638284Y-88178836D01*
X168702937Y-88305726D01*
X168702942Y-88305734D01*
X168829863Y-88480426D01*
X168853343Y-88546232D01*
X168837518Y-88614286D01*
X168787412Y-88662981D01*
X168772883Y-88669491D01*
X168753796Y-88676610D01*
X168636739Y-88764239D01*
X168549111Y-88881295D01*
X168498011Y-89018295D01*
X168498011Y-89018297D01*
X168491500Y-89078845D01*
X168491500Y-91081154D01*
X168498011Y-91141702D01*
X168498011Y-91141704D01*
X168549111Y-91278704D01*
X168636739Y-91395761D01*
X168753796Y-91483389D01*
X168890799Y-91534489D01*
X168918050Y-91537418D01*
X168951345Y-91540999D01*
X168951362Y-91541000D01*
X169242500Y-91541000D01*
X169309539Y-91560685D01*
X169355294Y-91613489D01*
X169366500Y-91665000D01*
X169366500Y-94242500D01*
X169346815Y-94309539D01*
X169294011Y-94355294D01*
X169242500Y-94366500D01*
X166649772Y-94366500D01*
X166582733Y-94346815D01*
X166536978Y-94294011D01*
X166526414Y-94255101D01*
X166522887Y-94220574D01*
X166467115Y-94052262D01*
X166374030Y-93901348D01*
X166248652Y-93775970D01*
X166129915Y-93702732D01*
X166097740Y-93682886D01*
X166097735Y-93682884D01*
X165929427Y-93627113D01*
X165825546Y-93616500D01*
X164974462Y-93616500D01*
X164974446Y-93616501D01*
X164870572Y-93627113D01*
X164702264Y-93682884D01*
X164702259Y-93682886D01*
X164551346Y-93775971D01*
X164425971Y-93901346D01*
X164332886Y-94052259D01*
X164332884Y-94052264D01*
X164277113Y-94220572D01*
X164266500Y-94324447D01*
X164266500Y-95471234D01*
X164246815Y-95538273D01*
X164194011Y-95584028D01*
X164124853Y-95593972D01*
X164061297Y-95564947D01*
X164054819Y-95558915D01*
X163769818Y-95273914D01*
X163736333Y-95212591D01*
X163733499Y-95186233D01*
X163733499Y-94324462D01*
X163733498Y-94324446D01*
X163726414Y-94255101D01*
X163722887Y-94220574D01*
X163667115Y-94052262D01*
X163574030Y-93901348D01*
X163448652Y-93775970D01*
X163329915Y-93702732D01*
X163297740Y-93682886D01*
X163297735Y-93682884D01*
X163129427Y-93627113D01*
X163025546Y-93616500D01*
X162174462Y-93616500D01*
X162174446Y-93616501D01*
X162070572Y-93627113D01*
X161902264Y-93682884D01*
X161902259Y-93682886D01*
X161751346Y-93775971D01*
X161625971Y-93901346D01*
X161532886Y-94052259D01*
X161532884Y-94052264D01*
X161477113Y-94220572D01*
X161466500Y-94324447D01*
X161466500Y-95675537D01*
X161466501Y-95675553D01*
X161477113Y-95779427D01*
X161488972Y-95815215D01*
X161532885Y-95947738D01*
X161625970Y-96098652D01*
X161751348Y-96224030D01*
X161902262Y-96317115D01*
X162070574Y-96372887D01*
X162174455Y-96383500D01*
X163025544Y-96383499D01*
X163025547Y-96383498D01*
X163028703Y-96383338D01*
X163028776Y-96384772D01*
X163091902Y-96396497D01*
X163123509Y-96419413D01*
X164196163Y-97492068D01*
X164196167Y-97492071D01*
X164299925Y-97561400D01*
X164299928Y-97561401D01*
X164300948Y-97561947D01*
X164301384Y-97562376D01*
X164304990Y-97564785D01*
X164304533Y-97565468D01*
X164350795Y-97610907D01*
X164366500Y-97671308D01*
X164366500Y-99280738D01*
X164346815Y-99347777D01*
X164294011Y-99393532D01*
X164255104Y-99404096D01*
X164225572Y-99407113D01*
X164057264Y-99462884D01*
X164057259Y-99462886D01*
X163906346Y-99555971D01*
X163780969Y-99681348D01*
X163685852Y-99835556D01*
X163633904Y-99882280D01*
X163564941Y-99893501D01*
X163500859Y-99865658D01*
X163492633Y-99858139D01*
X163358035Y-99723541D01*
X163358033Y-99723539D01*
X163182492Y-99596001D01*
X162989160Y-99497494D01*
X162782800Y-99430443D01*
X162782798Y-99430442D01*
X162782796Y-99430442D01*
X162568495Y-99396500D01*
X162568490Y-99396500D01*
X162351510Y-99396500D01*
X162351505Y-99396500D01*
X162137203Y-99430442D01*
X161930837Y-99497495D01*
X161737507Y-99596001D01*
X161637355Y-99668766D01*
X161561967Y-99723539D01*
X161561965Y-99723541D01*
X161561964Y-99723541D01*
X161408541Y-99876964D01*
X161408541Y-99876965D01*
X161408539Y-99876967D01*
X161353766Y-99952355D01*
X161281001Y-100052507D01*
X161182495Y-100245835D01*
X161171129Y-100280819D01*
X161131691Y-100338494D01*
X161067332Y-100365692D01*
X161053198Y-100366500D01*
X158776446Y-100366500D01*
X158709407Y-100346815D01*
X158670907Y-100307596D01*
X158670906Y-100307595D01*
X158664158Y-100296654D01*
X158540846Y-100173342D01*
X158540842Y-100173339D01*
X158392428Y-100081795D01*
X158392422Y-100081792D01*
X158392420Y-100081791D01*
X158389134Y-100080702D01*
X158226882Y-100026938D01*
X158124714Y-100016500D01*
X157525294Y-100016500D01*
X157525278Y-100016501D01*
X157423117Y-100026938D01*
X157257582Y-100081790D01*
X157257571Y-100081795D01*
X157109157Y-100173339D01*
X157000181Y-100282315D01*
X156938858Y-100315799D01*
X156869166Y-100310815D01*
X156824819Y-100282315D01*
X156788339Y-100245835D01*
X156715846Y-100173342D01*
X156715843Y-100173340D01*
X156715842Y-100173339D01*
X156567428Y-100081795D01*
X156567422Y-100081792D01*
X156567420Y-100081791D01*
X156564134Y-100080702D01*
X156401882Y-100026938D01*
X156299714Y-100016500D01*
X155700294Y-100016500D01*
X155700278Y-100016501D01*
X155598117Y-100026938D01*
X155432582Y-100081790D01*
X155432571Y-100081795D01*
X155284157Y-100173339D01*
X155284153Y-100173342D01*
X155160841Y-100296654D01*
X155155123Y-100305924D01*
X155154094Y-100307595D01*
X155154093Y-100307596D01*
X155102146Y-100354321D01*
X155048554Y-100366500D01*
X152919468Y-100366500D01*
X152852429Y-100346815D01*
X152813929Y-100307596D01*
X152804285Y-100291960D01*
X152683040Y-100170715D01*
X152683036Y-100170712D01*
X152537109Y-100080702D01*
X152537103Y-100080699D01*
X152537101Y-100080698D01*
X152374336Y-100026764D01*
X152273879Y-100016500D01*
X152273872Y-100016500D01*
X151726128Y-100016500D01*
X151726120Y-100016500D01*
X151625663Y-100026764D01*
X151462901Y-100080697D01*
X151462890Y-100080702D01*
X151316963Y-100170712D01*
X151316959Y-100170715D01*
X151312681Y-100174994D01*
X151251358Y-100208479D01*
X151181666Y-100203495D01*
X151137319Y-100174994D01*
X151133040Y-100170715D01*
X151133036Y-100170712D01*
X150987109Y-100080702D01*
X150987103Y-100080699D01*
X150987101Y-100080698D01*
X150824336Y-100026764D01*
X150723879Y-100016500D01*
X150723872Y-100016500D01*
X150176128Y-100016500D01*
X150176120Y-100016500D01*
X150075663Y-100026764D01*
X149912901Y-100080697D01*
X149912890Y-100080702D01*
X149766963Y-100170712D01*
X149766959Y-100170715D01*
X149645716Y-100291958D01*
X149645715Y-100291960D01*
X149636070Y-100307596D01*
X149584125Y-100354321D01*
X149530532Y-100366500D01*
X148707309Y-100366500D01*
X148640270Y-100346815D01*
X148615160Y-100325473D01*
X148611254Y-100321135D01*
X148592620Y-100307596D01*
X148456752Y-100208882D01*
X148282288Y-100131206D01*
X148282286Y-100131205D01*
X148095487Y-100091500D01*
X147904513Y-100091500D01*
X147717714Y-100131205D01*
X147662697Y-100155700D01*
X147555348Y-100203495D01*
X147543246Y-100208883D01*
X147388745Y-100321135D01*
X147384840Y-100325473D01*
X147325354Y-100362121D01*
X147292691Y-100366500D01*
X145183352Y-100366500D01*
X145116313Y-100346815D01*
X145081779Y-100313626D01*
X144971198Y-100155700D01*
X144809300Y-99993802D01*
X144809297Y-99993800D01*
X144651376Y-99883221D01*
X144607751Y-99828644D01*
X144598500Y-99781647D01*
X144598500Y-96235173D01*
X144607938Y-96187722D01*
X144609155Y-96184785D01*
X144633500Y-96062394D01*
X144633500Y-95937606D01*
X144609155Y-95815215D01*
X144561400Y-95699925D01*
X144561399Y-95699924D01*
X144561396Y-95699918D01*
X144492071Y-95596167D01*
X144492068Y-95596163D01*
X144403836Y-95507931D01*
X144403832Y-95507928D01*
X144300081Y-95438603D01*
X144300072Y-95438598D01*
X144184785Y-95390845D01*
X144184779Y-95390843D01*
X144130046Y-95379956D01*
X144068135Y-95347571D01*
X144048701Y-95323439D01*
X144029285Y-95291960D01*
X143908040Y-95170715D01*
X143908036Y-95170712D01*
X143762109Y-95080702D01*
X143762103Y-95080699D01*
X143762101Y-95080698D01*
X143718495Y-95066248D01*
X143661051Y-95026476D01*
X143634228Y-94961960D01*
X143633500Y-94948543D01*
X143633500Y-93928489D01*
X143653185Y-93861450D01*
X143680589Y-93831223D01*
X143683034Y-93829288D01*
X143683040Y-93829285D01*
X143804285Y-93708040D01*
X143894302Y-93562101D01*
X143948236Y-93399336D01*
X143958500Y-93298872D01*
X143958500Y-93104447D01*
X149541500Y-93104447D01*
X149541500Y-94895537D01*
X149541501Y-94895553D01*
X149552113Y-94999427D01*
X149593072Y-95123034D01*
X149607885Y-95167738D01*
X149700970Y-95318652D01*
X149826348Y-95444030D01*
X149977262Y-95537115D01*
X150145574Y-95592887D01*
X150249455Y-95603500D01*
X151590544Y-95603499D01*
X151694426Y-95592887D01*
X151862738Y-95537115D01*
X152013652Y-95444030D01*
X152139030Y-95318652D01*
X152232115Y-95167738D01*
X152232116Y-95167735D01*
X152235906Y-95161591D01*
X152237358Y-95162486D01*
X152277587Y-95116794D01*
X152344780Y-95097639D01*
X152411662Y-95117852D01*
X152431482Y-95133954D01*
X152567502Y-95269974D01*
X152741963Y-95396728D01*
X152934098Y-95494627D01*
X153139190Y-95561266D01*
X153210000Y-95572481D01*
X153210000Y-94542709D01*
X153230339Y-94554452D01*
X153381667Y-94595000D01*
X153538333Y-94595000D01*
X153689661Y-94554452D01*
X153710000Y-94542709D01*
X153710000Y-95572480D01*
X153780809Y-95561266D01*
X153985901Y-95494627D01*
X154178036Y-95396728D01*
X154352496Y-95269974D01*
X154352497Y-95269974D01*
X154504974Y-95117497D01*
X154504979Y-95117491D01*
X154624428Y-94953085D01*
X154679758Y-94910419D01*
X154749371Y-94904440D01*
X154811166Y-94937046D01*
X154825062Y-94953082D01*
X154948539Y-95123033D01*
X155101967Y-95276461D01*
X155277508Y-95403999D01*
X155470840Y-95502506D01*
X155677200Y-95569557D01*
X155757566Y-95582285D01*
X155891505Y-95603500D01*
X155891510Y-95603500D01*
X156108495Y-95603500D01*
X156231433Y-95584028D01*
X156322800Y-95569557D01*
X156529160Y-95502506D01*
X156722492Y-95403999D01*
X156898033Y-95276461D01*
X157051461Y-95123033D01*
X157178999Y-94947492D01*
X157277506Y-94754160D01*
X157344557Y-94547800D01*
X157376390Y-94346815D01*
X157378500Y-94333495D01*
X157378500Y-93666504D01*
X157344557Y-93452203D01*
X157344557Y-93452200D01*
X157277506Y-93245840D01*
X157178999Y-93052508D01*
X157051461Y-92876967D01*
X156898033Y-92723539D01*
X156722492Y-92596001D01*
X156529160Y-92497494D01*
X156322800Y-92430443D01*
X156322798Y-92430442D01*
X156322796Y-92430442D01*
X156108495Y-92396500D01*
X156108490Y-92396500D01*
X155891510Y-92396500D01*
X155891505Y-92396500D01*
X155677203Y-92430442D01*
X155470837Y-92497495D01*
X155277507Y-92596001D01*
X155177355Y-92668766D01*
X155101967Y-92723539D01*
X155101965Y-92723541D01*
X155101964Y-92723541D01*
X154948541Y-92876964D01*
X154948541Y-92876965D01*
X154948539Y-92876967D01*
X154932146Y-92899530D01*
X154825064Y-93046915D01*
X154769734Y-93089580D01*
X154700120Y-93095559D01*
X154638325Y-93062953D01*
X154624428Y-93046915D01*
X154504974Y-92882503D01*
X154504974Y-92882502D01*
X154352497Y-92730025D01*
X154178036Y-92603271D01*
X153985899Y-92505372D01*
X153780805Y-92438733D01*
X153710000Y-92427518D01*
X153710000Y-93457290D01*
X153689661Y-93445548D01*
X153538333Y-93405000D01*
X153381667Y-93405000D01*
X153230339Y-93445548D01*
X153210000Y-93457290D01*
X153210000Y-92427518D01*
X153209999Y-92427518D01*
X153139194Y-92438733D01*
X152934100Y-92505372D01*
X152741963Y-92603271D01*
X152567506Y-92730022D01*
X152431482Y-92866046D01*
X152370159Y-92899530D01*
X152300467Y-92894546D01*
X152244534Y-92852674D01*
X152235969Y-92838369D01*
X152235906Y-92838409D01*
X152232115Y-92832263D01*
X152232115Y-92832262D01*
X152139030Y-92681348D01*
X152013652Y-92555970D01*
X151862738Y-92462885D01*
X151862735Y-92462884D01*
X151694427Y-92407113D01*
X151590545Y-92396500D01*
X150249462Y-92396500D01*
X150249446Y-92396501D01*
X150145572Y-92407113D01*
X149977264Y-92462884D01*
X149977259Y-92462886D01*
X149826346Y-92555971D01*
X149700971Y-92681346D01*
X149607886Y-92832259D01*
X149607884Y-92832264D01*
X149552113Y-93000572D01*
X149541500Y-93104447D01*
X143958500Y-93104447D01*
X143958500Y-92701128D01*
X143948236Y-92600664D01*
X143894302Y-92437899D01*
X143894298Y-92437893D01*
X143894297Y-92437890D01*
X143804287Y-92291963D01*
X143804284Y-92291959D01*
X143683038Y-92170713D01*
X143680581Y-92168770D01*
X143679334Y-92167009D01*
X143677933Y-92165608D01*
X143678172Y-92165368D01*
X143640209Y-92111745D01*
X143633500Y-92071510D01*
X143633500Y-90928489D01*
X143653185Y-90861450D01*
X143680589Y-90831223D01*
X143683034Y-90829288D01*
X143683040Y-90829285D01*
X143804285Y-90708040D01*
X143894302Y-90562101D01*
X143948236Y-90399336D01*
X143958500Y-90298872D01*
X143958500Y-89701128D01*
X143948236Y-89600664D01*
X143894302Y-89437899D01*
X143894298Y-89437893D01*
X143894297Y-89437890D01*
X143804287Y-89291963D01*
X143804284Y-89291959D01*
X143683038Y-89170713D01*
X143680581Y-89168770D01*
X143679334Y-89167009D01*
X143677933Y-89165608D01*
X143678172Y-89165368D01*
X143640209Y-89111745D01*
X143633500Y-89071510D01*
X143633500Y-88313766D01*
X143653185Y-88246727D01*
X143669820Y-88226084D01*
X143717068Y-88178836D01*
X143717071Y-88178833D01*
X143786400Y-88075075D01*
X143834155Y-87959785D01*
X143842870Y-87915966D01*
X143875253Y-87854058D01*
X143899395Y-87834617D01*
X143908038Y-87829286D01*
X143908037Y-87829286D01*
X143908040Y-87829285D01*
X144029285Y-87708040D01*
X144119302Y-87562101D01*
X144173236Y-87399336D01*
X144183500Y-87298872D01*
X144183500Y-86701128D01*
X144173236Y-86600664D01*
X144119302Y-86437899D01*
X144119298Y-86437893D01*
X144119297Y-86437890D01*
X144029287Y-86291963D01*
X144029284Y-86291959D01*
X143908038Y-86170713D01*
X143905581Y-86168770D01*
X143904334Y-86167009D01*
X143902933Y-86165608D01*
X143903172Y-86165368D01*
X143865209Y-86111745D01*
X143858500Y-86071510D01*
X143858500Y-85947844D01*
X153250000Y-85947844D01*
X153256401Y-86007372D01*
X153256403Y-86007379D01*
X153306645Y-86142086D01*
X153306649Y-86142093D01*
X153392809Y-86257187D01*
X153392812Y-86257190D01*
X153507906Y-86343350D01*
X153507913Y-86343354D01*
X153642620Y-86393596D01*
X153642627Y-86393598D01*
X153702155Y-86399999D01*
X153702172Y-86400000D01*
X154750000Y-86400000D01*
X155250000Y-86400000D01*
X156297828Y-86400000D01*
X156297844Y-86399999D01*
X156357372Y-86393598D01*
X156357379Y-86393596D01*
X156492086Y-86343354D01*
X156492093Y-86343350D01*
X156607187Y-86257190D01*
X156607190Y-86257187D01*
X156693350Y-86142093D01*
X156693354Y-86142086D01*
X156743596Y-86007379D01*
X156743598Y-86007372D01*
X156749999Y-85947844D01*
X156750000Y-85947827D01*
X156750000Y-85250000D01*
X155250000Y-85250000D01*
X155250000Y-86400000D01*
X154750000Y-86400000D01*
X154750000Y-85250000D01*
X153250000Y-85250000D01*
X153250000Y-85947844D01*
X143858500Y-85947844D01*
X143858500Y-84928489D01*
X143878185Y-84861450D01*
X143905589Y-84831223D01*
X143908034Y-84829288D01*
X143908040Y-84829285D01*
X144029285Y-84708040D01*
X144119302Y-84562101D01*
X144173236Y-84399336D01*
X144183500Y-84298872D01*
X144183500Y-84052155D01*
X153250000Y-84052155D01*
X153250000Y-84750000D01*
X154750000Y-84750000D01*
X155250000Y-84750000D01*
X156750000Y-84750000D01*
X156750000Y-84052172D01*
X156749999Y-84052155D01*
X156743598Y-83992627D01*
X156743596Y-83992620D01*
X156693354Y-83857913D01*
X156693350Y-83857906D01*
X156607190Y-83742812D01*
X156607187Y-83742809D01*
X156492093Y-83656649D01*
X156492086Y-83656645D01*
X156357379Y-83606403D01*
X156357372Y-83606401D01*
X156297844Y-83600000D01*
X155250000Y-83600000D01*
X155250000Y-84750000D01*
X154750000Y-84750000D01*
X154750000Y-83600000D01*
X153702155Y-83600000D01*
X153642627Y-83606401D01*
X153642620Y-83606403D01*
X153507913Y-83656645D01*
X153507906Y-83656649D01*
X153392812Y-83742809D01*
X153392809Y-83742812D01*
X153306649Y-83857906D01*
X153306645Y-83857913D01*
X153256403Y-83992620D01*
X153256401Y-83992627D01*
X153250000Y-84052155D01*
X144183500Y-84052155D01*
X144183500Y-83701128D01*
X144173236Y-83600664D01*
X144119302Y-83437899D01*
X144119298Y-83437893D01*
X144119297Y-83437890D01*
X144029287Y-83291963D01*
X144029284Y-83291959D01*
X143908038Y-83170713D01*
X143905581Y-83168770D01*
X143904334Y-83167009D01*
X143902933Y-83165608D01*
X143903172Y-83165368D01*
X143865209Y-83111745D01*
X143858500Y-83071510D01*
X143858500Y-81928489D01*
X143878185Y-81861450D01*
X143905589Y-81831223D01*
X143908034Y-81829288D01*
X143908040Y-81829285D01*
X144029285Y-81708040D01*
X144119302Y-81562101D01*
X144173236Y-81399336D01*
X144183500Y-81298872D01*
X144183500Y-80701128D01*
X144173236Y-80600664D01*
X144119302Y-80437899D01*
X144119298Y-80437893D01*
X144119297Y-80437890D01*
X144029287Y-80291963D01*
X144029284Y-80291959D01*
X143908038Y-80170713D01*
X143905581Y-80168770D01*
X143904334Y-80167009D01*
X143902933Y-80165608D01*
X143903172Y-80165368D01*
X143865209Y-80111745D01*
X143858500Y-80071510D01*
X143858500Y-78928489D01*
X143878185Y-78861450D01*
X143905589Y-78831223D01*
X143908034Y-78829288D01*
X143908040Y-78829285D01*
X144029285Y-78708040D01*
X144119302Y-78562101D01*
X144173236Y-78399336D01*
X144183500Y-78298872D01*
X144183500Y-77701128D01*
X144173236Y-77600664D01*
X144119302Y-77437899D01*
X144119298Y-77437893D01*
X144119297Y-77437890D01*
X144029287Y-77291963D01*
X144029284Y-77291959D01*
X143908040Y-77170715D01*
X143908036Y-77170712D01*
X143762109Y-77080702D01*
X143762103Y-77080699D01*
X143762101Y-77080698D01*
X143599336Y-77026764D01*
X143498879Y-77016500D01*
X143498872Y-77016500D01*
X142951128Y-77016500D01*
X142951120Y-77016500D01*
X142850663Y-77026764D01*
X142687901Y-77080697D01*
X142687890Y-77080702D01*
X142541963Y-77170712D01*
X142541959Y-77170715D01*
X142531671Y-77181004D01*
X142470348Y-77214489D01*
X142400656Y-77209505D01*
X142356309Y-77181004D01*
X142352732Y-77177427D01*
X142352728Y-77177424D01*
X142208492Y-77088457D01*
X142208481Y-77088452D01*
X142047606Y-77035144D01*
X141948322Y-77025000D01*
X141925000Y-77025000D01*
X141925000Y-78974999D01*
X141948308Y-78974999D01*
X141948322Y-78974998D01*
X142047607Y-78964855D01*
X142208481Y-78911547D01*
X142208492Y-78911542D01*
X142352728Y-78822575D01*
X142352732Y-78822572D01*
X142356309Y-78818996D01*
X142417632Y-78785511D01*
X142487324Y-78790495D01*
X142531671Y-78818996D01*
X142541959Y-78829284D01*
X142544411Y-78831223D01*
X142545655Y-78832980D01*
X142547067Y-78834392D01*
X142546825Y-78834633D01*
X142584788Y-78888245D01*
X142591500Y-78928489D01*
X142591500Y-80071510D01*
X142571815Y-80138549D01*
X142544419Y-80168770D01*
X142541961Y-80170713D01*
X142531671Y-80181004D01*
X142470348Y-80214489D01*
X142400656Y-80209505D01*
X142356309Y-80181004D01*
X142352732Y-80177427D01*
X142352728Y-80177424D01*
X142208492Y-80088457D01*
X142208481Y-80088452D01*
X142047606Y-80035144D01*
X141948322Y-80025000D01*
X141925000Y-80025000D01*
X141925000Y-81974999D01*
X141948308Y-81974999D01*
X141948322Y-81974998D01*
X142047607Y-81964855D01*
X142208481Y-81911547D01*
X142208492Y-81911542D01*
X142352728Y-81822575D01*
X142352732Y-81822572D01*
X142356309Y-81818996D01*
X142417632Y-81785511D01*
X142487324Y-81790495D01*
X142531671Y-81818996D01*
X142541959Y-81829284D01*
X142544411Y-81831223D01*
X142545655Y-81832980D01*
X142547067Y-81834392D01*
X142546825Y-81834633D01*
X142584788Y-81888245D01*
X142591500Y-81928489D01*
X142591500Y-83071510D01*
X142571815Y-83138549D01*
X142544419Y-83168770D01*
X142541961Y-83170713D01*
X142531671Y-83181004D01*
X142470348Y-83214489D01*
X142400656Y-83209505D01*
X142356309Y-83181004D01*
X142352732Y-83177427D01*
X142352728Y-83177424D01*
X142208492Y-83088457D01*
X142208481Y-83088452D01*
X142047606Y-83035144D01*
X141948322Y-83025000D01*
X141925000Y-83025000D01*
X141925000Y-84974999D01*
X141948308Y-84974999D01*
X141948322Y-84974998D01*
X142047607Y-84964855D01*
X142208481Y-84911547D01*
X142208492Y-84911542D01*
X142352728Y-84822575D01*
X142352732Y-84822572D01*
X142356309Y-84818996D01*
X142417632Y-84785511D01*
X142487324Y-84790495D01*
X142531671Y-84818996D01*
X142541959Y-84829284D01*
X142544411Y-84831223D01*
X142545655Y-84832980D01*
X142547067Y-84834392D01*
X142546825Y-84834633D01*
X142584788Y-84888245D01*
X142591500Y-84928489D01*
X142591500Y-86071510D01*
X142571815Y-86138549D01*
X142544419Y-86168770D01*
X142541961Y-86170713D01*
X142531671Y-86181004D01*
X142470348Y-86214489D01*
X142400656Y-86209505D01*
X142356309Y-86181004D01*
X142352732Y-86177427D01*
X142352728Y-86177424D01*
X142208492Y-86088457D01*
X142208481Y-86088452D01*
X142047606Y-86035144D01*
X141948322Y-86025000D01*
X141925000Y-86025000D01*
X141925000Y-87974999D01*
X141948308Y-87974999D01*
X141948322Y-87974998D01*
X142047607Y-87964855D01*
X142203496Y-87913199D01*
X142273324Y-87910797D01*
X142333366Y-87946529D01*
X142364559Y-88009049D01*
X142366500Y-88030905D01*
X142366500Y-89071510D01*
X142346815Y-89138549D01*
X142319419Y-89168770D01*
X142316961Y-89170713D01*
X142306671Y-89181004D01*
X142245348Y-89214489D01*
X142175656Y-89209505D01*
X142131309Y-89181004D01*
X142127732Y-89177427D01*
X142127728Y-89177424D01*
X141983492Y-89088457D01*
X141983481Y-89088452D01*
X141822606Y-89035144D01*
X141723322Y-89025000D01*
X141700000Y-89025000D01*
X141700000Y-90974999D01*
X141723308Y-90974999D01*
X141723322Y-90974998D01*
X141822607Y-90964855D01*
X141983481Y-90911547D01*
X141983492Y-90911542D01*
X142127728Y-90822575D01*
X142127732Y-90822572D01*
X142131309Y-90818996D01*
X142192632Y-90785511D01*
X142262324Y-90790495D01*
X142306671Y-90818996D01*
X142316959Y-90829284D01*
X142319411Y-90831223D01*
X142320655Y-90832980D01*
X142322067Y-90834392D01*
X142321825Y-90834633D01*
X142359788Y-90888245D01*
X142366500Y-90928489D01*
X142366500Y-92071510D01*
X142346815Y-92138549D01*
X142319419Y-92168770D01*
X142316961Y-92170713D01*
X142306671Y-92181004D01*
X142245348Y-92214489D01*
X142175656Y-92209505D01*
X142131309Y-92181004D01*
X142127732Y-92177427D01*
X142127728Y-92177424D01*
X141983492Y-92088457D01*
X141983481Y-92088452D01*
X141822606Y-92035144D01*
X141723322Y-92025000D01*
X141700000Y-92025000D01*
X141700000Y-93974999D01*
X141723308Y-93974999D01*
X141723322Y-93974998D01*
X141822607Y-93964855D01*
X141983481Y-93911547D01*
X141983492Y-93911542D01*
X142127728Y-93822575D01*
X142127732Y-93822572D01*
X142131309Y-93818996D01*
X142192632Y-93785511D01*
X142262324Y-93790495D01*
X142306671Y-93818996D01*
X142316959Y-93829284D01*
X142319411Y-93831223D01*
X142320655Y-93832980D01*
X142322067Y-93834392D01*
X142321825Y-93834633D01*
X142359788Y-93888245D01*
X142366500Y-93928489D01*
X142366500Y-94969094D01*
X142346815Y-95036133D01*
X142294011Y-95081888D01*
X142224853Y-95091832D01*
X142203496Y-95086800D01*
X142047607Y-95035144D01*
X141948322Y-95025000D01*
X141925000Y-95025000D01*
X141925000Y-96974999D01*
X141948308Y-96974999D01*
X141948322Y-96974998D01*
X142047607Y-96964855D01*
X142208481Y-96911547D01*
X142208492Y-96911542D01*
X142352728Y-96822575D01*
X142352732Y-96822572D01*
X142356309Y-96818996D01*
X142417632Y-96785511D01*
X142487324Y-96790495D01*
X142531671Y-96818996D01*
X142541959Y-96829284D01*
X142541963Y-96829287D01*
X142687890Y-96919297D01*
X142687893Y-96919298D01*
X142687899Y-96919302D01*
X142850664Y-96973236D01*
X142951128Y-96983500D01*
X143207500Y-96983500D01*
X143274539Y-97003185D01*
X143320294Y-97055989D01*
X143331500Y-97107500D01*
X143331500Y-99781647D01*
X143311815Y-99848686D01*
X143278624Y-99883221D01*
X143120702Y-99993800D01*
X142966144Y-100148358D01*
X142904821Y-100181842D01*
X142835129Y-100176858D01*
X142779196Y-100134986D01*
X142762572Y-100099420D01*
X142761309Y-100099892D01*
X142708354Y-99957913D01*
X142708350Y-99957906D01*
X142622190Y-99842812D01*
X142622187Y-99842809D01*
X142507093Y-99756649D01*
X142507086Y-99756645D01*
X142372379Y-99706403D01*
X142372372Y-99706401D01*
X142312844Y-99700000D01*
X141715000Y-99700000D01*
X141715000Y-100684314D01*
X141710606Y-100679920D01*
X141619394Y-100627259D01*
X141517661Y-100600000D01*
X141412339Y-100600000D01*
X141310606Y-100627259D01*
X141219394Y-100679920D01*
X141215000Y-100684314D01*
X141215000Y-99700000D01*
X140617155Y-99700000D01*
X140557627Y-99706401D01*
X140557620Y-99706403D01*
X140422913Y-99756645D01*
X140422906Y-99756649D01*
X140307812Y-99842809D01*
X140307809Y-99842812D01*
X140221649Y-99957906D01*
X140221645Y-99957913D01*
X140171403Y-100092620D01*
X140171401Y-100092627D01*
X140165000Y-100152155D01*
X136000000Y-100152155D01*
X136000000Y-96298322D01*
X140725001Y-96298322D01*
X140735144Y-96397607D01*
X140788452Y-96558481D01*
X140788457Y-96558492D01*
X140877424Y-96702728D01*
X140877427Y-96702732D01*
X140997267Y-96822572D01*
X140997271Y-96822575D01*
X141141507Y-96911542D01*
X141141518Y-96911547D01*
X141302393Y-96964855D01*
X141401683Y-96974999D01*
X141425000Y-96974998D01*
X141425000Y-96250000D01*
X140725001Y-96250000D01*
X140725001Y-96298322D01*
X136000000Y-96298322D01*
X136000000Y-95701677D01*
X140725000Y-95701677D01*
X140725000Y-95750000D01*
X141425000Y-95750000D01*
X141425000Y-95024999D01*
X141401693Y-95025000D01*
X141401674Y-95025001D01*
X141302392Y-95035144D01*
X141141518Y-95088452D01*
X141141507Y-95088457D01*
X140997271Y-95177424D01*
X140997267Y-95177427D01*
X140877427Y-95297267D01*
X140877424Y-95297271D01*
X140788457Y-95441507D01*
X140788452Y-95441518D01*
X140735144Y-95602393D01*
X140725000Y-95701677D01*
X136000000Y-95701677D01*
X136000000Y-93298322D01*
X140500001Y-93298322D01*
X140510144Y-93397607D01*
X140563452Y-93558481D01*
X140563457Y-93558492D01*
X140652424Y-93702728D01*
X140652427Y-93702732D01*
X140772267Y-93822572D01*
X140772271Y-93822575D01*
X140916507Y-93911542D01*
X140916518Y-93911547D01*
X141077393Y-93964855D01*
X141176683Y-93974999D01*
X141200000Y-93974998D01*
X141200000Y-93250000D01*
X140500001Y-93250000D01*
X140500001Y-93298322D01*
X136000000Y-93298322D01*
X136000000Y-92701677D01*
X140500000Y-92701677D01*
X140500000Y-92750000D01*
X141200000Y-92750000D01*
X141200000Y-92024999D01*
X141176693Y-92025000D01*
X141176674Y-92025001D01*
X141077392Y-92035144D01*
X140916518Y-92088452D01*
X140916507Y-92088457D01*
X140772271Y-92177424D01*
X140772267Y-92177427D01*
X140652427Y-92297267D01*
X140652424Y-92297271D01*
X140563457Y-92441507D01*
X140563452Y-92441518D01*
X140510144Y-92602393D01*
X140500000Y-92701677D01*
X136000000Y-92701677D01*
X136000000Y-90298322D01*
X140500001Y-90298322D01*
X140510144Y-90397607D01*
X140563452Y-90558481D01*
X140563457Y-90558492D01*
X140652424Y-90702728D01*
X140652427Y-90702732D01*
X140772267Y-90822572D01*
X140772271Y-90822575D01*
X140916507Y-90911542D01*
X140916518Y-90911547D01*
X141077393Y-90964855D01*
X141176683Y-90974999D01*
X141200000Y-90974998D01*
X141200000Y-90250000D01*
X140500001Y-90250000D01*
X140500001Y-90298322D01*
X136000000Y-90298322D01*
X136000000Y-89701677D01*
X140500000Y-89701677D01*
X140500000Y-89750000D01*
X141200000Y-89750000D01*
X141200000Y-89024999D01*
X141176693Y-89025000D01*
X141176674Y-89025001D01*
X141077392Y-89035144D01*
X140916518Y-89088452D01*
X140916507Y-89088457D01*
X140772271Y-89177424D01*
X140772267Y-89177427D01*
X140652427Y-89297267D01*
X140652424Y-89297271D01*
X140563457Y-89441507D01*
X140563452Y-89441518D01*
X140510144Y-89602393D01*
X140500000Y-89701677D01*
X136000000Y-89701677D01*
X136000000Y-87298322D01*
X140725001Y-87298322D01*
X140735144Y-87397607D01*
X140788452Y-87558481D01*
X140788457Y-87558492D01*
X140877424Y-87702728D01*
X140877427Y-87702732D01*
X140997267Y-87822572D01*
X140997271Y-87822575D01*
X141141507Y-87911542D01*
X141141518Y-87911547D01*
X141302393Y-87964855D01*
X141401683Y-87974999D01*
X141425000Y-87974998D01*
X141425000Y-87250000D01*
X140725001Y-87250000D01*
X140725001Y-87298322D01*
X136000000Y-87298322D01*
X136000000Y-86701677D01*
X140725000Y-86701677D01*
X140725000Y-86750000D01*
X141425000Y-86750000D01*
X141425000Y-86024999D01*
X141401693Y-86025000D01*
X141401674Y-86025001D01*
X141302392Y-86035144D01*
X141141518Y-86088452D01*
X141141507Y-86088457D01*
X140997271Y-86177424D01*
X140997267Y-86177427D01*
X140877427Y-86297267D01*
X140877424Y-86297271D01*
X140788457Y-86441507D01*
X140788452Y-86441518D01*
X140735144Y-86602393D01*
X140725000Y-86701677D01*
X136000000Y-86701677D01*
X136000000Y-84298322D01*
X140725001Y-84298322D01*
X140735144Y-84397607D01*
X140788452Y-84558481D01*
X140788457Y-84558492D01*
X140877424Y-84702728D01*
X140877427Y-84702732D01*
X140997267Y-84822572D01*
X140997271Y-84822575D01*
X141141507Y-84911542D01*
X141141518Y-84911547D01*
X141302393Y-84964855D01*
X141401683Y-84974999D01*
X141425000Y-84974998D01*
X141425000Y-84250000D01*
X140725001Y-84250000D01*
X140725001Y-84298322D01*
X136000000Y-84298322D01*
X136000000Y-83701677D01*
X140725000Y-83701677D01*
X140725000Y-83750000D01*
X141425000Y-83750000D01*
X141425000Y-83024999D01*
X141401693Y-83025000D01*
X141401674Y-83025001D01*
X141302392Y-83035144D01*
X141141518Y-83088452D01*
X141141507Y-83088457D01*
X140997271Y-83177424D01*
X140997267Y-83177427D01*
X140877427Y-83297267D01*
X140877424Y-83297271D01*
X140788457Y-83441507D01*
X140788452Y-83441518D01*
X140735144Y-83602393D01*
X140725000Y-83701677D01*
X136000000Y-83701677D01*
X136000000Y-81298322D01*
X140725001Y-81298322D01*
X140735144Y-81397607D01*
X140788452Y-81558481D01*
X140788457Y-81558492D01*
X140877424Y-81702728D01*
X140877427Y-81702732D01*
X140997267Y-81822572D01*
X140997271Y-81822575D01*
X141141507Y-81911542D01*
X141141518Y-81911547D01*
X141302393Y-81964855D01*
X141401683Y-81974999D01*
X141425000Y-81974998D01*
X141425000Y-81250000D01*
X140725001Y-81250000D01*
X140725001Y-81298322D01*
X136000000Y-81298322D01*
X136000000Y-80701677D01*
X140725000Y-80701677D01*
X140725000Y-80750000D01*
X141425000Y-80750000D01*
X141425000Y-80024999D01*
X141401693Y-80025000D01*
X141401674Y-80025001D01*
X141302392Y-80035144D01*
X141141518Y-80088452D01*
X141141507Y-80088457D01*
X140997271Y-80177424D01*
X140997267Y-80177427D01*
X140877427Y-80297267D01*
X140877424Y-80297271D01*
X140788457Y-80441507D01*
X140788452Y-80441518D01*
X140735144Y-80602393D01*
X140725000Y-80701677D01*
X136000000Y-80701677D01*
X136000000Y-78298322D01*
X140725001Y-78298322D01*
X140735144Y-78397607D01*
X140788452Y-78558481D01*
X140788457Y-78558492D01*
X140877424Y-78702728D01*
X140877427Y-78702732D01*
X140997267Y-78822572D01*
X140997271Y-78822575D01*
X141141507Y-78911542D01*
X141141518Y-78911547D01*
X141302393Y-78964855D01*
X141401683Y-78974999D01*
X141425000Y-78974998D01*
X141425000Y-78250000D01*
X140725001Y-78250000D01*
X140725001Y-78298322D01*
X136000000Y-78298322D01*
X136000000Y-77701677D01*
X140725000Y-77701677D01*
X140725000Y-77750000D01*
X141425000Y-77750000D01*
X141425000Y-77024999D01*
X141401693Y-77025000D01*
X141401674Y-77025001D01*
X141302392Y-77035144D01*
X141141518Y-77088452D01*
X141141507Y-77088457D01*
X140997271Y-77177424D01*
X140997267Y-77177427D01*
X140877427Y-77297267D01*
X140877424Y-77297271D01*
X140788457Y-77441507D01*
X140788452Y-77441518D01*
X140735144Y-77602393D01*
X140725000Y-77701677D01*
X136000000Y-77701677D01*
X136000000Y-75105013D01*
X149090000Y-75105013D01*
X149090000Y-75750000D01*
X149917291Y-75750000D01*
X149905548Y-75770339D01*
X149865000Y-75921667D01*
X149865000Y-76078333D01*
X149905548Y-76229661D01*
X149917291Y-76250000D01*
X149090001Y-76250000D01*
X149090001Y-76894986D01*
X149100494Y-76997697D01*
X149155641Y-77164119D01*
X149155643Y-77164124D01*
X149247684Y-77313345D01*
X149371654Y-77437315D01*
X149520875Y-77529356D01*
X149520880Y-77529358D01*
X149687302Y-77584505D01*
X149687309Y-77584506D01*
X149790019Y-77594999D01*
X150209999Y-77594999D01*
X150210000Y-77594998D01*
X150210000Y-76542709D01*
X150230339Y-76554452D01*
X150381667Y-76595000D01*
X150538333Y-76595000D01*
X150689661Y-76554452D01*
X150710000Y-76542709D01*
X150710000Y-77594999D01*
X151129972Y-77594999D01*
X151129986Y-77594998D01*
X151232697Y-77584505D01*
X151399119Y-77529358D01*
X151399124Y-77529356D01*
X151548345Y-77437315D01*
X151672317Y-77313343D01*
X151767968Y-77158267D01*
X151819916Y-77111542D01*
X151888878Y-77100319D01*
X151952960Y-77128162D01*
X151961188Y-77135682D01*
X152101967Y-77276461D01*
X152277508Y-77403999D01*
X152470840Y-77502506D01*
X152677200Y-77569557D01*
X152757566Y-77582285D01*
X152891505Y-77603500D01*
X152891510Y-77603500D01*
X153108495Y-77603500D01*
X153228421Y-77584505D01*
X153322800Y-77569557D01*
X153529160Y-77502506D01*
X153722492Y-77403999D01*
X153898033Y-77276461D01*
X154051461Y-77123033D01*
X154178999Y-76947492D01*
X154277506Y-76754160D01*
X154288871Y-76719179D01*
X154328309Y-76661506D01*
X154392668Y-76634308D01*
X154406802Y-76633500D01*
X157957501Y-76633500D01*
X158024540Y-76653185D01*
X158070295Y-76705989D01*
X158081501Y-76757500D01*
X158081501Y-76895553D01*
X158092113Y-76999427D01*
X158147884Y-77167735D01*
X158147886Y-77167740D01*
X158173647Y-77209505D01*
X158240970Y-77318652D01*
X158366348Y-77444030D01*
X158517262Y-77537115D01*
X158685574Y-77592887D01*
X158789455Y-77603500D01*
X160130544Y-77603499D01*
X160234426Y-77592887D01*
X160402738Y-77537115D01*
X160553652Y-77444030D01*
X160679030Y-77318652D01*
X160772115Y-77167738D01*
X160772115Y-77167735D01*
X160774146Y-77164444D01*
X160826094Y-77117720D01*
X160895057Y-77106497D01*
X160959139Y-77134341D01*
X160967366Y-77141860D01*
X161101967Y-77276461D01*
X161277508Y-77403999D01*
X161298795Y-77414845D01*
X161349590Y-77462817D01*
X161366500Y-77525329D01*
X161366500Y-82686233D01*
X161346815Y-82753272D01*
X161330181Y-82773914D01*
X160522531Y-83581563D01*
X160461208Y-83615048D01*
X160391516Y-83610064D01*
X160391516Y-83610063D01*
X160359207Y-83598012D01*
X160359202Y-83598011D01*
X160298654Y-83591500D01*
X160298638Y-83591500D01*
X157701362Y-83591500D01*
X157701345Y-83591500D01*
X157640797Y-83598011D01*
X157640795Y-83598011D01*
X157503795Y-83649111D01*
X157386739Y-83736739D01*
X157299111Y-83853795D01*
X157248011Y-83990795D01*
X157248011Y-83990797D01*
X157241500Y-84051345D01*
X157241500Y-85948654D01*
X157248011Y-86009202D01*
X157248011Y-86009204D01*
X157287244Y-86114389D01*
X157299111Y-86146204D01*
X157386739Y-86263261D01*
X157503796Y-86350889D01*
X157618297Y-86393596D01*
X157635463Y-86399999D01*
X157640799Y-86401989D01*
X157668050Y-86404918D01*
X157701345Y-86408499D01*
X157701362Y-86408500D01*
X160298638Y-86408500D01*
X160298654Y-86408499D01*
X160325692Y-86405591D01*
X160359201Y-86401989D01*
X160364537Y-86399999D01*
X160381703Y-86393596D01*
X160496204Y-86350889D01*
X160613261Y-86263261D01*
X160700889Y-86146204D01*
X160751989Y-86009201D01*
X160755591Y-85975692D01*
X160758499Y-85948654D01*
X160758500Y-85948637D01*
X160758500Y-85188766D01*
X160778185Y-85121727D01*
X160794819Y-85101085D01*
X162492068Y-83403836D01*
X162492071Y-83403833D01*
X162561400Y-83300075D01*
X162609155Y-83184785D01*
X162633500Y-83062394D01*
X162633500Y-82937606D01*
X162633500Y-77525329D01*
X162653185Y-77458290D01*
X162701204Y-77414845D01*
X162722492Y-77403999D01*
X162898033Y-77276461D01*
X163051461Y-77123033D01*
X163178999Y-76947492D01*
X163277506Y-76754160D01*
X163288871Y-76719179D01*
X163328309Y-76661506D01*
X163392668Y-76634308D01*
X163406802Y-76633500D01*
X164886234Y-76633500D01*
X164953273Y-76653185D01*
X164973915Y-76669819D01*
X166030181Y-77726085D01*
X166063666Y-77787408D01*
X166066500Y-77813766D01*
X166066500Y-78675537D01*
X166066501Y-78675553D01*
X166077113Y-78779427D01*
X166113171Y-78888245D01*
X166132885Y-78947738D01*
X166225970Y-79098652D01*
X166351348Y-79224030D01*
X166502262Y-79317115D01*
X166670574Y-79372887D01*
X166774455Y-79383500D01*
X167625544Y-79383499D01*
X167729426Y-79372887D01*
X167897738Y-79317115D01*
X168048652Y-79224030D01*
X168174030Y-79098652D01*
X168267115Y-78947738D01*
X168322887Y-78779426D01*
X168333500Y-78675545D01*
X168333499Y-77324456D01*
X168322887Y-77220574D01*
X168267115Y-77052262D01*
X168174030Y-76901348D01*
X168048652Y-76775970D01*
X167897738Y-76682885D01*
X167858307Y-76669819D01*
X167729427Y-76627113D01*
X167625546Y-76616500D01*
X166774462Y-76616500D01*
X166771300Y-76616662D01*
X166771227Y-76615235D01*
X166708071Y-76603489D01*
X166676491Y-76580587D01*
X165603836Y-75507931D01*
X165603832Y-75507928D01*
X165500081Y-75438603D01*
X165500072Y-75438598D01*
X165384785Y-75390845D01*
X165384777Y-75390843D01*
X165262398Y-75366500D01*
X165262394Y-75366500D01*
X163406802Y-75366500D01*
X163339763Y-75346815D01*
X163294008Y-75294011D01*
X163288871Y-75280819D01*
X163277504Y-75245835D01*
X163178998Y-75052507D01*
X163142522Y-75002302D01*
X163051461Y-74876967D01*
X162898033Y-74723539D01*
X162722492Y-74596001D01*
X162529160Y-74497494D01*
X162322800Y-74430443D01*
X162322798Y-74430442D01*
X162322796Y-74430442D01*
X162108495Y-74396500D01*
X162108490Y-74396500D01*
X161891510Y-74396500D01*
X161891505Y-74396500D01*
X161677203Y-74430442D01*
X161470837Y-74497495D01*
X161277507Y-74596001D01*
X161101968Y-74723538D01*
X160967366Y-74858140D01*
X160906043Y-74891624D01*
X160836351Y-74886640D01*
X160780418Y-74844768D01*
X160774147Y-74835555D01*
X160679032Y-74681351D01*
X160679029Y-74681347D01*
X160553653Y-74555971D01*
X160553652Y-74555970D01*
X160415316Y-74470643D01*
X160402740Y-74462886D01*
X160402735Y-74462884D01*
X160234427Y-74407113D01*
X160130545Y-74396500D01*
X158789462Y-74396500D01*
X158789446Y-74396501D01*
X158685572Y-74407113D01*
X158517264Y-74462884D01*
X158517259Y-74462886D01*
X158366346Y-74555971D01*
X158240971Y-74681346D01*
X158147886Y-74832259D01*
X158147884Y-74832264D01*
X158092113Y-75000572D01*
X158081500Y-75104447D01*
X158081500Y-75242500D01*
X158061815Y-75309539D01*
X158009011Y-75355294D01*
X157957500Y-75366500D01*
X154406802Y-75366500D01*
X154339763Y-75346815D01*
X154294008Y-75294011D01*
X154288871Y-75280819D01*
X154277504Y-75245835D01*
X154178998Y-75052507D01*
X154142522Y-75002302D01*
X154051461Y-74876967D01*
X153898033Y-74723539D01*
X153722492Y-74596001D01*
X153529160Y-74497494D01*
X153322800Y-74430443D01*
X153322798Y-74430442D01*
X153322796Y-74430442D01*
X153108495Y-74396500D01*
X153108490Y-74396500D01*
X152891510Y-74396500D01*
X152891505Y-74396500D01*
X152677203Y-74430442D01*
X152470837Y-74497495D01*
X152277507Y-74596001D01*
X152101968Y-74723538D01*
X151961188Y-74864318D01*
X151899865Y-74897802D01*
X151830173Y-74892818D01*
X151774240Y-74850946D01*
X151767968Y-74841732D01*
X151672317Y-74686656D01*
X151548345Y-74562684D01*
X151399124Y-74470643D01*
X151399119Y-74470641D01*
X151232697Y-74415494D01*
X151232690Y-74415493D01*
X151129986Y-74405000D01*
X150710000Y-74405000D01*
X150710000Y-75457290D01*
X150689661Y-75445548D01*
X150538333Y-75405000D01*
X150381667Y-75405000D01*
X150230339Y-75445548D01*
X150210000Y-75457290D01*
X150210000Y-74405000D01*
X149790028Y-74405000D01*
X149790012Y-74405001D01*
X149687302Y-74415494D01*
X149520880Y-74470641D01*
X149520875Y-74470643D01*
X149371654Y-74562684D01*
X149247684Y-74686654D01*
X149155643Y-74835875D01*
X149155641Y-74835880D01*
X149100494Y-75002302D01*
X149100493Y-75002309D01*
X149090000Y-75105013D01*
X136000000Y-75105013D01*
X136000000Y-70000787D01*
X136000009Y-69999267D01*
X136000039Y-69996784D01*
X136001487Y-69878711D01*
X138149500Y-69878711D01*
X138149500Y-70121288D01*
X138181161Y-70361785D01*
X138243947Y-70596104D01*
X138336773Y-70820205D01*
X138336776Y-70820212D01*
X138458064Y-71030289D01*
X138458066Y-71030292D01*
X138458067Y-71030293D01*
X138605733Y-71222736D01*
X138605739Y-71222743D01*
X138777256Y-71394260D01*
X138777262Y-71394265D01*
X138969711Y-71541936D01*
X139179788Y-71663224D01*
X139403900Y-71756054D01*
X139638211Y-71818838D01*
X139818586Y-71842584D01*
X139878711Y-71850500D01*
X139878712Y-71850500D01*
X140121289Y-71850500D01*
X140169388Y-71844167D01*
X140361789Y-71818838D01*
X140596100Y-71756054D01*
X140820212Y-71663224D01*
X141030289Y-71541936D01*
X141222738Y-71394265D01*
X141394265Y-71222738D01*
X141541936Y-71030289D01*
X141663224Y-70820212D01*
X141756054Y-70596100D01*
X141818838Y-70361789D01*
X141850500Y-70121288D01*
X141850500Y-69878712D01*
X141850500Y-69878711D01*
X171149500Y-69878711D01*
X171149500Y-70121288D01*
X171181161Y-70361785D01*
X171243947Y-70596104D01*
X171336773Y-70820205D01*
X171336776Y-70820212D01*
X171458064Y-71030289D01*
X171458066Y-71030292D01*
X171458067Y-71030293D01*
X171605733Y-71222736D01*
X171605739Y-71222743D01*
X171777256Y-71394260D01*
X171777262Y-71394265D01*
X171969711Y-71541936D01*
X172179788Y-71663224D01*
X172403900Y-71756054D01*
X172638211Y-71818838D01*
X172818586Y-71842584D01*
X172878711Y-71850500D01*
X172878712Y-71850500D01*
X173121289Y-71850500D01*
X173169388Y-71844167D01*
X173361789Y-71818838D01*
X173596100Y-71756054D01*
X173820212Y-71663224D01*
X174030289Y-71541936D01*
X174222738Y-71394265D01*
X174394265Y-71222738D01*
X174541936Y-71030289D01*
X174663224Y-70820212D01*
X174756054Y-70596100D01*
X174818838Y-70361789D01*
X174850500Y-70121288D01*
X174850500Y-69878712D01*
X174818838Y-69638211D01*
X174756054Y-69403900D01*
X174663224Y-69179788D01*
X174541936Y-68969711D01*
X174394265Y-68777262D01*
X174394260Y-68777256D01*
X174222743Y-68605739D01*
X174222736Y-68605733D01*
X174030293Y-68458067D01*
X174030292Y-68458066D01*
X174030289Y-68458064D01*
X173820212Y-68336776D01*
X173820205Y-68336773D01*
X173596104Y-68243947D01*
X173361785Y-68181161D01*
X173121289Y-68149500D01*
X173121288Y-68149500D01*
X172878712Y-68149500D01*
X172878711Y-68149500D01*
X172638214Y-68181161D01*
X172403895Y-68243947D01*
X172179794Y-68336773D01*
X172179785Y-68336777D01*
X171969706Y-68458067D01*
X171777263Y-68605733D01*
X171777256Y-68605739D01*
X171605739Y-68777256D01*
X171605733Y-68777263D01*
X171458067Y-68969706D01*
X171336777Y-69179785D01*
X171336773Y-69179794D01*
X171243947Y-69403895D01*
X171181161Y-69638214D01*
X171149500Y-69878711D01*
X141850500Y-69878711D01*
X141818838Y-69638211D01*
X141756054Y-69403900D01*
X141663224Y-69179788D01*
X141541936Y-68969711D01*
X141394265Y-68777262D01*
X141394260Y-68777256D01*
X141222743Y-68605739D01*
X141222736Y-68605733D01*
X141030293Y-68458067D01*
X141030292Y-68458066D01*
X141030289Y-68458064D01*
X140820212Y-68336776D01*
X140820205Y-68336773D01*
X140596104Y-68243947D01*
X140361785Y-68181161D01*
X140121289Y-68149500D01*
X140121288Y-68149500D01*
X139878712Y-68149500D01*
X139878711Y-68149500D01*
X139638214Y-68181161D01*
X139403895Y-68243947D01*
X139179794Y-68336773D01*
X139179785Y-68336777D01*
X138969706Y-68458067D01*
X138777263Y-68605733D01*
X138777256Y-68605739D01*
X138605739Y-68777256D01*
X138605733Y-68777263D01*
X138458067Y-68969706D01*
X138336777Y-69179785D01*
X138336773Y-69179794D01*
X138243947Y-69403895D01*
X138181161Y-69638214D01*
X138149500Y-69878711D01*
X136001487Y-69878711D01*
X136002343Y-69808922D01*
X136002930Y-69798320D01*
X136040312Y-69418772D01*
X136042097Y-69406744D01*
X136087241Y-69179794D01*
X136116346Y-69033468D01*
X136119301Y-69021670D01*
X136135065Y-68969706D01*
X136229787Y-68657447D01*
X136233885Y-68645997D01*
X136379535Y-68294363D01*
X136384730Y-68283380D01*
X136564152Y-67947708D01*
X136570390Y-67937300D01*
X136781852Y-67620825D01*
X136789091Y-67611064D01*
X137030555Y-67316838D01*
X137038707Y-67307844D01*
X137307844Y-67038707D01*
X137316838Y-67030555D01*
X137611064Y-66789091D01*
X137620825Y-66781852D01*
X137937300Y-66570390D01*
X137947708Y-66564152D01*
X138283380Y-66384730D01*
X138294363Y-66379535D01*
X138646004Y-66233882D01*
X138657447Y-66229787D01*
X139021677Y-66119299D01*
X139033468Y-66116346D01*
X139406753Y-66042095D01*
X139418772Y-66040312D01*
X139798320Y-66002930D01*
X139808922Y-66002343D01*
X139996784Y-66000039D01*
X139999267Y-66000009D01*
X140000787Y-66000000D01*
X172999213Y-66000000D01*
X173000733Y-66000008D01*
G37*
G04 #@! TD.AperFunction*
M02*
