G04 #@! TF.GenerationSoftware,KiCad,Pcbnew,8.0.9*
G04 #@! TF.CreationDate,2025-10-04T21:55:59-05:00*
G04 #@! TF.ProjectId,hengrun2_horns_v1.0,68656e67-7275-46e3-925f-686f726e735f,1.0*
G04 #@! TF.SameCoordinates,Original*
G04 #@! TF.FileFunction,Soldermask,Top*
G04 #@! TF.FilePolarity,Negative*
%FSLAX46Y46*%
G04 Gerber Fmt 4.6, Leading zero omitted, Abs format (unit mm)*
G04 Created by KiCad (PCBNEW 8.0.9) date 2025-10-04 21:55:59*
%MOMM*%
%LPD*%
G01*
G04 APERTURE LIST*
G04 Aperture macros list*
%AMRoundRect*
0 Rectangle with rounded corners*
0 $1 Rounding radius*
0 $2 $3 $4 $5 $6 $7 $8 $9 X,Y pos of 4 corners*
0 Add a 4 corners polygon primitive as box body*
4,1,4,$2,$3,$4,$5,$6,$7,$8,$9,$2,$3,0*
0 Add four circle primitives for the rounded corners*
1,1,$1+$1,$2,$3*
1,1,$1+$1,$4,$5*
1,1,$1+$1,$6,$7*
1,1,$1+$1,$8,$9*
0 Add four rect primitives between the rounded corners*
20,1,$1+$1,$2,$3,$4,$5,0*
20,1,$1+$1,$4,$5,$6,$7,0*
20,1,$1+$1,$6,$7,$8,$9,0*
20,1,$1+$1,$8,$9,$2,$3,0*%
G04 Aperture macros list end*
%ADD10C,3.200000*%
%ADD11RoundRect,0.237500X-0.250000X-0.237500X0.250000X-0.237500X0.250000X0.237500X-0.250000X0.237500X0*%
%ADD12R,2.000000X1.905000*%
%ADD13O,2.000000X1.905000*%
%ADD14RoundRect,0.250000X-0.620000X-0.845000X0.620000X-0.845000X0.620000X0.845000X-0.620000X0.845000X0*%
%ADD15O,1.740000X2.190000*%
%ADD16RoundRect,0.250000X0.620000X0.845000X-0.620000X0.845000X-0.620000X-0.845000X0.620000X-0.845000X0*%
%ADD17RoundRect,0.250000X-0.375000X-0.625000X0.375000X-0.625000X0.375000X0.625000X-0.375000X0.625000X0*%
%ADD18R,2.500000X1.800000*%
%ADD19R,1.600000X1.600000*%
%ADD20C,1.600000*%
%ADD21RoundRect,0.225000X-0.225000X-0.250000X0.225000X-0.250000X0.225000X0.250000X-0.225000X0.250000X0*%
G04 APERTURE END LIST*
D10*
X140000000Y-70000000D03*
X173000000Y-110000000D03*
X173000000Y-70000000D03*
X140000000Y-110000000D03*
D11*
X156000000Y-101000000D03*
X157825000Y-101000000D03*
D12*
X170000000Y-90080000D03*
D13*
X170000000Y-87540000D03*
X170000000Y-85000000D03*
D14*
X159460000Y-76000000D03*
D15*
X162000000Y-76000000D03*
D14*
X150460000Y-76000000D03*
D15*
X153000000Y-76000000D03*
D16*
X165000000Y-101000000D03*
D15*
X162460000Y-101000000D03*
D14*
X150920000Y-94000000D03*
D15*
X153460000Y-94000000D03*
X156000000Y-94000000D03*
D17*
X162600000Y-95000000D03*
X165400000Y-95000000D03*
X167200000Y-78000000D03*
X170000000Y-78000000D03*
D18*
X155000000Y-85000000D03*
X159000000Y-85000000D03*
D19*
X141465000Y-101000000D03*
D20*
X143965000Y-101000000D03*
D21*
X141675000Y-96000000D03*
X143225000Y-96000000D03*
X141450000Y-93000000D03*
X143000000Y-93000000D03*
X141450000Y-90000000D03*
X143000000Y-90000000D03*
X141675000Y-87000000D03*
X143225000Y-87000000D03*
X141675000Y-84000000D03*
X143225000Y-84000000D03*
X141675000Y-81000000D03*
X143225000Y-81000000D03*
X141675000Y-78000000D03*
X143225000Y-78000000D03*
X150450000Y-101000000D03*
X152000000Y-101000000D03*
M02*
