G04 #@! TF.GenerationSoftware,KiCad,Pcbnew,8.0.9*
G04 #@! TF.CreationDate,2025-10-04T21:55:59-05:00*
G04 #@! TF.ProjectId,hengrun2_horns_v1.0,68656e67-7275-46e3-925f-686f726e735f,1.0*
G04 #@! TF.SameCoordinates,Original*
G04 #@! TF.FileFunction,Legend,Top*
G04 #@! TF.FilePolarity,Positive*
%FSLAX46Y46*%
G04 Gerber Fmt 4.6, Leading zero omitted, Abs format (unit mm)*
G04 Created by KiCad (PCBNEW 8.0.9) date 2025-10-04 21:55:59*
%MOMM*%
%LPD*%
G01*
G04 APERTURE LIST*
G04 Aperture macros list*
%AMRoundRect*
0 Rectangle with rounded corners*
0 $1 Rounding radius*
0 $2 $3 $4 $5 $6 $7 $8 $9 X,Y pos of 4 corners*
0 Add a 4 corners polygon primitive as box body*
4,1,4,$2,$3,$4,$5,$6,$7,$8,$9,$2,$3,0*
0 Add four circle primitives for the rounded corners*
1,1,$1+$1,$2,$3*
1,1,$1+$1,$4,$5*
1,1,$1+$1,$6,$7*
1,1,$1+$1,$8,$9*
0 Add four rect primitives between the rounded corners*
20,1,$1+$1,$2,$3,$4,$5,0*
20,1,$1+$1,$4,$5,$6,$7,0*
20,1,$1+$1,$6,$7,$8,$9,0*
20,1,$1+$1,$8,$9,$2,$3,0*%
G04 Aperture macros list end*
%ADD10C,0.150000*%
%ADD11C,0.120000*%
%ADD12C,3.200000*%
%ADD13RoundRect,0.237500X-0.250000X-0.237500X0.250000X-0.237500X0.250000X0.237500X-0.250000X0.237500X0*%
%ADD14R,2.000000X1.905000*%
%ADD15O,2.000000X1.905000*%
%ADD16RoundRect,0.250000X-0.620000X-0.845000X0.620000X-0.845000X0.620000X0.845000X-0.620000X0.845000X0*%
%ADD17O,1.740000X2.190000*%
%ADD18RoundRect,0.250000X0.620000X0.845000X-0.620000X0.845000X-0.620000X-0.845000X0.620000X-0.845000X0*%
%ADD19RoundRect,0.250000X-0.375000X-0.625000X0.375000X-0.625000X0.375000X0.625000X-0.375000X0.625000X0*%
%ADD20R,2.500000X1.800000*%
%ADD21R,1.600000X1.600000*%
%ADD22C,1.600000*%
%ADD23RoundRect,0.225000X-0.225000X-0.250000X0.225000X-0.250000X0.225000X0.250000X-0.225000X0.250000X0*%
G04 APERTURE END LIST*
D10*
X142666666Y-67454819D02*
X142333333Y-66978628D01*
X142095238Y-67454819D02*
X142095238Y-66454819D01*
X142095238Y-66454819D02*
X142476190Y-66454819D01*
X142476190Y-66454819D02*
X142571428Y-66502438D01*
X142571428Y-66502438D02*
X142619047Y-66550057D01*
X142619047Y-66550057D02*
X142666666Y-66645295D01*
X142666666Y-66645295D02*
X142666666Y-66788152D01*
X142666666Y-66788152D02*
X142619047Y-66883390D01*
X142619047Y-66883390D02*
X142571428Y-66931009D01*
X142571428Y-66931009D02*
X142476190Y-66978628D01*
X142476190Y-66978628D02*
X142095238Y-66978628D01*
X143095238Y-66931009D02*
X143428571Y-66931009D01*
X143571428Y-67454819D02*
X143095238Y-67454819D01*
X143095238Y-67454819D02*
X143095238Y-66454819D01*
X143095238Y-66454819D02*
X143571428Y-66454819D01*
X144333333Y-66931009D02*
X144000000Y-66931009D01*
X144000000Y-67454819D02*
X144000000Y-66454819D01*
X144000000Y-66454819D02*
X144476190Y-66454819D01*
X145000000Y-66454819D02*
X145000000Y-66692914D01*
X144761905Y-66597676D02*
X145000000Y-66692914D01*
X145000000Y-66692914D02*
X145238095Y-66597676D01*
X144857143Y-66883390D02*
X145000000Y-66692914D01*
X145000000Y-66692914D02*
X145142857Y-66883390D01*
X145761905Y-66454819D02*
X145761905Y-66692914D01*
X145523810Y-66597676D02*
X145761905Y-66692914D01*
X145761905Y-66692914D02*
X146000000Y-66597676D01*
X145619048Y-66883390D02*
X145761905Y-66692914D01*
X145761905Y-66692914D02*
X145904762Y-66883390D01*
X171666666Y-106254819D02*
X171333333Y-105778628D01*
X171095238Y-106254819D02*
X171095238Y-105254819D01*
X171095238Y-105254819D02*
X171476190Y-105254819D01*
X171476190Y-105254819D02*
X171571428Y-105302438D01*
X171571428Y-105302438D02*
X171619047Y-105350057D01*
X171619047Y-105350057D02*
X171666666Y-105445295D01*
X171666666Y-105445295D02*
X171666666Y-105588152D01*
X171666666Y-105588152D02*
X171619047Y-105683390D01*
X171619047Y-105683390D02*
X171571428Y-105731009D01*
X171571428Y-105731009D02*
X171476190Y-105778628D01*
X171476190Y-105778628D02*
X171095238Y-105778628D01*
X172095238Y-105731009D02*
X172428571Y-105731009D01*
X172571428Y-106254819D02*
X172095238Y-106254819D01*
X172095238Y-106254819D02*
X172095238Y-105254819D01*
X172095238Y-105254819D02*
X172571428Y-105254819D01*
X173333333Y-105731009D02*
X173000000Y-105731009D01*
X173000000Y-106254819D02*
X173000000Y-105254819D01*
X173000000Y-105254819D02*
X173476190Y-105254819D01*
X174000000Y-105254819D02*
X174000000Y-105492914D01*
X173761905Y-105397676D02*
X174000000Y-105492914D01*
X174000000Y-105492914D02*
X174238095Y-105397676D01*
X173857143Y-105683390D02*
X174000000Y-105492914D01*
X174000000Y-105492914D02*
X174142857Y-105683390D01*
X174761905Y-105254819D02*
X174761905Y-105492914D01*
X174523810Y-105397676D02*
X174761905Y-105492914D01*
X174761905Y-105492914D02*
X175000000Y-105397676D01*
X174619048Y-105683390D02*
X174761905Y-105492914D01*
X174761905Y-105492914D02*
X174904762Y-105683390D01*
X167666666Y-67454819D02*
X167333333Y-66978628D01*
X167095238Y-67454819D02*
X167095238Y-66454819D01*
X167095238Y-66454819D02*
X167476190Y-66454819D01*
X167476190Y-66454819D02*
X167571428Y-66502438D01*
X167571428Y-66502438D02*
X167619047Y-66550057D01*
X167619047Y-66550057D02*
X167666666Y-66645295D01*
X167666666Y-66645295D02*
X167666666Y-66788152D01*
X167666666Y-66788152D02*
X167619047Y-66883390D01*
X167619047Y-66883390D02*
X167571428Y-66931009D01*
X167571428Y-66931009D02*
X167476190Y-66978628D01*
X167476190Y-66978628D02*
X167095238Y-66978628D01*
X168095238Y-66931009D02*
X168428571Y-66931009D01*
X168571428Y-67454819D02*
X168095238Y-67454819D01*
X168095238Y-67454819D02*
X168095238Y-66454819D01*
X168095238Y-66454819D02*
X168571428Y-66454819D01*
X169333333Y-66931009D02*
X169000000Y-66931009D01*
X169000000Y-67454819D02*
X169000000Y-66454819D01*
X169000000Y-66454819D02*
X169476190Y-66454819D01*
X170000000Y-66454819D02*
X170000000Y-66692914D01*
X169761905Y-66597676D02*
X170000000Y-66692914D01*
X170000000Y-66692914D02*
X170238095Y-66597676D01*
X169857143Y-66883390D02*
X170000000Y-66692914D01*
X170000000Y-66692914D02*
X170142857Y-66883390D01*
X170761905Y-66454819D02*
X170761905Y-66692914D01*
X170523810Y-66597676D02*
X170761905Y-66692914D01*
X170761905Y-66692914D02*
X171000000Y-66597676D01*
X170619048Y-66883390D02*
X170761905Y-66692914D01*
X170761905Y-66692914D02*
X170904762Y-66883390D01*
X137666666Y-106454819D02*
X137333333Y-105978628D01*
X137095238Y-106454819D02*
X137095238Y-105454819D01*
X137095238Y-105454819D02*
X137476190Y-105454819D01*
X137476190Y-105454819D02*
X137571428Y-105502438D01*
X137571428Y-105502438D02*
X137619047Y-105550057D01*
X137619047Y-105550057D02*
X137666666Y-105645295D01*
X137666666Y-105645295D02*
X137666666Y-105788152D01*
X137666666Y-105788152D02*
X137619047Y-105883390D01*
X137619047Y-105883390D02*
X137571428Y-105931009D01*
X137571428Y-105931009D02*
X137476190Y-105978628D01*
X137476190Y-105978628D02*
X137095238Y-105978628D01*
X138095238Y-105931009D02*
X138428571Y-105931009D01*
X138571428Y-106454819D02*
X138095238Y-106454819D01*
X138095238Y-106454819D02*
X138095238Y-105454819D01*
X138095238Y-105454819D02*
X138571428Y-105454819D01*
X139333333Y-105931009D02*
X139000000Y-105931009D01*
X139000000Y-106454819D02*
X139000000Y-105454819D01*
X139000000Y-105454819D02*
X139476190Y-105454819D01*
X140000000Y-105454819D02*
X140000000Y-105692914D01*
X139761905Y-105597676D02*
X140000000Y-105692914D01*
X140000000Y-105692914D02*
X140238095Y-105597676D01*
X139857143Y-105883390D02*
X140000000Y-105692914D01*
X140000000Y-105692914D02*
X140142857Y-105883390D01*
X140761905Y-105454819D02*
X140761905Y-105692914D01*
X140523810Y-105597676D02*
X140761905Y-105692914D01*
X140761905Y-105692914D02*
X141000000Y-105597676D01*
X140619048Y-105883390D02*
X140761905Y-105692914D01*
X140761905Y-105692914D02*
X140904762Y-105883390D01*
X156745833Y-100024819D02*
X156412500Y-99548628D01*
X156174405Y-100024819D02*
X156174405Y-99024819D01*
X156174405Y-99024819D02*
X156555357Y-99024819D01*
X156555357Y-99024819D02*
X156650595Y-99072438D01*
X156650595Y-99072438D02*
X156698214Y-99120057D01*
X156698214Y-99120057D02*
X156745833Y-99215295D01*
X156745833Y-99215295D02*
X156745833Y-99358152D01*
X156745833Y-99358152D02*
X156698214Y-99453390D01*
X156698214Y-99453390D02*
X156650595Y-99501009D01*
X156650595Y-99501009D02*
X156555357Y-99548628D01*
X156555357Y-99548628D02*
X156174405Y-99548628D01*
X157698214Y-100024819D02*
X157126786Y-100024819D01*
X157412500Y-100024819D02*
X157412500Y-99024819D01*
X157412500Y-99024819D02*
X157317262Y-99167676D01*
X157317262Y-99167676D02*
X157222024Y-99262914D01*
X157222024Y-99262914D02*
X157126786Y-99310533D01*
X166280057Y-87635238D02*
X166232438Y-87730476D01*
X166232438Y-87730476D02*
X166137200Y-87825714D01*
X166137200Y-87825714D02*
X165994342Y-87968571D01*
X165994342Y-87968571D02*
X165946723Y-88063809D01*
X165946723Y-88063809D02*
X165946723Y-88159047D01*
X166184819Y-88111428D02*
X166137200Y-88206666D01*
X166137200Y-88206666D02*
X166041961Y-88301904D01*
X166041961Y-88301904D02*
X165851485Y-88349523D01*
X165851485Y-88349523D02*
X165518152Y-88349523D01*
X165518152Y-88349523D02*
X165327676Y-88301904D01*
X165327676Y-88301904D02*
X165232438Y-88206666D01*
X165232438Y-88206666D02*
X165184819Y-88111428D01*
X165184819Y-88111428D02*
X165184819Y-87920952D01*
X165184819Y-87920952D02*
X165232438Y-87825714D01*
X165232438Y-87825714D02*
X165327676Y-87730476D01*
X165327676Y-87730476D02*
X165518152Y-87682857D01*
X165518152Y-87682857D02*
X165851485Y-87682857D01*
X165851485Y-87682857D02*
X166041961Y-87730476D01*
X166041961Y-87730476D02*
X166137200Y-87825714D01*
X166137200Y-87825714D02*
X166184819Y-87920952D01*
X166184819Y-87920952D02*
X166184819Y-88111428D01*
X166184819Y-86730476D02*
X166184819Y-87301904D01*
X166184819Y-87016190D02*
X165184819Y-87016190D01*
X165184819Y-87016190D02*
X165327676Y-87111428D01*
X165327676Y-87111428D02*
X165422914Y-87206666D01*
X165422914Y-87206666D02*
X165470533Y-87301904D01*
X160396666Y-71334819D02*
X160396666Y-72049104D01*
X160396666Y-72049104D02*
X160349047Y-72191961D01*
X160349047Y-72191961D02*
X160253809Y-72287200D01*
X160253809Y-72287200D02*
X160110952Y-72334819D01*
X160110952Y-72334819D02*
X160015714Y-72334819D01*
X161301428Y-71668152D02*
X161301428Y-72334819D01*
X161063333Y-71287200D02*
X160825238Y-72001485D01*
X160825238Y-72001485D02*
X161444285Y-72001485D01*
X151396666Y-71334819D02*
X151396666Y-72049104D01*
X151396666Y-72049104D02*
X151349047Y-72191961D01*
X151349047Y-72191961D02*
X151253809Y-72287200D01*
X151253809Y-72287200D02*
X151110952Y-72334819D01*
X151110952Y-72334819D02*
X151015714Y-72334819D01*
X151777619Y-71334819D02*
X152396666Y-71334819D01*
X152396666Y-71334819D02*
X152063333Y-71715771D01*
X152063333Y-71715771D02*
X152206190Y-71715771D01*
X152206190Y-71715771D02*
X152301428Y-71763390D01*
X152301428Y-71763390D02*
X152349047Y-71811009D01*
X152349047Y-71811009D02*
X152396666Y-71906247D01*
X152396666Y-71906247D02*
X152396666Y-72144342D01*
X152396666Y-72144342D02*
X152349047Y-72239580D01*
X152349047Y-72239580D02*
X152301428Y-72287200D01*
X152301428Y-72287200D02*
X152206190Y-72334819D01*
X152206190Y-72334819D02*
X151920476Y-72334819D01*
X151920476Y-72334819D02*
X151825238Y-72287200D01*
X151825238Y-72287200D02*
X151777619Y-72239580D01*
X163396666Y-104574819D02*
X163396666Y-105289104D01*
X163396666Y-105289104D02*
X163349047Y-105431961D01*
X163349047Y-105431961D02*
X163253809Y-105527200D01*
X163253809Y-105527200D02*
X163110952Y-105574819D01*
X163110952Y-105574819D02*
X163015714Y-105574819D01*
X163825238Y-104670057D02*
X163872857Y-104622438D01*
X163872857Y-104622438D02*
X163968095Y-104574819D01*
X163968095Y-104574819D02*
X164206190Y-104574819D01*
X164206190Y-104574819D02*
X164301428Y-104622438D01*
X164301428Y-104622438D02*
X164349047Y-104670057D01*
X164349047Y-104670057D02*
X164396666Y-104765295D01*
X164396666Y-104765295D02*
X164396666Y-104860533D01*
X164396666Y-104860533D02*
X164349047Y-105003390D01*
X164349047Y-105003390D02*
X163777619Y-105574819D01*
X163777619Y-105574819D02*
X164396666Y-105574819D01*
X153126666Y-89334819D02*
X153126666Y-90049104D01*
X153126666Y-90049104D02*
X153079047Y-90191961D01*
X153079047Y-90191961D02*
X152983809Y-90287200D01*
X152983809Y-90287200D02*
X152840952Y-90334819D01*
X152840952Y-90334819D02*
X152745714Y-90334819D01*
X154126666Y-90334819D02*
X153555238Y-90334819D01*
X153840952Y-90334819D02*
X153840952Y-89334819D01*
X153840952Y-89334819D02*
X153745714Y-89477676D01*
X153745714Y-89477676D02*
X153650476Y-89572914D01*
X153650476Y-89572914D02*
X153555238Y-89620533D01*
X163666666Y-93111009D02*
X163333333Y-93111009D01*
X163333333Y-93634819D02*
X163333333Y-92634819D01*
X163333333Y-92634819D02*
X163809523Y-92634819D01*
X164142857Y-92730057D02*
X164190476Y-92682438D01*
X164190476Y-92682438D02*
X164285714Y-92634819D01*
X164285714Y-92634819D02*
X164523809Y-92634819D01*
X164523809Y-92634819D02*
X164619047Y-92682438D01*
X164619047Y-92682438D02*
X164666666Y-92730057D01*
X164666666Y-92730057D02*
X164714285Y-92825295D01*
X164714285Y-92825295D02*
X164714285Y-92920533D01*
X164714285Y-92920533D02*
X164666666Y-93063390D01*
X164666666Y-93063390D02*
X164095238Y-93634819D01*
X164095238Y-93634819D02*
X164714285Y-93634819D01*
X168266666Y-76111009D02*
X167933333Y-76111009D01*
X167933333Y-76634819D02*
X167933333Y-75634819D01*
X167933333Y-75634819D02*
X168409523Y-75634819D01*
X169314285Y-76634819D02*
X168742857Y-76634819D01*
X169028571Y-76634819D02*
X169028571Y-75634819D01*
X169028571Y-75634819D02*
X168933333Y-75777676D01*
X168933333Y-75777676D02*
X168838095Y-75872914D01*
X168838095Y-75872914D02*
X168742857Y-75920533D01*
X156261905Y-82954819D02*
X156261905Y-81954819D01*
X156261905Y-81954819D02*
X156500000Y-81954819D01*
X156500000Y-81954819D02*
X156642857Y-82002438D01*
X156642857Y-82002438D02*
X156738095Y-82097676D01*
X156738095Y-82097676D02*
X156785714Y-82192914D01*
X156785714Y-82192914D02*
X156833333Y-82383390D01*
X156833333Y-82383390D02*
X156833333Y-82526247D01*
X156833333Y-82526247D02*
X156785714Y-82716723D01*
X156785714Y-82716723D02*
X156738095Y-82811961D01*
X156738095Y-82811961D02*
X156642857Y-82907200D01*
X156642857Y-82907200D02*
X156500000Y-82954819D01*
X156500000Y-82954819D02*
X156261905Y-82954819D01*
X157785714Y-82954819D02*
X157214286Y-82954819D01*
X157500000Y-82954819D02*
X157500000Y-81954819D01*
X157500000Y-81954819D02*
X157404762Y-82097676D01*
X157404762Y-82097676D02*
X157309524Y-82192914D01*
X157309524Y-82192914D02*
X157214286Y-82240533D01*
X145058333Y-98359580D02*
X145010714Y-98407200D01*
X145010714Y-98407200D02*
X144867857Y-98454819D01*
X144867857Y-98454819D02*
X144772619Y-98454819D01*
X144772619Y-98454819D02*
X144629762Y-98407200D01*
X144629762Y-98407200D02*
X144534524Y-98311961D01*
X144534524Y-98311961D02*
X144486905Y-98216723D01*
X144486905Y-98216723D02*
X144439286Y-98026247D01*
X144439286Y-98026247D02*
X144439286Y-97883390D01*
X144439286Y-97883390D02*
X144486905Y-97692914D01*
X144486905Y-97692914D02*
X144534524Y-97597676D01*
X144534524Y-97597676D02*
X144629762Y-97502438D01*
X144629762Y-97502438D02*
X144772619Y-97454819D01*
X144772619Y-97454819D02*
X144867857Y-97454819D01*
X144867857Y-97454819D02*
X145010714Y-97502438D01*
X145010714Y-97502438D02*
X145058333Y-97550057D01*
X145534524Y-98454819D02*
X145725000Y-98454819D01*
X145725000Y-98454819D02*
X145820238Y-98407200D01*
X145820238Y-98407200D02*
X145867857Y-98359580D01*
X145867857Y-98359580D02*
X145963095Y-98216723D01*
X145963095Y-98216723D02*
X146010714Y-98026247D01*
X146010714Y-98026247D02*
X146010714Y-97645295D01*
X146010714Y-97645295D02*
X145963095Y-97550057D01*
X145963095Y-97550057D02*
X145915476Y-97502438D01*
X145915476Y-97502438D02*
X145820238Y-97454819D01*
X145820238Y-97454819D02*
X145629762Y-97454819D01*
X145629762Y-97454819D02*
X145534524Y-97502438D01*
X145534524Y-97502438D02*
X145486905Y-97550057D01*
X145486905Y-97550057D02*
X145439286Y-97645295D01*
X145439286Y-97645295D02*
X145439286Y-97883390D01*
X145439286Y-97883390D02*
X145486905Y-97978628D01*
X145486905Y-97978628D02*
X145534524Y-98026247D01*
X145534524Y-98026247D02*
X145629762Y-98073866D01*
X145629762Y-98073866D02*
X145820238Y-98073866D01*
X145820238Y-98073866D02*
X145915476Y-98026247D01*
X145915476Y-98026247D02*
X145963095Y-97978628D01*
X145963095Y-97978628D02*
X146010714Y-97883390D01*
X142283333Y-94929580D02*
X142235714Y-94977200D01*
X142235714Y-94977200D02*
X142092857Y-95024819D01*
X142092857Y-95024819D02*
X141997619Y-95024819D01*
X141997619Y-95024819D02*
X141854762Y-94977200D01*
X141854762Y-94977200D02*
X141759524Y-94881961D01*
X141759524Y-94881961D02*
X141711905Y-94786723D01*
X141711905Y-94786723D02*
X141664286Y-94596247D01*
X141664286Y-94596247D02*
X141664286Y-94453390D01*
X141664286Y-94453390D02*
X141711905Y-94262914D01*
X141711905Y-94262914D02*
X141759524Y-94167676D01*
X141759524Y-94167676D02*
X141854762Y-94072438D01*
X141854762Y-94072438D02*
X141997619Y-94024819D01*
X141997619Y-94024819D02*
X142092857Y-94024819D01*
X142092857Y-94024819D02*
X142235714Y-94072438D01*
X142235714Y-94072438D02*
X142283333Y-94120057D01*
X142854762Y-94453390D02*
X142759524Y-94405771D01*
X142759524Y-94405771D02*
X142711905Y-94358152D01*
X142711905Y-94358152D02*
X142664286Y-94262914D01*
X142664286Y-94262914D02*
X142664286Y-94215295D01*
X142664286Y-94215295D02*
X142711905Y-94120057D01*
X142711905Y-94120057D02*
X142759524Y-94072438D01*
X142759524Y-94072438D02*
X142854762Y-94024819D01*
X142854762Y-94024819D02*
X143045238Y-94024819D01*
X143045238Y-94024819D02*
X143140476Y-94072438D01*
X143140476Y-94072438D02*
X143188095Y-94120057D01*
X143188095Y-94120057D02*
X143235714Y-94215295D01*
X143235714Y-94215295D02*
X143235714Y-94262914D01*
X143235714Y-94262914D02*
X143188095Y-94358152D01*
X143188095Y-94358152D02*
X143140476Y-94405771D01*
X143140476Y-94405771D02*
X143045238Y-94453390D01*
X143045238Y-94453390D02*
X142854762Y-94453390D01*
X142854762Y-94453390D02*
X142759524Y-94501009D01*
X142759524Y-94501009D02*
X142711905Y-94548628D01*
X142711905Y-94548628D02*
X142664286Y-94643866D01*
X142664286Y-94643866D02*
X142664286Y-94834342D01*
X142664286Y-94834342D02*
X142711905Y-94929580D01*
X142711905Y-94929580D02*
X142759524Y-94977200D01*
X142759524Y-94977200D02*
X142854762Y-95024819D01*
X142854762Y-95024819D02*
X143045238Y-95024819D01*
X143045238Y-95024819D02*
X143140476Y-94977200D01*
X143140476Y-94977200D02*
X143188095Y-94929580D01*
X143188095Y-94929580D02*
X143235714Y-94834342D01*
X143235714Y-94834342D02*
X143235714Y-94643866D01*
X143235714Y-94643866D02*
X143188095Y-94548628D01*
X143188095Y-94548628D02*
X143140476Y-94501009D01*
X143140476Y-94501009D02*
X143045238Y-94453390D01*
X142058333Y-91929580D02*
X142010714Y-91977200D01*
X142010714Y-91977200D02*
X141867857Y-92024819D01*
X141867857Y-92024819D02*
X141772619Y-92024819D01*
X141772619Y-92024819D02*
X141629762Y-91977200D01*
X141629762Y-91977200D02*
X141534524Y-91881961D01*
X141534524Y-91881961D02*
X141486905Y-91786723D01*
X141486905Y-91786723D02*
X141439286Y-91596247D01*
X141439286Y-91596247D02*
X141439286Y-91453390D01*
X141439286Y-91453390D02*
X141486905Y-91262914D01*
X141486905Y-91262914D02*
X141534524Y-91167676D01*
X141534524Y-91167676D02*
X141629762Y-91072438D01*
X141629762Y-91072438D02*
X141772619Y-91024819D01*
X141772619Y-91024819D02*
X141867857Y-91024819D01*
X141867857Y-91024819D02*
X142010714Y-91072438D01*
X142010714Y-91072438D02*
X142058333Y-91120057D01*
X142391667Y-91024819D02*
X143058333Y-91024819D01*
X143058333Y-91024819D02*
X142629762Y-92024819D01*
X142058333Y-88929580D02*
X142010714Y-88977200D01*
X142010714Y-88977200D02*
X141867857Y-89024819D01*
X141867857Y-89024819D02*
X141772619Y-89024819D01*
X141772619Y-89024819D02*
X141629762Y-88977200D01*
X141629762Y-88977200D02*
X141534524Y-88881961D01*
X141534524Y-88881961D02*
X141486905Y-88786723D01*
X141486905Y-88786723D02*
X141439286Y-88596247D01*
X141439286Y-88596247D02*
X141439286Y-88453390D01*
X141439286Y-88453390D02*
X141486905Y-88262914D01*
X141486905Y-88262914D02*
X141534524Y-88167676D01*
X141534524Y-88167676D02*
X141629762Y-88072438D01*
X141629762Y-88072438D02*
X141772619Y-88024819D01*
X141772619Y-88024819D02*
X141867857Y-88024819D01*
X141867857Y-88024819D02*
X142010714Y-88072438D01*
X142010714Y-88072438D02*
X142058333Y-88120057D01*
X142915476Y-88024819D02*
X142725000Y-88024819D01*
X142725000Y-88024819D02*
X142629762Y-88072438D01*
X142629762Y-88072438D02*
X142582143Y-88120057D01*
X142582143Y-88120057D02*
X142486905Y-88262914D01*
X142486905Y-88262914D02*
X142439286Y-88453390D01*
X142439286Y-88453390D02*
X142439286Y-88834342D01*
X142439286Y-88834342D02*
X142486905Y-88929580D01*
X142486905Y-88929580D02*
X142534524Y-88977200D01*
X142534524Y-88977200D02*
X142629762Y-89024819D01*
X142629762Y-89024819D02*
X142820238Y-89024819D01*
X142820238Y-89024819D02*
X142915476Y-88977200D01*
X142915476Y-88977200D02*
X142963095Y-88929580D01*
X142963095Y-88929580D02*
X143010714Y-88834342D01*
X143010714Y-88834342D02*
X143010714Y-88596247D01*
X143010714Y-88596247D02*
X142963095Y-88501009D01*
X142963095Y-88501009D02*
X142915476Y-88453390D01*
X142915476Y-88453390D02*
X142820238Y-88405771D01*
X142820238Y-88405771D02*
X142629762Y-88405771D01*
X142629762Y-88405771D02*
X142534524Y-88453390D01*
X142534524Y-88453390D02*
X142486905Y-88501009D01*
X142486905Y-88501009D02*
X142439286Y-88596247D01*
X142283333Y-85929580D02*
X142235714Y-85977200D01*
X142235714Y-85977200D02*
X142092857Y-86024819D01*
X142092857Y-86024819D02*
X141997619Y-86024819D01*
X141997619Y-86024819D02*
X141854762Y-85977200D01*
X141854762Y-85977200D02*
X141759524Y-85881961D01*
X141759524Y-85881961D02*
X141711905Y-85786723D01*
X141711905Y-85786723D02*
X141664286Y-85596247D01*
X141664286Y-85596247D02*
X141664286Y-85453390D01*
X141664286Y-85453390D02*
X141711905Y-85262914D01*
X141711905Y-85262914D02*
X141759524Y-85167676D01*
X141759524Y-85167676D02*
X141854762Y-85072438D01*
X141854762Y-85072438D02*
X141997619Y-85024819D01*
X141997619Y-85024819D02*
X142092857Y-85024819D01*
X142092857Y-85024819D02*
X142235714Y-85072438D01*
X142235714Y-85072438D02*
X142283333Y-85120057D01*
X143188095Y-85024819D02*
X142711905Y-85024819D01*
X142711905Y-85024819D02*
X142664286Y-85501009D01*
X142664286Y-85501009D02*
X142711905Y-85453390D01*
X142711905Y-85453390D02*
X142807143Y-85405771D01*
X142807143Y-85405771D02*
X143045238Y-85405771D01*
X143045238Y-85405771D02*
X143140476Y-85453390D01*
X143140476Y-85453390D02*
X143188095Y-85501009D01*
X143188095Y-85501009D02*
X143235714Y-85596247D01*
X143235714Y-85596247D02*
X143235714Y-85834342D01*
X143235714Y-85834342D02*
X143188095Y-85929580D01*
X143188095Y-85929580D02*
X143140476Y-85977200D01*
X143140476Y-85977200D02*
X143045238Y-86024819D01*
X143045238Y-86024819D02*
X142807143Y-86024819D01*
X142807143Y-86024819D02*
X142711905Y-85977200D01*
X142711905Y-85977200D02*
X142664286Y-85929580D01*
X142283333Y-82929580D02*
X142235714Y-82977200D01*
X142235714Y-82977200D02*
X142092857Y-83024819D01*
X142092857Y-83024819D02*
X141997619Y-83024819D01*
X141997619Y-83024819D02*
X141854762Y-82977200D01*
X141854762Y-82977200D02*
X141759524Y-82881961D01*
X141759524Y-82881961D02*
X141711905Y-82786723D01*
X141711905Y-82786723D02*
X141664286Y-82596247D01*
X141664286Y-82596247D02*
X141664286Y-82453390D01*
X141664286Y-82453390D02*
X141711905Y-82262914D01*
X141711905Y-82262914D02*
X141759524Y-82167676D01*
X141759524Y-82167676D02*
X141854762Y-82072438D01*
X141854762Y-82072438D02*
X141997619Y-82024819D01*
X141997619Y-82024819D02*
X142092857Y-82024819D01*
X142092857Y-82024819D02*
X142235714Y-82072438D01*
X142235714Y-82072438D02*
X142283333Y-82120057D01*
X143140476Y-82358152D02*
X143140476Y-83024819D01*
X142902381Y-81977200D02*
X142664286Y-82691485D01*
X142664286Y-82691485D02*
X143283333Y-82691485D01*
X142283333Y-79929580D02*
X142235714Y-79977200D01*
X142235714Y-79977200D02*
X142092857Y-80024819D01*
X142092857Y-80024819D02*
X141997619Y-80024819D01*
X141997619Y-80024819D02*
X141854762Y-79977200D01*
X141854762Y-79977200D02*
X141759524Y-79881961D01*
X141759524Y-79881961D02*
X141711905Y-79786723D01*
X141711905Y-79786723D02*
X141664286Y-79596247D01*
X141664286Y-79596247D02*
X141664286Y-79453390D01*
X141664286Y-79453390D02*
X141711905Y-79262914D01*
X141711905Y-79262914D02*
X141759524Y-79167676D01*
X141759524Y-79167676D02*
X141854762Y-79072438D01*
X141854762Y-79072438D02*
X141997619Y-79024819D01*
X141997619Y-79024819D02*
X142092857Y-79024819D01*
X142092857Y-79024819D02*
X142235714Y-79072438D01*
X142235714Y-79072438D02*
X142283333Y-79120057D01*
X142616667Y-79024819D02*
X143235714Y-79024819D01*
X143235714Y-79024819D02*
X142902381Y-79405771D01*
X142902381Y-79405771D02*
X143045238Y-79405771D01*
X143045238Y-79405771D02*
X143140476Y-79453390D01*
X143140476Y-79453390D02*
X143188095Y-79501009D01*
X143188095Y-79501009D02*
X143235714Y-79596247D01*
X143235714Y-79596247D02*
X143235714Y-79834342D01*
X143235714Y-79834342D02*
X143188095Y-79929580D01*
X143188095Y-79929580D02*
X143140476Y-79977200D01*
X143140476Y-79977200D02*
X143045238Y-80024819D01*
X143045238Y-80024819D02*
X142759524Y-80024819D01*
X142759524Y-80024819D02*
X142664286Y-79977200D01*
X142664286Y-79977200D02*
X142616667Y-79929580D01*
X142283333Y-76929580D02*
X142235714Y-76977200D01*
X142235714Y-76977200D02*
X142092857Y-77024819D01*
X142092857Y-77024819D02*
X141997619Y-77024819D01*
X141997619Y-77024819D02*
X141854762Y-76977200D01*
X141854762Y-76977200D02*
X141759524Y-76881961D01*
X141759524Y-76881961D02*
X141711905Y-76786723D01*
X141711905Y-76786723D02*
X141664286Y-76596247D01*
X141664286Y-76596247D02*
X141664286Y-76453390D01*
X141664286Y-76453390D02*
X141711905Y-76262914D01*
X141711905Y-76262914D02*
X141759524Y-76167676D01*
X141759524Y-76167676D02*
X141854762Y-76072438D01*
X141854762Y-76072438D02*
X141997619Y-76024819D01*
X141997619Y-76024819D02*
X142092857Y-76024819D01*
X142092857Y-76024819D02*
X142235714Y-76072438D01*
X142235714Y-76072438D02*
X142283333Y-76120057D01*
X142664286Y-76120057D02*
X142711905Y-76072438D01*
X142711905Y-76072438D02*
X142807143Y-76024819D01*
X142807143Y-76024819D02*
X143045238Y-76024819D01*
X143045238Y-76024819D02*
X143140476Y-76072438D01*
X143140476Y-76072438D02*
X143188095Y-76120057D01*
X143188095Y-76120057D02*
X143235714Y-76215295D01*
X143235714Y-76215295D02*
X143235714Y-76310533D01*
X143235714Y-76310533D02*
X143188095Y-76453390D01*
X143188095Y-76453390D02*
X142616667Y-77024819D01*
X142616667Y-77024819D02*
X143235714Y-77024819D01*
X151058333Y-99929580D02*
X151010714Y-99977200D01*
X151010714Y-99977200D02*
X150867857Y-100024819D01*
X150867857Y-100024819D02*
X150772619Y-100024819D01*
X150772619Y-100024819D02*
X150629762Y-99977200D01*
X150629762Y-99977200D02*
X150534524Y-99881961D01*
X150534524Y-99881961D02*
X150486905Y-99786723D01*
X150486905Y-99786723D02*
X150439286Y-99596247D01*
X150439286Y-99596247D02*
X150439286Y-99453390D01*
X150439286Y-99453390D02*
X150486905Y-99262914D01*
X150486905Y-99262914D02*
X150534524Y-99167676D01*
X150534524Y-99167676D02*
X150629762Y-99072438D01*
X150629762Y-99072438D02*
X150772619Y-99024819D01*
X150772619Y-99024819D02*
X150867857Y-99024819D01*
X150867857Y-99024819D02*
X151010714Y-99072438D01*
X151010714Y-99072438D02*
X151058333Y-99120057D01*
X152010714Y-100024819D02*
X151439286Y-100024819D01*
X151725000Y-100024819D02*
X151725000Y-99024819D01*
X151725000Y-99024819D02*
X151629762Y-99167676D01*
X151629762Y-99167676D02*
X151534524Y-99262914D01*
X151534524Y-99262914D02*
X151439286Y-99310533D01*
D11*
X156657776Y-100477500D02*
X157167224Y-100477500D01*
X156657776Y-101522500D02*
X157167224Y-101522500D01*
X166730000Y-92660000D02*
X166730000Y-82420000D01*
X166730000Y-89390000D02*
X168240000Y-89390000D01*
X166730000Y-85689000D02*
X168240000Y-85689000D01*
X166730000Y-92660000D02*
X171371000Y-92660000D01*
X171371000Y-92660000D02*
X171371000Y-82420000D01*
X166730000Y-82420000D02*
X171371000Y-82420000D01*
X168240000Y-92660000D02*
X168240000Y-82420000D01*
X158080000Y-78990000D02*
X163380000Y-78990000D01*
X160260000Y-73570000D02*
X160260000Y-72970000D01*
X157790000Y-74000000D02*
X157790000Y-78000000D01*
X158080000Y-72970000D02*
X158080000Y-78990000D01*
X161200000Y-72970000D02*
X161200000Y-73570000D01*
X162000000Y-77990000D02*
X162000000Y-78990000D01*
X161750000Y-78990000D02*
X161750000Y-77990000D01*
X158660000Y-73570000D02*
X160260000Y-73570000D01*
X161200000Y-73570000D02*
X162800000Y-73570000D01*
X161750000Y-77460000D02*
X162000000Y-77990000D01*
X159460000Y-77990000D02*
X162000000Y-77990000D01*
X159460000Y-78990000D02*
X159460000Y-77990000D01*
X159710000Y-78990000D02*
X159710000Y-77990000D01*
X159460000Y-77990000D02*
X159710000Y-77460000D01*
X163380000Y-72970000D02*
X158080000Y-72970000D01*
X158660000Y-72970000D02*
X158660000Y-73570000D01*
X163380000Y-78990000D02*
X163380000Y-72970000D01*
X162800000Y-73570000D02*
X162800000Y-72970000D01*
X159710000Y-77460000D02*
X161750000Y-77460000D01*
X149080000Y-78990000D02*
X154380000Y-78990000D01*
X151260000Y-73570000D02*
X151260000Y-72970000D01*
X148790000Y-74000000D02*
X148790000Y-78000000D01*
X149080000Y-72970000D02*
X149080000Y-78990000D01*
X152200000Y-72970000D02*
X152200000Y-73570000D01*
X153000000Y-77990000D02*
X153000000Y-78990000D01*
X152750000Y-78990000D02*
X152750000Y-77990000D01*
X149660000Y-73570000D02*
X151260000Y-73570000D01*
X152200000Y-73570000D02*
X153800000Y-73570000D01*
X152750000Y-77460000D02*
X153000000Y-77990000D01*
X150460000Y-77990000D02*
X153000000Y-77990000D01*
X150460000Y-78990000D02*
X150460000Y-77990000D01*
X150710000Y-78990000D02*
X150710000Y-77990000D01*
X150460000Y-77990000D02*
X150710000Y-77460000D01*
X154380000Y-72970000D02*
X149080000Y-72970000D01*
X149660000Y-72970000D02*
X149660000Y-73570000D01*
X154380000Y-78990000D02*
X154380000Y-72970000D01*
X153800000Y-73570000D02*
X153800000Y-72970000D01*
X150710000Y-77460000D02*
X152750000Y-77460000D01*
X166380000Y-98010000D02*
X161080000Y-98010000D01*
X164200000Y-103430000D02*
X164200000Y-104030000D01*
X166670000Y-103000000D02*
X166670000Y-99000000D01*
X166380000Y-104030000D02*
X166380000Y-98010000D01*
X163260000Y-104030000D02*
X163260000Y-103430000D01*
X162460000Y-99010000D02*
X162460000Y-98010000D01*
X162710000Y-98010000D02*
X162710000Y-99010000D01*
X165800000Y-103430000D02*
X164200000Y-103430000D01*
X163260000Y-103430000D02*
X161660000Y-103430000D01*
X162710000Y-99540000D02*
X162460000Y-99010000D01*
X165000000Y-99010000D02*
X162460000Y-99010000D01*
X165000000Y-98010000D02*
X165000000Y-99010000D01*
X164750000Y-98010000D02*
X164750000Y-99010000D01*
X165000000Y-99010000D02*
X164750000Y-99540000D01*
X161080000Y-104030000D02*
X166380000Y-104030000D01*
X165800000Y-104030000D02*
X165800000Y-103430000D01*
X161080000Y-98010000D02*
X161080000Y-104030000D01*
X161660000Y-103430000D02*
X161660000Y-104030000D01*
X164750000Y-99540000D02*
X162710000Y-99540000D01*
X156000000Y-95990000D02*
X156000000Y-96990000D01*
X155200000Y-91570000D02*
X156800000Y-91570000D01*
X152660000Y-91570000D02*
X154260000Y-91570000D01*
X150920000Y-95990000D02*
X156000000Y-95990000D01*
X149250000Y-92000000D02*
X149250000Y-96000000D01*
X155200000Y-90970000D02*
X155200000Y-91570000D01*
X149540000Y-90970000D02*
X149540000Y-96990000D01*
X150920000Y-95990000D02*
X151170000Y-95460000D01*
X151170000Y-95460000D02*
X155750000Y-95460000D01*
X156800000Y-91570000D02*
X156800000Y-90970000D01*
X152660000Y-90970000D02*
X152660000Y-91570000D01*
X155750000Y-96990000D02*
X155750000Y-95990000D01*
X157380000Y-90970000D02*
X149540000Y-90970000D01*
X155750000Y-95460000D02*
X156000000Y-95990000D01*
X151170000Y-96990000D02*
X151170000Y-95990000D01*
X150120000Y-91570000D02*
X151720000Y-91570000D01*
X149540000Y-96990000D02*
X157380000Y-96990000D01*
X150120000Y-90970000D02*
X150120000Y-91570000D01*
X154260000Y-91570000D02*
X154260000Y-90970000D01*
X151720000Y-91570000D02*
X151720000Y-90970000D01*
X157380000Y-96990000D02*
X157380000Y-90970000D01*
X150920000Y-96990000D02*
X150920000Y-95990000D01*
X163397936Y-95910000D02*
X164602064Y-95910000D01*
X163397936Y-94090000D02*
X164602064Y-94090000D01*
X167997936Y-78910000D02*
X169202064Y-78910000D01*
X167997936Y-77090000D02*
X169202064Y-77090000D01*
X153600000Y-83350000D02*
X159000000Y-83350000D01*
X153600000Y-86650000D02*
X159000000Y-86650000D01*
X153600000Y-83350000D02*
X153600000Y-86650000D01*
X143796000Y-102040000D02*
X143796000Y-103348000D01*
X144676000Y-99301000D02*
X144676000Y-99960000D01*
X144956000Y-99681000D02*
X144956000Y-99960000D01*
X144916000Y-99617000D02*
X144916000Y-99960000D01*
X143195000Y-102040000D02*
X143195000Y-103536000D01*
X143996000Y-98753000D02*
X143996000Y-99960000D01*
X142715000Y-98420000D02*
X142715000Y-103580000D01*
X143876000Y-102040000D02*
X143876000Y-103310000D01*
X144556000Y-102040000D02*
X144556000Y-102826000D01*
X144156000Y-102040000D02*
X144156000Y-103149000D01*
X143436000Y-102040000D02*
X143436000Y-103480000D01*
X144196000Y-102040000D02*
X144196000Y-103122000D01*
X144876000Y-99557000D02*
X144876000Y-99960000D01*
X142795000Y-98421000D02*
X142795000Y-103579000D01*
X144316000Y-98965000D02*
X144316000Y-99960000D01*
X145276000Y-100482000D02*
X145276000Y-101518000D01*
X143516000Y-98545000D02*
X143516000Y-99960000D01*
X144036000Y-98776000D02*
X144036000Y-99960000D01*
X143836000Y-102040000D02*
X143836000Y-103329000D01*
X144636000Y-102040000D02*
X144636000Y-102743000D01*
X144356000Y-102040000D02*
X144356000Y-103004000D01*
X144956000Y-102040000D02*
X144956000Y-102319000D01*
X144996000Y-102040000D02*
X144996000Y-102251000D01*
X144516000Y-102040000D02*
X144516000Y-102864000D01*
X143275000Y-102040000D02*
X143275000Y-103520000D01*
X143195000Y-98464000D02*
X143195000Y-99960000D01*
X143436000Y-98520000D02*
X143436000Y-99960000D01*
X143636000Y-98586000D02*
X143636000Y-99960000D01*
X143395000Y-102040000D02*
X143395000Y-103491000D01*
X145236000Y-100323000D02*
X145236000Y-101677000D01*
X144116000Y-98825000D02*
X144116000Y-99960000D01*
X143476000Y-102040000D02*
X143476000Y-103468000D01*
X144596000Y-99215000D02*
X144596000Y-99960000D01*
X144876000Y-102040000D02*
X144876000Y-102443000D01*
X144436000Y-99063000D02*
X144436000Y-99960000D01*
X144156000Y-98851000D02*
X144156000Y-99960000D01*
X143836000Y-98671000D02*
X143836000Y-99960000D01*
X143075000Y-102040000D02*
X143075000Y-103556000D01*
X144916000Y-102040000D02*
X144916000Y-102383000D01*
X143315000Y-98489000D02*
X143315000Y-99960000D01*
X145076000Y-99902000D02*
X145076000Y-102098000D01*
X144636000Y-99257000D02*
X144636000Y-99960000D01*
X142955000Y-102040000D02*
X142955000Y-103569000D01*
X143235000Y-102040000D02*
X143235000Y-103528000D01*
X143155000Y-98457000D02*
X143155000Y-99960000D01*
X142875000Y-98424000D02*
X142875000Y-103576000D01*
X144236000Y-98905000D02*
X144236000Y-99960000D01*
X143956000Y-102040000D02*
X143956000Y-103268000D01*
X143716000Y-98618000D02*
X143716000Y-99960000D01*
X143355000Y-102040000D02*
X143355000Y-103501000D01*
X143235000Y-98472000D02*
X143235000Y-99960000D01*
X142755000Y-98420000D02*
X142755000Y-103580000D01*
X143756000Y-98635000D02*
X143756000Y-99960000D01*
X144716000Y-102040000D02*
X144716000Y-102653000D01*
X143355000Y-98499000D02*
X143355000Y-99960000D01*
X143035000Y-98439000D02*
X143035000Y-99960000D01*
X144076000Y-98800000D02*
X144076000Y-99960000D01*
X144316000Y-102040000D02*
X144316000Y-103035000D01*
X144556000Y-99174000D02*
X144556000Y-99960000D01*
X143115000Y-102040000D02*
X143115000Y-103550000D01*
X143556000Y-98558000D02*
X143556000Y-99960000D01*
X143275000Y-98480000D02*
X143275000Y-99960000D01*
X143115000Y-98450000D02*
X143115000Y-99960000D01*
X144116000Y-102040000D02*
X144116000Y-103175000D01*
X143676000Y-102040000D02*
X143676000Y-103398000D01*
X142835000Y-98422000D02*
X142835000Y-103578000D01*
X142915000Y-98427000D02*
X142915000Y-103573000D01*
X142955000Y-98431000D02*
X142955000Y-99960000D01*
X143315000Y-102040000D02*
X143315000Y-103511000D01*
X144596000Y-102040000D02*
X144596000Y-102785000D01*
X143916000Y-98710000D02*
X143916000Y-99960000D01*
X144276000Y-98935000D02*
X144276000Y-99960000D01*
X143756000Y-102040000D02*
X143756000Y-103365000D01*
X144716000Y-99347000D02*
X144716000Y-99960000D01*
X143075000Y-98444000D02*
X143075000Y-99960000D01*
X144436000Y-102040000D02*
X144436000Y-102937000D01*
X143556000Y-102040000D02*
X143556000Y-103442000D01*
X144276000Y-102040000D02*
X144276000Y-103065000D01*
X143996000Y-102040000D02*
X143996000Y-103247000D01*
X144476000Y-102040000D02*
X144476000Y-102901000D01*
X143516000Y-102040000D02*
X143516000Y-103455000D01*
X144036000Y-102040000D02*
X144036000Y-103224000D01*
X143676000Y-98602000D02*
X143676000Y-99960000D01*
X139910225Y-99525000D02*
X140410225Y-99525000D01*
X144756000Y-102040000D02*
X144756000Y-102605000D01*
X145196000Y-100195000D02*
X145196000Y-101805000D01*
X144996000Y-99749000D02*
X144996000Y-99960000D01*
X143596000Y-102040000D02*
X143596000Y-103428000D01*
X142995000Y-102040000D02*
X142995000Y-103565000D01*
X145316000Y-100716000D02*
X145316000Y-101284000D01*
X143596000Y-98572000D02*
X143596000Y-99960000D01*
X145116000Y-99989000D02*
X145116000Y-102011000D01*
X143716000Y-102040000D02*
X143716000Y-103382000D01*
X144356000Y-98996000D02*
X144356000Y-99960000D01*
X144836000Y-99500000D02*
X144836000Y-99960000D01*
X145036000Y-99822000D02*
X145036000Y-102178000D01*
X144196000Y-98878000D02*
X144196000Y-99960000D01*
X144076000Y-102040000D02*
X144076000Y-103200000D01*
X143636000Y-102040000D02*
X143636000Y-103414000D01*
X140160225Y-99275000D02*
X140160225Y-99775000D01*
X143796000Y-98652000D02*
X143796000Y-99960000D01*
X144396000Y-99029000D02*
X144396000Y-99960000D01*
X143395000Y-98509000D02*
X143395000Y-99960000D01*
X144236000Y-102040000D02*
X144236000Y-103095000D01*
X143035000Y-102040000D02*
X143035000Y-103561000D01*
X143916000Y-102040000D02*
X143916000Y-103290000D01*
X143956000Y-98732000D02*
X143956000Y-99960000D01*
X144796000Y-99446000D02*
X144796000Y-99960000D01*
X143876000Y-98690000D02*
X143876000Y-99960000D01*
X144796000Y-102040000D02*
X144796000Y-102554000D01*
X145156000Y-100085000D02*
X145156000Y-101915000D01*
X144396000Y-102040000D02*
X144396000Y-102971000D01*
X142995000Y-98435000D02*
X142995000Y-99960000D01*
X144836000Y-102040000D02*
X144836000Y-102500000D01*
X144476000Y-99099000D02*
X144476000Y-99960000D01*
X143155000Y-102040000D02*
X143155000Y-103543000D01*
X144756000Y-99395000D02*
X144756000Y-99960000D01*
X143476000Y-98532000D02*
X143476000Y-99960000D01*
X144676000Y-102040000D02*
X144676000Y-102699000D01*
X144516000Y-99136000D02*
X144516000Y-99960000D01*
X145335000Y-101000000D02*
G75*
G02*
X140095000Y-101000000I-2620000J0D01*
G01*
X140095000Y-101000000D02*
G75*
G02*
X145335000Y-101000000I2620000J0D01*
G01*
X142309420Y-96510000D02*
X142590580Y-96510000D01*
X142309420Y-95490000D02*
X142590580Y-95490000D01*
X142084420Y-93510000D02*
X142365580Y-93510000D01*
X142084420Y-92490000D02*
X142365580Y-92490000D01*
X142084420Y-90510000D02*
X142365580Y-90510000D01*
X142084420Y-89490000D02*
X142365580Y-89490000D01*
X142309420Y-87510000D02*
X142590580Y-87510000D01*
X142309420Y-86490000D02*
X142590580Y-86490000D01*
X142309420Y-84510000D02*
X142590580Y-84510000D01*
X142309420Y-83490000D02*
X142590580Y-83490000D01*
X142309420Y-81510000D02*
X142590580Y-81510000D01*
X142309420Y-80490000D02*
X142590580Y-80490000D01*
X142309420Y-78510000D02*
X142590580Y-78510000D01*
X142309420Y-77490000D02*
X142590580Y-77490000D01*
X151084420Y-101510000D02*
X151365580Y-101510000D01*
X151084420Y-100490000D02*
X151365580Y-100490000D01*
%LPC*%
D12*
X140000000Y-70000000D03*
X173000000Y-110000000D03*
X173000000Y-70000000D03*
X140000000Y-110000000D03*
D13*
X156000000Y-101000000D03*
X157825000Y-101000000D03*
D14*
X170000000Y-90080000D03*
D15*
X170000000Y-87540000D03*
X170000000Y-85000000D03*
D16*
X159460000Y-76000000D03*
D17*
X162000000Y-76000000D03*
D16*
X150460000Y-76000000D03*
D17*
X153000000Y-76000000D03*
D18*
X165000000Y-101000000D03*
D17*
X162460000Y-101000000D03*
D16*
X150920000Y-94000000D03*
D17*
X153460000Y-94000000D03*
X156000000Y-94000000D03*
D19*
X162600000Y-95000000D03*
X165400000Y-95000000D03*
X167200000Y-78000000D03*
X170000000Y-78000000D03*
D20*
X155000000Y-85000000D03*
X159000000Y-85000000D03*
D21*
X141465000Y-101000000D03*
D22*
X143965000Y-101000000D03*
D23*
X141675000Y-96000000D03*
X143225000Y-96000000D03*
X141450000Y-93000000D03*
X143000000Y-93000000D03*
X141450000Y-90000000D03*
X143000000Y-90000000D03*
X141675000Y-87000000D03*
X143225000Y-87000000D03*
X141675000Y-84000000D03*
X143225000Y-84000000D03*
X141675000Y-81000000D03*
X143225000Y-81000000D03*
X141675000Y-78000000D03*
X143225000Y-78000000D03*
X150450000Y-101000000D03*
X152000000Y-101000000D03*
%LPD*%
M02*
