%TF.GenerationSoftware,KiCad,Pcbnew,8.0.9*%
%TF.CreationDate,2025-10-04T12:36:41-05:00*%
%TF.ProjectId,Horns_v1.0,486f726e-735f-4763-912e-302e6b696361,1.0*%
%TF.SameCoordinates,Original*%
%TF.FileFunction,Copper,L2,Bot*%
%TF.FilePolarity,Positive*%
%FSLAX46Y46*%
G04 Gerber Fmt 4.6, Leading zero omitted, Abs format (unit mm)*
G04 Created by KiCad (PCBNEW 8.0.9) date 2025-10-04 12:36:41*
%MOMM*%
%LPD*%
G01*
G04 APERTURE LIST*
G04 Aperture macros list*
%AMRoundRect*
0 Rectangle with rounded corners*
0 $1 Rounding radius*
0 $2 $3 $4 $5 $6 $7 $8 $9 X,Y pos of 4 corners*
0 Add a 4 corners polygon primitive as box body*
4,1,4,$2,$3,$4,$5,$6,$7,$8,$9,$2,$3,0*
0 Add four circle primitives for the rounded corners*
1,1,$1+$1,$2,$3*
1,1,$1+$1,$4,$5*
1,1,$1+$1,$6,$7*
1,1,$1+$1,$8,$9*
0 Add four rect primitives between the rounded corners*
20,1,$1+$1,$2,$3,$4,$5,0*
20,1,$1+$1,$4,$5,$6,$7,0*
20,1,$1+$1,$6,$7,$8,$9,0*
20,1,$1+$1,$8,$9,$2,$3,0*%
G04 Aperture macros list end*
%TA.AperFunction,ComponentPad*%
%ADD10C,3.000000*%
%TD*%
%TA.AperFunction,ComponentPad*%
%ADD11RoundRect,0.250000X-0.620000X-0.845000X0.620000X-0.845000X0.620000X0.845000X-0.620000X0.845000X0*%
%TD*%
%TA.AperFunction,ComponentPad*%
%ADD12O,1.740000X2.190000*%
%TD*%
%TA.AperFunction,ComponentPad*%
%ADD13R,3.200000X3.200000*%
%TD*%
%TA.AperFunction,ComponentPad*%
%ADD14O,3.200000X3.200000*%
%TD*%
%TA.AperFunction,ComponentPad*%
%ADD15R,1.000000X1.000000*%
%TD*%
%TA.AperFunction,ViaPad*%
%ADD16C,0.800000*%
%TD*%
G04 APERTURE END LIST*
D10*
%TO.P,F1,1*%
%TO.N,Net-(Q1-G)*%
X46580000Y-69110000D03*
%TO.P,F1,2*%
%TO.N,Net-(D1-A)*%
X69180000Y-69110000D03*
%TD*%
D11*
%TO.P,J2,1,Pin_1*%
%TO.N,GND*%
X32600000Y-70800000D03*
D12*
%TO.P,J2,2,Pin_2*%
%TO.N,/HORN_CTL*%
X35140000Y-70800000D03*
%TD*%
D11*
%TO.P,J1,1,Pin_1*%
%TO.N,GND*%
X35760000Y-61260000D03*
D12*
%TO.P,J1,2,Pin_2*%
%TO.N,+24V*%
X38300000Y-61260000D03*
%TO.P,J1,3,Pin_3*%
%TO.N,GND*%
X40840000Y-61260000D03*
%TD*%
D13*
%TO.P,D1,1,K*%
%TO.N,+24V*%
X51170000Y-60740000D03*
D14*
%TO.P,D1,2,A*%
%TO.N,Net-(D1-A)*%
X66410000Y-60740000D03*
%TD*%
D11*
%TO.P,J3,1,Pin_1*%
%TO.N,Net-(D1-A)*%
X39700000Y-100420000D03*
D12*
%TO.P,J3,2,Pin_2*%
%TO.N,+24V*%
X42240000Y-100420000D03*
%TD*%
D15*
%TO.P,TP1,1,1*%
%TO.N,+24V*%
X32400000Y-77200000D03*
%TD*%
%TO.P,TP4,1,1*%
%TO.N,Net-(D1-A)*%
X62920000Y-84070000D03*
%TD*%
%TO.P,TP2,1,1*%
%TO.N,GND*%
X32200000Y-80400000D03*
%TD*%
%TO.P,TP3,1,1*%
%TO.N,/HORN_CTL*%
X55690000Y-84230000D03*
%TD*%
D11*
%TO.P,J4,1,Pin_1*%
%TO.N,Net-(D1-A)*%
X31920000Y-100310000D03*
D12*
%TO.P,J4,2,Pin_2*%
%TO.N,+24V*%
X34460000Y-100310000D03*
%TD*%
D16*
%TO.N,GND*%
X57400000Y-86000000D03*
X41400000Y-84000000D03*
X58200000Y-74400000D03*
X41800000Y-80000000D03*
X69000000Y-93000000D03*
%TD*%
%TA.AperFunction,Conductor*%
%TO.N,GND*%
G36*
X73343618Y-57620171D02*
G01*
X73389826Y-57672578D01*
X73401471Y-57723584D01*
X73998472Y-107871704D01*
X73979587Y-107938973D01*
X73927332Y-107985353D01*
X73871726Y-107997149D01*
X29000018Y-107000000D01*
X29000000Y-107000000D01*
X28121495Y-107000000D01*
X28054456Y-106980315D01*
X28008701Y-106927511D01*
X27997521Y-106878530D01*
X27972719Y-105663222D01*
X27936300Y-103878711D01*
X67149500Y-103878711D01*
X67149500Y-104121288D01*
X67181161Y-104361785D01*
X67243947Y-104596104D01*
X67336773Y-104820205D01*
X67336776Y-104820212D01*
X67458064Y-105030289D01*
X67458066Y-105030292D01*
X67458067Y-105030293D01*
X67605733Y-105222736D01*
X67605739Y-105222743D01*
X67777256Y-105394260D01*
X67777262Y-105394265D01*
X67969711Y-105541936D01*
X68179788Y-105663224D01*
X68403900Y-105756054D01*
X68638211Y-105818838D01*
X68818586Y-105842584D01*
X68878711Y-105850500D01*
X68878712Y-105850500D01*
X69121289Y-105850500D01*
X69169388Y-105844167D01*
X69361789Y-105818838D01*
X69596100Y-105756054D01*
X69820212Y-105663224D01*
X70030289Y-105541936D01*
X70222738Y-105394265D01*
X70394265Y-105222738D01*
X70541936Y-105030289D01*
X70663224Y-104820212D01*
X70756054Y-104596100D01*
X70818838Y-104361789D01*
X70850500Y-104121288D01*
X70850500Y-103878712D01*
X70818838Y-103638211D01*
X70756054Y-103403900D01*
X70663224Y-103179788D01*
X70541936Y-102969711D01*
X70394265Y-102777262D01*
X70394260Y-102777256D01*
X70222743Y-102605739D01*
X70222736Y-102605733D01*
X70030293Y-102458067D01*
X70030292Y-102458066D01*
X70030289Y-102458064D01*
X69820212Y-102336776D01*
X69820205Y-102336773D01*
X69596104Y-102243947D01*
X69361785Y-102181161D01*
X69121289Y-102149500D01*
X69121288Y-102149500D01*
X68878712Y-102149500D01*
X68878711Y-102149500D01*
X68638214Y-102181161D01*
X68403895Y-102243947D01*
X68179794Y-102336773D01*
X68179785Y-102336777D01*
X67969706Y-102458067D01*
X67777263Y-102605733D01*
X67777256Y-102605739D01*
X67605739Y-102777256D01*
X67605733Y-102777263D01*
X67458067Y-102969706D01*
X67336777Y-103179785D01*
X67336773Y-103179794D01*
X67243947Y-103403895D01*
X67181161Y-103638214D01*
X67149500Y-103878711D01*
X27936300Y-103878711D01*
X27845193Y-99414447D01*
X30541500Y-99414447D01*
X30541500Y-101205537D01*
X30541501Y-101205553D01*
X30552113Y-101309427D01*
X30599310Y-101451860D01*
X30607885Y-101477738D01*
X30700970Y-101628652D01*
X30826348Y-101754030D01*
X30977262Y-101847115D01*
X31145574Y-101902887D01*
X31249455Y-101913500D01*
X32590544Y-101913499D01*
X32694426Y-101902887D01*
X32862738Y-101847115D01*
X33013652Y-101754030D01*
X33139030Y-101628652D01*
X33232115Y-101477738D01*
X33232115Y-101477735D01*
X33234146Y-101474444D01*
X33286094Y-101427720D01*
X33355057Y-101416497D01*
X33419139Y-101444341D01*
X33427366Y-101451860D01*
X33561967Y-101586461D01*
X33737508Y-101713999D01*
X33930840Y-101812506D01*
X34137200Y-101879557D01*
X34217566Y-101892285D01*
X34351505Y-101913500D01*
X34351510Y-101913500D01*
X34568495Y-101913500D01*
X34687551Y-101894642D01*
X34782800Y-101879557D01*
X34989160Y-101812506D01*
X35182492Y-101713999D01*
X35358033Y-101586461D01*
X35511461Y-101433033D01*
X35638999Y-101257492D01*
X35737506Y-101064160D01*
X35804557Y-100857800D01*
X35821078Y-100753490D01*
X35838500Y-100643495D01*
X35838500Y-99976504D01*
X35804557Y-99762203D01*
X35804557Y-99762200D01*
X35737506Y-99555840D01*
X35721511Y-99524447D01*
X38321500Y-99524447D01*
X38321500Y-101315537D01*
X38321501Y-101315553D01*
X38332113Y-101419427D01*
X38379310Y-101561860D01*
X38387885Y-101587738D01*
X38480970Y-101738652D01*
X38606348Y-101864030D01*
X38757262Y-101957115D01*
X38925574Y-102012887D01*
X39029455Y-102023500D01*
X40370544Y-102023499D01*
X40474426Y-102012887D01*
X40642738Y-101957115D01*
X40793652Y-101864030D01*
X40919030Y-101738652D01*
X41012115Y-101587738D01*
X41012115Y-101587735D01*
X41014146Y-101584444D01*
X41066094Y-101537720D01*
X41135057Y-101526497D01*
X41199139Y-101554341D01*
X41207366Y-101561860D01*
X41341967Y-101696461D01*
X41517508Y-101823999D01*
X41710840Y-101922506D01*
X41917200Y-101989557D01*
X41997566Y-102002285D01*
X42131505Y-102023500D01*
X42131510Y-102023500D01*
X42348495Y-102023500D01*
X42467551Y-102004642D01*
X42562800Y-101989557D01*
X42769160Y-101922506D01*
X42962492Y-101823999D01*
X43138033Y-101696461D01*
X43291461Y-101543033D01*
X43418999Y-101367492D01*
X43517506Y-101174160D01*
X43584557Y-100967800D01*
X43601980Y-100857796D01*
X43618500Y-100753495D01*
X43618500Y-100086504D01*
X43584557Y-99872203D01*
X43584557Y-99872200D01*
X43517506Y-99665840D01*
X43418999Y-99472508D01*
X43291461Y-99296967D01*
X43138033Y-99143539D01*
X42962492Y-99016001D01*
X42769160Y-98917494D01*
X42562800Y-98850443D01*
X42562798Y-98850442D01*
X42562796Y-98850442D01*
X42348495Y-98816500D01*
X42348490Y-98816500D01*
X42131510Y-98816500D01*
X42131505Y-98816500D01*
X41917203Y-98850442D01*
X41710837Y-98917495D01*
X41517507Y-99016001D01*
X41341968Y-99143538D01*
X41207366Y-99278140D01*
X41146043Y-99311624D01*
X41076351Y-99306640D01*
X41020418Y-99264768D01*
X41014147Y-99255555D01*
X40919032Y-99101351D01*
X40919029Y-99101347D01*
X40793653Y-98975971D01*
X40793652Y-98975970D01*
X40642738Y-98882885D01*
X40544830Y-98850442D01*
X40474427Y-98827113D01*
X40370545Y-98816500D01*
X39029462Y-98816500D01*
X39029446Y-98816501D01*
X38925572Y-98827113D01*
X38757264Y-98882884D01*
X38757259Y-98882886D01*
X38606346Y-98975971D01*
X38480971Y-99101346D01*
X38387886Y-99252259D01*
X38387884Y-99252264D01*
X38332113Y-99420572D01*
X38321500Y-99524447D01*
X35721511Y-99524447D01*
X35638999Y-99362508D01*
X35511461Y-99186967D01*
X35358033Y-99033539D01*
X35182492Y-98906001D01*
X34989160Y-98807494D01*
X34782800Y-98740443D01*
X34782798Y-98740442D01*
X34782796Y-98740442D01*
X34568495Y-98706500D01*
X34568490Y-98706500D01*
X34351510Y-98706500D01*
X34351505Y-98706500D01*
X34137203Y-98740442D01*
X33930837Y-98807495D01*
X33737507Y-98906001D01*
X33561968Y-99033538D01*
X33427366Y-99168140D01*
X33366043Y-99201624D01*
X33296351Y-99196640D01*
X33240418Y-99154768D01*
X33234147Y-99145555D01*
X33139032Y-98991351D01*
X33139029Y-98991347D01*
X33013653Y-98865971D01*
X33013652Y-98865970D01*
X32862738Y-98772885D01*
X32764830Y-98740442D01*
X32694427Y-98717113D01*
X32590545Y-98706500D01*
X31249462Y-98706500D01*
X31249446Y-98706501D01*
X31145572Y-98717113D01*
X30977264Y-98772884D01*
X30977259Y-98772886D01*
X30826346Y-98865971D01*
X30700971Y-98991346D01*
X30607886Y-99142259D01*
X30607884Y-99142264D01*
X30552113Y-99310572D01*
X30541500Y-99414447D01*
X27845193Y-99414447D01*
X27524109Y-83681345D01*
X54681500Y-83681345D01*
X54681500Y-84778654D01*
X54688011Y-84839202D01*
X54688011Y-84839204D01*
X54723094Y-84933261D01*
X54739111Y-84976204D01*
X54826739Y-85093261D01*
X54943796Y-85180889D01*
X55080799Y-85231989D01*
X55108050Y-85234918D01*
X55141345Y-85238499D01*
X55141362Y-85238500D01*
X56238638Y-85238500D01*
X56238654Y-85238499D01*
X56265692Y-85235591D01*
X56299201Y-85231989D01*
X56436204Y-85180889D01*
X56553261Y-85093261D01*
X56640889Y-84976204D01*
X56691989Y-84839201D01*
X56695591Y-84805692D01*
X56698499Y-84778654D01*
X56698500Y-84778637D01*
X56698500Y-83681362D01*
X56698499Y-83681345D01*
X56695157Y-83650270D01*
X56691989Y-83620799D01*
X56654894Y-83521345D01*
X61911500Y-83521345D01*
X61911500Y-84618654D01*
X61918011Y-84679202D01*
X61918011Y-84679204D01*
X61955099Y-84778637D01*
X61969111Y-84816204D01*
X62056739Y-84933261D01*
X62173796Y-85020889D01*
X62310799Y-85071989D01*
X62338050Y-85074918D01*
X62371345Y-85078499D01*
X62371362Y-85078500D01*
X63468638Y-85078500D01*
X63468654Y-85078499D01*
X63495692Y-85075591D01*
X63529201Y-85071989D01*
X63666204Y-85020889D01*
X63783261Y-84933261D01*
X63870889Y-84816204D01*
X63921989Y-84679201D01*
X63925591Y-84645692D01*
X63928499Y-84618654D01*
X63928500Y-84618637D01*
X63928500Y-83521362D01*
X63928499Y-83521345D01*
X63924461Y-83483795D01*
X63921989Y-83460799D01*
X63870889Y-83323796D01*
X63783261Y-83206739D01*
X63666204Y-83119111D01*
X63529203Y-83068011D01*
X63468654Y-83061500D01*
X63468638Y-83061500D01*
X62371362Y-83061500D01*
X62371345Y-83061500D01*
X62310797Y-83068011D01*
X62310795Y-83068011D01*
X62173795Y-83119111D01*
X62056739Y-83206739D01*
X61969111Y-83323795D01*
X61918011Y-83460795D01*
X61918011Y-83460797D01*
X61911500Y-83521345D01*
X56654894Y-83521345D01*
X56640889Y-83483796D01*
X56553261Y-83366739D01*
X56436204Y-83279111D01*
X56299203Y-83228011D01*
X56238654Y-83221500D01*
X56238638Y-83221500D01*
X55141362Y-83221500D01*
X55141345Y-83221500D01*
X55080797Y-83228011D01*
X55080795Y-83228011D01*
X54943795Y-83279111D01*
X54826739Y-83366739D01*
X54739111Y-83483795D01*
X54688011Y-83620795D01*
X54688011Y-83620797D01*
X54681500Y-83681345D01*
X27524109Y-83681345D01*
X27468323Y-80947844D01*
X31200000Y-80947844D01*
X31206401Y-81007372D01*
X31206403Y-81007379D01*
X31256645Y-81142086D01*
X31256649Y-81142093D01*
X31342809Y-81257187D01*
X31342812Y-81257190D01*
X31457906Y-81343350D01*
X31457913Y-81343354D01*
X31592620Y-81393596D01*
X31592627Y-81393598D01*
X31652155Y-81399999D01*
X31652172Y-81400000D01*
X31950000Y-81400000D01*
X32450000Y-81400000D01*
X32747828Y-81400000D01*
X32747844Y-81399999D01*
X32807372Y-81393598D01*
X32807379Y-81393596D01*
X32942086Y-81343354D01*
X32942093Y-81343350D01*
X33057187Y-81257190D01*
X33057190Y-81257187D01*
X33143350Y-81142093D01*
X33143354Y-81142086D01*
X33193596Y-81007379D01*
X33193598Y-81007372D01*
X33199999Y-80947844D01*
X33200000Y-80947827D01*
X33200000Y-80650000D01*
X32450000Y-80650000D01*
X32450000Y-81400000D01*
X31950000Y-81400000D01*
X31950000Y-80650000D01*
X31200000Y-80650000D01*
X31200000Y-80947844D01*
X27468323Y-80947844D01*
X27456128Y-80350272D01*
X31950000Y-80350272D01*
X31950000Y-80449728D01*
X31988060Y-80541614D01*
X32058386Y-80611940D01*
X32150272Y-80650000D01*
X32249728Y-80650000D01*
X32341614Y-80611940D01*
X32411940Y-80541614D01*
X32450000Y-80449728D01*
X32450000Y-80350272D01*
X32411940Y-80258386D01*
X32341614Y-80188060D01*
X32249728Y-80150000D01*
X32450000Y-80150000D01*
X33200000Y-80150000D01*
X33200000Y-79852172D01*
X33199999Y-79852155D01*
X33193598Y-79792627D01*
X33193596Y-79792620D01*
X33143354Y-79657913D01*
X33143350Y-79657906D01*
X33057190Y-79542812D01*
X33057187Y-79542809D01*
X32942093Y-79456649D01*
X32942086Y-79456645D01*
X32807379Y-79406403D01*
X32807372Y-79406401D01*
X32747844Y-79400000D01*
X32450000Y-79400000D01*
X32450000Y-80150000D01*
X32249728Y-80150000D01*
X32150272Y-80150000D01*
X32058386Y-80188060D01*
X31988060Y-80258386D01*
X31950000Y-80350272D01*
X27456128Y-80350272D01*
X27445962Y-79852155D01*
X31200000Y-79852155D01*
X31200000Y-80150000D01*
X31950000Y-80150000D01*
X31950000Y-79400000D01*
X31652155Y-79400000D01*
X31592627Y-79406401D01*
X31592620Y-79406403D01*
X31457913Y-79456645D01*
X31457906Y-79456649D01*
X31342812Y-79542809D01*
X31342809Y-79542812D01*
X31256649Y-79657906D01*
X31256645Y-79657913D01*
X31206403Y-79792620D01*
X31206401Y-79792627D01*
X31200000Y-79852155D01*
X27445962Y-79852155D01*
X27380639Y-76651345D01*
X31391500Y-76651345D01*
X31391500Y-77748654D01*
X31398011Y-77809202D01*
X31398011Y-77809204D01*
X31449111Y-77946204D01*
X31536739Y-78063261D01*
X31653796Y-78150889D01*
X31790799Y-78201989D01*
X31818050Y-78204918D01*
X31851345Y-78208499D01*
X31851362Y-78208500D01*
X32948638Y-78208500D01*
X32948654Y-78208499D01*
X32975692Y-78205591D01*
X33009201Y-78201989D01*
X33146204Y-78150889D01*
X33263261Y-78063261D01*
X33350889Y-77946204D01*
X33401989Y-77809201D01*
X33405591Y-77775692D01*
X33408499Y-77748654D01*
X33408500Y-77748637D01*
X33408500Y-76651362D01*
X33408499Y-76651345D01*
X33405157Y-76620270D01*
X33401989Y-76590799D01*
X33350889Y-76453796D01*
X33263261Y-76336739D01*
X33146204Y-76249111D01*
X33009203Y-76198011D01*
X32948654Y-76191500D01*
X32948638Y-76191500D01*
X31851362Y-76191500D01*
X31851345Y-76191500D01*
X31790797Y-76198011D01*
X31790795Y-76198011D01*
X31653795Y-76249111D01*
X31536739Y-76336739D01*
X31449111Y-76453795D01*
X31398011Y-76590795D01*
X31398011Y-76590797D01*
X31391500Y-76651345D01*
X27380639Y-76651345D01*
X27242959Y-69905013D01*
X31230000Y-69905013D01*
X31230000Y-70550000D01*
X32057291Y-70550000D01*
X32045548Y-70570339D01*
X32005000Y-70721667D01*
X32005000Y-70878333D01*
X32045548Y-71029661D01*
X32057291Y-71050000D01*
X31230001Y-71050000D01*
X31230001Y-71694986D01*
X31240494Y-71797697D01*
X31295641Y-71964119D01*
X31295643Y-71964124D01*
X31387684Y-72113345D01*
X31511654Y-72237315D01*
X31660875Y-72329356D01*
X31660880Y-72329358D01*
X31827302Y-72384505D01*
X31827309Y-72384506D01*
X31930019Y-72394999D01*
X32349999Y-72394999D01*
X32350000Y-72394998D01*
X32350000Y-71342709D01*
X32370339Y-71354452D01*
X32521667Y-71395000D01*
X32678333Y-71395000D01*
X32829661Y-71354452D01*
X32850000Y-71342709D01*
X32850000Y-72394999D01*
X33269972Y-72394999D01*
X33269986Y-72394998D01*
X33372697Y-72384505D01*
X33539119Y-72329358D01*
X33539124Y-72329356D01*
X33688345Y-72237315D01*
X33812317Y-72113343D01*
X33907968Y-71958267D01*
X33959916Y-71911542D01*
X34028878Y-71900319D01*
X34092960Y-71928162D01*
X34101188Y-71935682D01*
X34241967Y-72076461D01*
X34417508Y-72203999D01*
X34610840Y-72302506D01*
X34817200Y-72369557D01*
X34897566Y-72382285D01*
X35031505Y-72403500D01*
X35031510Y-72403500D01*
X35248495Y-72403500D01*
X35368421Y-72384505D01*
X35462800Y-72369557D01*
X35669160Y-72302506D01*
X35862492Y-72203999D01*
X36038033Y-72076461D01*
X36191461Y-71923033D01*
X36318999Y-71747492D01*
X36417506Y-71554160D01*
X36484557Y-71347800D01*
X36513456Y-71165338D01*
X36518500Y-71133495D01*
X36518500Y-70466504D01*
X36484557Y-70252203D01*
X36484557Y-70252200D01*
X36417506Y-70045840D01*
X36318999Y-69852508D01*
X36191461Y-69676967D01*
X36038033Y-69523539D01*
X35862492Y-69396001D01*
X35669160Y-69297494D01*
X35462800Y-69230443D01*
X35462798Y-69230442D01*
X35462796Y-69230442D01*
X35248495Y-69196500D01*
X35248490Y-69196500D01*
X35031510Y-69196500D01*
X35031505Y-69196500D01*
X34817203Y-69230442D01*
X34610837Y-69297495D01*
X34417507Y-69396001D01*
X34241968Y-69523538D01*
X34101188Y-69664318D01*
X34039865Y-69697802D01*
X33970173Y-69692818D01*
X33914240Y-69650946D01*
X33907968Y-69641732D01*
X33812317Y-69486656D01*
X33688345Y-69362684D01*
X33539124Y-69270643D01*
X33539119Y-69270641D01*
X33372697Y-69215494D01*
X33372690Y-69215493D01*
X33269986Y-69205000D01*
X32850000Y-69205000D01*
X32850000Y-70257290D01*
X32829661Y-70245548D01*
X32678333Y-70205000D01*
X32521667Y-70205000D01*
X32370339Y-70245548D01*
X32350000Y-70257290D01*
X32350000Y-69205000D01*
X31930028Y-69205000D01*
X31930012Y-69205001D01*
X31827302Y-69215494D01*
X31660880Y-69270641D01*
X31660875Y-69270643D01*
X31511654Y-69362684D01*
X31387684Y-69486654D01*
X31295643Y-69635875D01*
X31295641Y-69635880D01*
X31240494Y-69802302D01*
X31240493Y-69802309D01*
X31230000Y-69905013D01*
X27242959Y-69905013D01*
X27226734Y-69110000D01*
X44566807Y-69110000D01*
X44585557Y-69384130D01*
X44585558Y-69384132D01*
X44641458Y-69653141D01*
X44641463Y-69653158D01*
X44733476Y-69912056D01*
X44859889Y-70156024D01*
X44859893Y-70156030D01*
X45018340Y-70380499D01*
X45018343Y-70380502D01*
X45205889Y-70581314D01*
X45419031Y-70754718D01*
X45419033Y-70754719D01*
X45419034Y-70754720D01*
X45653801Y-70897485D01*
X45858348Y-70986331D01*
X45905823Y-71006953D01*
X46170404Y-71081085D01*
X46409720Y-71113978D01*
X46442614Y-71118500D01*
X46442615Y-71118500D01*
X46717386Y-71118500D01*
X46746733Y-71114466D01*
X46989596Y-71081085D01*
X47254177Y-71006953D01*
X47506200Y-70897484D01*
X47740969Y-70754718D01*
X47954111Y-70581314D01*
X48141657Y-70380502D01*
X48300111Y-70156023D01*
X48426523Y-69912058D01*
X48518538Y-69653153D01*
X48518539Y-69653146D01*
X48518541Y-69653141D01*
X48571975Y-69396001D01*
X48574442Y-69384130D01*
X48593193Y-69110000D01*
X67166807Y-69110000D01*
X67185557Y-69384130D01*
X67185558Y-69384132D01*
X67241458Y-69653141D01*
X67241463Y-69653158D01*
X67333476Y-69912056D01*
X67459889Y-70156024D01*
X67459893Y-70156030D01*
X67618340Y-70380499D01*
X67618343Y-70380502D01*
X67805889Y-70581314D01*
X68019031Y-70754718D01*
X68019033Y-70754719D01*
X68019034Y-70754720D01*
X68253801Y-70897485D01*
X68458348Y-70986331D01*
X68505823Y-71006953D01*
X68770404Y-71081085D01*
X69009720Y-71113978D01*
X69042614Y-71118500D01*
X69042615Y-71118500D01*
X69317386Y-71118500D01*
X69346733Y-71114466D01*
X69589596Y-71081085D01*
X69854177Y-71006953D01*
X70106200Y-70897484D01*
X70340969Y-70754718D01*
X70554111Y-70581314D01*
X70741657Y-70380502D01*
X70900111Y-70156023D01*
X71026523Y-69912058D01*
X71118538Y-69653153D01*
X71118539Y-69653146D01*
X71118541Y-69653141D01*
X71171975Y-69396001D01*
X71174442Y-69384130D01*
X71193193Y-69110000D01*
X71174442Y-68835870D01*
X71155141Y-68742989D01*
X71118541Y-68566858D01*
X71118536Y-68566841D01*
X71026523Y-68307943D01*
X71026523Y-68307942D01*
X70900111Y-68063977D01*
X70900110Y-68063975D01*
X70900106Y-68063969D01*
X70741659Y-67839500D01*
X70723031Y-67819555D01*
X70554111Y-67638686D01*
X70340969Y-67465282D01*
X70340967Y-67465281D01*
X70340965Y-67465279D01*
X70106198Y-67322514D01*
X69854178Y-67213047D01*
X69589602Y-67138916D01*
X69589597Y-67138915D01*
X69589596Y-67138915D01*
X69453490Y-67120207D01*
X69317386Y-67101500D01*
X69317385Y-67101500D01*
X69042615Y-67101500D01*
X69042614Y-67101500D01*
X68770404Y-67138915D01*
X68770397Y-67138916D01*
X68505821Y-67213047D01*
X68253801Y-67322514D01*
X68019034Y-67465279D01*
X67805892Y-67638683D01*
X67618340Y-67839500D01*
X67459893Y-68063969D01*
X67459889Y-68063975D01*
X67333476Y-68307943D01*
X67241463Y-68566841D01*
X67241458Y-68566858D01*
X67185558Y-68835867D01*
X67185557Y-68835869D01*
X67166807Y-69110000D01*
X48593193Y-69110000D01*
X48574442Y-68835870D01*
X48555141Y-68742989D01*
X48518541Y-68566858D01*
X48518536Y-68566841D01*
X48426523Y-68307943D01*
X48426523Y-68307942D01*
X48300111Y-68063977D01*
X48300110Y-68063975D01*
X48300106Y-68063969D01*
X48141659Y-67839500D01*
X48123031Y-67819555D01*
X47954111Y-67638686D01*
X47740969Y-67465282D01*
X47740967Y-67465281D01*
X47740965Y-67465279D01*
X47506198Y-67322514D01*
X47254178Y-67213047D01*
X46989602Y-67138916D01*
X46989597Y-67138915D01*
X46989596Y-67138915D01*
X46853490Y-67120207D01*
X46717386Y-67101500D01*
X46717385Y-67101500D01*
X46442615Y-67101500D01*
X46442614Y-67101500D01*
X46170404Y-67138915D01*
X46170397Y-67138916D01*
X45905821Y-67213047D01*
X45653801Y-67322514D01*
X45419034Y-67465279D01*
X45205892Y-67638683D01*
X45018340Y-67839500D01*
X44859893Y-68063969D01*
X44859889Y-68063975D01*
X44733476Y-68307943D01*
X44641463Y-68566841D01*
X44641458Y-68566858D01*
X44585558Y-68835867D01*
X44585557Y-68835869D01*
X44566807Y-69110000D01*
X27226734Y-69110000D01*
X27079157Y-61878711D01*
X28149500Y-61878711D01*
X28149500Y-62121288D01*
X28181161Y-62361785D01*
X28243947Y-62596104D01*
X28336773Y-62820205D01*
X28336777Y-62820214D01*
X28353108Y-62848500D01*
X28458064Y-63030289D01*
X28458066Y-63030292D01*
X28458067Y-63030293D01*
X28605733Y-63222736D01*
X28605739Y-63222743D01*
X28777256Y-63394260D01*
X28777262Y-63394265D01*
X28969711Y-63541936D01*
X29179788Y-63663224D01*
X29403900Y-63756054D01*
X29638211Y-63818838D01*
X29818586Y-63842584D01*
X29878711Y-63850500D01*
X29878712Y-63850500D01*
X30121289Y-63850500D01*
X30169388Y-63844167D01*
X30361789Y-63818838D01*
X30596100Y-63756054D01*
X30820212Y-63663224D01*
X31030289Y-63541936D01*
X31222738Y-63394265D01*
X31394265Y-63222738D01*
X31541936Y-63030289D01*
X31663224Y-62820212D01*
X31756054Y-62596100D01*
X31818838Y-62361789D01*
X31850500Y-62121288D01*
X31850500Y-61878712D01*
X31818838Y-61638211D01*
X31756054Y-61403900D01*
X31663224Y-61179788D01*
X31541936Y-60969711D01*
X31394265Y-60777262D01*
X31394260Y-60777256D01*
X31222743Y-60605739D01*
X31222736Y-60605733D01*
X31030293Y-60458067D01*
X31030292Y-60458066D01*
X31030289Y-60458064D01*
X30869120Y-60365013D01*
X34390000Y-60365013D01*
X34390000Y-61010000D01*
X35217291Y-61010000D01*
X35205548Y-61030339D01*
X35165000Y-61181667D01*
X35165000Y-61338333D01*
X35205548Y-61489661D01*
X35217291Y-61510000D01*
X34390001Y-61510000D01*
X34390001Y-62154986D01*
X34400494Y-62257697D01*
X34455641Y-62424119D01*
X34455643Y-62424124D01*
X34547684Y-62573345D01*
X34671654Y-62697315D01*
X34820875Y-62789356D01*
X34820880Y-62789358D01*
X34987302Y-62844505D01*
X34987309Y-62844506D01*
X35090019Y-62854999D01*
X35509999Y-62854999D01*
X35510000Y-62854998D01*
X35510000Y-61802709D01*
X35530339Y-61814452D01*
X35681667Y-61855000D01*
X35838333Y-61855000D01*
X35989661Y-61814452D01*
X36010000Y-61802709D01*
X36010000Y-62854999D01*
X36429972Y-62854999D01*
X36429986Y-62854998D01*
X36532697Y-62844505D01*
X36699119Y-62789358D01*
X36699124Y-62789356D01*
X36848345Y-62697315D01*
X36972317Y-62573343D01*
X37067968Y-62418267D01*
X37119916Y-62371542D01*
X37188878Y-62360319D01*
X37252960Y-62388162D01*
X37261188Y-62395682D01*
X37401967Y-62536461D01*
X37577508Y-62663999D01*
X37770840Y-62762506D01*
X37977200Y-62829557D01*
X38055687Y-62841988D01*
X38191505Y-62863500D01*
X38191510Y-62863500D01*
X38408495Y-62863500D01*
X38528421Y-62844505D01*
X38622800Y-62829557D01*
X38829160Y-62762506D01*
X39022492Y-62663999D01*
X39198033Y-62536461D01*
X39351461Y-62383033D01*
X39474936Y-62213084D01*
X39530265Y-62170419D01*
X39599878Y-62164440D01*
X39661673Y-62197046D01*
X39675571Y-62213084D01*
X39795025Y-62377496D01*
X39795025Y-62377497D01*
X39947502Y-62529974D01*
X40121963Y-62656728D01*
X40314098Y-62754627D01*
X40519190Y-62821266D01*
X40590000Y-62832481D01*
X40590000Y-61802709D01*
X40610339Y-61814452D01*
X40761667Y-61855000D01*
X40918333Y-61855000D01*
X41069661Y-61814452D01*
X41090000Y-61802709D01*
X41090000Y-62832480D01*
X41160809Y-62821266D01*
X41365901Y-62754627D01*
X41558036Y-62656728D01*
X41732496Y-62529974D01*
X41732497Y-62529974D01*
X41884974Y-62377497D01*
X41884974Y-62377496D01*
X42011728Y-62203036D01*
X42109627Y-62010901D01*
X42176265Y-61805809D01*
X42210000Y-61592820D01*
X42210000Y-61510000D01*
X41382709Y-61510000D01*
X41394452Y-61489661D01*
X41435000Y-61338333D01*
X41435000Y-61181667D01*
X41394452Y-61030339D01*
X41382709Y-61010000D01*
X42210000Y-61010000D01*
X42210000Y-60927179D01*
X42176265Y-60714190D01*
X42109627Y-60509098D01*
X42011728Y-60316963D01*
X41884974Y-60142503D01*
X41884974Y-60142502D01*
X41732497Y-59990025D01*
X41558036Y-59863271D01*
X41365899Y-59765372D01*
X41160805Y-59698733D01*
X41090000Y-59687518D01*
X41090000Y-60717290D01*
X41069661Y-60705548D01*
X40918333Y-60665000D01*
X40761667Y-60665000D01*
X40610339Y-60705548D01*
X40590000Y-60717290D01*
X40590000Y-59687518D01*
X40589999Y-59687518D01*
X40519194Y-59698733D01*
X40314100Y-59765372D01*
X40121963Y-59863271D01*
X39947503Y-59990025D01*
X39947502Y-59990025D01*
X39795024Y-60142503D01*
X39675571Y-60306915D01*
X39620240Y-60349580D01*
X39550627Y-60355559D01*
X39488832Y-60322953D01*
X39474935Y-60306914D01*
X39399839Y-60203553D01*
X39351461Y-60136967D01*
X39198033Y-59983539D01*
X39022492Y-59856001D01*
X38829160Y-59757494D01*
X38622800Y-59690443D01*
X38622798Y-59690442D01*
X38622796Y-59690442D01*
X38408495Y-59656500D01*
X38408490Y-59656500D01*
X38191510Y-59656500D01*
X38191505Y-59656500D01*
X37977203Y-59690442D01*
X37770837Y-59757495D01*
X37577507Y-59856001D01*
X37401968Y-59983538D01*
X37261188Y-60124318D01*
X37199865Y-60157802D01*
X37130173Y-60152818D01*
X37074240Y-60110946D01*
X37067968Y-60101732D01*
X36972317Y-59946656D01*
X36848345Y-59822684D01*
X36699124Y-59730643D01*
X36699119Y-59730641D01*
X36532697Y-59675494D01*
X36532690Y-59675493D01*
X36429986Y-59665000D01*
X36010000Y-59665000D01*
X36010000Y-60717290D01*
X35989661Y-60705548D01*
X35838333Y-60665000D01*
X35681667Y-60665000D01*
X35530339Y-60705548D01*
X35510000Y-60717290D01*
X35510000Y-59665000D01*
X35090028Y-59665000D01*
X35090012Y-59665001D01*
X34987302Y-59675494D01*
X34820880Y-59730641D01*
X34820875Y-59730643D01*
X34671654Y-59822684D01*
X34547684Y-59946654D01*
X34455643Y-60095875D01*
X34455641Y-60095880D01*
X34400494Y-60262302D01*
X34400493Y-60262309D01*
X34390000Y-60365013D01*
X30869120Y-60365013D01*
X30820212Y-60336776D01*
X30820205Y-60336773D01*
X30596104Y-60243947D01*
X30361785Y-60181161D01*
X30121289Y-60149500D01*
X30121288Y-60149500D01*
X29878712Y-60149500D01*
X29878711Y-60149500D01*
X29638214Y-60181161D01*
X29403895Y-60243947D01*
X29179794Y-60336773D01*
X29179785Y-60336777D01*
X28969706Y-60458067D01*
X28777263Y-60605733D01*
X28777256Y-60605739D01*
X28605739Y-60777256D01*
X28605733Y-60777263D01*
X28458067Y-60969706D01*
X28336777Y-61179785D01*
X28336773Y-61179794D01*
X28243947Y-61403895D01*
X28181161Y-61638214D01*
X28149500Y-61878711D01*
X27079157Y-61878711D01*
X27022272Y-59091345D01*
X49061500Y-59091345D01*
X49061500Y-62388654D01*
X49068011Y-62449202D01*
X49068011Y-62449204D01*
X49114314Y-62573343D01*
X49119111Y-62586204D01*
X49206739Y-62703261D01*
X49323796Y-62790889D01*
X49460799Y-62841989D01*
X49488050Y-62844918D01*
X49521345Y-62848499D01*
X49521362Y-62848500D01*
X52818638Y-62848500D01*
X52818654Y-62848499D01*
X52845692Y-62845591D01*
X52879201Y-62841989D01*
X53016204Y-62790889D01*
X53133261Y-62703261D01*
X53220889Y-62586204D01*
X53271989Y-62449201D01*
X53277743Y-62395682D01*
X53278499Y-62388654D01*
X53278500Y-62388637D01*
X53278500Y-60740000D01*
X64296573Y-60740000D01*
X64316257Y-61027778D01*
X64316258Y-61027780D01*
X64374941Y-61310185D01*
X64374946Y-61310201D01*
X64445955Y-61510000D01*
X64471541Y-61581992D01*
X64604247Y-61838103D01*
X64770591Y-62073758D01*
X64770595Y-62073762D01*
X64770595Y-62073763D01*
X64967477Y-62284571D01*
X65139011Y-62424124D01*
X65191228Y-62466606D01*
X65437686Y-62616481D01*
X65437688Y-62616482D01*
X65437690Y-62616483D01*
X65530344Y-62656728D01*
X65702256Y-62731400D01*
X65980011Y-62809223D01*
X66218404Y-62841989D01*
X66265774Y-62848500D01*
X66265775Y-62848500D01*
X66554226Y-62848500D01*
X66601596Y-62841989D01*
X66839989Y-62809223D01*
X67117744Y-62731400D01*
X67382314Y-62616481D01*
X67628772Y-62466606D01*
X67852526Y-62284568D01*
X68049409Y-62073758D01*
X68215753Y-61838103D01*
X68348459Y-61581992D01*
X68445055Y-61310196D01*
X68445055Y-61310191D01*
X68445058Y-61310185D01*
X68477331Y-61154870D01*
X68503742Y-61027778D01*
X68523427Y-60740000D01*
X68503742Y-60452222D01*
X68479752Y-60336776D01*
X68445058Y-60169814D01*
X68445053Y-60169798D01*
X68378857Y-59983541D01*
X68348459Y-59898008D01*
X68215753Y-59641897D01*
X68049409Y-59406242D01*
X68049404Y-59406236D01*
X67852522Y-59195428D01*
X67628771Y-59013393D01*
X67382309Y-58863516D01*
X67117745Y-58748600D01*
X66839995Y-58670778D01*
X66839990Y-58670777D01*
X66839989Y-58670777D01*
X66697107Y-58651138D01*
X66554226Y-58631500D01*
X66554225Y-58631500D01*
X66265775Y-58631500D01*
X66265774Y-58631500D01*
X65980011Y-58670777D01*
X65980004Y-58670778D01*
X65702254Y-58748600D01*
X65437690Y-58863516D01*
X65191228Y-59013393D01*
X64967477Y-59195428D01*
X64770595Y-59406236D01*
X64770595Y-59406237D01*
X64604247Y-59641896D01*
X64471540Y-59898009D01*
X64374946Y-60169798D01*
X64374941Y-60169814D01*
X64316258Y-60452219D01*
X64316257Y-60452221D01*
X64296573Y-60740000D01*
X53278500Y-60740000D01*
X53278500Y-59091362D01*
X53278499Y-59091345D01*
X53275157Y-59060270D01*
X53271989Y-59030799D01*
X53265497Y-59013394D01*
X53249522Y-58970564D01*
X53220889Y-58893796D01*
X53133261Y-58776739D01*
X53016204Y-58689111D01*
X52879203Y-58638011D01*
X52818654Y-58631500D01*
X52818638Y-58631500D01*
X49521362Y-58631500D01*
X49521345Y-58631500D01*
X49460797Y-58638011D01*
X49460795Y-58638011D01*
X49323795Y-58689111D01*
X49206739Y-58776739D01*
X49119111Y-58893795D01*
X49068011Y-59030795D01*
X49068011Y-59030797D01*
X49061500Y-59091345D01*
X27022272Y-59091345D01*
X27002560Y-58125442D01*
X27020872Y-58058016D01*
X27072732Y-58011193D01*
X27125463Y-57998918D01*
X73276412Y-57601065D01*
X73343618Y-57620171D01*
G37*
%TD.AperFunction*%
%TD*%
M02*
