M48
; DRILL file {KiCad 8.0.9} date 2025-10-04T12:36:45-0500
; FORMAT={-:-/ absolute / inch / decimal}
; #@! TF.CreationDate,2025-10-04T12:36:45-05:00
; #@! TF.GenerationSoftware,Kicad,Pcbnew,8.0.9
; #@! TF.FileFunction,Plated,1,2,PTH
FMAT,2
INCH
; #@! TA.AperFunction,Plated,PTH,ViaDrill
T1C0.0157
; #@! TA.AperFunction,Plated,PTH,ComponentDrill
T2C0.0197
; #@! TA.AperFunction,Plated,PTH,ComponentDrill
T3C0.0469
; #@! TA.AperFunction,Plated,PTH,ComponentDrill
T4C0.0591
; #@! TA.AperFunction,Plated,PTH,ComponentDrill
T5C0.0630
%
G90
G05
T1
X1.6299Y-3.3071
X1.6457Y-3.1496
X2.2598Y-3.3858
X2.2913Y-2.9291
X2.7165Y-3.6614
T2
X1.2677Y-3.1654
X1.2756Y-3.0394
X2.1925Y-3.3161
X2.4772Y-3.3098
T3
X1.2567Y-3.9492
X1.2835Y-2.7874
X1.3567Y-3.9492
X1.3835Y-2.7874
X1.4079Y-2.4118
X1.5079Y-2.4118
X1.563Y-3.9535
X1.6079Y-2.4118
X1.663Y-3.9535
T4
X1.8339Y-2.7209
X2.7236Y-2.7209
T5
X2.0146Y-2.3913
X2.6146Y-2.3913
M30
