%TF.GenerationSoftware,KiCad,Pcbnew,8.0.9*%
%TF.CreationDate,2025-10-04T12:36:41-05:00*%
%TF.ProjectId,Horns_v1.0,486f726e-735f-4763-912e-302e6b696361,1.0*%
%TF.SameCoordinates,Original*%
%TF.FileFunction,Copper,L1,Top*%
%TF.FilePolarity,Positive*%
%FSLAX46Y46*%
G04 Gerber Fmt 4.6, Leading zero omitted, Abs format (unit mm)*
G04 Created by KiCad (PCBNEW 8.0.9) date 2025-10-04 12:36:41*
%MOMM*%
%LPD*%
G01*
G04 APERTURE LIST*
G04 Aperture macros list*
%AMRoundRect*
0 Rectangle with rounded corners*
0 $1 Rounding radius*
0 $2 $3 $4 $5 $6 $7 $8 $9 X,Y pos of 4 corners*
0 Add a 4 corners polygon primitive as box body*
4,1,4,$2,$3,$4,$5,$6,$7,$8,$9,$2,$3,0*
0 Add four circle primitives for the rounded corners*
1,1,$1+$1,$2,$3*
1,1,$1+$1,$4,$5*
1,1,$1+$1,$6,$7*
1,1,$1+$1,$8,$9*
0 Add four rect primitives between the rounded corners*
20,1,$1+$1,$2,$3,$4,$5,0*
20,1,$1+$1,$4,$5,$6,$7,0*
20,1,$1+$1,$6,$7,$8,$9,0*
20,1,$1+$1,$8,$9,$2,$3,0*%
G04 Aperture macros list end*
%TA.AperFunction,ComponentPad*%
%ADD10C,3.000000*%
%TD*%
%TA.AperFunction,SMDPad,CuDef*%
%ADD11RoundRect,0.250000X0.475000X-0.250000X0.475000X0.250000X-0.475000X0.250000X-0.475000X-0.250000X0*%
%TD*%
%TA.AperFunction,SMDPad,CuDef*%
%ADD12RoundRect,0.250000X-1.500000X-0.550000X1.500000X-0.550000X1.500000X0.550000X-1.500000X0.550000X0*%
%TD*%
%TA.AperFunction,SMDPad,CuDef*%
%ADD13R,0.900000X1.850000*%
%TD*%
%TA.AperFunction,SMDPad,CuDef*%
%ADD14R,0.650000X1.151000*%
%TD*%
%TA.AperFunction,SMDPad,CuDef*%
%ADD15R,0.650000X1.350000*%
%TD*%
%TA.AperFunction,SMDPad,CuDef*%
%ADD16R,1.000000X1.350000*%
%TD*%
%TA.AperFunction,ComponentPad*%
%ADD17RoundRect,0.250000X-0.620000X-0.845000X0.620000X-0.845000X0.620000X0.845000X-0.620000X0.845000X0*%
%TD*%
%TA.AperFunction,ComponentPad*%
%ADD18O,1.740000X2.190000*%
%TD*%
%TA.AperFunction,ComponentPad*%
%ADD19R,3.200000X3.200000*%
%TD*%
%TA.AperFunction,ComponentPad*%
%ADD20O,3.200000X3.200000*%
%TD*%
%TA.AperFunction,SMDPad,CuDef*%
%ADD21RoundRect,0.250000X0.250000X0.475000X-0.250000X0.475000X-0.250000X-0.475000X0.250000X-0.475000X0*%
%TD*%
%TA.AperFunction,ComponentPad*%
%ADD22R,1.000000X1.000000*%
%TD*%
%TA.AperFunction,SMDPad,CuDef*%
%ADD23RoundRect,0.100000X-0.217500X-0.100000X0.217500X-0.100000X0.217500X0.100000X-0.217500X0.100000X0*%
%TD*%
%TA.AperFunction,ViaPad*%
%ADD24C,0.800000*%
%TD*%
%TA.AperFunction,Conductor*%
%ADD25C,0.250000*%
%TD*%
G04 APERTURE END LIST*
D10*
%TO.P,F1,1*%
%TO.N,Net-(Q1-G)*%
X46580000Y-69110000D03*
%TO.P,F1,2*%
%TO.N,Net-(D1-A)*%
X69180000Y-69110000D03*
%TD*%
D11*
%TO.P,C4,1*%
%TO.N,+24V*%
X44620000Y-88460000D03*
%TO.P,C4,2*%
%TO.N,GND*%
X44620000Y-86560000D03*
%TD*%
D12*
%TO.P,C7,2*%
%TO.N,GND*%
X63400000Y-92000000D03*
%TO.P,C7,1*%
%TO.N,+24V*%
X58000000Y-92000000D03*
%TD*%
D13*
%TO.P,Q1,1,D*%
%TO.N,/HORN_CTL*%
X53305000Y-76730000D03*
X53305000Y-79130000D03*
X59705000Y-76730000D03*
X59705000Y-79130000D03*
D14*
%TO.P,Q1,2,G*%
%TO.N,Net-(Q1-G)*%
X54955000Y-76980000D03*
D15*
%TO.P,Q1,3,S*%
%TO.N,GND*%
X54955000Y-78780000D03*
D16*
X56330000Y-77080000D03*
X56330000Y-78780000D03*
X57880000Y-77080000D03*
X57880000Y-78780000D03*
%TD*%
D17*
%TO.P,J2,1,Pin_1*%
%TO.N,GND*%
X32600000Y-70800000D03*
D18*
%TO.P,J2,2,Pin_2*%
%TO.N,/HORN_CTL*%
X35140000Y-70800000D03*
%TD*%
D17*
%TO.P,J1,1,Pin_1*%
%TO.N,GND*%
X35760000Y-61260000D03*
D18*
%TO.P,J1,2,Pin_2*%
%TO.N,+24V*%
X38300000Y-61260000D03*
%TO.P,J1,3,Pin_3*%
%TO.N,GND*%
X40840000Y-61260000D03*
%TD*%
D19*
%TO.P,D1,1,K*%
%TO.N,+24V*%
X51170000Y-60740000D03*
D20*
%TO.P,D1,2,A*%
%TO.N,Net-(D1-A)*%
X66410000Y-60740000D03*
%TD*%
D11*
%TO.P,C3,1*%
%TO.N,+24V*%
X41610000Y-88460000D03*
%TO.P,C3,2*%
%TO.N,GND*%
X41610000Y-86560000D03*
%TD*%
D21*
%TO.P,C1,1*%
%TO.N,/HORN_CTL*%
X52350000Y-84000000D03*
%TO.P,C1,2*%
%TO.N,Net-(C1-Pad2)*%
X50450000Y-84000000D03*
%TD*%
D11*
%TO.P,C5,1*%
%TO.N,+24V*%
X47630000Y-88460000D03*
%TO.P,C5,2*%
%TO.N,GND*%
X47630000Y-86560000D03*
%TD*%
%TO.P,C8,1*%
%TO.N,+24V*%
X53650000Y-88460000D03*
%TO.P,C8,2*%
%TO.N,GND*%
X53650000Y-86560000D03*
%TD*%
D17*
%TO.P,J3,1,Pin_1*%
%TO.N,Net-(D1-A)*%
X39700000Y-100420000D03*
D18*
%TO.P,J3,2,Pin_2*%
%TO.N,+24V*%
X42240000Y-100420000D03*
%TD*%
D22*
%TO.P,TP1,1,1*%
%TO.N,+24V*%
X32400000Y-77200000D03*
%TD*%
%TO.P,TP4,1,1*%
%TO.N,Net-(D1-A)*%
X62920000Y-84070000D03*
%TD*%
%TO.P,TP2,1,1*%
%TO.N,GND*%
X32200000Y-80400000D03*
%TD*%
%TO.P,TP3,1,1*%
%TO.N,/HORN_CTL*%
X55690000Y-84230000D03*
%TD*%
D11*
%TO.P,C6,1*%
%TO.N,+24V*%
X50640000Y-88460000D03*
%TO.P,C6,2*%
%TO.N,GND*%
X50640000Y-86560000D03*
%TD*%
D23*
%TO.P,R1,1*%
%TO.N,GND*%
X42583000Y-76000000D03*
%TO.P,R1,2*%
%TO.N,Net-(C1-Pad2)*%
X43420000Y-76000000D03*
%TD*%
D11*
%TO.P,C2,1*%
%TO.N,+24V*%
X38600000Y-88460000D03*
%TO.P,C2,2*%
%TO.N,GND*%
X38600000Y-86560000D03*
%TD*%
D17*
%TO.P,J4,1,Pin_1*%
%TO.N,Net-(D1-A)*%
X31920000Y-100310000D03*
D18*
%TO.P,J4,2,Pin_2*%
%TO.N,+24V*%
X34460000Y-100310000D03*
%TD*%
D24*
%TO.N,GND*%
X57400000Y-86000000D03*
X41400000Y-84000000D03*
X58200000Y-74400000D03*
X41800000Y-80000000D03*
X69000000Y-93000000D03*
%TD*%
D25*
%TO.N,+24V*%
X69636396Y-58000000D02*
X73250000Y-61613604D01*
X64125000Y-90875000D02*
X59125000Y-90875000D01*
X52000000Y-58000000D02*
X69636396Y-58000000D01*
X73250000Y-61613604D02*
X73250000Y-81750000D01*
X73250000Y-81750000D02*
X64125000Y-90875000D01*
X59125000Y-90875000D02*
X58000000Y-92000000D01*
X51170000Y-58830000D02*
X52000000Y-58000000D01*
X51170000Y-60740000D02*
X51170000Y-58830000D01*
X54460000Y-88460000D02*
X53650000Y-88460000D01*
X58000000Y-92000000D02*
X54460000Y-88460000D01*
%TO.N,GND*%
X68000000Y-92000000D02*
X63400000Y-92000000D01*
X69000000Y-93000000D02*
X68000000Y-92000000D01*
%TO.N,+24V*%
X28700000Y-105300000D02*
X30000000Y-106600000D01*
X29000000Y-77200000D02*
X29000000Y-105000000D01*
X29000000Y-105000000D02*
X28700000Y-105300000D01*
X32400000Y-77200000D02*
X29000000Y-77200000D01*
X29600000Y-65400000D02*
X29000000Y-66000000D01*
X29000000Y-77200000D02*
X28800000Y-77200000D01*
X34160000Y-65400000D02*
X29600000Y-65400000D01*
X29000000Y-66000000D02*
X29000000Y-77200000D01*
X53650000Y-88460000D02*
X50640000Y-88460000D01*
X34460000Y-103260000D02*
X34460000Y-100310000D01*
X35800000Y-105200000D02*
X35800000Y-104600000D01*
X44620000Y-88460000D02*
X41610000Y-88460000D01*
X53970000Y-88780000D02*
X53650000Y-88460000D01*
X38300000Y-61260000D02*
X34160000Y-65400000D01*
X50640000Y-88460000D02*
X47630000Y-88460000D01*
X38300000Y-61260000D02*
X39720000Y-59840000D01*
X34400000Y-106600000D02*
X35800000Y-105200000D01*
X40820000Y-99000000D02*
X42240000Y-100420000D01*
X35800000Y-104600000D02*
X34460000Y-103260000D01*
X47630000Y-88460000D02*
X44620000Y-88460000D01*
X34460000Y-100310000D02*
X35770000Y-99000000D01*
X30000000Y-106600000D02*
X34400000Y-106600000D01*
X38600000Y-88460000D02*
X41610000Y-88460000D01*
X39720000Y-59840000D02*
X50270000Y-59840000D01*
X35770000Y-99000000D02*
X40820000Y-99000000D01*
X50270000Y-59840000D02*
X51170000Y-60740000D01*
%TO.N,Net-(D1-A)*%
X42734985Y-101840000D02*
X43435000Y-101139985D01*
X41120000Y-101840000D02*
X42734985Y-101840000D01*
X43435000Y-99700015D02*
X42134985Y-98400000D01*
X33830000Y-98400000D02*
X31920000Y-100310000D01*
X63600000Y-85800000D02*
X62920000Y-85120000D01*
X69180000Y-63510000D02*
X66410000Y-60740000D01*
X68200000Y-85800000D02*
X63600000Y-85800000D01*
X62920000Y-85120000D02*
X62920000Y-84070000D01*
X43600000Y-95005100D02*
X37550000Y-88955100D01*
X43435000Y-101139985D02*
X43435000Y-99700015D01*
X72800000Y-61800000D02*
X72800000Y-62200000D01*
X71740000Y-60740000D02*
X72800000Y-61800000D01*
X42734985Y-101840000D02*
X43600000Y-100974985D01*
X43600000Y-100974985D02*
X43600000Y-95005100D01*
X72800000Y-62200000D02*
X72200000Y-62800000D01*
X72200000Y-81800000D02*
X68200000Y-85800000D01*
X38129900Y-87385000D02*
X59605000Y-87385000D01*
X39700000Y-100420000D02*
X41120000Y-101840000D01*
X69180000Y-66200000D02*
X69180000Y-63510000D01*
X72200000Y-62800000D02*
X72200000Y-81800000D01*
X42134985Y-98400000D02*
X33830000Y-98400000D01*
X37550000Y-87964900D02*
X38129900Y-87385000D01*
X66410000Y-60740000D02*
X71740000Y-60740000D01*
X37550000Y-88955100D02*
X37550000Y-87964900D01*
X69180000Y-69110000D02*
X69180000Y-66200000D01*
X59605000Y-87385000D02*
X62920000Y-84070000D01*
%TO.N,/HORN_CTL*%
X55690000Y-81515000D02*
X53305000Y-79130000D01*
X64200000Y-78600000D02*
X58570000Y-84230000D01*
X54630000Y-84230000D02*
X49000000Y-78600000D01*
X49000000Y-78600000D02*
X50870000Y-76730000D01*
X48330000Y-76730000D02*
X53305000Y-76730000D01*
X58570000Y-84230000D02*
X55690000Y-84230000D01*
X42400000Y-70800000D02*
X48330000Y-76730000D01*
X55690000Y-84230000D02*
X55690000Y-81515000D01*
X55690000Y-83145000D02*
X55690000Y-84230000D01*
X50870000Y-76730000D02*
X53305000Y-76730000D01*
X55690000Y-84230000D02*
X52580000Y-84230000D01*
X59705000Y-76730000D02*
X62330000Y-76730000D01*
X52580000Y-84230000D02*
X52350000Y-84000000D01*
X55690000Y-84230000D02*
X54630000Y-84230000D01*
X35140000Y-70800000D02*
X42400000Y-70800000D01*
X62330000Y-76730000D02*
X64200000Y-78600000D01*
X59705000Y-79130000D02*
X55690000Y-83145000D01*
%TO.N,Net-(C1-Pad2)*%
X47607500Y-84000000D02*
X47607500Y-80207500D01*
X50450000Y-84000000D02*
X47607500Y-84000000D01*
X47607500Y-80207500D02*
X43400000Y-76000000D01*
%TO.N,GND*%
X44620000Y-86560000D02*
X42060000Y-84000000D01*
X56200000Y-74400000D02*
X58200000Y-74400000D01*
X57880000Y-74720000D02*
X58200000Y-74400000D01*
X56200000Y-77535000D02*
X56200000Y-74400000D01*
X41400000Y-83200000D02*
X41400000Y-84000000D01*
X42060000Y-84000000D02*
X41400000Y-84000000D01*
X41800000Y-76785000D02*
X42585000Y-76000000D01*
X41610000Y-86560000D02*
X41610000Y-84210000D01*
X57880000Y-78780000D02*
X57880000Y-74720000D01*
X41160000Y-84000000D02*
X41400000Y-84000000D01*
X35600000Y-80400000D02*
X40180000Y-84980000D01*
X41800000Y-80000000D02*
X41800000Y-76785000D01*
X41610000Y-84210000D02*
X41400000Y-84000000D01*
X38600000Y-86560000D02*
X40180000Y-84980000D01*
X56330000Y-78780000D02*
X56330000Y-76270000D01*
X43600000Y-84000000D02*
X41400000Y-84000000D01*
X47360000Y-86560000D02*
X44000000Y-83200000D01*
X56330000Y-76270000D02*
X58200000Y-74400000D01*
X56330000Y-77080000D02*
X56330000Y-76270000D01*
X46160000Y-86560000D02*
X43600000Y-84000000D01*
X53650000Y-86560000D02*
X56840000Y-86560000D01*
X54955000Y-78780000D02*
X56200000Y-77535000D01*
X47630000Y-86560000D02*
X46160000Y-86560000D01*
X44000000Y-83200000D02*
X41400000Y-83200000D01*
X57880000Y-77080000D02*
X57880000Y-74720000D01*
X56840000Y-86560000D02*
X57400000Y-86000000D01*
X32200000Y-80400000D02*
X35600000Y-80400000D01*
X41200000Y-84000000D02*
X41400000Y-84000000D01*
X50640000Y-86560000D02*
X47360000Y-86560000D01*
X40180000Y-84980000D02*
X41160000Y-84000000D01*
%TO.N,Net-(Q1-G)*%
X54955000Y-75363680D02*
X54955000Y-76980000D01*
X48701320Y-69110000D02*
X54955000Y-75363680D01*
X46580000Y-69110000D02*
X48701320Y-69110000D01*
%TD*%
%TA.AperFunction,Conductor*%
%TO.N,+24V*%
G36*
X73440445Y-57321874D02*
G01*
X73488098Y-57372971D01*
X73501255Y-57427346D01*
X73540012Y-61357249D01*
X73520989Y-61424479D01*
X73468639Y-61470753D01*
X73399582Y-61481378D01*
X73335743Y-61452981D01*
X73312916Y-61427363D01*
X73292072Y-61396168D01*
X73253153Y-61357249D01*
X73203833Y-61307929D01*
X72679786Y-60783882D01*
X72143836Y-60247931D01*
X72143832Y-60247928D01*
X72040081Y-60178603D01*
X72040072Y-60178598D01*
X71924785Y-60130845D01*
X71924777Y-60130843D01*
X71802398Y-60106500D01*
X71802394Y-60106500D01*
X68510086Y-60106500D01*
X68443047Y-60086815D01*
X68397292Y-60034011D01*
X68393246Y-60024025D01*
X68348459Y-59898009D01*
X68348459Y-59898008D01*
X68215753Y-59641897D01*
X68049409Y-59406242D01*
X68049404Y-59406236D01*
X67852522Y-59195428D01*
X67628771Y-59013393D01*
X67382309Y-58863516D01*
X67117745Y-58748600D01*
X66839995Y-58670778D01*
X66839990Y-58670777D01*
X66839989Y-58670777D01*
X66697107Y-58651138D01*
X66554226Y-58631500D01*
X66554225Y-58631500D01*
X66265775Y-58631500D01*
X66265774Y-58631500D01*
X65980011Y-58670777D01*
X65980004Y-58670778D01*
X65702254Y-58748600D01*
X65437690Y-58863516D01*
X65191228Y-59013393D01*
X64967477Y-59195428D01*
X64770595Y-59406236D01*
X64770595Y-59406237D01*
X64604247Y-59641896D01*
X64471540Y-59898009D01*
X64374946Y-60169798D01*
X64374941Y-60169814D01*
X64316258Y-60452219D01*
X64316257Y-60452221D01*
X64296573Y-60740000D01*
X64316257Y-61027778D01*
X64316258Y-61027780D01*
X64374941Y-61310185D01*
X64374946Y-61310201D01*
X64442374Y-61499925D01*
X64471541Y-61581992D01*
X64604247Y-61838103D01*
X64770591Y-62073758D01*
X64770595Y-62073762D01*
X64770595Y-62073763D01*
X64967477Y-62284571D01*
X65090657Y-62384785D01*
X65191228Y-62466606D01*
X65437686Y-62616481D01*
X65437688Y-62616482D01*
X65437690Y-62616483D01*
X65530344Y-62656728D01*
X65702256Y-62731400D01*
X65980011Y-62809223D01*
X66231243Y-62843753D01*
X66265774Y-62848500D01*
X66265775Y-62848500D01*
X66554226Y-62848500D01*
X66585033Y-62844265D01*
X66839989Y-62809223D01*
X67117744Y-62731400D01*
X67272919Y-62663998D01*
X67310667Y-62647602D01*
X67379999Y-62638948D01*
X67443003Y-62669152D01*
X67447750Y-62673655D01*
X68510181Y-63736085D01*
X68543666Y-63797408D01*
X68546500Y-63823766D01*
X68546500Y-67114046D01*
X68526815Y-67181085D01*
X68474011Y-67226840D01*
X68471902Y-67227780D01*
X68253801Y-67322514D01*
X68019034Y-67465279D01*
X67805892Y-67638683D01*
X67618340Y-67839500D01*
X67459893Y-68063969D01*
X67459889Y-68063975D01*
X67333476Y-68307943D01*
X67241463Y-68566841D01*
X67241458Y-68566858D01*
X67185558Y-68835867D01*
X67185557Y-68835869D01*
X67166807Y-69110000D01*
X67185557Y-69384130D01*
X67185558Y-69384132D01*
X67241458Y-69653141D01*
X67241463Y-69653158D01*
X67333476Y-69912056D01*
X67459889Y-70156024D01*
X67459893Y-70156030D01*
X67618340Y-70380499D01*
X67618343Y-70380502D01*
X67805889Y-70581314D01*
X68019031Y-70754718D01*
X68019033Y-70754719D01*
X68019034Y-70754720D01*
X68253801Y-70897485D01*
X68458348Y-70986331D01*
X68505823Y-71006953D01*
X68770404Y-71081085D01*
X69009720Y-71113978D01*
X69042614Y-71118500D01*
X69042615Y-71118500D01*
X69317386Y-71118500D01*
X69346733Y-71114466D01*
X69589596Y-71081085D01*
X69854177Y-71006953D01*
X70106200Y-70897484D01*
X70340969Y-70754718D01*
X70554111Y-70581314D01*
X70741657Y-70380502D01*
X70900111Y-70156023D01*
X71026523Y-69912058D01*
X71118538Y-69653153D01*
X71118539Y-69653146D01*
X71118541Y-69653141D01*
X71171975Y-69396001D01*
X71174442Y-69384130D01*
X71193193Y-69110000D01*
X71174442Y-68835870D01*
X71155141Y-68742989D01*
X71118541Y-68566858D01*
X71118536Y-68566841D01*
X71086429Y-68476500D01*
X71026523Y-68307942D01*
X70900111Y-68063977D01*
X70900110Y-68063975D01*
X70900106Y-68063969D01*
X70741659Y-67839500D01*
X70723031Y-67819555D01*
X70554111Y-67638686D01*
X70340969Y-67465282D01*
X70340967Y-67465281D01*
X70340965Y-67465279D01*
X70106198Y-67322514D01*
X69888098Y-67227780D01*
X69834451Y-67183017D01*
X69813522Y-67116355D01*
X69813500Y-67114046D01*
X69813500Y-63447605D01*
X69813499Y-63447601D01*
X69789157Y-63325222D01*
X69789154Y-63325213D01*
X69775168Y-63291447D01*
X69746707Y-63222736D01*
X69741401Y-63209925D01*
X69741399Y-63209923D01*
X69741399Y-63209921D01*
X69672072Y-63106167D01*
X69672069Y-63106163D01*
X68344167Y-61778263D01*
X68310682Y-61716940D01*
X68315666Y-61647249D01*
X68321739Y-61633557D01*
X68348459Y-61581992D01*
X68363383Y-61540000D01*
X68393246Y-61455975D01*
X68434244Y-61399398D01*
X68499321Y-61373968D01*
X68510086Y-61373500D01*
X71426234Y-61373500D01*
X71493273Y-61393185D01*
X71513915Y-61409819D01*
X72016415Y-61912319D01*
X72049900Y-61973642D01*
X72044916Y-62043334D01*
X72016415Y-62087681D01*
X71796167Y-62307929D01*
X71752047Y-62352049D01*
X71707927Y-62396168D01*
X71638603Y-62499918D01*
X71638598Y-62499927D01*
X71590845Y-62615214D01*
X71590843Y-62615222D01*
X71566500Y-62737601D01*
X71566500Y-81486234D01*
X71546815Y-81553273D01*
X71530181Y-81573915D01*
X67973915Y-85130181D01*
X67912592Y-85163666D01*
X67886234Y-85166500D01*
X63913766Y-85166500D01*
X63846727Y-85146815D01*
X63826085Y-85130181D01*
X63793266Y-85097362D01*
X63759781Y-85036039D01*
X63764765Y-84966347D01*
X63781681Y-84935369D01*
X63783256Y-84933264D01*
X63783261Y-84933261D01*
X63870889Y-84816204D01*
X63921989Y-84679201D01*
X63925591Y-84645692D01*
X63928499Y-84618654D01*
X63928500Y-84618637D01*
X63928500Y-83521362D01*
X63928499Y-83521345D01*
X63924461Y-83483796D01*
X63921989Y-83460799D01*
X63921908Y-83460583D01*
X63895410Y-83389538D01*
X63870889Y-83323796D01*
X63783261Y-83206739D01*
X63666204Y-83119111D01*
X63529203Y-83068011D01*
X63468654Y-83061500D01*
X63468638Y-83061500D01*
X62371362Y-83061500D01*
X62371345Y-83061500D01*
X62310797Y-83068011D01*
X62310795Y-83068011D01*
X62173795Y-83119111D01*
X62056739Y-83206739D01*
X61969111Y-83323795D01*
X61918011Y-83460795D01*
X61918011Y-83460797D01*
X61911500Y-83521345D01*
X61911500Y-84131234D01*
X61891815Y-84198273D01*
X61875181Y-84218915D01*
X59378915Y-86715181D01*
X59317592Y-86748666D01*
X59291234Y-86751500D01*
X58224361Y-86751500D01*
X58157322Y-86731815D01*
X58111567Y-86679011D01*
X58101623Y-86609853D01*
X58130648Y-86546297D01*
X58132212Y-86544527D01*
X58139040Y-86536944D01*
X58234527Y-86371556D01*
X58293542Y-86189928D01*
X58313504Y-86000000D01*
X58293542Y-85810072D01*
X58234527Y-85628444D01*
X58139040Y-85463056D01*
X58011253Y-85321134D01*
X57856752Y-85208882D01*
X57682288Y-85131206D01*
X57682286Y-85131205D01*
X57576830Y-85108790D01*
X57515348Y-85075598D01*
X57481572Y-85014435D01*
X57486224Y-84944720D01*
X57527829Y-84888588D01*
X57593176Y-84863859D01*
X57602611Y-84863500D01*
X58632395Y-84863500D01*
X58632396Y-84863499D01*
X58754785Y-84839155D01*
X58870075Y-84791400D01*
X58973833Y-84722071D01*
X64692071Y-79003833D01*
X64761400Y-78900075D01*
X64809155Y-78784785D01*
X64833500Y-78662394D01*
X64833500Y-78537607D01*
X64828470Y-78512319D01*
X64825324Y-78496497D01*
X64825324Y-78496496D01*
X64809156Y-78415220D01*
X64809155Y-78415219D01*
X64809155Y-78415215D01*
X64761400Y-78299925D01*
X64761399Y-78299924D01*
X64761396Y-78299918D01*
X64692071Y-78196167D01*
X64692068Y-78196163D01*
X62733836Y-76237931D01*
X62733832Y-76237928D01*
X62630081Y-76168603D01*
X62630072Y-76168598D01*
X62514785Y-76120845D01*
X62514777Y-76120843D01*
X62392398Y-76096500D01*
X62392394Y-76096500D01*
X60787500Y-76096500D01*
X60720461Y-76076815D01*
X60674706Y-76024011D01*
X60663500Y-75972500D01*
X60663500Y-75756362D01*
X60663499Y-75756345D01*
X60660157Y-75725270D01*
X60656989Y-75695799D01*
X60605889Y-75558796D01*
X60518261Y-75441739D01*
X60401204Y-75354111D01*
X60351103Y-75335424D01*
X60264203Y-75303011D01*
X60203654Y-75296500D01*
X60203638Y-75296500D01*
X59206362Y-75296500D01*
X59206345Y-75296500D01*
X59145797Y-75303011D01*
X59145795Y-75303011D01*
X59008795Y-75354111D01*
X58891739Y-75441739D01*
X58804111Y-75558795D01*
X58753681Y-75694000D01*
X58711809Y-75749933D01*
X58646345Y-75774349D01*
X58578072Y-75759497D01*
X58528667Y-75710091D01*
X58513500Y-75650665D01*
X58513500Y-75335424D01*
X58533185Y-75268385D01*
X58585989Y-75222630D01*
X58587066Y-75222144D01*
X58656748Y-75191120D01*
X58656748Y-75191119D01*
X58656752Y-75191118D01*
X58811253Y-75078866D01*
X58939040Y-74936944D01*
X59034527Y-74771556D01*
X59093542Y-74589928D01*
X59113504Y-74400000D01*
X59093542Y-74210072D01*
X59034527Y-74028444D01*
X58939040Y-73863056D01*
X58811253Y-73721134D01*
X58656752Y-73608882D01*
X58482288Y-73531206D01*
X58482286Y-73531205D01*
X58295487Y-73491500D01*
X58104513Y-73491500D01*
X57917714Y-73531205D01*
X57743246Y-73608883D01*
X57588745Y-73721135D01*
X57584840Y-73725473D01*
X57525354Y-73762121D01*
X57492691Y-73766500D01*
X56137601Y-73766500D01*
X56015222Y-73790843D01*
X56015214Y-73790845D01*
X55899927Y-73838598D01*
X55899918Y-73838603D01*
X55796167Y-73907928D01*
X55796163Y-73907931D01*
X55707931Y-73996163D01*
X55707928Y-73996167D01*
X55638603Y-74099918D01*
X55638598Y-74099927D01*
X55590845Y-74215214D01*
X55590843Y-74215222D01*
X55566500Y-74337601D01*
X55566500Y-74779913D01*
X55546815Y-74846952D01*
X55494011Y-74892707D01*
X55424853Y-74902651D01*
X55361297Y-74873626D01*
X55354819Y-74867594D01*
X49105156Y-68617931D01*
X49105152Y-68617928D01*
X49001401Y-68548603D01*
X49001392Y-68548598D01*
X48886105Y-68500845D01*
X48886097Y-68500843D01*
X48763718Y-68476500D01*
X48763714Y-68476500D01*
X48573958Y-68476500D01*
X48506919Y-68456815D01*
X48461164Y-68404011D01*
X48457118Y-68394025D01*
X48426524Y-68307945D01*
X48426525Y-68307945D01*
X48300110Y-68063975D01*
X48300106Y-68063969D01*
X48141659Y-67839500D01*
X48123031Y-67819555D01*
X47954111Y-67638686D01*
X47740969Y-67465282D01*
X47740967Y-67465281D01*
X47740965Y-67465279D01*
X47506198Y-67322514D01*
X47254178Y-67213047D01*
X46989602Y-67138916D01*
X46989597Y-67138915D01*
X46989596Y-67138915D01*
X46808663Y-67114046D01*
X46717386Y-67101500D01*
X46717385Y-67101500D01*
X46442615Y-67101500D01*
X46442614Y-67101500D01*
X46170404Y-67138915D01*
X46170397Y-67138916D01*
X45905821Y-67213047D01*
X45653801Y-67322514D01*
X45419034Y-67465279D01*
X45205892Y-67638683D01*
X45018340Y-67839500D01*
X44859893Y-68063969D01*
X44859889Y-68063975D01*
X44733476Y-68307943D01*
X44641463Y-68566841D01*
X44641458Y-68566858D01*
X44585558Y-68835867D01*
X44585557Y-68835869D01*
X44566807Y-69110000D01*
X44585557Y-69384130D01*
X44585558Y-69384132D01*
X44641458Y-69653141D01*
X44641463Y-69653158D01*
X44733476Y-69912056D01*
X44859889Y-70156024D01*
X44859893Y-70156030D01*
X45018340Y-70380499D01*
X45018343Y-70380502D01*
X45205889Y-70581314D01*
X45419031Y-70754718D01*
X45419033Y-70754719D01*
X45419034Y-70754720D01*
X45653801Y-70897485D01*
X45858348Y-70986331D01*
X45905823Y-71006953D01*
X46170404Y-71081085D01*
X46409720Y-71113978D01*
X46442614Y-71118500D01*
X46442615Y-71118500D01*
X46717386Y-71118500D01*
X46746733Y-71114466D01*
X46989596Y-71081085D01*
X47254177Y-71006953D01*
X47506200Y-70897484D01*
X47740969Y-70754718D01*
X47954111Y-70581314D01*
X48141657Y-70380502D01*
X48300111Y-70156023D01*
X48410324Y-69943319D01*
X48458644Y-69892853D01*
X48526578Y-69876521D01*
X48592558Y-69899509D01*
X48608103Y-69912687D01*
X53780235Y-75084819D01*
X53813720Y-75146142D01*
X53808736Y-75215834D01*
X53766864Y-75271767D01*
X53701400Y-75296184D01*
X53692554Y-75296500D01*
X52806345Y-75296500D01*
X52745797Y-75303011D01*
X52745795Y-75303011D01*
X52608795Y-75354111D01*
X52491739Y-75441739D01*
X52404111Y-75558795D01*
X52353011Y-75695795D01*
X52353011Y-75695797D01*
X52346500Y-75756345D01*
X52346500Y-75972500D01*
X52326815Y-76039539D01*
X52274011Y-76085294D01*
X52222500Y-76096500D01*
X48643766Y-76096500D01*
X48576727Y-76076815D01*
X48556085Y-76060181D01*
X42803836Y-70307931D01*
X42803832Y-70307928D01*
X42700081Y-70238603D01*
X42700072Y-70238598D01*
X42584785Y-70190845D01*
X42584777Y-70190843D01*
X42462398Y-70166500D01*
X42462394Y-70166500D01*
X36546802Y-70166500D01*
X36479763Y-70146815D01*
X36434008Y-70094011D01*
X36428871Y-70080819D01*
X36417504Y-70045835D01*
X36365270Y-69943320D01*
X36318999Y-69852508D01*
X36191461Y-69676967D01*
X36038033Y-69523539D01*
X35862492Y-69396001D01*
X35669160Y-69297494D01*
X35462800Y-69230443D01*
X35462798Y-69230442D01*
X35462796Y-69230442D01*
X35248495Y-69196500D01*
X35248490Y-69196500D01*
X35031510Y-69196500D01*
X35031505Y-69196500D01*
X34817203Y-69230442D01*
X34610837Y-69297495D01*
X34417507Y-69396001D01*
X34241968Y-69523538D01*
X34107366Y-69658140D01*
X34046043Y-69691624D01*
X33976351Y-69686640D01*
X33920418Y-69644768D01*
X33914147Y-69635555D01*
X33819032Y-69481351D01*
X33819029Y-69481347D01*
X33693653Y-69355971D01*
X33693652Y-69355970D01*
X33542738Y-69262885D01*
X33444830Y-69230442D01*
X33374427Y-69207113D01*
X33270545Y-69196500D01*
X31929462Y-69196500D01*
X31929446Y-69196501D01*
X31825572Y-69207113D01*
X31657264Y-69262884D01*
X31657259Y-69262886D01*
X31506346Y-69355971D01*
X31380971Y-69481346D01*
X31287886Y-69632259D01*
X31287884Y-69632264D01*
X31232113Y-69800572D01*
X31221500Y-69904447D01*
X31221500Y-71695537D01*
X31221501Y-71695553D01*
X31232113Y-71799427D01*
X31279310Y-71941860D01*
X31287885Y-71967738D01*
X31380970Y-72118652D01*
X31506348Y-72244030D01*
X31657262Y-72337115D01*
X31825574Y-72392887D01*
X31929455Y-72403500D01*
X33270544Y-72403499D01*
X33374426Y-72392887D01*
X33542738Y-72337115D01*
X33693652Y-72244030D01*
X33819030Y-72118652D01*
X33912115Y-71967738D01*
X33912115Y-71967735D01*
X33914146Y-71964444D01*
X33966094Y-71917720D01*
X34035057Y-71906497D01*
X34099139Y-71934341D01*
X34107366Y-71941860D01*
X34241967Y-72076461D01*
X34417508Y-72203999D01*
X34610840Y-72302506D01*
X34817200Y-72369557D01*
X34897566Y-72382285D01*
X35031505Y-72403500D01*
X35031510Y-72403500D01*
X35248495Y-72403500D01*
X35367551Y-72384642D01*
X35462800Y-72369557D01*
X35669160Y-72302506D01*
X35862492Y-72203999D01*
X36038033Y-72076461D01*
X36191461Y-71923033D01*
X36318999Y-71747492D01*
X36417506Y-71554160D01*
X36428871Y-71519179D01*
X36468309Y-71461506D01*
X36532668Y-71434308D01*
X36546802Y-71433500D01*
X42086234Y-71433500D01*
X42153273Y-71453185D01*
X42173915Y-71469819D01*
X47837929Y-77133833D01*
X47926167Y-77222071D01*
X47926168Y-77222072D01*
X48029918Y-77291396D01*
X48029924Y-77291399D01*
X48029925Y-77291400D01*
X48145215Y-77339155D01*
X48267601Y-77363499D01*
X48267605Y-77363500D01*
X48267606Y-77363500D01*
X49041234Y-77363500D01*
X49108273Y-77383185D01*
X49154028Y-77435989D01*
X49163972Y-77505147D01*
X49134947Y-77568703D01*
X49128915Y-77575181D01*
X48596167Y-78107929D01*
X48560746Y-78143350D01*
X48507927Y-78196168D01*
X48438603Y-78299918D01*
X48438598Y-78299927D01*
X48390845Y-78415214D01*
X48390843Y-78415222D01*
X48366500Y-78537601D01*
X48366500Y-78662398D01*
X48390843Y-78784777D01*
X48390845Y-78784785D01*
X48438598Y-78900072D01*
X48438603Y-78900081D01*
X48507928Y-79003832D01*
X48507931Y-79003836D01*
X52065580Y-82561484D01*
X52099065Y-82622807D01*
X52094081Y-82692499D01*
X52052209Y-82748432D01*
X51990502Y-82772523D01*
X51945572Y-82777113D01*
X51777264Y-82832884D01*
X51777259Y-82832886D01*
X51626346Y-82925971D01*
X51500972Y-83051345D01*
X51497265Y-83056034D01*
X51440242Y-83096410D01*
X51370443Y-83099547D01*
X51310028Y-83064450D01*
X51302735Y-83056034D01*
X51299032Y-83051351D01*
X51299030Y-83051348D01*
X51173652Y-82925970D01*
X51022738Y-82832885D01*
X51022735Y-82832884D01*
X50854427Y-82777113D01*
X50750546Y-82766500D01*
X50149462Y-82766500D01*
X50149446Y-82766501D01*
X50045572Y-82777113D01*
X49877264Y-82832884D01*
X49877259Y-82832886D01*
X49726346Y-82925971D01*
X49600971Y-83051346D01*
X49507882Y-83202266D01*
X49481627Y-83281503D01*
X49441855Y-83338948D01*
X49377340Y-83365772D01*
X49363921Y-83366500D01*
X48365000Y-83366500D01*
X48297961Y-83346815D01*
X48252206Y-83294011D01*
X48241000Y-83242500D01*
X48241000Y-80145105D01*
X48240999Y-80145101D01*
X48232755Y-80103654D01*
X48216655Y-80022715D01*
X48192127Y-79963500D01*
X48189429Y-79956987D01*
X48185324Y-79947075D01*
X48168901Y-79907425D01*
X48131441Y-79851362D01*
X48099572Y-79803666D01*
X48099569Y-79803663D01*
X44282318Y-75986413D01*
X44248833Y-75925090D01*
X44245999Y-75898732D01*
X44245999Y-75860113D01*
X44230339Y-75741157D01*
X44230338Y-75741156D01*
X44230338Y-75741150D01*
X44169024Y-75593124D01*
X44071487Y-75466013D01*
X43944376Y-75368476D01*
X43944372Y-75368474D01*
X43796353Y-75307163D01*
X43796351Y-75307162D01*
X43796350Y-75307162D01*
X43677385Y-75291500D01*
X43162613Y-75291500D01*
X43043650Y-75307161D01*
X43035803Y-75309264D01*
X43035052Y-75306464D01*
X42979456Y-75312429D01*
X42967311Y-75308863D01*
X42967204Y-75309266D01*
X42959353Y-75307162D01*
X42840385Y-75291500D01*
X42325613Y-75291500D01*
X42206657Y-75307160D01*
X42206646Y-75307163D01*
X42058627Y-75368474D01*
X41931513Y-75466013D01*
X41833974Y-75593127D01*
X41772663Y-75741146D01*
X41772662Y-75741150D01*
X41757000Y-75860107D01*
X41757000Y-75880733D01*
X41737315Y-75947772D01*
X41720681Y-75968414D01*
X41520498Y-76168598D01*
X41396167Y-76292929D01*
X41352047Y-76337049D01*
X41307927Y-76381168D01*
X41238603Y-76484918D01*
X41238598Y-76484927D01*
X41190845Y-76600214D01*
X41190843Y-76600222D01*
X41166500Y-76722601D01*
X41166500Y-79298241D01*
X41146815Y-79365280D01*
X41134650Y-79381213D01*
X41060963Y-79463050D01*
X41060958Y-79463057D01*
X40965473Y-79628443D01*
X40965470Y-79628450D01*
X40912720Y-79790799D01*
X40906458Y-79810072D01*
X40886496Y-80000000D01*
X40906458Y-80189928D01*
X40906459Y-80189931D01*
X40965470Y-80371549D01*
X40965473Y-80371556D01*
X41060960Y-80536944D01*
X41188747Y-80678866D01*
X41343248Y-80791118D01*
X41517712Y-80868794D01*
X41704513Y-80908500D01*
X41895487Y-80908500D01*
X42082288Y-80868794D01*
X42256752Y-80791118D01*
X42411253Y-80678866D01*
X42539040Y-80536944D01*
X42634527Y-80371556D01*
X42693542Y-80189928D01*
X42713504Y-80000000D01*
X42693542Y-79810072D01*
X42634527Y-79628444D01*
X42539040Y-79463056D01*
X42539036Y-79463050D01*
X42465350Y-79381213D01*
X42435120Y-79318221D01*
X42433500Y-79298241D01*
X42433500Y-77098766D01*
X42453185Y-77031727D01*
X42469819Y-77011085D01*
X42736086Y-76744818D01*
X42797409Y-76711333D01*
X42823767Y-76708499D01*
X42840386Y-76708499D01*
X42939364Y-76695468D01*
X42959350Y-76692838D01*
X42959357Y-76692834D01*
X42967196Y-76690735D01*
X42967947Y-76693541D01*
X43023505Y-76687563D01*
X43035690Y-76691140D01*
X43035799Y-76690734D01*
X43043648Y-76692837D01*
X43043650Y-76692838D01*
X43162615Y-76708500D01*
X43162636Y-76708499D01*
X43166666Y-76708765D01*
X43166579Y-76710080D01*
X43228233Y-76728159D01*
X43248914Y-76744818D01*
X46937681Y-80433585D01*
X46971166Y-80494908D01*
X46974000Y-80521266D01*
X46974000Y-84062398D01*
X46998343Y-84184777D01*
X46998345Y-84184785D01*
X47046098Y-84300072D01*
X47046103Y-84300081D01*
X47115428Y-84403832D01*
X47115431Y-84403836D01*
X47203663Y-84492068D01*
X47203667Y-84492071D01*
X47307418Y-84561396D01*
X47307424Y-84561399D01*
X47307425Y-84561400D01*
X47422715Y-84609155D01*
X47545101Y-84633499D01*
X47545105Y-84633500D01*
X47545106Y-84633500D01*
X49363921Y-84633500D01*
X49430960Y-84653185D01*
X49476715Y-84705989D01*
X49481627Y-84718497D01*
X49507882Y-84797733D01*
X49507884Y-84797737D01*
X49507885Y-84797738D01*
X49600970Y-84948652D01*
X49726348Y-85074030D01*
X49877262Y-85167115D01*
X50045574Y-85222887D01*
X50149455Y-85233500D01*
X50750544Y-85233499D01*
X50854426Y-85222887D01*
X51022738Y-85167115D01*
X51173652Y-85074030D01*
X51299030Y-84948652D01*
X51299032Y-84948647D01*
X51302732Y-84943970D01*
X51359753Y-84903591D01*
X51429552Y-84900451D01*
X51489968Y-84935545D01*
X51497268Y-84943970D01*
X51500969Y-84948651D01*
X51500970Y-84948652D01*
X51626348Y-85074030D01*
X51777262Y-85167115D01*
X51945574Y-85222887D01*
X52049455Y-85233500D01*
X52650544Y-85233499D01*
X52754426Y-85222887D01*
X52922738Y-85167115D01*
X53073652Y-85074030D01*
X53199030Y-84948652D01*
X53215221Y-84922402D01*
X53267168Y-84875679D01*
X53320759Y-84863500D01*
X54567606Y-84863500D01*
X54610980Y-84863500D01*
X54678019Y-84883185D01*
X54723774Y-84935989D01*
X54727161Y-84944166D01*
X54739110Y-84976203D01*
X54756349Y-84999231D01*
X54826739Y-85093261D01*
X54943796Y-85180889D01*
X55080799Y-85231989D01*
X55108050Y-85234918D01*
X55141345Y-85238499D01*
X55141362Y-85238500D01*
X56238638Y-85238500D01*
X56238654Y-85238499D01*
X56265692Y-85235591D01*
X56299201Y-85231989D01*
X56436204Y-85180889D01*
X56553261Y-85093261D01*
X56640889Y-84976204D01*
X56652839Y-84944166D01*
X56694710Y-84888232D01*
X56760175Y-84863816D01*
X56769020Y-84863500D01*
X57197389Y-84863500D01*
X57264428Y-84883185D01*
X57310183Y-84935989D01*
X57320127Y-85005147D01*
X57291102Y-85068703D01*
X57232324Y-85106477D01*
X57223170Y-85108790D01*
X57117714Y-85131205D01*
X56943246Y-85208883D01*
X56788745Y-85321135D01*
X56660959Y-85463057D01*
X56565473Y-85628443D01*
X56565470Y-85628450D01*
X56506459Y-85810067D01*
X56506457Y-85810078D01*
X56505891Y-85815464D01*
X56479306Y-85880078D01*
X56422008Y-85920062D01*
X56382571Y-85926500D01*
X54848843Y-85926500D01*
X54781804Y-85906815D01*
X54743304Y-85867597D01*
X54724030Y-85836348D01*
X54598652Y-85710970D01*
X54504898Y-85653142D01*
X54447740Y-85617886D01*
X54447735Y-85617884D01*
X54279427Y-85562113D01*
X54175546Y-85551500D01*
X53124462Y-85551500D01*
X53124446Y-85551501D01*
X53020572Y-85562113D01*
X52852264Y-85617884D01*
X52852259Y-85617886D01*
X52701346Y-85710971D01*
X52575971Y-85836346D01*
X52482886Y-85987259D01*
X52482884Y-85987264D01*
X52427113Y-86155572D01*
X52416500Y-86259447D01*
X52416500Y-86259460D01*
X52416501Y-86627500D01*
X52396817Y-86694539D01*
X52344013Y-86740294D01*
X52292501Y-86751500D01*
X51997500Y-86751500D01*
X51930461Y-86731815D01*
X51884706Y-86679011D01*
X51873500Y-86627500D01*
X51873499Y-86259462D01*
X51873498Y-86259446D01*
X51870065Y-86225839D01*
X51862887Y-86155574D01*
X51807115Y-85987262D01*
X51714030Y-85836348D01*
X51588652Y-85710970D01*
X51494898Y-85653142D01*
X51437740Y-85617886D01*
X51437735Y-85617884D01*
X51269427Y-85562113D01*
X51165546Y-85551500D01*
X50114462Y-85551500D01*
X50114446Y-85551501D01*
X50010572Y-85562113D01*
X49842264Y-85617884D01*
X49842259Y-85617886D01*
X49691346Y-85710971D01*
X49565971Y-85836346D01*
X49546696Y-85867597D01*
X49494748Y-85914321D01*
X49441157Y-85926500D01*
X48828843Y-85926500D01*
X48761804Y-85906815D01*
X48723304Y-85867597D01*
X48704030Y-85836348D01*
X48578652Y-85710970D01*
X48484898Y-85653142D01*
X48427740Y-85617886D01*
X48427735Y-85617884D01*
X48259427Y-85562113D01*
X48155552Y-85551500D01*
X48155545Y-85551500D01*
X47298767Y-85551500D01*
X47231728Y-85531815D01*
X47211086Y-85515181D01*
X44403836Y-82707931D01*
X44403832Y-82707928D01*
X44300081Y-82638603D01*
X44300072Y-82638598D01*
X44184785Y-82590845D01*
X44184777Y-82590843D01*
X44062398Y-82566500D01*
X44062394Y-82566500D01*
X41462394Y-82566500D01*
X41337606Y-82566500D01*
X41337601Y-82566500D01*
X41215222Y-82590843D01*
X41215214Y-82590845D01*
X41099927Y-82638598D01*
X41099918Y-82638603D01*
X40996167Y-82707928D01*
X40996163Y-82707931D01*
X40907931Y-82796163D01*
X40907928Y-82796167D01*
X40838603Y-82899918D01*
X40838598Y-82899927D01*
X40790845Y-83015214D01*
X40790843Y-83015222D01*
X40766500Y-83137601D01*
X40766500Y-83298241D01*
X40746815Y-83365280D01*
X40734650Y-83381213D01*
X40660963Y-83463050D01*
X40660958Y-83463057D01*
X40565473Y-83628443D01*
X40565469Y-83628453D01*
X40540892Y-83704090D01*
X40510643Y-83753451D01*
X40267680Y-83996414D01*
X40206357Y-84029899D01*
X40136665Y-84024915D01*
X40092318Y-83996414D01*
X36003836Y-79907931D01*
X36003832Y-79907928D01*
X35900081Y-79838603D01*
X35900072Y-79838598D01*
X35784785Y-79790845D01*
X35784777Y-79790843D01*
X35662398Y-79766500D01*
X35662394Y-79766500D01*
X33279020Y-79766500D01*
X33211981Y-79746815D01*
X33166226Y-79694011D01*
X33162839Y-79685834D01*
X33150889Y-79653796D01*
X33131915Y-79628450D01*
X33063261Y-79536739D01*
X32946204Y-79449111D01*
X32809203Y-79398011D01*
X32748654Y-79391500D01*
X32748638Y-79391500D01*
X31651362Y-79391500D01*
X31651345Y-79391500D01*
X31590797Y-79398011D01*
X31590795Y-79398011D01*
X31453795Y-79449111D01*
X31336739Y-79536739D01*
X31249111Y-79653795D01*
X31198011Y-79790795D01*
X31198011Y-79790797D01*
X31191500Y-79851345D01*
X31191500Y-80948654D01*
X31198011Y-81009202D01*
X31198011Y-81009204D01*
X31236043Y-81111168D01*
X31249111Y-81146204D01*
X31336739Y-81263261D01*
X31453796Y-81350889D01*
X31590799Y-81401989D01*
X31618050Y-81404918D01*
X31651345Y-81408499D01*
X31651362Y-81408500D01*
X32748638Y-81408500D01*
X32748654Y-81408499D01*
X32775692Y-81405591D01*
X32809201Y-81401989D01*
X32946204Y-81350889D01*
X33063261Y-81263261D01*
X33150889Y-81146204D01*
X33162839Y-81114166D01*
X33204710Y-81058232D01*
X33270175Y-81033816D01*
X33279020Y-81033500D01*
X35286234Y-81033500D01*
X35353273Y-81053185D01*
X35373915Y-81069819D01*
X39196414Y-84892318D01*
X39229899Y-84953641D01*
X39224915Y-85023333D01*
X39196414Y-85067680D01*
X38748913Y-85515181D01*
X38687590Y-85548666D01*
X38661232Y-85551500D01*
X38074462Y-85551500D01*
X38074446Y-85551501D01*
X37970572Y-85562113D01*
X37802264Y-85617884D01*
X37802259Y-85617886D01*
X37651346Y-85710971D01*
X37525971Y-85836346D01*
X37432886Y-85987259D01*
X37432884Y-85987264D01*
X37377113Y-86155572D01*
X37366500Y-86259447D01*
X37366500Y-86860537D01*
X37366501Y-86860553D01*
X37377113Y-86964429D01*
X37422110Y-87100225D01*
X37424511Y-87170054D01*
X37392085Y-87226909D01*
X37146167Y-87472829D01*
X37102047Y-87516949D01*
X37057927Y-87561068D01*
X36988603Y-87664818D01*
X36988598Y-87664827D01*
X36940845Y-87780114D01*
X36940843Y-87780122D01*
X36916500Y-87902501D01*
X36916500Y-89017498D01*
X36940843Y-89139877D01*
X36940845Y-89139885D01*
X36988598Y-89255172D01*
X36988603Y-89255181D01*
X37057928Y-89358932D01*
X37057931Y-89358936D01*
X42930181Y-95231185D01*
X42963666Y-95292508D01*
X42966500Y-95318866D01*
X42966500Y-98036248D01*
X42946815Y-98103287D01*
X42894011Y-98149042D01*
X42824853Y-98158986D01*
X42761297Y-98129961D01*
X42754819Y-98123929D01*
X42538821Y-97907931D01*
X42538817Y-97907928D01*
X42435066Y-97838603D01*
X42435057Y-97838598D01*
X42319770Y-97790845D01*
X42319762Y-97790843D01*
X42197383Y-97766500D01*
X42197379Y-97766500D01*
X33892394Y-97766500D01*
X33767606Y-97766500D01*
X33767601Y-97766500D01*
X33645222Y-97790843D01*
X33645214Y-97790845D01*
X33529927Y-97838598D01*
X33529918Y-97838603D01*
X33426167Y-97907928D01*
X33426163Y-97907931D01*
X32663913Y-98670181D01*
X32602590Y-98703666D01*
X32576232Y-98706500D01*
X31249462Y-98706500D01*
X31249446Y-98706501D01*
X31145572Y-98717113D01*
X30977264Y-98772884D01*
X30977259Y-98772886D01*
X30826346Y-98865971D01*
X30700971Y-98991346D01*
X30607886Y-99142259D01*
X30607884Y-99142264D01*
X30552113Y-99310572D01*
X30541500Y-99414447D01*
X30541500Y-101205537D01*
X30541501Y-101205553D01*
X30548602Y-101275057D01*
X30552113Y-101309426D01*
X30607885Y-101477738D01*
X30700970Y-101628652D01*
X30826348Y-101754030D01*
X30977262Y-101847115D01*
X31145574Y-101902887D01*
X31249455Y-101913500D01*
X32590544Y-101913499D01*
X32694426Y-101902887D01*
X32862738Y-101847115D01*
X33013652Y-101754030D01*
X33139030Y-101628652D01*
X33232115Y-101477738D01*
X33232116Y-101477735D01*
X33235906Y-101471591D01*
X33237358Y-101472486D01*
X33277587Y-101426794D01*
X33344780Y-101407639D01*
X33411662Y-101427852D01*
X33431482Y-101443954D01*
X33567502Y-101579974D01*
X33741963Y-101706728D01*
X33934098Y-101804627D01*
X34139190Y-101871266D01*
X34210000Y-101882481D01*
X34210000Y-100852709D01*
X34230339Y-100864452D01*
X34381667Y-100905000D01*
X34538333Y-100905000D01*
X34689661Y-100864452D01*
X34710000Y-100852709D01*
X34710000Y-101882480D01*
X34780809Y-101871266D01*
X34985901Y-101804627D01*
X35178036Y-101706728D01*
X35352496Y-101579974D01*
X35352497Y-101579974D01*
X35504974Y-101427497D01*
X35504974Y-101427496D01*
X35631728Y-101253036D01*
X35729627Y-101060901D01*
X35796265Y-100855809D01*
X35830000Y-100642820D01*
X35830000Y-100560000D01*
X35002709Y-100560000D01*
X35014452Y-100539661D01*
X35055000Y-100388333D01*
X35055000Y-100231667D01*
X35014452Y-100080339D01*
X35002709Y-100060000D01*
X35830000Y-100060000D01*
X35830000Y-99977179D01*
X35796265Y-99764190D01*
X35729627Y-99559098D01*
X35631726Y-99366960D01*
X35532499Y-99230385D01*
X35509019Y-99164579D01*
X35524844Y-99096525D01*
X35574950Y-99047830D01*
X35632817Y-99033500D01*
X38300644Y-99033500D01*
X38367683Y-99053185D01*
X38413438Y-99105989D01*
X38423382Y-99175147D01*
X38406183Y-99222597D01*
X38387886Y-99252259D01*
X38387884Y-99252264D01*
X38332113Y-99420572D01*
X38321500Y-99524447D01*
X38321500Y-101315537D01*
X38321501Y-101315553D01*
X38332113Y-101419427D01*
X38349398Y-101471591D01*
X38387885Y-101587738D01*
X38480970Y-101738652D01*
X38606348Y-101864030D01*
X38757262Y-101957115D01*
X38925574Y-102012887D01*
X39029455Y-102023500D01*
X40356232Y-102023499D01*
X40423271Y-102043184D01*
X40443913Y-102059818D01*
X40716163Y-102332068D01*
X40716167Y-102332071D01*
X40819918Y-102401396D01*
X40819924Y-102401399D01*
X40819925Y-102401400D01*
X40935215Y-102449155D01*
X41057601Y-102473499D01*
X41057605Y-102473500D01*
X41057606Y-102473500D01*
X42797380Y-102473500D01*
X42797381Y-102473499D01*
X42919770Y-102449155D01*
X43035060Y-102401400D01*
X43138818Y-102332071D01*
X43513774Y-101957115D01*
X43927072Y-101543818D01*
X43927073Y-101543816D01*
X43934134Y-101536755D01*
X43934137Y-101536750D01*
X44092071Y-101378818D01*
X44161400Y-101275060D01*
X44209155Y-101159770D01*
X44233500Y-101037379D01*
X44233500Y-100912591D01*
X44233500Y-94942706D01*
X44209155Y-94820315D01*
X44161400Y-94705025D01*
X44161399Y-94705024D01*
X44161396Y-94705018D01*
X44092072Y-94601268D01*
X44092071Y-94601267D01*
X44003833Y-94513029D01*
X42090790Y-92599986D01*
X55750001Y-92599986D01*
X55760494Y-92702697D01*
X55815641Y-92869119D01*
X55815643Y-92869124D01*
X55907684Y-93018345D01*
X56031654Y-93142315D01*
X56180875Y-93234356D01*
X56180880Y-93234358D01*
X56347302Y-93289505D01*
X56347309Y-93289506D01*
X56450019Y-93299999D01*
X57749999Y-93299999D01*
X58250000Y-93299999D01*
X59549972Y-93299999D01*
X59549986Y-93299998D01*
X59652697Y-93289505D01*
X59819119Y-93234358D01*
X59819124Y-93234356D01*
X59968345Y-93142315D01*
X60092315Y-93018345D01*
X60184356Y-92869124D01*
X60184358Y-92869119D01*
X60239505Y-92702697D01*
X60239506Y-92702690D01*
X60249999Y-92599986D01*
X60250000Y-92599973D01*
X60250000Y-92250000D01*
X58250000Y-92250000D01*
X58250000Y-93299999D01*
X57749999Y-93299999D01*
X57750000Y-93299998D01*
X57750000Y-92250000D01*
X55750001Y-92250000D01*
X55750001Y-92599986D01*
X42090790Y-92599986D01*
X40890817Y-91400013D01*
X55750000Y-91400013D01*
X55750000Y-91750000D01*
X57750000Y-91750000D01*
X58250000Y-91750000D01*
X60249999Y-91750000D01*
X60249999Y-91400028D01*
X60249998Y-91400013D01*
X60249940Y-91399447D01*
X61141500Y-91399447D01*
X61141500Y-92600537D01*
X61141501Y-92600553D01*
X61152113Y-92704427D01*
X61187120Y-92810072D01*
X61207885Y-92872738D01*
X61300970Y-93023652D01*
X61426348Y-93149030D01*
X61577262Y-93242115D01*
X61745574Y-93297887D01*
X61849455Y-93308500D01*
X64950544Y-93308499D01*
X65054426Y-93297887D01*
X65222738Y-93242115D01*
X65373652Y-93149030D01*
X65499030Y-93023652D01*
X65592115Y-92872738D01*
X65643225Y-92718496D01*
X65682997Y-92661051D01*
X65747513Y-92634228D01*
X65760931Y-92633500D01*
X67686234Y-92633500D01*
X67753273Y-92653185D01*
X67773914Y-92669818D01*
X68053380Y-92949284D01*
X68086864Y-93010606D01*
X68089018Y-93023996D01*
X68106458Y-93189928D01*
X68106459Y-93189931D01*
X68165470Y-93371549D01*
X68165473Y-93371556D01*
X68260960Y-93536944D01*
X68388747Y-93678866D01*
X68543248Y-93791118D01*
X68717712Y-93868794D01*
X68904513Y-93908500D01*
X69095487Y-93908500D01*
X69282288Y-93868794D01*
X69456752Y-93791118D01*
X69611253Y-93678866D01*
X69739040Y-93536944D01*
X69834527Y-93371556D01*
X69893542Y-93189928D01*
X69913504Y-93000000D01*
X69893542Y-92810072D01*
X69834527Y-92628444D01*
X69739040Y-92463056D01*
X69611253Y-92321134D01*
X69456752Y-92208882D01*
X69282288Y-92131206D01*
X69282286Y-92131205D01*
X69095487Y-92091500D01*
X69038767Y-92091500D01*
X68971728Y-92071815D01*
X68951086Y-92055181D01*
X68403836Y-91507931D01*
X68403832Y-91507928D01*
X68300081Y-91438603D01*
X68300072Y-91438598D01*
X68184785Y-91390845D01*
X68184777Y-91390843D01*
X68062398Y-91366500D01*
X68062394Y-91366500D01*
X65760931Y-91366500D01*
X65693892Y-91346815D01*
X65648137Y-91294011D01*
X65643225Y-91281504D01*
X65629366Y-91239682D01*
X65592115Y-91127262D01*
X65499030Y-90976348D01*
X65373652Y-90850970D01*
X65235316Y-90765643D01*
X65222740Y-90757886D01*
X65222735Y-90757884D01*
X65054427Y-90702113D01*
X64950545Y-90691500D01*
X61849462Y-90691500D01*
X61849446Y-90691501D01*
X61745572Y-90702113D01*
X61577264Y-90757884D01*
X61577259Y-90757886D01*
X61426346Y-90850971D01*
X61300971Y-90976346D01*
X61207886Y-91127259D01*
X61207884Y-91127264D01*
X61152113Y-91295572D01*
X61141500Y-91399447D01*
X60249940Y-91399447D01*
X60239505Y-91297302D01*
X60184358Y-91130880D01*
X60184356Y-91130875D01*
X60092315Y-90981654D01*
X59968345Y-90857684D01*
X59819124Y-90765643D01*
X59819119Y-90765641D01*
X59652697Y-90710494D01*
X59652690Y-90710493D01*
X59549986Y-90700000D01*
X58250000Y-90700000D01*
X58250000Y-91750000D01*
X57750000Y-91750000D01*
X57750000Y-90700000D01*
X56450028Y-90700000D01*
X56450012Y-90700001D01*
X56347302Y-90710494D01*
X56180880Y-90765641D01*
X56180875Y-90765643D01*
X56031654Y-90857684D01*
X55907684Y-90981654D01*
X55815643Y-91130875D01*
X55815641Y-91130880D01*
X55760494Y-91297302D01*
X55760493Y-91297309D01*
X55750000Y-91400013D01*
X40890817Y-91400013D01*
X39151466Y-89660662D01*
X39117981Y-89599339D01*
X39122965Y-89529647D01*
X39164837Y-89473714D01*
X39221244Y-89451695D01*
X39221079Y-89450923D01*
X39225824Y-89449907D01*
X39226555Y-89449622D01*
X39227699Y-89449505D01*
X39394119Y-89394358D01*
X39394124Y-89394356D01*
X39543345Y-89302315D01*
X39667315Y-89178345D01*
X39759356Y-89029124D01*
X39759358Y-89029119D01*
X39814505Y-88862697D01*
X39814506Y-88862690D01*
X39824999Y-88759986D01*
X40385001Y-88759986D01*
X40395494Y-88862697D01*
X40450641Y-89029119D01*
X40450643Y-89029124D01*
X40542684Y-89178345D01*
X40666654Y-89302315D01*
X40815875Y-89394356D01*
X40815880Y-89394358D01*
X40982302Y-89449505D01*
X40982309Y-89449506D01*
X41085019Y-89459999D01*
X41359999Y-89459999D01*
X41860000Y-89459999D01*
X42134972Y-89459999D01*
X42134986Y-89459998D01*
X42237697Y-89449505D01*
X42404119Y-89394358D01*
X42404124Y-89394356D01*
X42553345Y-89302315D01*
X42677315Y-89178345D01*
X42769356Y-89029124D01*
X42769358Y-89029119D01*
X42824505Y-88862697D01*
X42824506Y-88862690D01*
X42834999Y-88759986D01*
X43395001Y-88759986D01*
X43405494Y-88862697D01*
X43460641Y-89029119D01*
X43460643Y-89029124D01*
X43552684Y-89178345D01*
X43676654Y-89302315D01*
X43825875Y-89394356D01*
X43825880Y-89394358D01*
X43992302Y-89449505D01*
X43992309Y-89449506D01*
X44095019Y-89459999D01*
X44369999Y-89459999D01*
X44870000Y-89459999D01*
X45144972Y-89459999D01*
X45144986Y-89459998D01*
X45247697Y-89449505D01*
X45414119Y-89394358D01*
X45414124Y-89394356D01*
X45563345Y-89302315D01*
X45687315Y-89178345D01*
X45779356Y-89029124D01*
X45779358Y-89029119D01*
X45834505Y-88862697D01*
X45834506Y-88862690D01*
X45844999Y-88759986D01*
X46405001Y-88759986D01*
X46415494Y-88862697D01*
X46470641Y-89029119D01*
X46470643Y-89029124D01*
X46562684Y-89178345D01*
X46686654Y-89302315D01*
X46835875Y-89394356D01*
X46835880Y-89394358D01*
X47002302Y-89449505D01*
X47002309Y-89449506D01*
X47105019Y-89459999D01*
X47379999Y-89459999D01*
X47880000Y-89459999D01*
X48154972Y-89459999D01*
X48154986Y-89459998D01*
X48257697Y-89449505D01*
X48424119Y-89394358D01*
X48424124Y-89394356D01*
X48573345Y-89302315D01*
X48697315Y-89178345D01*
X48789356Y-89029124D01*
X48789358Y-89029119D01*
X48844505Y-88862697D01*
X48844506Y-88862690D01*
X48854999Y-88759986D01*
X49415001Y-88759986D01*
X49425494Y-88862697D01*
X49480641Y-89029119D01*
X49480643Y-89029124D01*
X49572684Y-89178345D01*
X49696654Y-89302315D01*
X49845875Y-89394356D01*
X49845880Y-89394358D01*
X50012302Y-89449505D01*
X50012309Y-89449506D01*
X50115019Y-89459999D01*
X50389999Y-89459999D01*
X50890000Y-89459999D01*
X51164972Y-89459999D01*
X51164986Y-89459998D01*
X51267697Y-89449505D01*
X51434119Y-89394358D01*
X51434124Y-89394356D01*
X51583345Y-89302315D01*
X51707315Y-89178345D01*
X51799356Y-89029124D01*
X51799358Y-89029119D01*
X51854505Y-88862697D01*
X51854506Y-88862690D01*
X51864999Y-88759986D01*
X52425001Y-88759986D01*
X52435494Y-88862697D01*
X52490641Y-89029119D01*
X52490643Y-89029124D01*
X52582684Y-89178345D01*
X52706654Y-89302315D01*
X52855875Y-89394356D01*
X52855880Y-89394358D01*
X53022302Y-89449505D01*
X53022309Y-89449506D01*
X53125019Y-89459999D01*
X53399999Y-89459999D01*
X53900000Y-89459999D01*
X54174972Y-89459999D01*
X54174986Y-89459998D01*
X54277697Y-89449505D01*
X54444119Y-89394358D01*
X54444124Y-89394356D01*
X54593345Y-89302315D01*
X54717315Y-89178345D01*
X54809356Y-89029124D01*
X54809358Y-89029119D01*
X54864505Y-88862697D01*
X54864506Y-88862690D01*
X54874999Y-88759986D01*
X54875000Y-88759973D01*
X54875000Y-88710000D01*
X53900000Y-88710000D01*
X53900000Y-89459999D01*
X53399999Y-89459999D01*
X53400000Y-89459998D01*
X53400000Y-88710000D01*
X52425001Y-88710000D01*
X52425001Y-88759986D01*
X51864999Y-88759986D01*
X51865000Y-88759973D01*
X51865000Y-88710000D01*
X50890000Y-88710000D01*
X50890000Y-89459999D01*
X50389999Y-89459999D01*
X50390000Y-89459998D01*
X50390000Y-88710000D01*
X49415001Y-88710000D01*
X49415001Y-88759986D01*
X48854999Y-88759986D01*
X48855000Y-88759973D01*
X48855000Y-88710000D01*
X47880000Y-88710000D01*
X47880000Y-89459999D01*
X47379999Y-89459999D01*
X47380000Y-89459998D01*
X47380000Y-88710000D01*
X46405001Y-88710000D01*
X46405001Y-88759986D01*
X45844999Y-88759986D01*
X45845000Y-88759973D01*
X45845000Y-88710000D01*
X44870000Y-88710000D01*
X44870000Y-89459999D01*
X44369999Y-89459999D01*
X44370000Y-89459998D01*
X44370000Y-88710000D01*
X43395001Y-88710000D01*
X43395001Y-88759986D01*
X42834999Y-88759986D01*
X42835000Y-88759973D01*
X42835000Y-88710000D01*
X41860000Y-88710000D01*
X41860000Y-89459999D01*
X41359999Y-89459999D01*
X41360000Y-89459998D01*
X41360000Y-88710000D01*
X40385001Y-88710000D01*
X40385001Y-88759986D01*
X39824999Y-88759986D01*
X39825000Y-88759973D01*
X39825000Y-88710000D01*
X38724000Y-88710000D01*
X38656961Y-88690315D01*
X38611206Y-88637511D01*
X38600000Y-88586000D01*
X38600000Y-88334000D01*
X38619685Y-88266961D01*
X38672489Y-88221206D01*
X38724000Y-88210000D01*
X39824999Y-88210000D01*
X39824999Y-88160028D01*
X39824998Y-88160013D01*
X39824496Y-88155094D01*
X39837270Y-88086402D01*
X39885154Y-88035521D01*
X39947855Y-88018500D01*
X40262144Y-88018500D01*
X40329183Y-88038185D01*
X40374938Y-88090989D01*
X40385502Y-88155098D01*
X40385001Y-88160001D01*
X40385000Y-88160026D01*
X40385000Y-88210000D01*
X42834999Y-88210000D01*
X42834999Y-88160028D01*
X42834998Y-88160013D01*
X42834496Y-88155094D01*
X42847270Y-88086402D01*
X42895154Y-88035521D01*
X42957855Y-88018500D01*
X43272144Y-88018500D01*
X43339183Y-88038185D01*
X43384938Y-88090989D01*
X43395502Y-88155098D01*
X43395001Y-88160001D01*
X43395000Y-88160026D01*
X43395000Y-88210000D01*
X45844999Y-88210000D01*
X45844999Y-88160028D01*
X45844998Y-88160013D01*
X45844496Y-88155094D01*
X45857270Y-88086402D01*
X45905154Y-88035521D01*
X45967855Y-88018500D01*
X46282144Y-88018500D01*
X46349183Y-88038185D01*
X46394938Y-88090989D01*
X46405502Y-88155098D01*
X46405001Y-88160001D01*
X46405000Y-88160026D01*
X46405000Y-88210000D01*
X48854999Y-88210000D01*
X48854999Y-88160028D01*
X48854998Y-88160013D01*
X48854496Y-88155094D01*
X48867270Y-88086402D01*
X48915154Y-88035521D01*
X48977855Y-88018500D01*
X49292144Y-88018500D01*
X49359183Y-88038185D01*
X49404938Y-88090989D01*
X49415502Y-88155098D01*
X49415001Y-88160001D01*
X49415000Y-88160026D01*
X49415000Y-88210000D01*
X51864999Y-88210000D01*
X51864999Y-88160028D01*
X51864998Y-88160013D01*
X51864496Y-88155094D01*
X51877270Y-88086402D01*
X51925154Y-88035521D01*
X51987855Y-88018500D01*
X52302144Y-88018500D01*
X52369183Y-88038185D01*
X52414938Y-88090989D01*
X52425502Y-88155098D01*
X52425001Y-88160001D01*
X52425000Y-88160026D01*
X52425000Y-88210000D01*
X54874999Y-88210000D01*
X54874999Y-88160028D01*
X54874998Y-88160013D01*
X54874496Y-88155094D01*
X54887270Y-88086402D01*
X54935154Y-88035521D01*
X54997855Y-88018500D01*
X59667395Y-88018500D01*
X59667396Y-88018499D01*
X59789785Y-87994155D01*
X59905075Y-87946400D01*
X60008833Y-87877071D01*
X62307320Y-85578582D01*
X62368641Y-85545099D01*
X62438332Y-85550083D01*
X62482680Y-85578584D01*
X63107929Y-86203833D01*
X63163542Y-86259446D01*
X63196168Y-86292072D01*
X63299918Y-86361396D01*
X63299924Y-86361399D01*
X63299925Y-86361400D01*
X63415215Y-86409155D01*
X63537601Y-86433499D01*
X63537605Y-86433500D01*
X63537606Y-86433500D01*
X68262395Y-86433500D01*
X68262396Y-86433499D01*
X68384785Y-86409155D01*
X68500075Y-86361400D01*
X68603833Y-86292071D01*
X72692071Y-82203833D01*
X72761400Y-82100075D01*
X72809155Y-81984785D01*
X72833500Y-81862394D01*
X72833500Y-81737606D01*
X72833500Y-63113766D01*
X72853185Y-63046727D01*
X72869819Y-63026085D01*
X73292068Y-62603836D01*
X73292071Y-62603833D01*
X73325384Y-62553975D01*
X73378996Y-62509170D01*
X73448320Y-62500461D01*
X73511348Y-62530615D01*
X73548068Y-62590058D01*
X73552481Y-62621642D01*
X73998737Y-107872024D01*
X73979714Y-107939255D01*
X73927364Y-107985528D01*
X73872048Y-107997218D01*
X28118802Y-107002582D01*
X28052206Y-106981445D01*
X28007610Y-106927659D01*
X27997524Y-106881198D01*
X27934972Y-103878711D01*
X67149500Y-103878711D01*
X67149500Y-104121288D01*
X67181161Y-104361785D01*
X67243947Y-104596104D01*
X67336773Y-104820205D01*
X67336776Y-104820212D01*
X67458064Y-105030289D01*
X67458066Y-105030292D01*
X67458067Y-105030293D01*
X67605733Y-105222736D01*
X67605739Y-105222743D01*
X67777256Y-105394260D01*
X67777262Y-105394265D01*
X67969711Y-105541936D01*
X68179788Y-105663224D01*
X68403900Y-105756054D01*
X68638211Y-105818838D01*
X68818586Y-105842584D01*
X68878711Y-105850500D01*
X68878712Y-105850500D01*
X69121289Y-105850500D01*
X69169388Y-105844167D01*
X69361789Y-105818838D01*
X69596100Y-105756054D01*
X69820212Y-105663224D01*
X70030289Y-105541936D01*
X70222738Y-105394265D01*
X70394265Y-105222738D01*
X70541936Y-105030289D01*
X70663224Y-104820212D01*
X70756054Y-104596100D01*
X70818838Y-104361789D01*
X70850500Y-104121288D01*
X70850500Y-103878712D01*
X70818838Y-103638211D01*
X70756054Y-103403900D01*
X70663224Y-103179788D01*
X70541936Y-102969711D01*
X70394265Y-102777262D01*
X70394260Y-102777256D01*
X70222743Y-102605739D01*
X70222736Y-102605733D01*
X70030293Y-102458067D01*
X70030292Y-102458066D01*
X70030289Y-102458064D01*
X69820212Y-102336776D01*
X69808846Y-102332068D01*
X69596104Y-102243947D01*
X69361785Y-102181161D01*
X69121289Y-102149500D01*
X69121288Y-102149500D01*
X68878712Y-102149500D01*
X68878711Y-102149500D01*
X68638214Y-102181161D01*
X68403895Y-102243947D01*
X68179794Y-102336773D01*
X68179785Y-102336777D01*
X67969706Y-102458067D01*
X67777263Y-102605733D01*
X67777256Y-102605739D01*
X67605739Y-102777256D01*
X67605733Y-102777263D01*
X67458067Y-102969706D01*
X67336777Y-103179785D01*
X67336773Y-103179794D01*
X67243947Y-103403895D01*
X67181161Y-103638214D01*
X67149500Y-103878711D01*
X27934972Y-103878711D01*
X27390580Y-77747844D01*
X31400000Y-77747844D01*
X31406401Y-77807372D01*
X31406403Y-77807379D01*
X31456645Y-77942086D01*
X31456649Y-77942093D01*
X31542809Y-78057187D01*
X31542812Y-78057190D01*
X31657906Y-78143350D01*
X31657913Y-78143354D01*
X31792620Y-78193596D01*
X31792627Y-78193598D01*
X31852155Y-78199999D01*
X31852172Y-78200000D01*
X32150000Y-78200000D01*
X32650000Y-78200000D01*
X32947828Y-78200000D01*
X32947844Y-78199999D01*
X33007372Y-78193598D01*
X33007379Y-78193596D01*
X33142086Y-78143354D01*
X33142093Y-78143350D01*
X33257187Y-78057190D01*
X33257190Y-78057187D01*
X33343350Y-77942093D01*
X33343354Y-77942086D01*
X33393596Y-77807379D01*
X33393598Y-77807372D01*
X33399999Y-77747844D01*
X33400000Y-77747827D01*
X33400000Y-77450000D01*
X32650000Y-77450000D01*
X32650000Y-78200000D01*
X32150000Y-78200000D01*
X32150000Y-77450000D01*
X31400000Y-77450000D01*
X31400000Y-77747844D01*
X27390580Y-77747844D01*
X27378131Y-77150272D01*
X32150000Y-77150272D01*
X32150000Y-77249728D01*
X32188060Y-77341614D01*
X32258386Y-77411940D01*
X32350272Y-77450000D01*
X32449728Y-77450000D01*
X32541614Y-77411940D01*
X32611940Y-77341614D01*
X32650000Y-77249728D01*
X32650000Y-77150272D01*
X32611940Y-77058386D01*
X32541614Y-76988060D01*
X32449728Y-76950000D01*
X32650000Y-76950000D01*
X33400000Y-76950000D01*
X33400000Y-76652172D01*
X33399999Y-76652155D01*
X33393598Y-76592627D01*
X33393596Y-76592620D01*
X33343354Y-76457913D01*
X33343350Y-76457906D01*
X33257190Y-76342812D01*
X33257187Y-76342809D01*
X33142093Y-76256649D01*
X33142086Y-76256645D01*
X33007379Y-76206403D01*
X33007372Y-76206401D01*
X32947844Y-76200000D01*
X32650000Y-76200000D01*
X32650000Y-76950000D01*
X32449728Y-76950000D01*
X32350272Y-76950000D01*
X32258386Y-76988060D01*
X32188060Y-77058386D01*
X32150000Y-77150272D01*
X27378131Y-77150272D01*
X27367753Y-76652155D01*
X31400000Y-76652155D01*
X31400000Y-76950000D01*
X32150000Y-76950000D01*
X32150000Y-76200000D01*
X31852155Y-76200000D01*
X31792627Y-76206401D01*
X31792620Y-76206403D01*
X31657913Y-76256645D01*
X31657906Y-76256649D01*
X31542812Y-76342809D01*
X31542809Y-76342812D01*
X31456649Y-76457906D01*
X31456645Y-76457913D01*
X31406403Y-76592620D01*
X31406401Y-76592627D01*
X31400000Y-76652155D01*
X27367753Y-76652155D01*
X27059973Y-61878711D01*
X28149500Y-61878711D01*
X28149500Y-62121288D01*
X28180615Y-62357639D01*
X28181162Y-62361789D01*
X28189781Y-62393954D01*
X28243947Y-62596104D01*
X28336773Y-62820205D01*
X28336777Y-62820214D01*
X28344503Y-62833596D01*
X28458064Y-63030289D01*
X28458066Y-63030292D01*
X28458067Y-63030293D01*
X28605733Y-63222736D01*
X28605739Y-63222743D01*
X28777256Y-63394260D01*
X28777262Y-63394265D01*
X28969711Y-63541936D01*
X29179788Y-63663224D01*
X29403900Y-63756054D01*
X29638211Y-63818838D01*
X29818586Y-63842584D01*
X29878711Y-63850500D01*
X29878712Y-63850500D01*
X30121289Y-63850500D01*
X30169388Y-63844167D01*
X30361789Y-63818838D01*
X30596100Y-63756054D01*
X30820212Y-63663224D01*
X31030289Y-63541936D01*
X31222738Y-63394265D01*
X31394265Y-63222738D01*
X31541936Y-63030289D01*
X31663224Y-62820212D01*
X31756054Y-62596100D01*
X31818838Y-62361789D01*
X31850500Y-62121288D01*
X31850500Y-61878712D01*
X31818838Y-61638211D01*
X31756054Y-61403900D01*
X31663224Y-61179788D01*
X31541936Y-60969711D01*
X31394265Y-60777262D01*
X31394260Y-60777256D01*
X31222743Y-60605739D01*
X31222736Y-60605733D01*
X31030293Y-60458067D01*
X31030292Y-60458066D01*
X31030289Y-60458064D01*
X30868140Y-60364447D01*
X34381500Y-60364447D01*
X34381500Y-62155537D01*
X34381501Y-62155553D01*
X34392113Y-62259427D01*
X34433072Y-62383034D01*
X34447885Y-62427738D01*
X34540970Y-62578652D01*
X34666348Y-62704030D01*
X34817262Y-62797115D01*
X34985574Y-62852887D01*
X35089455Y-62863500D01*
X36430544Y-62863499D01*
X36534426Y-62852887D01*
X36702738Y-62797115D01*
X36853652Y-62704030D01*
X36979030Y-62578652D01*
X37072115Y-62427738D01*
X37072116Y-62427735D01*
X37075906Y-62421591D01*
X37077358Y-62422486D01*
X37117587Y-62376794D01*
X37184780Y-62357639D01*
X37251662Y-62377852D01*
X37271482Y-62393954D01*
X37407502Y-62529974D01*
X37581963Y-62656728D01*
X37774098Y-62754627D01*
X37979190Y-62821266D01*
X38050000Y-62832481D01*
X38050000Y-61802709D01*
X38070339Y-61814452D01*
X38221667Y-61855000D01*
X38378333Y-61855000D01*
X38529661Y-61814452D01*
X38550000Y-61802709D01*
X38550000Y-62832480D01*
X38620809Y-62821266D01*
X38825901Y-62754627D01*
X39018036Y-62656728D01*
X39192496Y-62529974D01*
X39192497Y-62529974D01*
X39344974Y-62377497D01*
X39344979Y-62377491D01*
X39464428Y-62213085D01*
X39519758Y-62170419D01*
X39589371Y-62164440D01*
X39651166Y-62197046D01*
X39665062Y-62213082D01*
X39788539Y-62383033D01*
X39941967Y-62536461D01*
X40117508Y-62663999D01*
X40310840Y-62762506D01*
X40517200Y-62829557D01*
X40597566Y-62842285D01*
X40731505Y-62863500D01*
X40731510Y-62863500D01*
X40948495Y-62863500D01*
X41067551Y-62844642D01*
X41162800Y-62829557D01*
X41369160Y-62762506D01*
X41562492Y-62663999D01*
X41738033Y-62536461D01*
X41891461Y-62383033D01*
X42018999Y-62207492D01*
X42117506Y-62014160D01*
X42184557Y-61807800D01*
X42209986Y-61647249D01*
X42218500Y-61593495D01*
X42218500Y-60926504D01*
X42184557Y-60712203D01*
X42184557Y-60712200D01*
X42117506Y-60505840D01*
X42018999Y-60312508D01*
X41891461Y-60136967D01*
X41738033Y-59983539D01*
X41562492Y-59856001D01*
X41369160Y-59757494D01*
X41162800Y-59690443D01*
X41162798Y-59690442D01*
X41162796Y-59690442D01*
X40948495Y-59656500D01*
X40948490Y-59656500D01*
X40731510Y-59656500D01*
X40731505Y-59656500D01*
X40517203Y-59690442D01*
X40310837Y-59757495D01*
X40117507Y-59856001D01*
X40059690Y-59898008D01*
X39941967Y-59983539D01*
X39941965Y-59983541D01*
X39941964Y-59983541D01*
X39788541Y-60136964D01*
X39788541Y-60136965D01*
X39788539Y-60136967D01*
X39727104Y-60221523D01*
X39665064Y-60306915D01*
X39609734Y-60349580D01*
X39540120Y-60355559D01*
X39478325Y-60322953D01*
X39464428Y-60306915D01*
X39344974Y-60142503D01*
X39344974Y-60142502D01*
X39192497Y-59990025D01*
X39018036Y-59863271D01*
X38825899Y-59765372D01*
X38620805Y-59698733D01*
X38550000Y-59687518D01*
X38550000Y-60717290D01*
X38529661Y-60705548D01*
X38378333Y-60665000D01*
X38221667Y-60665000D01*
X38070339Y-60705548D01*
X38050000Y-60717290D01*
X38050000Y-59687518D01*
X38049999Y-59687518D01*
X37979194Y-59698733D01*
X37774100Y-59765372D01*
X37581963Y-59863271D01*
X37407506Y-59990022D01*
X37271482Y-60126046D01*
X37210159Y-60159530D01*
X37140467Y-60154546D01*
X37084534Y-60112674D01*
X37075969Y-60098369D01*
X37075906Y-60098409D01*
X37072115Y-60092263D01*
X37072115Y-60092262D01*
X36979030Y-59941348D01*
X36853652Y-59815970D01*
X36702738Y-59722885D01*
X36604830Y-59690442D01*
X36534427Y-59667113D01*
X36430545Y-59656500D01*
X35089462Y-59656500D01*
X35089446Y-59656501D01*
X34985572Y-59667113D01*
X34817264Y-59722884D01*
X34817259Y-59722886D01*
X34666346Y-59815971D01*
X34540971Y-59941346D01*
X34447886Y-60092259D01*
X34447884Y-60092264D01*
X34392113Y-60260572D01*
X34381500Y-60364447D01*
X30868140Y-60364447D01*
X30820212Y-60336776D01*
X30820205Y-60336773D01*
X30596104Y-60243947D01*
X30361785Y-60181161D01*
X30121289Y-60149500D01*
X30121288Y-60149500D01*
X29878712Y-60149500D01*
X29878711Y-60149500D01*
X29638214Y-60181161D01*
X29403895Y-60243947D01*
X29179794Y-60336773D01*
X29179785Y-60336777D01*
X28969706Y-60458067D01*
X28777263Y-60605733D01*
X28777256Y-60605739D01*
X28605739Y-60777256D01*
X28605733Y-60777263D01*
X28458067Y-60969706D01*
X28458064Y-60969710D01*
X28458064Y-60969711D01*
X28446350Y-60990000D01*
X28336777Y-61179785D01*
X28336773Y-61179794D01*
X28243947Y-61403895D01*
X28181161Y-61638214D01*
X28149500Y-61878711D01*
X27059973Y-61878711D01*
X27002542Y-59122038D01*
X27010645Y-59092155D01*
X49070000Y-59092155D01*
X49070000Y-60490000D01*
X50407639Y-60490000D01*
X50400743Y-60506649D01*
X50370000Y-60661207D01*
X50370000Y-60818793D01*
X50400743Y-60973351D01*
X50407639Y-60990000D01*
X49070000Y-60990000D01*
X49070000Y-62387844D01*
X49076401Y-62447372D01*
X49076403Y-62447379D01*
X49126645Y-62582086D01*
X49126649Y-62582093D01*
X49212809Y-62697187D01*
X49212812Y-62697190D01*
X49327906Y-62783350D01*
X49327913Y-62783354D01*
X49462620Y-62833596D01*
X49462627Y-62833598D01*
X49522155Y-62839999D01*
X49522172Y-62840000D01*
X50920000Y-62840000D01*
X50920000Y-61502360D01*
X50936649Y-61509257D01*
X51091207Y-61540000D01*
X51248793Y-61540000D01*
X51403351Y-61509257D01*
X51420000Y-61502360D01*
X51420000Y-62840000D01*
X52817828Y-62840000D01*
X52817844Y-62839999D01*
X52877372Y-62833598D01*
X52877379Y-62833596D01*
X53012086Y-62783354D01*
X53012093Y-62783350D01*
X53127187Y-62697190D01*
X53127190Y-62697187D01*
X53213350Y-62582093D01*
X53213354Y-62582086D01*
X53263596Y-62447379D01*
X53263598Y-62447372D01*
X53269999Y-62387844D01*
X53270000Y-62387827D01*
X53270000Y-60990000D01*
X51932361Y-60990000D01*
X51939257Y-60973351D01*
X51970000Y-60818793D01*
X51970000Y-60661207D01*
X51939257Y-60506649D01*
X51932361Y-60490000D01*
X53270000Y-60490000D01*
X53270000Y-59092172D01*
X53269999Y-59092155D01*
X53263598Y-59032627D01*
X53263596Y-59032620D01*
X53213354Y-58897913D01*
X53213350Y-58897906D01*
X53127190Y-58782812D01*
X53127187Y-58782809D01*
X53012093Y-58696649D01*
X53012086Y-58696645D01*
X52877379Y-58646403D01*
X52877372Y-58646401D01*
X52817844Y-58640000D01*
X51420000Y-58640000D01*
X51420000Y-59977639D01*
X51403351Y-59970743D01*
X51248793Y-59940000D01*
X51091207Y-59940000D01*
X50936649Y-59970743D01*
X50920000Y-59977639D01*
X50920000Y-58640000D01*
X49522155Y-58640000D01*
X49462627Y-58646401D01*
X49462620Y-58646403D01*
X49327913Y-58696645D01*
X49327906Y-58696649D01*
X49212812Y-58782809D01*
X49212809Y-58782812D01*
X49126649Y-58897906D01*
X49126645Y-58897913D01*
X49076403Y-59032620D01*
X49076401Y-59032627D01*
X49070000Y-59092155D01*
X27010645Y-59092155D01*
X27020826Y-59054605D01*
X27072665Y-59007760D01*
X27121983Y-58995540D01*
X73372733Y-57304652D01*
X73440445Y-57321874D01*
G37*
%TD.AperFunction*%
%TD*%
M02*
