%TF.GenerationSoftware,KiCad,Pcbnew,8.0.5*%
%TF.CreationDate,2025-10-04T21:28:30-05:00*%
%TF.ProjectId,horn,686f726e-2e6b-4696-9361-645f70636258,0.0*%
%TF.SameCoordinates,Original*%
%TF.FileFunction,Drillmap*%
%TF.FilePolarity,Positive*%
%FSLAX45Y45*%
G04 Gerber Fmt 4.5, Leading zero omitted, Abs format (unit mm)*
G04 Created by KiCad (PCBNEW 8.0.5) date 2025-10-04 21:28:30*
%MOMM*%
%LPD*%
G01*
G04 APERTURE LIST*
%ADD10C,0.100000*%
%ADD11C,0.200000*%
%ADD12C,0.320000*%
G04 APERTURE END LIST*
D10*
X9800000Y-11700000D02*
X11400000Y-11700000D01*
X9400000Y-9100000D02*
X9400000Y-11300000D01*
X9800000Y-8700000D02*
X11400000Y-8700000D01*
X11800000Y-9100000D02*
X11800000Y-11300000D01*
X9400000Y-9100000D02*
G75*
G02*
X9800000Y-8700000I400000J0D01*
G01*
X11400000Y-8700000D02*
G75*
G02*
X11800000Y-9100000I0J-400000D01*
G01*
X9800000Y-11700000D02*
G75*
G02*
X9400000Y-11300000I0J400000D01*
G01*
X11800000Y-11300000D02*
G75*
G02*
X11400000Y-11700000I-400000J0D01*
G01*
D11*
D12*
X9640000Y-9040000D02*
X9960000Y-9360000D01*
X9960000Y-9040000D02*
X9640000Y-9360000D01*
X11240000Y-11140000D02*
X11560000Y-11460000D01*
X11560000Y-11140000D02*
X11240000Y-11460000D01*
D11*
X9655777Y-12016484D02*
X9655777Y-11816484D01*
X9655777Y-11816484D02*
X9703396Y-11816484D01*
X9703396Y-11816484D02*
X9731967Y-11826008D01*
X9731967Y-11826008D02*
X9751015Y-11845055D01*
X9751015Y-11845055D02*
X9760539Y-11864103D01*
X9760539Y-11864103D02*
X9770063Y-11902198D01*
X9770063Y-11902198D02*
X9770063Y-11930769D01*
X9770063Y-11930769D02*
X9760539Y-11968865D01*
X9760539Y-11968865D02*
X9751015Y-11987912D01*
X9751015Y-11987912D02*
X9731967Y-12006960D01*
X9731967Y-12006960D02*
X9703396Y-12016484D01*
X9703396Y-12016484D02*
X9655777Y-12016484D01*
X9855777Y-12016484D02*
X9855777Y-11883150D01*
X9855777Y-11921246D02*
X9865301Y-11902198D01*
X9865301Y-11902198D02*
X9874824Y-11892674D01*
X9874824Y-11892674D02*
X9893872Y-11883150D01*
X9893872Y-11883150D02*
X9912920Y-11883150D01*
X9979586Y-12016484D02*
X9979586Y-11883150D01*
X9979586Y-11816484D02*
X9970063Y-11826008D01*
X9970063Y-11826008D02*
X9979586Y-11835531D01*
X9979586Y-11835531D02*
X9989110Y-11826008D01*
X9989110Y-11826008D02*
X9979586Y-11816484D01*
X9979586Y-11816484D02*
X9979586Y-11835531D01*
X10103396Y-12016484D02*
X10084348Y-12006960D01*
X10084348Y-12006960D02*
X10074824Y-11987912D01*
X10074824Y-11987912D02*
X10074824Y-11816484D01*
X10208158Y-12016484D02*
X10189110Y-12006960D01*
X10189110Y-12006960D02*
X10179586Y-11987912D01*
X10179586Y-11987912D02*
X10179586Y-11816484D01*
X10436729Y-12016484D02*
X10436729Y-11816484D01*
X10436729Y-11816484D02*
X10503396Y-11959341D01*
X10503396Y-11959341D02*
X10570063Y-11816484D01*
X10570063Y-11816484D02*
X10570063Y-12016484D01*
X10751015Y-12016484D02*
X10751015Y-11911722D01*
X10751015Y-11911722D02*
X10741491Y-11892674D01*
X10741491Y-11892674D02*
X10722444Y-11883150D01*
X10722444Y-11883150D02*
X10684348Y-11883150D01*
X10684348Y-11883150D02*
X10665301Y-11892674D01*
X10751015Y-12006960D02*
X10731967Y-12016484D01*
X10731967Y-12016484D02*
X10684348Y-12016484D01*
X10684348Y-12016484D02*
X10665301Y-12006960D01*
X10665301Y-12006960D02*
X10655777Y-11987912D01*
X10655777Y-11987912D02*
X10655777Y-11968865D01*
X10655777Y-11968865D02*
X10665301Y-11949817D01*
X10665301Y-11949817D02*
X10684348Y-11940293D01*
X10684348Y-11940293D02*
X10731967Y-11940293D01*
X10731967Y-11940293D02*
X10751015Y-11930769D01*
X10846253Y-11883150D02*
X10846253Y-12083150D01*
X10846253Y-11892674D02*
X10865301Y-11883150D01*
X10865301Y-11883150D02*
X10903396Y-11883150D01*
X10903396Y-11883150D02*
X10922444Y-11892674D01*
X10922444Y-11892674D02*
X10931967Y-11902198D01*
X10931967Y-11902198D02*
X10941491Y-11921246D01*
X10941491Y-11921246D02*
X10941491Y-11978388D01*
X10941491Y-11978388D02*
X10931967Y-11997436D01*
X10931967Y-11997436D02*
X10922444Y-12006960D01*
X10922444Y-12006960D02*
X10903396Y-12016484D01*
X10903396Y-12016484D02*
X10865301Y-12016484D01*
X10865301Y-12016484D02*
X10846253Y-12006960D01*
X11027205Y-11997436D02*
X11036729Y-12006960D01*
X11036729Y-12006960D02*
X11027205Y-12016484D01*
X11027205Y-12016484D02*
X11017682Y-12006960D01*
X11017682Y-12006960D02*
X11027205Y-11997436D01*
X11027205Y-11997436D02*
X11027205Y-12016484D01*
X11027205Y-11892674D02*
X11036729Y-11902198D01*
X11036729Y-11902198D02*
X11027205Y-11911722D01*
X11027205Y-11911722D02*
X11017682Y-11902198D01*
X11017682Y-11902198D02*
X11027205Y-11892674D01*
X11027205Y-11892674D02*
X11027205Y-11911722D01*
X9195000Y-12245000D02*
X9395000Y-12445000D01*
X9395000Y-12245000D02*
X9195000Y-12445000D01*
X9636729Y-12236484D02*
X9760539Y-12236484D01*
X9760539Y-12236484D02*
X9693872Y-12312674D01*
X9693872Y-12312674D02*
X9722444Y-12312674D01*
X9722444Y-12312674D02*
X9741491Y-12322198D01*
X9741491Y-12322198D02*
X9751015Y-12331722D01*
X9751015Y-12331722D02*
X9760539Y-12350769D01*
X9760539Y-12350769D02*
X9760539Y-12398388D01*
X9760539Y-12398388D02*
X9751015Y-12417436D01*
X9751015Y-12417436D02*
X9741491Y-12426960D01*
X9741491Y-12426960D02*
X9722444Y-12436484D01*
X9722444Y-12436484D02*
X9665301Y-12436484D01*
X9665301Y-12436484D02*
X9646253Y-12426960D01*
X9646253Y-12426960D02*
X9636729Y-12417436D01*
X9846253Y-12417436D02*
X9855777Y-12426960D01*
X9855777Y-12426960D02*
X9846253Y-12436484D01*
X9846253Y-12436484D02*
X9836729Y-12426960D01*
X9836729Y-12426960D02*
X9846253Y-12417436D01*
X9846253Y-12417436D02*
X9846253Y-12436484D01*
X9931967Y-12255531D02*
X9941491Y-12246008D01*
X9941491Y-12246008D02*
X9960539Y-12236484D01*
X9960539Y-12236484D02*
X10008158Y-12236484D01*
X10008158Y-12236484D02*
X10027205Y-12246008D01*
X10027205Y-12246008D02*
X10036729Y-12255531D01*
X10036729Y-12255531D02*
X10046253Y-12274579D01*
X10046253Y-12274579D02*
X10046253Y-12293627D01*
X10046253Y-12293627D02*
X10036729Y-12322198D01*
X10036729Y-12322198D02*
X9922444Y-12436484D01*
X9922444Y-12436484D02*
X10046253Y-12436484D01*
X10170063Y-12236484D02*
X10189110Y-12236484D01*
X10189110Y-12236484D02*
X10208158Y-12246008D01*
X10208158Y-12246008D02*
X10217682Y-12255531D01*
X10217682Y-12255531D02*
X10227205Y-12274579D01*
X10227205Y-12274579D02*
X10236729Y-12312674D01*
X10236729Y-12312674D02*
X10236729Y-12360293D01*
X10236729Y-12360293D02*
X10227205Y-12398388D01*
X10227205Y-12398388D02*
X10217682Y-12417436D01*
X10217682Y-12417436D02*
X10208158Y-12426960D01*
X10208158Y-12426960D02*
X10189110Y-12436484D01*
X10189110Y-12436484D02*
X10170063Y-12436484D01*
X10170063Y-12436484D02*
X10151015Y-12426960D01*
X10151015Y-12426960D02*
X10141491Y-12417436D01*
X10141491Y-12417436D02*
X10131967Y-12398388D01*
X10131967Y-12398388D02*
X10122444Y-12360293D01*
X10122444Y-12360293D02*
X10122444Y-12312674D01*
X10122444Y-12312674D02*
X10131967Y-12274579D01*
X10131967Y-12274579D02*
X10141491Y-12255531D01*
X10141491Y-12255531D02*
X10151015Y-12246008D01*
X10151015Y-12246008D02*
X10170063Y-12236484D01*
X10360539Y-12236484D02*
X10379586Y-12236484D01*
X10379586Y-12236484D02*
X10398634Y-12246008D01*
X10398634Y-12246008D02*
X10408158Y-12255531D01*
X10408158Y-12255531D02*
X10417682Y-12274579D01*
X10417682Y-12274579D02*
X10427205Y-12312674D01*
X10427205Y-12312674D02*
X10427205Y-12360293D01*
X10427205Y-12360293D02*
X10417682Y-12398388D01*
X10417682Y-12398388D02*
X10408158Y-12417436D01*
X10408158Y-12417436D02*
X10398634Y-12426960D01*
X10398634Y-12426960D02*
X10379586Y-12436484D01*
X10379586Y-12436484D02*
X10360539Y-12436484D01*
X10360539Y-12436484D02*
X10341491Y-12426960D01*
X10341491Y-12426960D02*
X10331967Y-12417436D01*
X10331967Y-12417436D02*
X10322444Y-12398388D01*
X10322444Y-12398388D02*
X10312920Y-12360293D01*
X10312920Y-12360293D02*
X10312920Y-12312674D01*
X10312920Y-12312674D02*
X10322444Y-12274579D01*
X10322444Y-12274579D02*
X10331967Y-12255531D01*
X10331967Y-12255531D02*
X10341491Y-12246008D01*
X10341491Y-12246008D02*
X10360539Y-12236484D01*
X10512920Y-12436484D02*
X10512920Y-12303150D01*
X10512920Y-12322198D02*
X10522444Y-12312674D01*
X10522444Y-12312674D02*
X10541491Y-12303150D01*
X10541491Y-12303150D02*
X10570063Y-12303150D01*
X10570063Y-12303150D02*
X10589110Y-12312674D01*
X10589110Y-12312674D02*
X10598634Y-12331722D01*
X10598634Y-12331722D02*
X10598634Y-12436484D01*
X10598634Y-12331722D02*
X10608158Y-12312674D01*
X10608158Y-12312674D02*
X10627205Y-12303150D01*
X10627205Y-12303150D02*
X10655777Y-12303150D01*
X10655777Y-12303150D02*
X10674825Y-12312674D01*
X10674825Y-12312674D02*
X10684348Y-12331722D01*
X10684348Y-12331722D02*
X10684348Y-12436484D01*
X10779586Y-12436484D02*
X10779586Y-12303150D01*
X10779586Y-12322198D02*
X10789110Y-12312674D01*
X10789110Y-12312674D02*
X10808158Y-12303150D01*
X10808158Y-12303150D02*
X10836729Y-12303150D01*
X10836729Y-12303150D02*
X10855777Y-12312674D01*
X10855777Y-12312674D02*
X10865301Y-12331722D01*
X10865301Y-12331722D02*
X10865301Y-12436484D01*
X10865301Y-12331722D02*
X10874825Y-12312674D01*
X10874825Y-12312674D02*
X10893872Y-12303150D01*
X10893872Y-12303150D02*
X10922444Y-12303150D01*
X10922444Y-12303150D02*
X10941491Y-12312674D01*
X10941491Y-12312674D02*
X10951015Y-12331722D01*
X10951015Y-12331722D02*
X10951015Y-12436484D01*
X11341491Y-12226960D02*
X11170063Y-12484103D01*
X11598634Y-12236484D02*
X11617682Y-12236484D01*
X11617682Y-12236484D02*
X11636729Y-12246008D01*
X11636729Y-12246008D02*
X11646253Y-12255531D01*
X11646253Y-12255531D02*
X11655777Y-12274579D01*
X11655777Y-12274579D02*
X11665301Y-12312674D01*
X11665301Y-12312674D02*
X11665301Y-12360293D01*
X11665301Y-12360293D02*
X11655777Y-12398388D01*
X11655777Y-12398388D02*
X11646253Y-12417436D01*
X11646253Y-12417436D02*
X11636729Y-12426960D01*
X11636729Y-12426960D02*
X11617682Y-12436484D01*
X11617682Y-12436484D02*
X11598634Y-12436484D01*
X11598634Y-12436484D02*
X11579586Y-12426960D01*
X11579586Y-12426960D02*
X11570063Y-12417436D01*
X11570063Y-12417436D02*
X11560539Y-12398388D01*
X11560539Y-12398388D02*
X11551015Y-12360293D01*
X11551015Y-12360293D02*
X11551015Y-12312674D01*
X11551015Y-12312674D02*
X11560539Y-12274579D01*
X11560539Y-12274579D02*
X11570063Y-12255531D01*
X11570063Y-12255531D02*
X11579586Y-12246008D01*
X11579586Y-12246008D02*
X11598634Y-12236484D01*
X11751015Y-12417436D02*
X11760539Y-12426960D01*
X11760539Y-12426960D02*
X11751015Y-12436484D01*
X11751015Y-12436484D02*
X11741491Y-12426960D01*
X11741491Y-12426960D02*
X11751015Y-12417436D01*
X11751015Y-12417436D02*
X11751015Y-12436484D01*
X11951015Y-12436484D02*
X11836729Y-12436484D01*
X11893872Y-12436484D02*
X11893872Y-12236484D01*
X11893872Y-12236484D02*
X11874825Y-12265055D01*
X11874825Y-12265055D02*
X11855777Y-12284103D01*
X11855777Y-12284103D02*
X11836729Y-12293627D01*
X12027206Y-12255531D02*
X12036729Y-12246008D01*
X12036729Y-12246008D02*
X12055777Y-12236484D01*
X12055777Y-12236484D02*
X12103396Y-12236484D01*
X12103396Y-12236484D02*
X12122444Y-12246008D01*
X12122444Y-12246008D02*
X12131967Y-12255531D01*
X12131967Y-12255531D02*
X12141491Y-12274579D01*
X12141491Y-12274579D02*
X12141491Y-12293627D01*
X12141491Y-12293627D02*
X12131967Y-12322198D01*
X12131967Y-12322198D02*
X12017682Y-12436484D01*
X12017682Y-12436484D02*
X12141491Y-12436484D01*
X12312920Y-12236484D02*
X12274825Y-12236484D01*
X12274825Y-12236484D02*
X12255777Y-12246008D01*
X12255777Y-12246008D02*
X12246253Y-12255531D01*
X12246253Y-12255531D02*
X12227206Y-12284103D01*
X12227206Y-12284103D02*
X12217682Y-12322198D01*
X12217682Y-12322198D02*
X12217682Y-12398388D01*
X12217682Y-12398388D02*
X12227206Y-12417436D01*
X12227206Y-12417436D02*
X12236729Y-12426960D01*
X12236729Y-12426960D02*
X12255777Y-12436484D01*
X12255777Y-12436484D02*
X12293872Y-12436484D01*
X12293872Y-12436484D02*
X12312920Y-12426960D01*
X12312920Y-12426960D02*
X12322444Y-12417436D01*
X12322444Y-12417436D02*
X12331967Y-12398388D01*
X12331967Y-12398388D02*
X12331967Y-12350769D01*
X12331967Y-12350769D02*
X12322444Y-12331722D01*
X12322444Y-12331722D02*
X12312920Y-12322198D01*
X12312920Y-12322198D02*
X12293872Y-12312674D01*
X12293872Y-12312674D02*
X12255777Y-12312674D01*
X12255777Y-12312674D02*
X12236729Y-12322198D01*
X12236729Y-12322198D02*
X12227206Y-12331722D01*
X12227206Y-12331722D02*
X12217682Y-12350769D01*
X12455777Y-12236484D02*
X12474825Y-12236484D01*
X12474825Y-12236484D02*
X12493872Y-12246008D01*
X12493872Y-12246008D02*
X12503396Y-12255531D01*
X12503396Y-12255531D02*
X12512920Y-12274579D01*
X12512920Y-12274579D02*
X12522444Y-12312674D01*
X12522444Y-12312674D02*
X12522444Y-12360293D01*
X12522444Y-12360293D02*
X12512920Y-12398388D01*
X12512920Y-12398388D02*
X12503396Y-12417436D01*
X12503396Y-12417436D02*
X12493872Y-12426960D01*
X12493872Y-12426960D02*
X12474825Y-12436484D01*
X12474825Y-12436484D02*
X12455777Y-12436484D01*
X12455777Y-12436484D02*
X12436729Y-12426960D01*
X12436729Y-12426960D02*
X12427206Y-12417436D01*
X12427206Y-12417436D02*
X12417682Y-12398388D01*
X12417682Y-12398388D02*
X12408158Y-12360293D01*
X12408158Y-12360293D02*
X12408158Y-12312674D01*
X12408158Y-12312674D02*
X12417682Y-12274579D01*
X12417682Y-12274579D02*
X12427206Y-12255531D01*
X12427206Y-12255531D02*
X12436729Y-12246008D01*
X12436729Y-12246008D02*
X12455777Y-12236484D01*
X12598634Y-12236484D02*
X12598634Y-12274579D01*
X12674825Y-12236484D02*
X12674825Y-12274579D01*
X12970063Y-12512674D02*
X12960539Y-12503150D01*
X12960539Y-12503150D02*
X12941491Y-12474579D01*
X12941491Y-12474579D02*
X12931968Y-12455531D01*
X12931968Y-12455531D02*
X12922444Y-12426960D01*
X12922444Y-12426960D02*
X12912920Y-12379341D01*
X12912920Y-12379341D02*
X12912920Y-12341246D01*
X12912920Y-12341246D02*
X12922444Y-12293627D01*
X12922444Y-12293627D02*
X12931968Y-12265055D01*
X12931968Y-12265055D02*
X12941491Y-12246008D01*
X12941491Y-12246008D02*
X12960539Y-12217436D01*
X12960539Y-12217436D02*
X12970063Y-12207912D01*
X13036729Y-12255531D02*
X13046253Y-12246008D01*
X13046253Y-12246008D02*
X13065301Y-12236484D01*
X13065301Y-12236484D02*
X13112920Y-12236484D01*
X13112920Y-12236484D02*
X13131968Y-12246008D01*
X13131968Y-12246008D02*
X13141491Y-12255531D01*
X13141491Y-12255531D02*
X13151015Y-12274579D01*
X13151015Y-12274579D02*
X13151015Y-12293627D01*
X13151015Y-12293627D02*
X13141491Y-12322198D01*
X13141491Y-12322198D02*
X13027206Y-12436484D01*
X13027206Y-12436484D02*
X13151015Y-12436484D01*
X13389110Y-12436484D02*
X13389110Y-12236484D01*
X13474825Y-12436484D02*
X13474825Y-12331722D01*
X13474825Y-12331722D02*
X13465301Y-12312674D01*
X13465301Y-12312674D02*
X13446253Y-12303150D01*
X13446253Y-12303150D02*
X13417682Y-12303150D01*
X13417682Y-12303150D02*
X13398634Y-12312674D01*
X13398634Y-12312674D02*
X13389110Y-12322198D01*
X13598634Y-12436484D02*
X13579587Y-12426960D01*
X13579587Y-12426960D02*
X13570063Y-12417436D01*
X13570063Y-12417436D02*
X13560539Y-12398388D01*
X13560539Y-12398388D02*
X13560539Y-12341246D01*
X13560539Y-12341246D02*
X13570063Y-12322198D01*
X13570063Y-12322198D02*
X13579587Y-12312674D01*
X13579587Y-12312674D02*
X13598634Y-12303150D01*
X13598634Y-12303150D02*
X13627206Y-12303150D01*
X13627206Y-12303150D02*
X13646253Y-12312674D01*
X13646253Y-12312674D02*
X13655777Y-12322198D01*
X13655777Y-12322198D02*
X13665301Y-12341246D01*
X13665301Y-12341246D02*
X13665301Y-12398388D01*
X13665301Y-12398388D02*
X13655777Y-12417436D01*
X13655777Y-12417436D02*
X13646253Y-12426960D01*
X13646253Y-12426960D02*
X13627206Y-12436484D01*
X13627206Y-12436484D02*
X13598634Y-12436484D01*
X13779587Y-12436484D02*
X13760539Y-12426960D01*
X13760539Y-12426960D02*
X13751015Y-12407912D01*
X13751015Y-12407912D02*
X13751015Y-12236484D01*
X13931968Y-12426960D02*
X13912920Y-12436484D01*
X13912920Y-12436484D02*
X13874825Y-12436484D01*
X13874825Y-12436484D02*
X13855777Y-12426960D01*
X13855777Y-12426960D02*
X13846253Y-12407912D01*
X13846253Y-12407912D02*
X13846253Y-12331722D01*
X13846253Y-12331722D02*
X13855777Y-12312674D01*
X13855777Y-12312674D02*
X13874825Y-12303150D01*
X13874825Y-12303150D02*
X13912920Y-12303150D01*
X13912920Y-12303150D02*
X13931968Y-12312674D01*
X13931968Y-12312674D02*
X13941491Y-12331722D01*
X13941491Y-12331722D02*
X13941491Y-12350769D01*
X13941491Y-12350769D02*
X13846253Y-12369817D01*
X14017682Y-12426960D02*
X14036730Y-12436484D01*
X14036730Y-12436484D02*
X14074825Y-12436484D01*
X14074825Y-12436484D02*
X14093872Y-12426960D01*
X14093872Y-12426960D02*
X14103396Y-12407912D01*
X14103396Y-12407912D02*
X14103396Y-12398388D01*
X14103396Y-12398388D02*
X14093872Y-12379341D01*
X14093872Y-12379341D02*
X14074825Y-12369817D01*
X14074825Y-12369817D02*
X14046253Y-12369817D01*
X14046253Y-12369817D02*
X14027206Y-12360293D01*
X14027206Y-12360293D02*
X14017682Y-12341246D01*
X14017682Y-12341246D02*
X14017682Y-12331722D01*
X14017682Y-12331722D02*
X14027206Y-12312674D01*
X14027206Y-12312674D02*
X14046253Y-12303150D01*
X14046253Y-12303150D02*
X14074825Y-12303150D01*
X14074825Y-12303150D02*
X14093872Y-12312674D01*
X14170063Y-12512674D02*
X14179587Y-12503150D01*
X14179587Y-12503150D02*
X14198634Y-12474579D01*
X14198634Y-12474579D02*
X14208158Y-12455531D01*
X14208158Y-12455531D02*
X14217682Y-12426960D01*
X14217682Y-12426960D02*
X14227206Y-12379341D01*
X14227206Y-12379341D02*
X14227206Y-12341246D01*
X14227206Y-12341246D02*
X14217682Y-12293627D01*
X14217682Y-12293627D02*
X14208158Y-12265055D01*
X14208158Y-12265055D02*
X14198634Y-12246008D01*
X14198634Y-12246008D02*
X14179587Y-12217436D01*
X14179587Y-12217436D02*
X14170063Y-12207912D01*
X14531968Y-12512674D02*
X14522444Y-12503150D01*
X14522444Y-12503150D02*
X14503396Y-12474579D01*
X14503396Y-12474579D02*
X14493872Y-12455531D01*
X14493872Y-12455531D02*
X14484349Y-12426960D01*
X14484349Y-12426960D02*
X14474825Y-12379341D01*
X14474825Y-12379341D02*
X14474825Y-12341246D01*
X14474825Y-12341246D02*
X14484349Y-12293627D01*
X14484349Y-12293627D02*
X14493872Y-12265055D01*
X14493872Y-12265055D02*
X14503396Y-12246008D01*
X14503396Y-12246008D02*
X14522444Y-12217436D01*
X14522444Y-12217436D02*
X14531968Y-12207912D01*
X14608158Y-12303150D02*
X14608158Y-12436484D01*
X14608158Y-12322198D02*
X14617682Y-12312674D01*
X14617682Y-12312674D02*
X14636730Y-12303150D01*
X14636730Y-12303150D02*
X14665301Y-12303150D01*
X14665301Y-12303150D02*
X14684349Y-12312674D01*
X14684349Y-12312674D02*
X14693872Y-12331722D01*
X14693872Y-12331722D02*
X14693872Y-12436484D01*
X14817682Y-12436484D02*
X14798634Y-12426960D01*
X14798634Y-12426960D02*
X14789111Y-12417436D01*
X14789111Y-12417436D02*
X14779587Y-12398388D01*
X14779587Y-12398388D02*
X14779587Y-12341246D01*
X14779587Y-12341246D02*
X14789111Y-12322198D01*
X14789111Y-12322198D02*
X14798634Y-12312674D01*
X14798634Y-12312674D02*
X14817682Y-12303150D01*
X14817682Y-12303150D02*
X14846253Y-12303150D01*
X14846253Y-12303150D02*
X14865301Y-12312674D01*
X14865301Y-12312674D02*
X14874825Y-12322198D01*
X14874825Y-12322198D02*
X14884349Y-12341246D01*
X14884349Y-12341246D02*
X14884349Y-12398388D01*
X14884349Y-12398388D02*
X14874825Y-12417436D01*
X14874825Y-12417436D02*
X14865301Y-12426960D01*
X14865301Y-12426960D02*
X14846253Y-12436484D01*
X14846253Y-12436484D02*
X14817682Y-12436484D01*
X14941492Y-12303150D02*
X15017682Y-12303150D01*
X14970063Y-12236484D02*
X14970063Y-12407912D01*
X14970063Y-12407912D02*
X14979587Y-12426960D01*
X14979587Y-12426960D02*
X14998634Y-12436484D01*
X14998634Y-12436484D02*
X15017682Y-12436484D01*
X15236730Y-12303150D02*
X15236730Y-12503150D01*
X15236730Y-12312674D02*
X15255777Y-12303150D01*
X15255777Y-12303150D02*
X15293873Y-12303150D01*
X15293873Y-12303150D02*
X15312920Y-12312674D01*
X15312920Y-12312674D02*
X15322444Y-12322198D01*
X15322444Y-12322198D02*
X15331968Y-12341246D01*
X15331968Y-12341246D02*
X15331968Y-12398388D01*
X15331968Y-12398388D02*
X15322444Y-12417436D01*
X15322444Y-12417436D02*
X15312920Y-12426960D01*
X15312920Y-12426960D02*
X15293873Y-12436484D01*
X15293873Y-12436484D02*
X15255777Y-12436484D01*
X15255777Y-12436484D02*
X15236730Y-12426960D01*
X15446253Y-12436484D02*
X15427206Y-12426960D01*
X15427206Y-12426960D02*
X15417682Y-12407912D01*
X15417682Y-12407912D02*
X15417682Y-12236484D01*
X15608158Y-12436484D02*
X15608158Y-12331722D01*
X15608158Y-12331722D02*
X15598634Y-12312674D01*
X15598634Y-12312674D02*
X15579587Y-12303150D01*
X15579587Y-12303150D02*
X15541492Y-12303150D01*
X15541492Y-12303150D02*
X15522444Y-12312674D01*
X15608158Y-12426960D02*
X15589111Y-12436484D01*
X15589111Y-12436484D02*
X15541492Y-12436484D01*
X15541492Y-12436484D02*
X15522444Y-12426960D01*
X15522444Y-12426960D02*
X15512920Y-12407912D01*
X15512920Y-12407912D02*
X15512920Y-12388865D01*
X15512920Y-12388865D02*
X15522444Y-12369817D01*
X15522444Y-12369817D02*
X15541492Y-12360293D01*
X15541492Y-12360293D02*
X15589111Y-12360293D01*
X15589111Y-12360293D02*
X15608158Y-12350769D01*
X15674825Y-12303150D02*
X15751015Y-12303150D01*
X15703396Y-12236484D02*
X15703396Y-12407912D01*
X15703396Y-12407912D02*
X15712920Y-12426960D01*
X15712920Y-12426960D02*
X15731968Y-12436484D01*
X15731968Y-12436484D02*
X15751015Y-12436484D01*
X15893873Y-12426960D02*
X15874825Y-12436484D01*
X15874825Y-12436484D02*
X15836730Y-12436484D01*
X15836730Y-12436484D02*
X15817682Y-12426960D01*
X15817682Y-12426960D02*
X15808158Y-12407912D01*
X15808158Y-12407912D02*
X15808158Y-12331722D01*
X15808158Y-12331722D02*
X15817682Y-12312674D01*
X15817682Y-12312674D02*
X15836730Y-12303150D01*
X15836730Y-12303150D02*
X15874825Y-12303150D01*
X15874825Y-12303150D02*
X15893873Y-12312674D01*
X15893873Y-12312674D02*
X15903396Y-12331722D01*
X15903396Y-12331722D02*
X15903396Y-12350769D01*
X15903396Y-12350769D02*
X15808158Y-12369817D01*
X16074825Y-12436484D02*
X16074825Y-12236484D01*
X16074825Y-12426960D02*
X16055777Y-12436484D01*
X16055777Y-12436484D02*
X16017682Y-12436484D01*
X16017682Y-12436484D02*
X15998634Y-12426960D01*
X15998634Y-12426960D02*
X15989111Y-12417436D01*
X15989111Y-12417436D02*
X15979587Y-12398388D01*
X15979587Y-12398388D02*
X15979587Y-12341246D01*
X15979587Y-12341246D02*
X15989111Y-12322198D01*
X15989111Y-12322198D02*
X15998634Y-12312674D01*
X15998634Y-12312674D02*
X16017682Y-12303150D01*
X16017682Y-12303150D02*
X16055777Y-12303150D01*
X16055777Y-12303150D02*
X16074825Y-12312674D01*
X16151015Y-12512674D02*
X16160539Y-12503150D01*
X16160539Y-12503150D02*
X16179587Y-12474579D01*
X16179587Y-12474579D02*
X16189111Y-12455531D01*
X16189111Y-12455531D02*
X16198634Y-12426960D01*
X16198634Y-12426960D02*
X16208158Y-12379341D01*
X16208158Y-12379341D02*
X16208158Y-12341246D01*
X16208158Y-12341246D02*
X16198634Y-12293627D01*
X16198634Y-12293627D02*
X16189111Y-12265055D01*
X16189111Y-12265055D02*
X16179587Y-12246008D01*
X16179587Y-12246008D02*
X16160539Y-12217436D01*
X16160539Y-12217436D02*
X16151015Y-12207912D01*
M02*
