%TF.GenerationSoftware,KiCad,Pcbnew,8.0.5*%
%TF.CreationDate,2025-10-04T21:28:30-05:00*%
%TF.ProjectId,horn,686f726e-2e6b-4696-9361-645f70636258,0.0*%
%TF.SameCoordinates,Original*%
%TF.FileFunction,Drillmap*%
%TF.FilePolarity,Positive*%
%FSLAX45Y45*%
G04 Gerber Fmt 4.5, Leading zero omitted, Abs format (unit mm)*
G04 Created by KiCad (PCBNEW 8.0.5) date 2025-10-04 21:28:30*
%MOMM*%
%LPD*%
G01*
G04 APERTURE LIST*
%ADD10C,0.100000*%
%ADD11C,0.200000*%
%ADD12C,0.110000*%
%ADD13C,0.119000*%
G04 APERTURE END LIST*
D10*
X9800000Y-11700000D02*
X11400000Y-11700000D01*
X9400000Y-9100000D02*
X9400000Y-11300000D01*
X9800000Y-8700000D02*
X11400000Y-8700000D01*
X11800000Y-9100000D02*
X11800000Y-11300000D01*
X9400000Y-9100000D02*
G75*
G02*
X9800000Y-8700000I400000J0D01*
G01*
X11400000Y-8700000D02*
G75*
G02*
X11800000Y-9100000I0J-400000D01*
G01*
X9800000Y-11700000D02*
G75*
G02*
X9400000Y-11300000I0J400000D01*
G01*
X11800000Y-11300000D02*
G75*
G02*
X11400000Y-11700000I-400000J0D01*
G01*
D11*
D10*
X10550000Y-10310000D02*
X10590000Y-10350000D01*
X10590000Y-10310000D02*
X10550000Y-10350000D01*
X11180000Y-9380000D02*
X11220000Y-9420000D01*
X11220000Y-9380000D02*
X11180000Y-9420000D01*
D12*
X10364000Y-10550000D02*
G75*
G02*
X10254000Y-10550000I-55000J0D01*
G01*
X10254000Y-10550000D02*
G75*
G02*
X10364000Y-10550000I55000J0D01*
G01*
X11380000Y-10550000D02*
G75*
G02*
X11270000Y-10550000I-55000J0D01*
G01*
X11270000Y-10550000D02*
G75*
G02*
X11380000Y-10550000I55000J0D01*
G01*
D13*
X9721000Y-11140500D02*
X9721000Y-11259500D01*
X9661500Y-11200000D02*
X9780500Y-11200000D01*
X9796000Y-9842500D02*
X9796000Y-9961500D01*
X9736500Y-9902000D02*
X9855500Y-9902000D01*
X9796000Y-10096500D02*
X9796000Y-10215500D01*
X9736500Y-10156000D02*
X9855500Y-10156000D01*
X9796000Y-10350500D02*
X9796000Y-10469500D01*
X9736500Y-10410000D02*
X9855500Y-10410000D01*
X9975000Y-11140500D02*
X9975000Y-11259500D01*
X9915500Y-11200000D02*
X10034500Y-11200000D01*
X10496000Y-11140500D02*
X10496000Y-11259500D01*
X10436500Y-11200000D02*
X10555500Y-11200000D01*
X10746000Y-9715500D02*
X10746000Y-9834500D01*
X10686500Y-9775000D02*
X10805500Y-9775000D01*
X10750000Y-11140500D02*
X10750000Y-11259500D01*
X10690500Y-11200000D02*
X10809500Y-11200000D01*
X11000000Y-9715500D02*
X11000000Y-9834500D01*
X10940500Y-9775000D02*
X11059500Y-9775000D01*
D11*
X9655777Y-12016484D02*
X9655777Y-11816484D01*
X9655777Y-11816484D02*
X9703396Y-11816484D01*
X9703396Y-11816484D02*
X9731967Y-11826008D01*
X9731967Y-11826008D02*
X9751015Y-11845055D01*
X9751015Y-11845055D02*
X9760539Y-11864103D01*
X9760539Y-11864103D02*
X9770063Y-11902198D01*
X9770063Y-11902198D02*
X9770063Y-11930769D01*
X9770063Y-11930769D02*
X9760539Y-11968865D01*
X9760539Y-11968865D02*
X9751015Y-11987912D01*
X9751015Y-11987912D02*
X9731967Y-12006960D01*
X9731967Y-12006960D02*
X9703396Y-12016484D01*
X9703396Y-12016484D02*
X9655777Y-12016484D01*
X9855777Y-12016484D02*
X9855777Y-11883150D01*
X9855777Y-11921246D02*
X9865301Y-11902198D01*
X9865301Y-11902198D02*
X9874824Y-11892674D01*
X9874824Y-11892674D02*
X9893872Y-11883150D01*
X9893872Y-11883150D02*
X9912920Y-11883150D01*
X9979586Y-12016484D02*
X9979586Y-11883150D01*
X9979586Y-11816484D02*
X9970063Y-11826008D01*
X9970063Y-11826008D02*
X9979586Y-11835531D01*
X9979586Y-11835531D02*
X9989110Y-11826008D01*
X9989110Y-11826008D02*
X9979586Y-11816484D01*
X9979586Y-11816484D02*
X9979586Y-11835531D01*
X10103396Y-12016484D02*
X10084348Y-12006960D01*
X10084348Y-12006960D02*
X10074824Y-11987912D01*
X10074824Y-11987912D02*
X10074824Y-11816484D01*
X10208158Y-12016484D02*
X10189110Y-12006960D01*
X10189110Y-12006960D02*
X10179586Y-11987912D01*
X10179586Y-11987912D02*
X10179586Y-11816484D01*
X10436729Y-12016484D02*
X10436729Y-11816484D01*
X10436729Y-11816484D02*
X10503396Y-11959341D01*
X10503396Y-11959341D02*
X10570063Y-11816484D01*
X10570063Y-11816484D02*
X10570063Y-12016484D01*
X10751015Y-12016484D02*
X10751015Y-11911722D01*
X10751015Y-11911722D02*
X10741491Y-11892674D01*
X10741491Y-11892674D02*
X10722444Y-11883150D01*
X10722444Y-11883150D02*
X10684348Y-11883150D01*
X10684348Y-11883150D02*
X10665301Y-11892674D01*
X10751015Y-12006960D02*
X10731967Y-12016484D01*
X10731967Y-12016484D02*
X10684348Y-12016484D01*
X10684348Y-12016484D02*
X10665301Y-12006960D01*
X10665301Y-12006960D02*
X10655777Y-11987912D01*
X10655777Y-11987912D02*
X10655777Y-11968865D01*
X10655777Y-11968865D02*
X10665301Y-11949817D01*
X10665301Y-11949817D02*
X10684348Y-11940293D01*
X10684348Y-11940293D02*
X10731967Y-11940293D01*
X10731967Y-11940293D02*
X10751015Y-11930769D01*
X10846253Y-11883150D02*
X10846253Y-12083150D01*
X10846253Y-11892674D02*
X10865301Y-11883150D01*
X10865301Y-11883150D02*
X10903396Y-11883150D01*
X10903396Y-11883150D02*
X10922444Y-11892674D01*
X10922444Y-11892674D02*
X10931967Y-11902198D01*
X10931967Y-11902198D02*
X10941491Y-11921246D01*
X10941491Y-11921246D02*
X10941491Y-11978388D01*
X10941491Y-11978388D02*
X10931967Y-11997436D01*
X10931967Y-11997436D02*
X10922444Y-12006960D01*
X10922444Y-12006960D02*
X10903396Y-12016484D01*
X10903396Y-12016484D02*
X10865301Y-12016484D01*
X10865301Y-12016484D02*
X10846253Y-12006960D01*
X11027205Y-11997436D02*
X11036729Y-12006960D01*
X11036729Y-12006960D02*
X11027205Y-12016484D01*
X11027205Y-12016484D02*
X11017682Y-12006960D01*
X11017682Y-12006960D02*
X11027205Y-11997436D01*
X11027205Y-11997436D02*
X11027205Y-12016484D01*
X11027205Y-11892674D02*
X11036729Y-11902198D01*
X11036729Y-11902198D02*
X11027205Y-11911722D01*
X11027205Y-11911722D02*
X11017682Y-11902198D01*
X11017682Y-11902198D02*
X11027205Y-11892674D01*
X11027205Y-11892674D02*
X11027205Y-11911722D01*
D10*
X9355000Y-12325000D02*
X9395000Y-12365000D01*
X9395000Y-12325000D02*
X9355000Y-12365000D01*
D11*
X9693872Y-12236484D02*
X9712920Y-12236484D01*
X9712920Y-12236484D02*
X9731967Y-12246008D01*
X9731967Y-12246008D02*
X9741491Y-12255531D01*
X9741491Y-12255531D02*
X9751015Y-12274579D01*
X9751015Y-12274579D02*
X9760539Y-12312674D01*
X9760539Y-12312674D02*
X9760539Y-12360293D01*
X9760539Y-12360293D02*
X9751015Y-12398388D01*
X9751015Y-12398388D02*
X9741491Y-12417436D01*
X9741491Y-12417436D02*
X9731967Y-12426960D01*
X9731967Y-12426960D02*
X9712920Y-12436484D01*
X9712920Y-12436484D02*
X9693872Y-12436484D01*
X9693872Y-12436484D02*
X9674824Y-12426960D01*
X9674824Y-12426960D02*
X9665301Y-12417436D01*
X9665301Y-12417436D02*
X9655777Y-12398388D01*
X9655777Y-12398388D02*
X9646253Y-12360293D01*
X9646253Y-12360293D02*
X9646253Y-12312674D01*
X9646253Y-12312674D02*
X9655777Y-12274579D01*
X9655777Y-12274579D02*
X9665301Y-12255531D01*
X9665301Y-12255531D02*
X9674824Y-12246008D01*
X9674824Y-12246008D02*
X9693872Y-12236484D01*
X9846253Y-12417436D02*
X9855777Y-12426960D01*
X9855777Y-12426960D02*
X9846253Y-12436484D01*
X9846253Y-12436484D02*
X9836729Y-12426960D01*
X9836729Y-12426960D02*
X9846253Y-12417436D01*
X9846253Y-12417436D02*
X9846253Y-12436484D01*
X10027205Y-12303150D02*
X10027205Y-12436484D01*
X9979586Y-12226960D02*
X9931967Y-12369817D01*
X9931967Y-12369817D02*
X10055777Y-12369817D01*
X10170063Y-12236484D02*
X10189110Y-12236484D01*
X10189110Y-12236484D02*
X10208158Y-12246008D01*
X10208158Y-12246008D02*
X10217682Y-12255531D01*
X10217682Y-12255531D02*
X10227205Y-12274579D01*
X10227205Y-12274579D02*
X10236729Y-12312674D01*
X10236729Y-12312674D02*
X10236729Y-12360293D01*
X10236729Y-12360293D02*
X10227205Y-12398388D01*
X10227205Y-12398388D02*
X10217682Y-12417436D01*
X10217682Y-12417436D02*
X10208158Y-12426960D01*
X10208158Y-12426960D02*
X10189110Y-12436484D01*
X10189110Y-12436484D02*
X10170063Y-12436484D01*
X10170063Y-12436484D02*
X10151015Y-12426960D01*
X10151015Y-12426960D02*
X10141491Y-12417436D01*
X10141491Y-12417436D02*
X10131967Y-12398388D01*
X10131967Y-12398388D02*
X10122444Y-12360293D01*
X10122444Y-12360293D02*
X10122444Y-12312674D01*
X10122444Y-12312674D02*
X10131967Y-12274579D01*
X10131967Y-12274579D02*
X10141491Y-12255531D01*
X10141491Y-12255531D02*
X10151015Y-12246008D01*
X10151015Y-12246008D02*
X10170063Y-12236484D01*
X10360539Y-12236484D02*
X10379586Y-12236484D01*
X10379586Y-12236484D02*
X10398634Y-12246008D01*
X10398634Y-12246008D02*
X10408158Y-12255531D01*
X10408158Y-12255531D02*
X10417682Y-12274579D01*
X10417682Y-12274579D02*
X10427205Y-12312674D01*
X10427205Y-12312674D02*
X10427205Y-12360293D01*
X10427205Y-12360293D02*
X10417682Y-12398388D01*
X10417682Y-12398388D02*
X10408158Y-12417436D01*
X10408158Y-12417436D02*
X10398634Y-12426960D01*
X10398634Y-12426960D02*
X10379586Y-12436484D01*
X10379586Y-12436484D02*
X10360539Y-12436484D01*
X10360539Y-12436484D02*
X10341491Y-12426960D01*
X10341491Y-12426960D02*
X10331967Y-12417436D01*
X10331967Y-12417436D02*
X10322444Y-12398388D01*
X10322444Y-12398388D02*
X10312920Y-12360293D01*
X10312920Y-12360293D02*
X10312920Y-12312674D01*
X10312920Y-12312674D02*
X10322444Y-12274579D01*
X10322444Y-12274579D02*
X10331967Y-12255531D01*
X10331967Y-12255531D02*
X10341491Y-12246008D01*
X10341491Y-12246008D02*
X10360539Y-12236484D01*
X10512920Y-12436484D02*
X10512920Y-12303150D01*
X10512920Y-12322198D02*
X10522444Y-12312674D01*
X10522444Y-12312674D02*
X10541491Y-12303150D01*
X10541491Y-12303150D02*
X10570063Y-12303150D01*
X10570063Y-12303150D02*
X10589110Y-12312674D01*
X10589110Y-12312674D02*
X10598634Y-12331722D01*
X10598634Y-12331722D02*
X10598634Y-12436484D01*
X10598634Y-12331722D02*
X10608158Y-12312674D01*
X10608158Y-12312674D02*
X10627205Y-12303150D01*
X10627205Y-12303150D02*
X10655777Y-12303150D01*
X10655777Y-12303150D02*
X10674825Y-12312674D01*
X10674825Y-12312674D02*
X10684348Y-12331722D01*
X10684348Y-12331722D02*
X10684348Y-12436484D01*
X10779586Y-12436484D02*
X10779586Y-12303150D01*
X10779586Y-12322198D02*
X10789110Y-12312674D01*
X10789110Y-12312674D02*
X10808158Y-12303150D01*
X10808158Y-12303150D02*
X10836729Y-12303150D01*
X10836729Y-12303150D02*
X10855777Y-12312674D01*
X10855777Y-12312674D02*
X10865301Y-12331722D01*
X10865301Y-12331722D02*
X10865301Y-12436484D01*
X10865301Y-12331722D02*
X10874825Y-12312674D01*
X10874825Y-12312674D02*
X10893872Y-12303150D01*
X10893872Y-12303150D02*
X10922444Y-12303150D01*
X10922444Y-12303150D02*
X10941491Y-12312674D01*
X10941491Y-12312674D02*
X10951015Y-12331722D01*
X10951015Y-12331722D02*
X10951015Y-12436484D01*
X11341491Y-12226960D02*
X11170063Y-12484103D01*
X11598634Y-12236484D02*
X11617682Y-12236484D01*
X11617682Y-12236484D02*
X11636729Y-12246008D01*
X11636729Y-12246008D02*
X11646253Y-12255531D01*
X11646253Y-12255531D02*
X11655777Y-12274579D01*
X11655777Y-12274579D02*
X11665301Y-12312674D01*
X11665301Y-12312674D02*
X11665301Y-12360293D01*
X11665301Y-12360293D02*
X11655777Y-12398388D01*
X11655777Y-12398388D02*
X11646253Y-12417436D01*
X11646253Y-12417436D02*
X11636729Y-12426960D01*
X11636729Y-12426960D02*
X11617682Y-12436484D01*
X11617682Y-12436484D02*
X11598634Y-12436484D01*
X11598634Y-12436484D02*
X11579586Y-12426960D01*
X11579586Y-12426960D02*
X11570063Y-12417436D01*
X11570063Y-12417436D02*
X11560539Y-12398388D01*
X11560539Y-12398388D02*
X11551015Y-12360293D01*
X11551015Y-12360293D02*
X11551015Y-12312674D01*
X11551015Y-12312674D02*
X11560539Y-12274579D01*
X11560539Y-12274579D02*
X11570063Y-12255531D01*
X11570063Y-12255531D02*
X11579586Y-12246008D01*
X11579586Y-12246008D02*
X11598634Y-12236484D01*
X11751015Y-12417436D02*
X11760539Y-12426960D01*
X11760539Y-12426960D02*
X11751015Y-12436484D01*
X11751015Y-12436484D02*
X11741491Y-12426960D01*
X11741491Y-12426960D02*
X11751015Y-12417436D01*
X11751015Y-12417436D02*
X11751015Y-12436484D01*
X11884348Y-12236484D02*
X11903396Y-12236484D01*
X11903396Y-12236484D02*
X11922444Y-12246008D01*
X11922444Y-12246008D02*
X11931967Y-12255531D01*
X11931967Y-12255531D02*
X11941491Y-12274579D01*
X11941491Y-12274579D02*
X11951015Y-12312674D01*
X11951015Y-12312674D02*
X11951015Y-12360293D01*
X11951015Y-12360293D02*
X11941491Y-12398388D01*
X11941491Y-12398388D02*
X11931967Y-12417436D01*
X11931967Y-12417436D02*
X11922444Y-12426960D01*
X11922444Y-12426960D02*
X11903396Y-12436484D01*
X11903396Y-12436484D02*
X11884348Y-12436484D01*
X11884348Y-12436484D02*
X11865301Y-12426960D01*
X11865301Y-12426960D02*
X11855777Y-12417436D01*
X11855777Y-12417436D02*
X11846253Y-12398388D01*
X11846253Y-12398388D02*
X11836729Y-12360293D01*
X11836729Y-12360293D02*
X11836729Y-12312674D01*
X11836729Y-12312674D02*
X11846253Y-12274579D01*
X11846253Y-12274579D02*
X11855777Y-12255531D01*
X11855777Y-12255531D02*
X11865301Y-12246008D01*
X11865301Y-12246008D02*
X11884348Y-12236484D01*
X12141491Y-12436484D02*
X12027206Y-12436484D01*
X12084348Y-12436484D02*
X12084348Y-12236484D01*
X12084348Y-12236484D02*
X12065301Y-12265055D01*
X12065301Y-12265055D02*
X12046253Y-12284103D01*
X12046253Y-12284103D02*
X12027206Y-12293627D01*
X12322444Y-12236484D02*
X12227206Y-12236484D01*
X12227206Y-12236484D02*
X12217682Y-12331722D01*
X12217682Y-12331722D02*
X12227206Y-12322198D01*
X12227206Y-12322198D02*
X12246253Y-12312674D01*
X12246253Y-12312674D02*
X12293872Y-12312674D01*
X12293872Y-12312674D02*
X12312920Y-12322198D01*
X12312920Y-12322198D02*
X12322444Y-12331722D01*
X12322444Y-12331722D02*
X12331967Y-12350769D01*
X12331967Y-12350769D02*
X12331967Y-12398388D01*
X12331967Y-12398388D02*
X12322444Y-12417436D01*
X12322444Y-12417436D02*
X12312920Y-12426960D01*
X12312920Y-12426960D02*
X12293872Y-12436484D01*
X12293872Y-12436484D02*
X12246253Y-12436484D01*
X12246253Y-12436484D02*
X12227206Y-12426960D01*
X12227206Y-12426960D02*
X12217682Y-12417436D01*
X12398634Y-12236484D02*
X12531967Y-12236484D01*
X12531967Y-12236484D02*
X12446253Y-12436484D01*
X12598634Y-12236484D02*
X12598634Y-12274579D01*
X12674825Y-12236484D02*
X12674825Y-12274579D01*
X12970063Y-12512674D02*
X12960539Y-12503150D01*
X12960539Y-12503150D02*
X12941491Y-12474579D01*
X12941491Y-12474579D02*
X12931968Y-12455531D01*
X12931968Y-12455531D02*
X12922444Y-12426960D01*
X12922444Y-12426960D02*
X12912920Y-12379341D01*
X12912920Y-12379341D02*
X12912920Y-12341246D01*
X12912920Y-12341246D02*
X12922444Y-12293627D01*
X12922444Y-12293627D02*
X12931968Y-12265055D01*
X12931968Y-12265055D02*
X12941491Y-12246008D01*
X12941491Y-12246008D02*
X12960539Y-12217436D01*
X12960539Y-12217436D02*
X12970063Y-12207912D01*
X13036729Y-12255531D02*
X13046253Y-12246008D01*
X13046253Y-12246008D02*
X13065301Y-12236484D01*
X13065301Y-12236484D02*
X13112920Y-12236484D01*
X13112920Y-12236484D02*
X13131968Y-12246008D01*
X13131968Y-12246008D02*
X13141491Y-12255531D01*
X13141491Y-12255531D02*
X13151015Y-12274579D01*
X13151015Y-12274579D02*
X13151015Y-12293627D01*
X13151015Y-12293627D02*
X13141491Y-12322198D01*
X13141491Y-12322198D02*
X13027206Y-12436484D01*
X13027206Y-12436484D02*
X13151015Y-12436484D01*
X13389110Y-12436484D02*
X13389110Y-12236484D01*
X13474825Y-12436484D02*
X13474825Y-12331722D01*
X13474825Y-12331722D02*
X13465301Y-12312674D01*
X13465301Y-12312674D02*
X13446253Y-12303150D01*
X13446253Y-12303150D02*
X13417682Y-12303150D01*
X13417682Y-12303150D02*
X13398634Y-12312674D01*
X13398634Y-12312674D02*
X13389110Y-12322198D01*
X13598634Y-12436484D02*
X13579587Y-12426960D01*
X13579587Y-12426960D02*
X13570063Y-12417436D01*
X13570063Y-12417436D02*
X13560539Y-12398388D01*
X13560539Y-12398388D02*
X13560539Y-12341246D01*
X13560539Y-12341246D02*
X13570063Y-12322198D01*
X13570063Y-12322198D02*
X13579587Y-12312674D01*
X13579587Y-12312674D02*
X13598634Y-12303150D01*
X13598634Y-12303150D02*
X13627206Y-12303150D01*
X13627206Y-12303150D02*
X13646253Y-12312674D01*
X13646253Y-12312674D02*
X13655777Y-12322198D01*
X13655777Y-12322198D02*
X13665301Y-12341246D01*
X13665301Y-12341246D02*
X13665301Y-12398388D01*
X13665301Y-12398388D02*
X13655777Y-12417436D01*
X13655777Y-12417436D02*
X13646253Y-12426960D01*
X13646253Y-12426960D02*
X13627206Y-12436484D01*
X13627206Y-12436484D02*
X13598634Y-12436484D01*
X13779587Y-12436484D02*
X13760539Y-12426960D01*
X13760539Y-12426960D02*
X13751015Y-12407912D01*
X13751015Y-12407912D02*
X13751015Y-12236484D01*
X13931968Y-12426960D02*
X13912920Y-12436484D01*
X13912920Y-12436484D02*
X13874825Y-12436484D01*
X13874825Y-12436484D02*
X13855777Y-12426960D01*
X13855777Y-12426960D02*
X13846253Y-12407912D01*
X13846253Y-12407912D02*
X13846253Y-12331722D01*
X13846253Y-12331722D02*
X13855777Y-12312674D01*
X13855777Y-12312674D02*
X13874825Y-12303150D01*
X13874825Y-12303150D02*
X13912920Y-12303150D01*
X13912920Y-12303150D02*
X13931968Y-12312674D01*
X13931968Y-12312674D02*
X13941491Y-12331722D01*
X13941491Y-12331722D02*
X13941491Y-12350769D01*
X13941491Y-12350769D02*
X13846253Y-12369817D01*
X14017682Y-12426960D02*
X14036730Y-12436484D01*
X14036730Y-12436484D02*
X14074825Y-12436484D01*
X14074825Y-12436484D02*
X14093872Y-12426960D01*
X14093872Y-12426960D02*
X14103396Y-12407912D01*
X14103396Y-12407912D02*
X14103396Y-12398388D01*
X14103396Y-12398388D02*
X14093872Y-12379341D01*
X14093872Y-12379341D02*
X14074825Y-12369817D01*
X14074825Y-12369817D02*
X14046253Y-12369817D01*
X14046253Y-12369817D02*
X14027206Y-12360293D01*
X14027206Y-12360293D02*
X14017682Y-12341246D01*
X14017682Y-12341246D02*
X14017682Y-12331722D01*
X14017682Y-12331722D02*
X14027206Y-12312674D01*
X14027206Y-12312674D02*
X14046253Y-12303150D01*
X14046253Y-12303150D02*
X14074825Y-12303150D01*
X14074825Y-12303150D02*
X14093872Y-12312674D01*
X14170063Y-12512674D02*
X14179587Y-12503150D01*
X14179587Y-12503150D02*
X14198634Y-12474579D01*
X14198634Y-12474579D02*
X14208158Y-12455531D01*
X14208158Y-12455531D02*
X14217682Y-12426960D01*
X14217682Y-12426960D02*
X14227206Y-12379341D01*
X14227206Y-12379341D02*
X14227206Y-12341246D01*
X14227206Y-12341246D02*
X14217682Y-12293627D01*
X14217682Y-12293627D02*
X14208158Y-12265055D01*
X14208158Y-12265055D02*
X14198634Y-12246008D01*
X14198634Y-12246008D02*
X14179587Y-12217436D01*
X14179587Y-12217436D02*
X14170063Y-12207912D01*
D12*
X9395000Y-12609000D02*
G75*
G02*
X9285000Y-12609000I-55000J0D01*
G01*
X9285000Y-12609000D02*
G75*
G02*
X9395000Y-12609000I55000J0D01*
G01*
D11*
X9760539Y-12700484D02*
X9646253Y-12700484D01*
X9703396Y-12700484D02*
X9703396Y-12500484D01*
X9703396Y-12500484D02*
X9684348Y-12529055D01*
X9684348Y-12529055D02*
X9665301Y-12548103D01*
X9665301Y-12548103D02*
X9646253Y-12557627D01*
X9846253Y-12681436D02*
X9855777Y-12690960D01*
X9855777Y-12690960D02*
X9846253Y-12700484D01*
X9846253Y-12700484D02*
X9836729Y-12690960D01*
X9836729Y-12690960D02*
X9846253Y-12681436D01*
X9846253Y-12681436D02*
X9846253Y-12700484D01*
X10046253Y-12700484D02*
X9931967Y-12700484D01*
X9989110Y-12700484D02*
X9989110Y-12500484D01*
X9989110Y-12500484D02*
X9970063Y-12529055D01*
X9970063Y-12529055D02*
X9951015Y-12548103D01*
X9951015Y-12548103D02*
X9931967Y-12557627D01*
X10170063Y-12500484D02*
X10189110Y-12500484D01*
X10189110Y-12500484D02*
X10208158Y-12510008D01*
X10208158Y-12510008D02*
X10217682Y-12519531D01*
X10217682Y-12519531D02*
X10227205Y-12538579D01*
X10227205Y-12538579D02*
X10236729Y-12576674D01*
X10236729Y-12576674D02*
X10236729Y-12624293D01*
X10236729Y-12624293D02*
X10227205Y-12662388D01*
X10227205Y-12662388D02*
X10217682Y-12681436D01*
X10217682Y-12681436D02*
X10208158Y-12690960D01*
X10208158Y-12690960D02*
X10189110Y-12700484D01*
X10189110Y-12700484D02*
X10170063Y-12700484D01*
X10170063Y-12700484D02*
X10151015Y-12690960D01*
X10151015Y-12690960D02*
X10141491Y-12681436D01*
X10141491Y-12681436D02*
X10131967Y-12662388D01*
X10131967Y-12662388D02*
X10122444Y-12624293D01*
X10122444Y-12624293D02*
X10122444Y-12576674D01*
X10122444Y-12576674D02*
X10131967Y-12538579D01*
X10131967Y-12538579D02*
X10141491Y-12519531D01*
X10141491Y-12519531D02*
X10151015Y-12510008D01*
X10151015Y-12510008D02*
X10170063Y-12500484D01*
X10360539Y-12500484D02*
X10379586Y-12500484D01*
X10379586Y-12500484D02*
X10398634Y-12510008D01*
X10398634Y-12510008D02*
X10408158Y-12519531D01*
X10408158Y-12519531D02*
X10417682Y-12538579D01*
X10417682Y-12538579D02*
X10427205Y-12576674D01*
X10427205Y-12576674D02*
X10427205Y-12624293D01*
X10427205Y-12624293D02*
X10417682Y-12662388D01*
X10417682Y-12662388D02*
X10408158Y-12681436D01*
X10408158Y-12681436D02*
X10398634Y-12690960D01*
X10398634Y-12690960D02*
X10379586Y-12700484D01*
X10379586Y-12700484D02*
X10360539Y-12700484D01*
X10360539Y-12700484D02*
X10341491Y-12690960D01*
X10341491Y-12690960D02*
X10331967Y-12681436D01*
X10331967Y-12681436D02*
X10322444Y-12662388D01*
X10322444Y-12662388D02*
X10312920Y-12624293D01*
X10312920Y-12624293D02*
X10312920Y-12576674D01*
X10312920Y-12576674D02*
X10322444Y-12538579D01*
X10322444Y-12538579D02*
X10331967Y-12519531D01*
X10331967Y-12519531D02*
X10341491Y-12510008D01*
X10341491Y-12510008D02*
X10360539Y-12500484D01*
X10512920Y-12700484D02*
X10512920Y-12567150D01*
X10512920Y-12586198D02*
X10522444Y-12576674D01*
X10522444Y-12576674D02*
X10541491Y-12567150D01*
X10541491Y-12567150D02*
X10570063Y-12567150D01*
X10570063Y-12567150D02*
X10589110Y-12576674D01*
X10589110Y-12576674D02*
X10598634Y-12595722D01*
X10598634Y-12595722D02*
X10598634Y-12700484D01*
X10598634Y-12595722D02*
X10608158Y-12576674D01*
X10608158Y-12576674D02*
X10627205Y-12567150D01*
X10627205Y-12567150D02*
X10655777Y-12567150D01*
X10655777Y-12567150D02*
X10674825Y-12576674D01*
X10674825Y-12576674D02*
X10684348Y-12595722D01*
X10684348Y-12595722D02*
X10684348Y-12700484D01*
X10779586Y-12700484D02*
X10779586Y-12567150D01*
X10779586Y-12586198D02*
X10789110Y-12576674D01*
X10789110Y-12576674D02*
X10808158Y-12567150D01*
X10808158Y-12567150D02*
X10836729Y-12567150D01*
X10836729Y-12567150D02*
X10855777Y-12576674D01*
X10855777Y-12576674D02*
X10865301Y-12595722D01*
X10865301Y-12595722D02*
X10865301Y-12700484D01*
X10865301Y-12595722D02*
X10874825Y-12576674D01*
X10874825Y-12576674D02*
X10893872Y-12567150D01*
X10893872Y-12567150D02*
X10922444Y-12567150D01*
X10922444Y-12567150D02*
X10941491Y-12576674D01*
X10941491Y-12576674D02*
X10951015Y-12595722D01*
X10951015Y-12595722D02*
X10951015Y-12700484D01*
X11341491Y-12490960D02*
X11170063Y-12748103D01*
X11598634Y-12500484D02*
X11617682Y-12500484D01*
X11617682Y-12500484D02*
X11636729Y-12510008D01*
X11636729Y-12510008D02*
X11646253Y-12519531D01*
X11646253Y-12519531D02*
X11655777Y-12538579D01*
X11655777Y-12538579D02*
X11665301Y-12576674D01*
X11665301Y-12576674D02*
X11665301Y-12624293D01*
X11665301Y-12624293D02*
X11655777Y-12662388D01*
X11655777Y-12662388D02*
X11646253Y-12681436D01*
X11646253Y-12681436D02*
X11636729Y-12690960D01*
X11636729Y-12690960D02*
X11617682Y-12700484D01*
X11617682Y-12700484D02*
X11598634Y-12700484D01*
X11598634Y-12700484D02*
X11579586Y-12690960D01*
X11579586Y-12690960D02*
X11570063Y-12681436D01*
X11570063Y-12681436D02*
X11560539Y-12662388D01*
X11560539Y-12662388D02*
X11551015Y-12624293D01*
X11551015Y-12624293D02*
X11551015Y-12576674D01*
X11551015Y-12576674D02*
X11560539Y-12538579D01*
X11560539Y-12538579D02*
X11570063Y-12519531D01*
X11570063Y-12519531D02*
X11579586Y-12510008D01*
X11579586Y-12510008D02*
X11598634Y-12500484D01*
X11751015Y-12681436D02*
X11760539Y-12690960D01*
X11760539Y-12690960D02*
X11751015Y-12700484D01*
X11751015Y-12700484D02*
X11741491Y-12690960D01*
X11741491Y-12690960D02*
X11751015Y-12681436D01*
X11751015Y-12681436D02*
X11751015Y-12700484D01*
X11884348Y-12500484D02*
X11903396Y-12500484D01*
X11903396Y-12500484D02*
X11922444Y-12510008D01*
X11922444Y-12510008D02*
X11931967Y-12519531D01*
X11931967Y-12519531D02*
X11941491Y-12538579D01*
X11941491Y-12538579D02*
X11951015Y-12576674D01*
X11951015Y-12576674D02*
X11951015Y-12624293D01*
X11951015Y-12624293D02*
X11941491Y-12662388D01*
X11941491Y-12662388D02*
X11931967Y-12681436D01*
X11931967Y-12681436D02*
X11922444Y-12690960D01*
X11922444Y-12690960D02*
X11903396Y-12700484D01*
X11903396Y-12700484D02*
X11884348Y-12700484D01*
X11884348Y-12700484D02*
X11865301Y-12690960D01*
X11865301Y-12690960D02*
X11855777Y-12681436D01*
X11855777Y-12681436D02*
X11846253Y-12662388D01*
X11846253Y-12662388D02*
X11836729Y-12624293D01*
X11836729Y-12624293D02*
X11836729Y-12576674D01*
X11836729Y-12576674D02*
X11846253Y-12538579D01*
X11846253Y-12538579D02*
X11855777Y-12519531D01*
X11855777Y-12519531D02*
X11865301Y-12510008D01*
X11865301Y-12510008D02*
X11884348Y-12500484D01*
X12122444Y-12567150D02*
X12122444Y-12700484D01*
X12074825Y-12490960D02*
X12027206Y-12633817D01*
X12027206Y-12633817D02*
X12151015Y-12633817D01*
X12208158Y-12500484D02*
X12331967Y-12500484D01*
X12331967Y-12500484D02*
X12265301Y-12576674D01*
X12265301Y-12576674D02*
X12293872Y-12576674D01*
X12293872Y-12576674D02*
X12312920Y-12586198D01*
X12312920Y-12586198D02*
X12322444Y-12595722D01*
X12322444Y-12595722D02*
X12331967Y-12614769D01*
X12331967Y-12614769D02*
X12331967Y-12662388D01*
X12331967Y-12662388D02*
X12322444Y-12681436D01*
X12322444Y-12681436D02*
X12312920Y-12690960D01*
X12312920Y-12690960D02*
X12293872Y-12700484D01*
X12293872Y-12700484D02*
X12236729Y-12700484D01*
X12236729Y-12700484D02*
X12217682Y-12690960D01*
X12217682Y-12690960D02*
X12208158Y-12681436D01*
X12398634Y-12500484D02*
X12522444Y-12500484D01*
X12522444Y-12500484D02*
X12455777Y-12576674D01*
X12455777Y-12576674D02*
X12484348Y-12576674D01*
X12484348Y-12576674D02*
X12503396Y-12586198D01*
X12503396Y-12586198D02*
X12512920Y-12595722D01*
X12512920Y-12595722D02*
X12522444Y-12614769D01*
X12522444Y-12614769D02*
X12522444Y-12662388D01*
X12522444Y-12662388D02*
X12512920Y-12681436D01*
X12512920Y-12681436D02*
X12503396Y-12690960D01*
X12503396Y-12690960D02*
X12484348Y-12700484D01*
X12484348Y-12700484D02*
X12427206Y-12700484D01*
X12427206Y-12700484D02*
X12408158Y-12690960D01*
X12408158Y-12690960D02*
X12398634Y-12681436D01*
X12598634Y-12500484D02*
X12598634Y-12538579D01*
X12674825Y-12500484D02*
X12674825Y-12538579D01*
X12970063Y-12776674D02*
X12960539Y-12767150D01*
X12960539Y-12767150D02*
X12941491Y-12738579D01*
X12941491Y-12738579D02*
X12931968Y-12719531D01*
X12931968Y-12719531D02*
X12922444Y-12690960D01*
X12922444Y-12690960D02*
X12912920Y-12643341D01*
X12912920Y-12643341D02*
X12912920Y-12605246D01*
X12912920Y-12605246D02*
X12922444Y-12557627D01*
X12922444Y-12557627D02*
X12931968Y-12529055D01*
X12931968Y-12529055D02*
X12941491Y-12510008D01*
X12941491Y-12510008D02*
X12960539Y-12481436D01*
X12960539Y-12481436D02*
X12970063Y-12471912D01*
X13036729Y-12519531D02*
X13046253Y-12510008D01*
X13046253Y-12510008D02*
X13065301Y-12500484D01*
X13065301Y-12500484D02*
X13112920Y-12500484D01*
X13112920Y-12500484D02*
X13131968Y-12510008D01*
X13131968Y-12510008D02*
X13141491Y-12519531D01*
X13141491Y-12519531D02*
X13151015Y-12538579D01*
X13151015Y-12538579D02*
X13151015Y-12557627D01*
X13151015Y-12557627D02*
X13141491Y-12586198D01*
X13141491Y-12586198D02*
X13027206Y-12700484D01*
X13027206Y-12700484D02*
X13151015Y-12700484D01*
X13389110Y-12700484D02*
X13389110Y-12500484D01*
X13474825Y-12700484D02*
X13474825Y-12595722D01*
X13474825Y-12595722D02*
X13465301Y-12576674D01*
X13465301Y-12576674D02*
X13446253Y-12567150D01*
X13446253Y-12567150D02*
X13417682Y-12567150D01*
X13417682Y-12567150D02*
X13398634Y-12576674D01*
X13398634Y-12576674D02*
X13389110Y-12586198D01*
X13598634Y-12700484D02*
X13579587Y-12690960D01*
X13579587Y-12690960D02*
X13570063Y-12681436D01*
X13570063Y-12681436D02*
X13560539Y-12662388D01*
X13560539Y-12662388D02*
X13560539Y-12605246D01*
X13560539Y-12605246D02*
X13570063Y-12586198D01*
X13570063Y-12586198D02*
X13579587Y-12576674D01*
X13579587Y-12576674D02*
X13598634Y-12567150D01*
X13598634Y-12567150D02*
X13627206Y-12567150D01*
X13627206Y-12567150D02*
X13646253Y-12576674D01*
X13646253Y-12576674D02*
X13655777Y-12586198D01*
X13655777Y-12586198D02*
X13665301Y-12605246D01*
X13665301Y-12605246D02*
X13665301Y-12662388D01*
X13665301Y-12662388D02*
X13655777Y-12681436D01*
X13655777Y-12681436D02*
X13646253Y-12690960D01*
X13646253Y-12690960D02*
X13627206Y-12700484D01*
X13627206Y-12700484D02*
X13598634Y-12700484D01*
X13779587Y-12700484D02*
X13760539Y-12690960D01*
X13760539Y-12690960D02*
X13751015Y-12671912D01*
X13751015Y-12671912D02*
X13751015Y-12500484D01*
X13931968Y-12690960D02*
X13912920Y-12700484D01*
X13912920Y-12700484D02*
X13874825Y-12700484D01*
X13874825Y-12700484D02*
X13855777Y-12690960D01*
X13855777Y-12690960D02*
X13846253Y-12671912D01*
X13846253Y-12671912D02*
X13846253Y-12595722D01*
X13846253Y-12595722D02*
X13855777Y-12576674D01*
X13855777Y-12576674D02*
X13874825Y-12567150D01*
X13874825Y-12567150D02*
X13912920Y-12567150D01*
X13912920Y-12567150D02*
X13931968Y-12576674D01*
X13931968Y-12576674D02*
X13941491Y-12595722D01*
X13941491Y-12595722D02*
X13941491Y-12614769D01*
X13941491Y-12614769D02*
X13846253Y-12633817D01*
X14017682Y-12690960D02*
X14036730Y-12700484D01*
X14036730Y-12700484D02*
X14074825Y-12700484D01*
X14074825Y-12700484D02*
X14093872Y-12690960D01*
X14093872Y-12690960D02*
X14103396Y-12671912D01*
X14103396Y-12671912D02*
X14103396Y-12662388D01*
X14103396Y-12662388D02*
X14093872Y-12643341D01*
X14093872Y-12643341D02*
X14074825Y-12633817D01*
X14074825Y-12633817D02*
X14046253Y-12633817D01*
X14046253Y-12633817D02*
X14027206Y-12624293D01*
X14027206Y-12624293D02*
X14017682Y-12605246D01*
X14017682Y-12605246D02*
X14017682Y-12595722D01*
X14017682Y-12595722D02*
X14027206Y-12576674D01*
X14027206Y-12576674D02*
X14046253Y-12567150D01*
X14046253Y-12567150D02*
X14074825Y-12567150D01*
X14074825Y-12567150D02*
X14093872Y-12576674D01*
X14170063Y-12776674D02*
X14179587Y-12767150D01*
X14179587Y-12767150D02*
X14198634Y-12738579D01*
X14198634Y-12738579D02*
X14208158Y-12719531D01*
X14208158Y-12719531D02*
X14217682Y-12690960D01*
X14217682Y-12690960D02*
X14227206Y-12643341D01*
X14227206Y-12643341D02*
X14227206Y-12605246D01*
X14227206Y-12605246D02*
X14217682Y-12557627D01*
X14217682Y-12557627D02*
X14208158Y-12529055D01*
X14208158Y-12529055D02*
X14198634Y-12510008D01*
X14198634Y-12510008D02*
X14179587Y-12481436D01*
X14179587Y-12481436D02*
X14170063Y-12471912D01*
D13*
X9335500Y-12813500D02*
X9335500Y-12932500D01*
X9276000Y-12873000D02*
X9395000Y-12873000D01*
D11*
X9760539Y-12964484D02*
X9646253Y-12964484D01*
X9703396Y-12964484D02*
X9703396Y-12764484D01*
X9703396Y-12764484D02*
X9684348Y-12793055D01*
X9684348Y-12793055D02*
X9665301Y-12812103D01*
X9665301Y-12812103D02*
X9646253Y-12821627D01*
X9846253Y-12945436D02*
X9855777Y-12954960D01*
X9855777Y-12954960D02*
X9846253Y-12964484D01*
X9846253Y-12964484D02*
X9836729Y-12954960D01*
X9836729Y-12954960D02*
X9846253Y-12945436D01*
X9846253Y-12945436D02*
X9846253Y-12964484D01*
X10046253Y-12964484D02*
X9931967Y-12964484D01*
X9989110Y-12964484D02*
X9989110Y-12764484D01*
X9989110Y-12764484D02*
X9970063Y-12793055D01*
X9970063Y-12793055D02*
X9951015Y-12812103D01*
X9951015Y-12812103D02*
X9931967Y-12821627D01*
X10141491Y-12964484D02*
X10179586Y-12964484D01*
X10179586Y-12964484D02*
X10198634Y-12954960D01*
X10198634Y-12954960D02*
X10208158Y-12945436D01*
X10208158Y-12945436D02*
X10227205Y-12916865D01*
X10227205Y-12916865D02*
X10236729Y-12878769D01*
X10236729Y-12878769D02*
X10236729Y-12802579D01*
X10236729Y-12802579D02*
X10227205Y-12783531D01*
X10227205Y-12783531D02*
X10217682Y-12774008D01*
X10217682Y-12774008D02*
X10198634Y-12764484D01*
X10198634Y-12764484D02*
X10160539Y-12764484D01*
X10160539Y-12764484D02*
X10141491Y-12774008D01*
X10141491Y-12774008D02*
X10131967Y-12783531D01*
X10131967Y-12783531D02*
X10122444Y-12802579D01*
X10122444Y-12802579D02*
X10122444Y-12850198D01*
X10122444Y-12850198D02*
X10131967Y-12869246D01*
X10131967Y-12869246D02*
X10141491Y-12878769D01*
X10141491Y-12878769D02*
X10160539Y-12888293D01*
X10160539Y-12888293D02*
X10198634Y-12888293D01*
X10198634Y-12888293D02*
X10217682Y-12878769D01*
X10217682Y-12878769D02*
X10227205Y-12869246D01*
X10227205Y-12869246D02*
X10236729Y-12850198D01*
X10360539Y-12764484D02*
X10379586Y-12764484D01*
X10379586Y-12764484D02*
X10398634Y-12774008D01*
X10398634Y-12774008D02*
X10408158Y-12783531D01*
X10408158Y-12783531D02*
X10417682Y-12802579D01*
X10417682Y-12802579D02*
X10427205Y-12840674D01*
X10427205Y-12840674D02*
X10427205Y-12888293D01*
X10427205Y-12888293D02*
X10417682Y-12926388D01*
X10417682Y-12926388D02*
X10408158Y-12945436D01*
X10408158Y-12945436D02*
X10398634Y-12954960D01*
X10398634Y-12954960D02*
X10379586Y-12964484D01*
X10379586Y-12964484D02*
X10360539Y-12964484D01*
X10360539Y-12964484D02*
X10341491Y-12954960D01*
X10341491Y-12954960D02*
X10331967Y-12945436D01*
X10331967Y-12945436D02*
X10322444Y-12926388D01*
X10322444Y-12926388D02*
X10312920Y-12888293D01*
X10312920Y-12888293D02*
X10312920Y-12840674D01*
X10312920Y-12840674D02*
X10322444Y-12802579D01*
X10322444Y-12802579D02*
X10331967Y-12783531D01*
X10331967Y-12783531D02*
X10341491Y-12774008D01*
X10341491Y-12774008D02*
X10360539Y-12764484D01*
X10512920Y-12964484D02*
X10512920Y-12831150D01*
X10512920Y-12850198D02*
X10522444Y-12840674D01*
X10522444Y-12840674D02*
X10541491Y-12831150D01*
X10541491Y-12831150D02*
X10570063Y-12831150D01*
X10570063Y-12831150D02*
X10589110Y-12840674D01*
X10589110Y-12840674D02*
X10598634Y-12859722D01*
X10598634Y-12859722D02*
X10598634Y-12964484D01*
X10598634Y-12859722D02*
X10608158Y-12840674D01*
X10608158Y-12840674D02*
X10627205Y-12831150D01*
X10627205Y-12831150D02*
X10655777Y-12831150D01*
X10655777Y-12831150D02*
X10674825Y-12840674D01*
X10674825Y-12840674D02*
X10684348Y-12859722D01*
X10684348Y-12859722D02*
X10684348Y-12964484D01*
X10779586Y-12964484D02*
X10779586Y-12831150D01*
X10779586Y-12850198D02*
X10789110Y-12840674D01*
X10789110Y-12840674D02*
X10808158Y-12831150D01*
X10808158Y-12831150D02*
X10836729Y-12831150D01*
X10836729Y-12831150D02*
X10855777Y-12840674D01*
X10855777Y-12840674D02*
X10865301Y-12859722D01*
X10865301Y-12859722D02*
X10865301Y-12964484D01*
X10865301Y-12859722D02*
X10874825Y-12840674D01*
X10874825Y-12840674D02*
X10893872Y-12831150D01*
X10893872Y-12831150D02*
X10922444Y-12831150D01*
X10922444Y-12831150D02*
X10941491Y-12840674D01*
X10941491Y-12840674D02*
X10951015Y-12859722D01*
X10951015Y-12859722D02*
X10951015Y-12964484D01*
X11341491Y-12754960D02*
X11170063Y-13012103D01*
X11598634Y-12764484D02*
X11617682Y-12764484D01*
X11617682Y-12764484D02*
X11636729Y-12774008D01*
X11636729Y-12774008D02*
X11646253Y-12783531D01*
X11646253Y-12783531D02*
X11655777Y-12802579D01*
X11655777Y-12802579D02*
X11665301Y-12840674D01*
X11665301Y-12840674D02*
X11665301Y-12888293D01*
X11665301Y-12888293D02*
X11655777Y-12926388D01*
X11655777Y-12926388D02*
X11646253Y-12945436D01*
X11646253Y-12945436D02*
X11636729Y-12954960D01*
X11636729Y-12954960D02*
X11617682Y-12964484D01*
X11617682Y-12964484D02*
X11598634Y-12964484D01*
X11598634Y-12964484D02*
X11579586Y-12954960D01*
X11579586Y-12954960D02*
X11570063Y-12945436D01*
X11570063Y-12945436D02*
X11560539Y-12926388D01*
X11560539Y-12926388D02*
X11551015Y-12888293D01*
X11551015Y-12888293D02*
X11551015Y-12840674D01*
X11551015Y-12840674D02*
X11560539Y-12802579D01*
X11560539Y-12802579D02*
X11570063Y-12783531D01*
X11570063Y-12783531D02*
X11579586Y-12774008D01*
X11579586Y-12774008D02*
X11598634Y-12764484D01*
X11751015Y-12945436D02*
X11760539Y-12954960D01*
X11760539Y-12954960D02*
X11751015Y-12964484D01*
X11751015Y-12964484D02*
X11741491Y-12954960D01*
X11741491Y-12954960D02*
X11751015Y-12945436D01*
X11751015Y-12945436D02*
X11751015Y-12964484D01*
X11884348Y-12764484D02*
X11903396Y-12764484D01*
X11903396Y-12764484D02*
X11922444Y-12774008D01*
X11922444Y-12774008D02*
X11931967Y-12783531D01*
X11931967Y-12783531D02*
X11941491Y-12802579D01*
X11941491Y-12802579D02*
X11951015Y-12840674D01*
X11951015Y-12840674D02*
X11951015Y-12888293D01*
X11951015Y-12888293D02*
X11941491Y-12926388D01*
X11941491Y-12926388D02*
X11931967Y-12945436D01*
X11931967Y-12945436D02*
X11922444Y-12954960D01*
X11922444Y-12954960D02*
X11903396Y-12964484D01*
X11903396Y-12964484D02*
X11884348Y-12964484D01*
X11884348Y-12964484D02*
X11865301Y-12954960D01*
X11865301Y-12954960D02*
X11855777Y-12945436D01*
X11855777Y-12945436D02*
X11846253Y-12926388D01*
X11846253Y-12926388D02*
X11836729Y-12888293D01*
X11836729Y-12888293D02*
X11836729Y-12840674D01*
X11836729Y-12840674D02*
X11846253Y-12802579D01*
X11846253Y-12802579D02*
X11855777Y-12783531D01*
X11855777Y-12783531D02*
X11865301Y-12774008D01*
X11865301Y-12774008D02*
X11884348Y-12764484D01*
X12122444Y-12831150D02*
X12122444Y-12964484D01*
X12074825Y-12754960D02*
X12027206Y-12897817D01*
X12027206Y-12897817D02*
X12151015Y-12897817D01*
X12312920Y-12764484D02*
X12274825Y-12764484D01*
X12274825Y-12764484D02*
X12255777Y-12774008D01*
X12255777Y-12774008D02*
X12246253Y-12783531D01*
X12246253Y-12783531D02*
X12227206Y-12812103D01*
X12227206Y-12812103D02*
X12217682Y-12850198D01*
X12217682Y-12850198D02*
X12217682Y-12926388D01*
X12217682Y-12926388D02*
X12227206Y-12945436D01*
X12227206Y-12945436D02*
X12236729Y-12954960D01*
X12236729Y-12954960D02*
X12255777Y-12964484D01*
X12255777Y-12964484D02*
X12293872Y-12964484D01*
X12293872Y-12964484D02*
X12312920Y-12954960D01*
X12312920Y-12954960D02*
X12322444Y-12945436D01*
X12322444Y-12945436D02*
X12331967Y-12926388D01*
X12331967Y-12926388D02*
X12331967Y-12878769D01*
X12331967Y-12878769D02*
X12322444Y-12859722D01*
X12322444Y-12859722D02*
X12312920Y-12850198D01*
X12312920Y-12850198D02*
X12293872Y-12840674D01*
X12293872Y-12840674D02*
X12255777Y-12840674D01*
X12255777Y-12840674D02*
X12236729Y-12850198D01*
X12236729Y-12850198D02*
X12227206Y-12859722D01*
X12227206Y-12859722D02*
X12217682Y-12878769D01*
X12427206Y-12964484D02*
X12465301Y-12964484D01*
X12465301Y-12964484D02*
X12484348Y-12954960D01*
X12484348Y-12954960D02*
X12493872Y-12945436D01*
X12493872Y-12945436D02*
X12512920Y-12916865D01*
X12512920Y-12916865D02*
X12522444Y-12878769D01*
X12522444Y-12878769D02*
X12522444Y-12802579D01*
X12522444Y-12802579D02*
X12512920Y-12783531D01*
X12512920Y-12783531D02*
X12503396Y-12774008D01*
X12503396Y-12774008D02*
X12484348Y-12764484D01*
X12484348Y-12764484D02*
X12446253Y-12764484D01*
X12446253Y-12764484D02*
X12427206Y-12774008D01*
X12427206Y-12774008D02*
X12417682Y-12783531D01*
X12417682Y-12783531D02*
X12408158Y-12802579D01*
X12408158Y-12802579D02*
X12408158Y-12850198D01*
X12408158Y-12850198D02*
X12417682Y-12869246D01*
X12417682Y-12869246D02*
X12427206Y-12878769D01*
X12427206Y-12878769D02*
X12446253Y-12888293D01*
X12446253Y-12888293D02*
X12484348Y-12888293D01*
X12484348Y-12888293D02*
X12503396Y-12878769D01*
X12503396Y-12878769D02*
X12512920Y-12869246D01*
X12512920Y-12869246D02*
X12522444Y-12850198D01*
X12598634Y-12764484D02*
X12598634Y-12802579D01*
X12674825Y-12764484D02*
X12674825Y-12802579D01*
X12970063Y-13040674D02*
X12960539Y-13031150D01*
X12960539Y-13031150D02*
X12941491Y-13002579D01*
X12941491Y-13002579D02*
X12931968Y-12983531D01*
X12931968Y-12983531D02*
X12922444Y-12954960D01*
X12922444Y-12954960D02*
X12912920Y-12907341D01*
X12912920Y-12907341D02*
X12912920Y-12869246D01*
X12912920Y-12869246D02*
X12922444Y-12821627D01*
X12922444Y-12821627D02*
X12931968Y-12793055D01*
X12931968Y-12793055D02*
X12941491Y-12774008D01*
X12941491Y-12774008D02*
X12960539Y-12745436D01*
X12960539Y-12745436D02*
X12970063Y-12735912D01*
X13055777Y-12964484D02*
X13093872Y-12964484D01*
X13093872Y-12964484D02*
X13112920Y-12954960D01*
X13112920Y-12954960D02*
X13122444Y-12945436D01*
X13122444Y-12945436D02*
X13141491Y-12916865D01*
X13141491Y-12916865D02*
X13151015Y-12878769D01*
X13151015Y-12878769D02*
X13151015Y-12802579D01*
X13151015Y-12802579D02*
X13141491Y-12783531D01*
X13141491Y-12783531D02*
X13131968Y-12774008D01*
X13131968Y-12774008D02*
X13112920Y-12764484D01*
X13112920Y-12764484D02*
X13074825Y-12764484D01*
X13074825Y-12764484D02*
X13055777Y-12774008D01*
X13055777Y-12774008D02*
X13046253Y-12783531D01*
X13046253Y-12783531D02*
X13036729Y-12802579D01*
X13036729Y-12802579D02*
X13036729Y-12850198D01*
X13036729Y-12850198D02*
X13046253Y-12869246D01*
X13046253Y-12869246D02*
X13055777Y-12878769D01*
X13055777Y-12878769D02*
X13074825Y-12888293D01*
X13074825Y-12888293D02*
X13112920Y-12888293D01*
X13112920Y-12888293D02*
X13131968Y-12878769D01*
X13131968Y-12878769D02*
X13141491Y-12869246D01*
X13141491Y-12869246D02*
X13151015Y-12850198D01*
X13389110Y-12964484D02*
X13389110Y-12764484D01*
X13474825Y-12964484D02*
X13474825Y-12859722D01*
X13474825Y-12859722D02*
X13465301Y-12840674D01*
X13465301Y-12840674D02*
X13446253Y-12831150D01*
X13446253Y-12831150D02*
X13417682Y-12831150D01*
X13417682Y-12831150D02*
X13398634Y-12840674D01*
X13398634Y-12840674D02*
X13389110Y-12850198D01*
X13598634Y-12964484D02*
X13579587Y-12954960D01*
X13579587Y-12954960D02*
X13570063Y-12945436D01*
X13570063Y-12945436D02*
X13560539Y-12926388D01*
X13560539Y-12926388D02*
X13560539Y-12869246D01*
X13560539Y-12869246D02*
X13570063Y-12850198D01*
X13570063Y-12850198D02*
X13579587Y-12840674D01*
X13579587Y-12840674D02*
X13598634Y-12831150D01*
X13598634Y-12831150D02*
X13627206Y-12831150D01*
X13627206Y-12831150D02*
X13646253Y-12840674D01*
X13646253Y-12840674D02*
X13655777Y-12850198D01*
X13655777Y-12850198D02*
X13665301Y-12869246D01*
X13665301Y-12869246D02*
X13665301Y-12926388D01*
X13665301Y-12926388D02*
X13655777Y-12945436D01*
X13655777Y-12945436D02*
X13646253Y-12954960D01*
X13646253Y-12954960D02*
X13627206Y-12964484D01*
X13627206Y-12964484D02*
X13598634Y-12964484D01*
X13779587Y-12964484D02*
X13760539Y-12954960D01*
X13760539Y-12954960D02*
X13751015Y-12935912D01*
X13751015Y-12935912D02*
X13751015Y-12764484D01*
X13931968Y-12954960D02*
X13912920Y-12964484D01*
X13912920Y-12964484D02*
X13874825Y-12964484D01*
X13874825Y-12964484D02*
X13855777Y-12954960D01*
X13855777Y-12954960D02*
X13846253Y-12935912D01*
X13846253Y-12935912D02*
X13846253Y-12859722D01*
X13846253Y-12859722D02*
X13855777Y-12840674D01*
X13855777Y-12840674D02*
X13874825Y-12831150D01*
X13874825Y-12831150D02*
X13912920Y-12831150D01*
X13912920Y-12831150D02*
X13931968Y-12840674D01*
X13931968Y-12840674D02*
X13941491Y-12859722D01*
X13941491Y-12859722D02*
X13941491Y-12878769D01*
X13941491Y-12878769D02*
X13846253Y-12897817D01*
X14017682Y-12954960D02*
X14036730Y-12964484D01*
X14036730Y-12964484D02*
X14074825Y-12964484D01*
X14074825Y-12964484D02*
X14093872Y-12954960D01*
X14093872Y-12954960D02*
X14103396Y-12935912D01*
X14103396Y-12935912D02*
X14103396Y-12926388D01*
X14103396Y-12926388D02*
X14093872Y-12907341D01*
X14093872Y-12907341D02*
X14074825Y-12897817D01*
X14074825Y-12897817D02*
X14046253Y-12897817D01*
X14046253Y-12897817D02*
X14027206Y-12888293D01*
X14027206Y-12888293D02*
X14017682Y-12869246D01*
X14017682Y-12869246D02*
X14017682Y-12859722D01*
X14017682Y-12859722D02*
X14027206Y-12840674D01*
X14027206Y-12840674D02*
X14046253Y-12831150D01*
X14046253Y-12831150D02*
X14074825Y-12831150D01*
X14074825Y-12831150D02*
X14093872Y-12840674D01*
X14170063Y-13040674D02*
X14179587Y-13031150D01*
X14179587Y-13031150D02*
X14198634Y-13002579D01*
X14198634Y-13002579D02*
X14208158Y-12983531D01*
X14208158Y-12983531D02*
X14217682Y-12954960D01*
X14217682Y-12954960D02*
X14227206Y-12907341D01*
X14227206Y-12907341D02*
X14227206Y-12869246D01*
X14227206Y-12869246D02*
X14217682Y-12821627D01*
X14217682Y-12821627D02*
X14208158Y-12793055D01*
X14208158Y-12793055D02*
X14198634Y-12774008D01*
X14198634Y-12774008D02*
X14179587Y-12745436D01*
X14179587Y-12745436D02*
X14170063Y-12735912D01*
M02*
