%TF.GenerationSoftware,KiCad,Pcbnew,8.0.5*%
%TF.CreationDate,2025-10-04T21:28:32-05:00*%
%TF.ProjectId,horn,686f726e-2e6b-4696-9361-645f70636258,0.0*%
%TF.SameCoordinates,Original*%
%TF.FileFunction,Copper,L1,Top*%
%TF.FilePolarity,Positive*%
%FSLAX46Y46*%
G04 Gerber Fmt 4.6, Leading zero omitted, Abs format (unit mm)*
G04 Created by KiCad (PCBNEW 8.0.5) date 2025-10-04 21:28:32*
%MOMM*%
%LPD*%
G01*
G04 APERTURE LIST*
G04 Aperture macros list*
%AMRoundRect*
0 Rectangle with rounded corners*
0 $1 Rounding radius*
0 $2 $3 $4 $5 $6 $7 $8 $9 X,Y pos of 4 corners*
0 Add a 4 corners polygon primitive as box body*
4,1,4,$2,$3,$4,$5,$6,$7,$8,$9,$2,$3,0*
0 Add four circle primitives for the rounded corners*
1,1,$1+$1,$2,$3*
1,1,$1+$1,$4,$5*
1,1,$1+$1,$6,$7*
1,1,$1+$1,$8,$9*
0 Add four rect primitives between the rounded corners*
20,1,$1+$1,$2,$3,$4,$5,0*
20,1,$1+$1,$4,$5,$6,$7,0*
20,1,$1+$1,$6,$7,$8,$9,0*
20,1,$1+$1,$8,$9,$2,$3,0*%
G04 Aperture macros list end*
%TA.AperFunction,ComponentPad*%
%ADD10RoundRect,0.250000X-0.845000X0.620000X-0.845000X-0.620000X0.845000X-0.620000X0.845000X0.620000X0*%
%TD*%
%TA.AperFunction,ComponentPad*%
%ADD11O,2.190000X1.740000*%
%TD*%
%TA.AperFunction,SMDPad,CuDef*%
%ADD12R,2.200000X1.600000*%
%TD*%
%TA.AperFunction,SMDPad,CuDef*%
%ADD13RoundRect,0.150000X-0.587500X-0.150000X0.587500X-0.150000X0.587500X0.150000X-0.587500X0.150000X0*%
%TD*%
%TA.AperFunction,SMDPad,CuDef*%
%ADD14RoundRect,0.100000X0.130000X0.100000X-0.130000X0.100000X-0.130000X-0.100000X0.130000X-0.100000X0*%
%TD*%
%TA.AperFunction,SMDPad,CuDef*%
%ADD15RoundRect,0.100000X-0.130000X-0.100000X0.130000X-0.100000X0.130000X0.100000X-0.130000X0.100000X0*%
%TD*%
%TA.AperFunction,ComponentPad*%
%ADD16RoundRect,0.250000X-0.620000X-0.845000X0.620000X-0.845000X0.620000X0.845000X-0.620000X0.845000X0*%
%TD*%
%TA.AperFunction,ComponentPad*%
%ADD17O,1.740000X2.190000*%
%TD*%
%TA.AperFunction,SMDPad,CuDef*%
%ADD18RoundRect,0.237500X-0.250000X-0.237500X0.250000X-0.237500X0.250000X0.237500X-0.250000X0.237500X0*%
%TD*%
%TA.AperFunction,ComponentPad*%
%ADD19O,2.200000X2.200000*%
%TD*%
%TA.AperFunction,ComponentPad*%
%ADD20R,2.200000X2.200000*%
%TD*%
%TA.AperFunction,SMDPad,CuDef*%
%ADD21RoundRect,0.147500X0.172500X-0.147500X0.172500X0.147500X-0.172500X0.147500X-0.172500X-0.147500X0*%
%TD*%
%TA.AperFunction,ViaPad*%
%ADD22C,0.800000*%
%TD*%
%TA.AperFunction,Conductor*%
%ADD23C,0.250000*%
%TD*%
G04 APERTURE END LIST*
D10*
%TO.P,J5,1,Pin_1*%
%TO.N,GND*%
X97960000Y-99020000D03*
D11*
%TO.P,J5,2,Pin_2*%
%TO.N,Net-(J2-Pin_2)*%
X97960000Y-101560000D03*
%TO.P,J5,3,Pin_3*%
%TO.N,GND*%
X97960000Y-104100000D03*
%TD*%
D12*
%TO.P,C7,1*%
%TO.N,+24V*%
X109250000Y-91000000D03*
%TO.P,C7,2*%
%TO.N,GND*%
X112250000Y-91000000D03*
%TD*%
D13*
%TO.P,Q1,1,G*%
%TO.N,Net-(Q1-G)*%
X102625000Y-95550000D03*
%TO.P,Q1,2,S*%
%TO.N,GND*%
X102625000Y-97450000D03*
%TO.P,Q1,3,D*%
%TO.N,Net-(Q1-D)*%
X104500000Y-96500000D03*
%TD*%
D14*
%TO.P,C4,2*%
%TO.N,GND*%
X112745000Y-95000000D03*
%TO.P,C4,1*%
%TO.N,+24V*%
X113385000Y-95000000D03*
%TD*%
D15*
%TO.P,C6,1*%
%TO.N,+24V*%
X102585000Y-103475000D03*
%TO.P,C6,2*%
%TO.N,GND*%
X103225000Y-103475000D03*
%TD*%
%TO.P,C9,1*%
%TO.N,+24V*%
X97535000Y-107750000D03*
%TO.P,C9,2*%
%TO.N,GND*%
X98175000Y-107750000D03*
%TD*%
D14*
%TO.P,C2,1*%
%TO.N,+24V*%
X113415000Y-97750000D03*
%TO.P,C2,2*%
%TO.N,GND*%
X112775000Y-97750000D03*
%TD*%
D16*
%TO.P,J3,1,Pin_1*%
%TO.N,Net-(J2-Pin_1)*%
X104960000Y-112000000D03*
D17*
%TO.P,J3,2,Pin_2*%
%TO.N,Net-(D1-K)*%
X107500000Y-112000000D03*
%TD*%
D12*
%TO.P,C5,1*%
%TO.N,+24V*%
X106125000Y-91000000D03*
%TO.P,C5,2*%
%TO.N,GND*%
X103125000Y-91000000D03*
%TD*%
D18*
%TO.P,R1,2*%
%TO.N,/Control*%
X114750000Y-100500000D03*
%TO.P,R1,1*%
%TO.N,Net-(Q1-G)*%
X112925000Y-100500000D03*
%TD*%
D19*
%TO.P,D1,2,A*%
%TO.N,+24V*%
X103090000Y-105500000D03*
D20*
%TO.P,D1,1,K*%
%TO.N,Net-(D1-K)*%
X113250000Y-105500000D03*
%TD*%
D14*
%TO.P,C3,1*%
%TO.N,+24V*%
X115225000Y-95000000D03*
%TO.P,C3,2*%
%TO.N,GND*%
X114585000Y-95000000D03*
%TD*%
%TO.P,C8,2*%
%TO.N,GND*%
X108135000Y-103450000D03*
%TO.P,C8,1*%
%TO.N,+24V*%
X108775000Y-103450000D03*
%TD*%
D21*
%TO.P,F1,1*%
%TO.N,Net-(J2-Pin_2)*%
X103500000Y-101235000D03*
%TO.P,F1,2*%
%TO.N,Net-(Q1-D)*%
X103500000Y-100265000D03*
%TD*%
D14*
%TO.P,C1,1*%
%TO.N,Net-(Q1-G)*%
X115320000Y-97750000D03*
%TO.P,C1,2*%
%TO.N,GND*%
X114680000Y-97750000D03*
%TD*%
D16*
%TO.P,J1,1,Pin_1*%
%TO.N,GND*%
X107460000Y-97750000D03*
D17*
%TO.P,J1,2,Pin_2*%
%TO.N,/Control*%
X110000000Y-97750000D03*
%TD*%
D16*
%TO.P,J2,1,Pin_1*%
%TO.N,Net-(J2-Pin_1)*%
X97210000Y-112000000D03*
D17*
%TO.P,J2,2,Pin_2*%
%TO.N,Net-(J2-Pin_2)*%
X99750000Y-112000000D03*
%TD*%
D22*
%TO.N,GND*%
X112000000Y-94000000D03*
X105700000Y-103300000D03*
%TD*%
D23*
%TO.N,GND*%
X98175000Y-107045000D02*
X98175000Y-107750000D01*
X98320000Y-106900000D02*
X98175000Y-107045000D01*
X98320000Y-104460000D02*
X97960000Y-104100000D01*
X98320000Y-106900000D02*
X98320000Y-104460000D01*
X105850000Y-103450000D02*
X105700000Y-103300000D01*
X108135000Y-103450000D02*
X105850000Y-103450000D01*
X105525000Y-103475000D02*
X105700000Y-103300000D01*
X103225000Y-103475000D02*
X105525000Y-103475000D01*
X112775000Y-97949999D02*
X112775000Y-97750000D01*
X114680000Y-97949999D02*
X114354999Y-98275000D01*
X113100001Y-98275000D02*
X112775000Y-97949999D01*
X114680000Y-97750000D02*
X114680000Y-97949999D01*
X114354999Y-98275000D02*
X113100001Y-98275000D01*
X112775000Y-95030000D02*
X112745000Y-95000000D01*
X112775000Y-97750000D02*
X112775000Y-95030000D01*
X112000000Y-94255000D02*
X112745000Y-95000000D01*
X112000000Y-94000000D02*
X112000000Y-94255000D01*
X113070001Y-94475000D02*
X112745000Y-94800001D01*
X112745000Y-94800001D02*
X112745000Y-95000000D01*
X114585000Y-95000000D02*
X114060000Y-94475000D01*
X114060000Y-94475000D02*
X113070001Y-94475000D01*
%TO.N,+24V*%
X113910000Y-95525000D02*
X113385000Y-95000000D01*
X114899999Y-95525000D02*
X113910000Y-95525000D01*
X115225000Y-95199999D02*
X114899999Y-95525000D01*
X115225000Y-95000000D02*
X115225000Y-95199999D01*
X113385000Y-97720000D02*
X113415000Y-97750000D01*
X113385000Y-95000000D02*
X113385000Y-97720000D01*
%TO.N,GND*%
X112250000Y-93750000D02*
X112250000Y-91000000D01*
X112000000Y-94000000D02*
X112250000Y-93750000D01*
X105562500Y-93437500D02*
X103125000Y-91000000D01*
X105562500Y-96850908D02*
X105562500Y-93437500D01*
X104963408Y-97450000D02*
X105562500Y-96850908D01*
X102625000Y-97450000D02*
X104963408Y-97450000D01*
%TO.N,Net-(Q1-D)*%
X101112500Y-95649092D02*
X101836592Y-94925000D01*
X104500000Y-96011592D02*
X104500000Y-96500000D01*
X101112500Y-98197499D02*
X101112500Y-95649092D01*
X103413408Y-94925000D02*
X104500000Y-96011592D01*
X103180001Y-100265000D02*
X101112500Y-98197499D01*
X101836592Y-94925000D02*
X103413408Y-94925000D01*
X103500000Y-100265000D02*
X103180001Y-100265000D01*
%TO.N,GND*%
X107160000Y-97450000D02*
X107460000Y-97750000D01*
X102625000Y-97450000D02*
X107160000Y-97450000D01*
%TO.N,Net-(Q1-G)*%
X101562500Y-96612500D02*
X102625000Y-95550000D01*
X101562500Y-97800908D02*
X101562500Y-96612500D01*
X101836592Y-98075000D02*
X101562500Y-97800908D01*
X103413408Y-98075000D02*
X101836592Y-98075000D01*
X107088408Y-101750000D02*
X103413408Y-98075000D01*
X114789576Y-101750000D02*
X107088408Y-101750000D01*
X115562500Y-100977076D02*
X114789576Y-101750000D01*
X115562500Y-100022924D02*
X115562500Y-100977076D01*
X115239576Y-99700000D02*
X115562500Y-100022924D01*
X113725000Y-99700000D02*
X115239576Y-99700000D01*
X112925000Y-100500000D02*
X113725000Y-99700000D01*
%TO.N,/Control*%
X110000000Y-98864576D02*
X110000000Y-97750000D01*
X112435424Y-101300000D02*
X110000000Y-98864576D01*
X113950000Y-101300000D02*
X112435424Y-101300000D01*
X114750000Y-100500000D02*
X113950000Y-101300000D01*
%TO.N,Net-(Q1-G)*%
X115320000Y-98105000D02*
X115320000Y-97750000D01*
X112925000Y-100500000D02*
X115320000Y-98105000D01*
%TO.N,Net-(D1-K)*%
X113250000Y-106250000D02*
X107500000Y-112000000D01*
X113250000Y-105500000D02*
X113250000Y-106250000D01*
%TO.N,Net-(J2-Pin_1)*%
X98630000Y-113420000D02*
X97210000Y-112000000D01*
X104960000Y-112000000D02*
X103540000Y-113420000D01*
X103540000Y-113420000D02*
X98630000Y-113420000D01*
%TO.N,Net-(J2-Pin_2)*%
X99750000Y-103350000D02*
X99750000Y-112000000D01*
X97960000Y-101560000D02*
X99750000Y-103350000D01*
X103175000Y-101560000D02*
X103500000Y-101235000D01*
X97960000Y-101560000D02*
X103175000Y-101560000D01*
%TD*%
%TA.AperFunction,Conductor*%
%TO.N,+24V*%
G36*
X114000733Y-87000008D02*
G01*
X114191077Y-87002343D01*
X114201681Y-87002930D01*
X114581224Y-87040312D01*
X114593249Y-87042096D01*
X114966527Y-87116345D01*
X114978329Y-87119301D01*
X115342544Y-87229785D01*
X115354002Y-87233885D01*
X115705627Y-87379532D01*
X115716626Y-87384734D01*
X116052282Y-87564147D01*
X116062713Y-87570399D01*
X116379169Y-87781849D01*
X116388942Y-87789097D01*
X116683148Y-88030544D01*
X116692165Y-88038717D01*
X116961282Y-88307834D01*
X116969455Y-88316851D01*
X117210902Y-88611057D01*
X117218150Y-88620830D01*
X117429600Y-88937286D01*
X117435856Y-88947724D01*
X117615264Y-89283372D01*
X117620467Y-89294372D01*
X117766114Y-89645997D01*
X117770214Y-89657455D01*
X117880698Y-90021670D01*
X117883654Y-90033474D01*
X117957902Y-90406744D01*
X117959688Y-90418781D01*
X117997068Y-90798304D01*
X117997656Y-90808937D01*
X117999991Y-90999266D01*
X118000000Y-91000787D01*
X118000000Y-112999212D01*
X117999991Y-113000733D01*
X117997656Y-113191062D01*
X117997068Y-113201695D01*
X117959688Y-113581218D01*
X117957902Y-113593255D01*
X117883654Y-113966525D01*
X117880698Y-113978329D01*
X117770214Y-114342544D01*
X117766114Y-114354002D01*
X117620467Y-114705627D01*
X117615264Y-114716627D01*
X117435856Y-115052275D01*
X117429600Y-115062713D01*
X117218150Y-115379169D01*
X117210902Y-115388942D01*
X116969455Y-115683148D01*
X116961282Y-115692165D01*
X116692165Y-115961282D01*
X116683148Y-115969455D01*
X116388942Y-116210902D01*
X116379169Y-116218150D01*
X116062713Y-116429600D01*
X116052275Y-116435856D01*
X115716627Y-116615264D01*
X115705627Y-116620467D01*
X115354002Y-116766114D01*
X115342544Y-116770214D01*
X114978329Y-116880698D01*
X114966525Y-116883654D01*
X114593255Y-116957902D01*
X114581218Y-116959688D01*
X114201695Y-116997068D01*
X114191062Y-116997656D01*
X114000734Y-116999991D01*
X113999213Y-117000000D01*
X98000787Y-117000000D01*
X97999266Y-116999991D01*
X97808937Y-116997656D01*
X97798304Y-116997068D01*
X97418781Y-116959688D01*
X97406744Y-116957902D01*
X97033474Y-116883654D01*
X97021670Y-116880698D01*
X96657455Y-116770214D01*
X96645997Y-116766114D01*
X96294372Y-116620467D01*
X96283372Y-116615264D01*
X95947724Y-116435856D01*
X95937286Y-116429600D01*
X95620830Y-116218150D01*
X95611057Y-116210902D01*
X95316851Y-115969455D01*
X95307834Y-115961282D01*
X95038717Y-115692165D01*
X95030544Y-115683148D01*
X94789097Y-115388942D01*
X94781849Y-115379169D01*
X94570399Y-115062713D01*
X94564143Y-115052275D01*
X94384735Y-114716627D01*
X94379532Y-114705627D01*
X94233885Y-114354002D01*
X94229785Y-114342544D01*
X94193444Y-114222743D01*
X94119300Y-113978327D01*
X94116345Y-113966525D01*
X94051359Y-113639818D01*
X94042096Y-113593249D01*
X94040311Y-113581218D01*
X94002930Y-113201681D01*
X94002343Y-113191075D01*
X94000009Y-113000732D01*
X94000000Y-112999212D01*
X94000000Y-111104447D01*
X95831500Y-111104447D01*
X95831500Y-112895537D01*
X95831501Y-112895553D01*
X95842113Y-112999427D01*
X95889310Y-113141860D01*
X95897885Y-113167738D01*
X95990970Y-113318652D01*
X96116348Y-113444030D01*
X96267262Y-113537115D01*
X96435574Y-113592887D01*
X96539455Y-113603500D01*
X97866233Y-113603499D01*
X97933272Y-113623184D01*
X97953914Y-113639818D01*
X98137929Y-113823833D01*
X98226167Y-113912071D01*
X98226168Y-113912072D01*
X98329918Y-113981396D01*
X98329924Y-113981399D01*
X98329925Y-113981400D01*
X98445215Y-114029155D01*
X98567601Y-114053499D01*
X98567605Y-114053500D01*
X98567606Y-114053500D01*
X103602395Y-114053500D01*
X103602396Y-114053499D01*
X103724785Y-114029155D01*
X103840075Y-113981400D01*
X103943833Y-113912071D01*
X104216087Y-113639815D01*
X104277406Y-113606333D01*
X104303755Y-113603499D01*
X105630544Y-113603499D01*
X105734426Y-113592887D01*
X105902738Y-113537115D01*
X106053652Y-113444030D01*
X106179030Y-113318652D01*
X106272115Y-113167738D01*
X106272115Y-113167735D01*
X106274146Y-113164444D01*
X106326094Y-113117720D01*
X106395057Y-113106497D01*
X106459139Y-113134341D01*
X106467366Y-113141860D01*
X106601967Y-113276461D01*
X106777508Y-113403999D01*
X106970840Y-113502506D01*
X107177200Y-113569557D01*
X107257566Y-113582285D01*
X107391505Y-113603500D01*
X107391510Y-113603500D01*
X107608495Y-113603500D01*
X107727551Y-113584642D01*
X107822800Y-113569557D01*
X108029160Y-113502506D01*
X108222492Y-113403999D01*
X108398033Y-113276461D01*
X108551461Y-113123033D01*
X108678999Y-112947492D01*
X108714044Y-112878711D01*
X112149500Y-112878711D01*
X112149500Y-113121288D01*
X112181161Y-113361785D01*
X112243947Y-113596104D01*
X112336773Y-113820205D01*
X112336777Y-113820214D01*
X112358974Y-113858661D01*
X112458064Y-114030289D01*
X112458066Y-114030292D01*
X112458067Y-114030293D01*
X112605733Y-114222736D01*
X112605739Y-114222743D01*
X112777256Y-114394260D01*
X112777262Y-114394265D01*
X112969711Y-114541936D01*
X113179788Y-114663224D01*
X113403900Y-114756054D01*
X113638211Y-114818838D01*
X113818586Y-114842584D01*
X113878711Y-114850500D01*
X113878712Y-114850500D01*
X114121289Y-114850500D01*
X114169388Y-114844167D01*
X114361789Y-114818838D01*
X114596100Y-114756054D01*
X114820212Y-114663224D01*
X115030289Y-114541936D01*
X115222738Y-114394265D01*
X115394265Y-114222738D01*
X115541936Y-114030289D01*
X115663224Y-113820212D01*
X115756054Y-113596100D01*
X115818838Y-113361789D01*
X115850500Y-113121288D01*
X115850500Y-112878712D01*
X115818838Y-112638211D01*
X115756054Y-112403900D01*
X115663224Y-112179788D01*
X115541936Y-111969711D01*
X115394265Y-111777262D01*
X115394260Y-111777256D01*
X115222743Y-111605739D01*
X115222736Y-111605733D01*
X115030293Y-111458067D01*
X115030292Y-111458066D01*
X115030289Y-111458064D01*
X114820212Y-111336776D01*
X114820205Y-111336773D01*
X114596104Y-111243947D01*
X114361785Y-111181161D01*
X114121289Y-111149500D01*
X114121288Y-111149500D01*
X113878712Y-111149500D01*
X113878711Y-111149500D01*
X113638214Y-111181161D01*
X113403895Y-111243947D01*
X113179794Y-111336773D01*
X113179785Y-111336777D01*
X112969706Y-111458067D01*
X112777263Y-111605733D01*
X112777256Y-111605739D01*
X112605739Y-111777256D01*
X112605733Y-111777263D01*
X112458067Y-111969706D01*
X112336777Y-112179785D01*
X112336773Y-112179794D01*
X112243947Y-112403895D01*
X112181161Y-112638214D01*
X112149500Y-112878711D01*
X108714044Y-112878711D01*
X108777506Y-112754160D01*
X108844557Y-112547800D01*
X108863019Y-112431233D01*
X108878500Y-112333495D01*
X108878500Y-111666507D01*
X108874767Y-111642945D01*
X108867996Y-111600192D01*
X108876950Y-111530901D01*
X108902785Y-111493117D01*
X113251085Y-107144819D01*
X113312408Y-107111334D01*
X113338766Y-107108500D01*
X114398638Y-107108500D01*
X114398654Y-107108499D01*
X114425692Y-107105591D01*
X114459201Y-107101989D01*
X114596204Y-107050889D01*
X114713261Y-106963261D01*
X114800889Y-106846204D01*
X114851989Y-106709201D01*
X114855591Y-106675692D01*
X114858499Y-106648654D01*
X114858500Y-106648637D01*
X114858500Y-104351362D01*
X114858499Y-104351345D01*
X114855157Y-104320270D01*
X114851989Y-104290799D01*
X114843591Y-104268284D01*
X114821289Y-104208490D01*
X114800889Y-104153796D01*
X114713261Y-104036739D01*
X114596204Y-103949111D01*
X114459203Y-103898011D01*
X114398654Y-103891500D01*
X114398638Y-103891500D01*
X112101362Y-103891500D01*
X112101345Y-103891500D01*
X112040797Y-103898011D01*
X112040795Y-103898011D01*
X111903795Y-103949111D01*
X111786739Y-104036739D01*
X111699111Y-104153795D01*
X111648011Y-104290795D01*
X111648011Y-104290797D01*
X111641500Y-104351345D01*
X111641500Y-106648654D01*
X111648010Y-106709201D01*
X111687230Y-106814350D01*
X111692214Y-106884042D01*
X111658730Y-106945365D01*
X111658729Y-106945365D01*
X108141341Y-110462753D01*
X108080018Y-110496238D01*
X108015342Y-110493003D01*
X107822797Y-110430442D01*
X107608495Y-110396500D01*
X107608490Y-110396500D01*
X107391510Y-110396500D01*
X107391505Y-110396500D01*
X107177203Y-110430442D01*
X106970837Y-110497495D01*
X106777507Y-110596001D01*
X106601968Y-110723538D01*
X106467366Y-110858140D01*
X106406043Y-110891624D01*
X106336351Y-110886640D01*
X106280418Y-110844768D01*
X106274147Y-110835555D01*
X106179032Y-110681351D01*
X106179029Y-110681347D01*
X106053653Y-110555971D01*
X106053652Y-110555970D01*
X105902738Y-110462885D01*
X105804830Y-110430442D01*
X105734427Y-110407113D01*
X105630545Y-110396500D01*
X104289462Y-110396500D01*
X104289446Y-110396501D01*
X104185572Y-110407113D01*
X104017264Y-110462884D01*
X104017259Y-110462886D01*
X103866346Y-110555971D01*
X103740971Y-110681346D01*
X103647886Y-110832259D01*
X103647884Y-110832264D01*
X103592113Y-111000572D01*
X103581500Y-111104447D01*
X103581500Y-112431233D01*
X103561815Y-112498272D01*
X103545181Y-112518914D01*
X103313915Y-112750181D01*
X103252592Y-112783666D01*
X103226234Y-112786500D01*
X101187669Y-112786500D01*
X101120630Y-112766815D01*
X101074875Y-112714011D01*
X101064931Y-112644853D01*
X101069735Y-112624192D01*
X101094557Y-112547800D01*
X101117349Y-112403895D01*
X101128500Y-112333495D01*
X101128500Y-111666504D01*
X101095486Y-111458067D01*
X101094557Y-111452200D01*
X101027506Y-111245840D01*
X100928999Y-111052508D01*
X100801461Y-110876967D01*
X100648033Y-110723539D01*
X100472492Y-110596001D01*
X100472491Y-110596000D01*
X100472489Y-110595999D01*
X100451202Y-110585152D01*
X100400407Y-110537177D01*
X100383500Y-110474669D01*
X100383500Y-105249999D01*
X101504728Y-105249999D01*
X101504729Y-105250000D01*
X102599252Y-105250000D01*
X102577482Y-105287708D01*
X102540000Y-105427591D01*
X102540000Y-105572409D01*
X102577482Y-105712292D01*
X102599252Y-105750000D01*
X101504728Y-105750000D01*
X101504811Y-105751067D01*
X101563603Y-105995956D01*
X101659980Y-106228631D01*
X101791568Y-106443362D01*
X101791571Y-106443367D01*
X101955130Y-106634869D01*
X102146632Y-106798428D01*
X102146637Y-106798431D01*
X102361368Y-106930019D01*
X102594043Y-107026396D01*
X102838932Y-107085188D01*
X102840000Y-107085271D01*
X102840000Y-105990747D01*
X102877708Y-106012518D01*
X103017591Y-106050000D01*
X103162409Y-106050000D01*
X103302292Y-106012518D01*
X103340000Y-105990747D01*
X103340000Y-107085271D01*
X103341067Y-107085188D01*
X103585956Y-107026396D01*
X103818631Y-106930019D01*
X104033362Y-106798431D01*
X104033367Y-106798428D01*
X104224869Y-106634869D01*
X104388428Y-106443367D01*
X104388431Y-106443362D01*
X104520019Y-106228631D01*
X104616396Y-105995956D01*
X104675188Y-105751067D01*
X104675272Y-105750000D01*
X103580748Y-105750000D01*
X103602518Y-105712292D01*
X103640000Y-105572409D01*
X103640000Y-105427591D01*
X103602518Y-105287708D01*
X103580748Y-105250000D01*
X104675271Y-105250000D01*
X104675271Y-105249999D01*
X104675188Y-105248932D01*
X104616396Y-105004043D01*
X104520019Y-104771368D01*
X104388431Y-104556637D01*
X104388428Y-104556632D01*
X104224869Y-104365130D01*
X104179979Y-104326790D01*
X104141786Y-104268284D01*
X104141287Y-104198416D01*
X104178641Y-104139369D01*
X104241988Y-104109891D01*
X104260511Y-104108500D01*
X105255932Y-104108500D01*
X105306366Y-104119219D01*
X105417712Y-104168794D01*
X105604513Y-104208500D01*
X105795487Y-104208500D01*
X105982288Y-104168794D01*
X106149786Y-104094219D01*
X106200218Y-104083500D01*
X107678230Y-104083500D01*
X107725682Y-104092939D01*
X107785779Y-104117831D01*
X107846150Y-104142838D01*
X107965115Y-104158500D01*
X108304884Y-104158499D01*
X108304885Y-104158499D01*
X108334625Y-104154583D01*
X108423850Y-104142838D01*
X108423875Y-104142827D01*
X108423901Y-104142824D01*
X108431707Y-104140733D01*
X108431982Y-104141759D01*
X108487526Y-104134444D01*
X108575000Y-104145960D01*
X108575000Y-104140276D01*
X108594685Y-104073237D01*
X108623513Y-104041901D01*
X108630240Y-104036739D01*
X108698987Y-103983987D01*
X108752625Y-103914084D01*
X108809052Y-103872884D01*
X108878798Y-103868729D01*
X108939719Y-103902942D01*
X108972471Y-103964659D01*
X108975000Y-103989573D01*
X108975000Y-104145959D01*
X108975001Y-104145960D01*
X109061627Y-104134557D01*
X109061633Y-104134555D01*
X109207585Y-104074100D01*
X109332924Y-103977924D01*
X109429100Y-103852586D01*
X109489555Y-103706631D01*
X109497012Y-103650000D01*
X108997500Y-103650000D01*
X108930461Y-103630315D01*
X108884706Y-103577511D01*
X108873500Y-103526001D01*
X108873499Y-103374001D01*
X108893183Y-103306961D01*
X108945987Y-103261206D01*
X108997499Y-103250000D01*
X109497010Y-103250000D01*
X109497011Y-103249998D01*
X109489557Y-103193372D01*
X109489555Y-103193366D01*
X109429100Y-103047414D01*
X109332924Y-102922075D01*
X109207586Y-102825899D01*
X109061631Y-102765444D01*
X108975000Y-102754038D01*
X108975000Y-102910426D01*
X108955315Y-102977465D01*
X108902511Y-103023220D01*
X108833353Y-103033164D01*
X108769797Y-103004139D01*
X108752625Y-102985913D01*
X108698987Y-102916012D01*
X108623513Y-102858098D01*
X108582310Y-102801670D01*
X108575000Y-102759723D01*
X108575000Y-102754038D01*
X108574999Y-102754038D01*
X108487524Y-102765555D01*
X108431975Y-102758242D01*
X108431701Y-102759266D01*
X108423927Y-102757183D01*
X108423889Y-102757178D01*
X108423853Y-102757163D01*
X108423851Y-102757162D01*
X108423850Y-102757162D01*
X108304885Y-102741500D01*
X107965113Y-102741500D01*
X107846157Y-102757160D01*
X107846146Y-102757163D01*
X107725682Y-102807061D01*
X107678230Y-102816500D01*
X106541051Y-102816500D01*
X106474012Y-102796815D01*
X106440737Y-102765392D01*
X106439043Y-102763061D01*
X106439040Y-102763056D01*
X106311253Y-102621134D01*
X106156752Y-102508882D01*
X105982288Y-102431206D01*
X105982286Y-102431205D01*
X105795487Y-102391500D01*
X105604513Y-102391500D01*
X105417714Y-102431205D01*
X105243246Y-102508883D01*
X105088745Y-102621135D01*
X104960960Y-102763055D01*
X104958971Y-102766501D01*
X104951734Y-102779037D01*
X104951467Y-102779499D01*
X104900900Y-102827715D01*
X104844079Y-102841500D01*
X103681770Y-102841500D01*
X103634318Y-102832061D01*
X103513853Y-102782163D01*
X103513851Y-102782162D01*
X103513850Y-102782162D01*
X103394885Y-102766500D01*
X103055113Y-102766500D01*
X102936152Y-102782160D01*
X102936147Y-102782162D01*
X102936112Y-102782177D01*
X102936073Y-102782182D01*
X102928300Y-102784265D01*
X102928025Y-102783241D01*
X102872474Y-102790555D01*
X102785000Y-102779037D01*
X102785000Y-102784723D01*
X102765315Y-102851762D01*
X102736487Y-102883098D01*
X102661012Y-102941012D01*
X102607375Y-103010913D01*
X102550947Y-103052116D01*
X102481201Y-103056270D01*
X102420281Y-103022057D01*
X102387528Y-102960339D01*
X102385000Y-102935426D01*
X102385000Y-102779038D01*
X102298369Y-102790444D01*
X102298365Y-102790445D01*
X102152413Y-102850899D01*
X102027075Y-102947075D01*
X101930899Y-103072413D01*
X101870444Y-103218368D01*
X101862987Y-103275000D01*
X102362500Y-103275000D01*
X102429539Y-103294685D01*
X102475294Y-103347489D01*
X102486500Y-103398999D01*
X102486501Y-103550999D01*
X102466817Y-103618039D01*
X102414013Y-103663794D01*
X102362501Y-103675000D01*
X101862990Y-103675000D01*
X101862988Y-103675001D01*
X101870442Y-103731627D01*
X101870444Y-103731633D01*
X101930899Y-103877585D01*
X102027075Y-104002924D01*
X102091084Y-104052040D01*
X102132286Y-104108468D01*
X102136441Y-104178214D01*
X102102228Y-104239135D01*
X102096129Y-104244706D01*
X101955130Y-104365130D01*
X101791571Y-104556632D01*
X101791568Y-104556637D01*
X101659980Y-104771368D01*
X101563603Y-105004043D01*
X101504811Y-105248932D01*
X101504728Y-105249999D01*
X100383500Y-105249999D01*
X100383500Y-103287605D01*
X100383499Y-103287601D01*
X100359155Y-103165215D01*
X100311400Y-103049925D01*
X100311399Y-103049924D01*
X100311396Y-103049918D01*
X100242072Y-102946168D01*
X100206330Y-102910426D01*
X100153833Y-102857929D01*
X99701085Y-102405181D01*
X99667600Y-102343858D01*
X99672584Y-102274166D01*
X99714456Y-102218233D01*
X99779920Y-102193816D01*
X99788766Y-102193500D01*
X103237395Y-102193500D01*
X103237396Y-102193499D01*
X103359785Y-102169155D01*
X103475075Y-102121400D01*
X103475081Y-102121396D01*
X103567869Y-102059397D01*
X103634546Y-102038519D01*
X103636760Y-102038499D01*
X103738736Y-102038499D01*
X103738746Y-102038499D01*
X103775937Y-102035573D01*
X103935100Y-101989332D01*
X104077763Y-101904962D01*
X104194962Y-101787763D01*
X104279332Y-101645100D01*
X104325573Y-101485937D01*
X104328500Y-101448747D01*
X104328499Y-101021254D01*
X104325573Y-100984063D01*
X104279332Y-100824900D01*
X104272366Y-100813122D01*
X104255182Y-100745401D01*
X104272366Y-100686878D01*
X104279332Y-100675100D01*
X104325573Y-100515937D01*
X104328500Y-100478747D01*
X104328499Y-100185355D01*
X104348183Y-100118318D01*
X104400987Y-100072563D01*
X104470146Y-100062619D01*
X104533701Y-100091644D01*
X104540180Y-100097676D01*
X106596337Y-102153833D01*
X106660737Y-102218233D01*
X106684576Y-102242072D01*
X106788326Y-102311396D01*
X106788332Y-102311399D01*
X106788333Y-102311400D01*
X106903623Y-102359155D01*
X107026009Y-102383499D01*
X107026013Y-102383500D01*
X107026014Y-102383500D01*
X114851971Y-102383500D01*
X114851972Y-102383499D01*
X114974361Y-102359155D01*
X115089651Y-102311400D01*
X115193409Y-102242071D01*
X116054572Y-101380909D01*
X116123901Y-101277151D01*
X116171655Y-101161860D01*
X116172788Y-101156167D01*
X116196000Y-101039470D01*
X116196000Y-99960530D01*
X116171655Y-99838139D01*
X116144644Y-99772929D01*
X116123901Y-99722849D01*
X116123897Y-99722843D01*
X116054572Y-99619090D01*
X116054569Y-99619087D01*
X115643412Y-99207931D01*
X115643408Y-99207928D01*
X115539657Y-99138603D01*
X115539647Y-99138598D01*
X115458421Y-99104953D01*
X115404018Y-99061112D01*
X115381953Y-98994818D01*
X115399232Y-98927118D01*
X115418193Y-98902711D01*
X115812068Y-98508836D01*
X115812071Y-98508833D01*
X115881400Y-98405075D01*
X115881403Y-98405068D01*
X115894891Y-98372506D01*
X115894891Y-98372505D01*
X115902625Y-98353834D01*
X115929155Y-98289785D01*
X115940876Y-98230851D01*
X115964118Y-98179558D01*
X115981524Y-98156876D01*
X115981892Y-98155989D01*
X116014502Y-98077259D01*
X116042838Y-98008850D01*
X116058500Y-97889885D01*
X116058499Y-97610116D01*
X116042838Y-97491150D01*
X115981524Y-97343124D01*
X115883987Y-97216013D01*
X115756876Y-97118476D01*
X115756872Y-97118474D01*
X115608853Y-97057163D01*
X115608851Y-97057162D01*
X115608850Y-97057162D01*
X115489885Y-97041500D01*
X115150113Y-97041500D01*
X115023092Y-97058222D01*
X115022919Y-97056911D01*
X114977079Y-97056911D01*
X114976906Y-97058223D01*
X114968851Y-97057162D01*
X114968850Y-97057162D01*
X114849885Y-97041500D01*
X114510113Y-97041500D01*
X114391157Y-97057160D01*
X114391146Y-97057163D01*
X114243126Y-97118474D01*
X114116005Y-97216019D01*
X114050835Y-97241213D01*
X113982391Y-97227175D01*
X113965031Y-97216018D01*
X113847590Y-97125901D01*
X113847587Y-97125900D01*
X113701634Y-97065445D01*
X113701630Y-97065444D01*
X113584330Y-97050000D01*
X113532500Y-97050000D01*
X113465461Y-97030315D01*
X113419706Y-96977511D01*
X113408500Y-96926000D01*
X113408500Y-95823999D01*
X113428185Y-95756960D01*
X113480989Y-95711205D01*
X113532500Y-95699999D01*
X113554324Y-95699999D01*
X113671628Y-95684557D01*
X113671633Y-95684555D01*
X113817587Y-95624100D01*
X113817590Y-95624098D01*
X113902531Y-95558920D01*
X113967700Y-95533725D01*
X114036145Y-95547763D01*
X114053502Y-95558917D01*
X114148124Y-95631524D01*
X114296150Y-95692838D01*
X114415115Y-95708500D01*
X114754884Y-95708499D01*
X114754885Y-95708499D01*
X114784625Y-95704583D01*
X114873850Y-95692838D01*
X114873875Y-95692827D01*
X114873901Y-95692824D01*
X114881707Y-95690733D01*
X114881982Y-95691759D01*
X114937526Y-95684444D01*
X115025000Y-95695960D01*
X115025000Y-95690276D01*
X115044685Y-95623237D01*
X115073513Y-95591901D01*
X115116495Y-95558919D01*
X115148987Y-95533987D01*
X115202625Y-95464084D01*
X115259052Y-95422884D01*
X115328798Y-95418729D01*
X115389719Y-95452942D01*
X115422471Y-95514659D01*
X115425000Y-95539573D01*
X115425000Y-95695959D01*
X115425001Y-95695960D01*
X115511627Y-95684557D01*
X115511633Y-95684555D01*
X115657585Y-95624100D01*
X115782924Y-95527924D01*
X115879100Y-95402586D01*
X115939555Y-95256631D01*
X115947012Y-95200000D01*
X115447500Y-95200000D01*
X115380461Y-95180315D01*
X115334706Y-95127511D01*
X115323500Y-95076001D01*
X115323499Y-94924001D01*
X115343183Y-94856961D01*
X115395987Y-94811206D01*
X115447499Y-94800000D01*
X115947010Y-94800000D01*
X115947011Y-94799998D01*
X115939557Y-94743372D01*
X115939555Y-94743366D01*
X115879100Y-94597414D01*
X115782924Y-94472075D01*
X115657586Y-94375899D01*
X115511631Y-94315444D01*
X115425000Y-94304038D01*
X115425000Y-94460426D01*
X115405315Y-94527465D01*
X115352511Y-94573220D01*
X115283353Y-94583164D01*
X115219797Y-94554139D01*
X115202625Y-94535913D01*
X115148987Y-94466012D01*
X115073513Y-94408098D01*
X115032310Y-94351670D01*
X115025000Y-94309723D01*
X115025000Y-94304038D01*
X115024999Y-94304038D01*
X114937524Y-94315555D01*
X114881975Y-94308242D01*
X114881701Y-94309266D01*
X114873927Y-94307183D01*
X114873889Y-94307178D01*
X114873853Y-94307163D01*
X114873851Y-94307162D01*
X114873850Y-94307162D01*
X114816791Y-94299650D01*
X114752895Y-94271383D01*
X114745296Y-94264392D01*
X114463836Y-93982931D01*
X114463832Y-93982928D01*
X114360081Y-93913603D01*
X114360072Y-93913598D01*
X114244785Y-93865845D01*
X114244777Y-93865843D01*
X114122398Y-93841500D01*
X114122394Y-93841500D01*
X113132395Y-93841500D01*
X113007607Y-93841500D01*
X113007500Y-93841500D01*
X112940461Y-93821815D01*
X112894706Y-93769011D01*
X112883500Y-93717500D01*
X112883500Y-92432500D01*
X112903185Y-92365461D01*
X112955989Y-92319706D01*
X113007500Y-92308500D01*
X113398638Y-92308500D01*
X113398654Y-92308499D01*
X113425692Y-92305591D01*
X113459201Y-92301989D01*
X113463687Y-92300316D01*
X113481703Y-92293596D01*
X113596204Y-92250889D01*
X113713261Y-92163261D01*
X113800889Y-92046204D01*
X113851989Y-91909201D01*
X113855591Y-91875692D01*
X113858499Y-91848654D01*
X113858500Y-91848637D01*
X113858500Y-90151362D01*
X113858499Y-90151345D01*
X113855157Y-90120270D01*
X113851989Y-90090799D01*
X113800889Y-89953796D01*
X113713261Y-89836739D01*
X113596204Y-89749111D01*
X113459203Y-89698011D01*
X113398654Y-89691500D01*
X113398638Y-89691500D01*
X111101362Y-89691500D01*
X111101345Y-89691500D01*
X111040797Y-89698011D01*
X111040795Y-89698011D01*
X110903793Y-89749111D01*
X110903792Y-89749112D01*
X110817218Y-89813921D01*
X110751753Y-89838338D01*
X110683481Y-89823486D01*
X110668597Y-89813921D01*
X110592088Y-89756646D01*
X110592086Y-89756645D01*
X110457379Y-89706403D01*
X110457372Y-89706401D01*
X110397844Y-89700000D01*
X109500000Y-89700000D01*
X109500000Y-92300000D01*
X110397828Y-92300000D01*
X110397844Y-92299999D01*
X110457372Y-92293598D01*
X110457379Y-92293596D01*
X110592086Y-92243354D01*
X110592089Y-92243352D01*
X110668596Y-92186079D01*
X110734060Y-92161661D01*
X110802333Y-92176512D01*
X110817218Y-92186077D01*
X110903796Y-92250889D01*
X111018297Y-92293596D01*
X111036313Y-92300316D01*
X111040799Y-92301989D01*
X111068050Y-92304918D01*
X111101345Y-92308499D01*
X111101362Y-92308500D01*
X111492500Y-92308500D01*
X111559539Y-92328185D01*
X111605294Y-92380989D01*
X111616500Y-92432500D01*
X111616500Y-93095741D01*
X111596815Y-93162780D01*
X111548366Y-93204761D01*
X111548871Y-93205636D01*
X111544333Y-93208255D01*
X111544011Y-93208535D01*
X111543267Y-93208871D01*
X111543248Y-93208881D01*
X111388745Y-93321135D01*
X111260959Y-93463057D01*
X111165473Y-93628443D01*
X111165470Y-93628450D01*
X111116500Y-93779166D01*
X111106458Y-93810072D01*
X111086496Y-94000000D01*
X111106458Y-94189928D01*
X111106459Y-94189931D01*
X111165470Y-94371549D01*
X111165473Y-94371556D01*
X111260960Y-94536944D01*
X111388747Y-94678866D01*
X111543248Y-94791118D01*
X111697039Y-94859590D01*
X111734284Y-94885188D01*
X111979392Y-95130296D01*
X112012877Y-95191619D01*
X112014650Y-95201791D01*
X112022162Y-95258851D01*
X112083473Y-95406871D01*
X112083474Y-95406872D01*
X112083476Y-95406876D01*
X112115876Y-95449099D01*
X112141070Y-95514266D01*
X112141500Y-95524585D01*
X112141500Y-97264509D01*
X112121815Y-97331548D01*
X112115879Y-97339991D01*
X112113476Y-97343121D01*
X112113475Y-97343123D01*
X112052163Y-97491146D01*
X112052161Y-97491151D01*
X112036500Y-97610114D01*
X112036500Y-97889886D01*
X112052160Y-98008842D01*
X112052163Y-98008853D01*
X112113474Y-98156874D01*
X112113476Y-98156877D01*
X112211014Y-98283988D01*
X112246583Y-98311282D01*
X112274196Y-98340763D01*
X112282929Y-98353832D01*
X112607930Y-98678833D01*
X112657282Y-98728185D01*
X112696169Y-98767072D01*
X112799919Y-98836396D01*
X112799925Y-98836399D01*
X112799926Y-98836400D01*
X112915216Y-98884155D01*
X113008504Y-98902711D01*
X113037602Y-98908499D01*
X113037606Y-98908500D01*
X113037607Y-98908500D01*
X113321234Y-98908500D01*
X113388273Y-98928185D01*
X113434028Y-98980989D01*
X113443972Y-99050147D01*
X113414947Y-99113703D01*
X113408915Y-99120181D01*
X113048913Y-99480181D01*
X112987590Y-99513666D01*
X112961232Y-99516500D01*
X112625295Y-99516500D01*
X112625278Y-99516501D01*
X112523117Y-99526938D01*
X112357582Y-99581790D01*
X112357571Y-99581795D01*
X112209157Y-99673339D01*
X112209153Y-99673342D01*
X112085843Y-99796652D01*
X112069797Y-99822667D01*
X112017848Y-99869390D01*
X111948885Y-99880611D01*
X111884803Y-99852767D01*
X111876578Y-99845249D01*
X111064447Y-99033118D01*
X111030962Y-98971795D01*
X111035946Y-98902103D01*
X111051806Y-98872557D01*
X111178999Y-98697492D01*
X111277506Y-98504160D01*
X111344557Y-98297800D01*
X111363285Y-98179555D01*
X111378500Y-98083495D01*
X111378500Y-97416504D01*
X111350736Y-97241213D01*
X111344557Y-97202200D01*
X111277506Y-96995840D01*
X111178999Y-96802508D01*
X111051461Y-96626967D01*
X110898033Y-96473539D01*
X110722492Y-96346001D01*
X110529160Y-96247494D01*
X110322800Y-96180443D01*
X110322798Y-96180442D01*
X110322796Y-96180442D01*
X110108495Y-96146500D01*
X110108490Y-96146500D01*
X109891510Y-96146500D01*
X109891505Y-96146500D01*
X109677203Y-96180442D01*
X109470837Y-96247495D01*
X109277507Y-96346001D01*
X109101968Y-96473538D01*
X108967366Y-96608140D01*
X108906043Y-96641624D01*
X108836351Y-96636640D01*
X108780418Y-96594768D01*
X108774147Y-96585555D01*
X108679032Y-96431351D01*
X108679029Y-96431347D01*
X108553653Y-96305971D01*
X108553652Y-96305970D01*
X108402738Y-96212885D01*
X108304830Y-96180442D01*
X108234427Y-96157113D01*
X108130545Y-96146500D01*
X106789462Y-96146500D01*
X106789446Y-96146501D01*
X106685572Y-96157113D01*
X106517264Y-96212884D01*
X106517255Y-96212888D01*
X106385096Y-96294405D01*
X106317704Y-96312845D01*
X106251041Y-96291922D01*
X106206271Y-96238280D01*
X106196000Y-96188866D01*
X106196000Y-93375105D01*
X106195999Y-93375101D01*
X106171657Y-93252722D01*
X106171654Y-93252713D01*
X106145098Y-93188600D01*
X106134403Y-93162780D01*
X106123901Y-93137425D01*
X106123899Y-93137423D01*
X106123899Y-93137421D01*
X106054572Y-93033667D01*
X106054569Y-93033663D01*
X105532586Y-92511681D01*
X105499101Y-92450358D01*
X105504085Y-92380667D01*
X105545956Y-92324733D01*
X105611421Y-92300316D01*
X105620267Y-92300000D01*
X105875000Y-92300000D01*
X106375000Y-92300000D01*
X107272828Y-92300000D01*
X107272844Y-92299999D01*
X107332372Y-92293598D01*
X107332379Y-92293596D01*
X107467086Y-92243354D01*
X107467093Y-92243350D01*
X107582187Y-92157190D01*
X107582188Y-92157189D01*
X107588233Y-92149115D01*
X107644166Y-92107243D01*
X107713858Y-92102259D01*
X107775181Y-92135743D01*
X107786767Y-92149115D01*
X107792811Y-92157189D01*
X107792812Y-92157190D01*
X107907906Y-92243350D01*
X107907913Y-92243354D01*
X108042620Y-92293596D01*
X108042627Y-92293598D01*
X108102155Y-92299999D01*
X108102172Y-92300000D01*
X109000000Y-92300000D01*
X109000000Y-91250000D01*
X106375000Y-91250000D01*
X106375000Y-92300000D01*
X105875000Y-92300000D01*
X105875000Y-90750000D01*
X106375000Y-90750000D01*
X109000000Y-90750000D01*
X109000000Y-89700000D01*
X108102155Y-89700000D01*
X108042627Y-89706401D01*
X108042620Y-89706403D01*
X107907913Y-89756645D01*
X107907906Y-89756649D01*
X107792812Y-89842809D01*
X107792810Y-89842811D01*
X107786765Y-89850887D01*
X107730830Y-89892757D01*
X107661139Y-89897740D01*
X107599816Y-89864253D01*
X107588235Y-89850887D01*
X107582189Y-89842811D01*
X107582187Y-89842809D01*
X107467093Y-89756649D01*
X107467086Y-89756645D01*
X107332379Y-89706403D01*
X107332372Y-89706401D01*
X107272844Y-89700000D01*
X106375000Y-89700000D01*
X106375000Y-90750000D01*
X105875000Y-90750000D01*
X105875000Y-89700000D01*
X104977155Y-89700000D01*
X104917627Y-89706401D01*
X104917620Y-89706403D01*
X104782913Y-89756645D01*
X104782907Y-89756649D01*
X104706401Y-89813921D01*
X104640937Y-89838338D01*
X104572664Y-89823486D01*
X104557781Y-89813921D01*
X104471206Y-89749112D01*
X104471206Y-89749111D01*
X104334203Y-89698011D01*
X104273654Y-89691500D01*
X104273638Y-89691500D01*
X101976362Y-89691500D01*
X101976345Y-89691500D01*
X101915797Y-89698011D01*
X101915795Y-89698011D01*
X101778795Y-89749111D01*
X101661739Y-89836739D01*
X101574111Y-89953795D01*
X101523011Y-90090795D01*
X101523011Y-90090797D01*
X101516500Y-90151345D01*
X101516500Y-91848654D01*
X101523011Y-91909202D01*
X101523011Y-91909204D01*
X101574111Y-92046204D01*
X101661739Y-92163261D01*
X101778796Y-92250889D01*
X101893297Y-92293596D01*
X101911313Y-92300316D01*
X101915799Y-92301989D01*
X101943050Y-92304918D01*
X101976345Y-92308499D01*
X101976362Y-92308500D01*
X103486234Y-92308500D01*
X103553273Y-92328185D01*
X103573915Y-92344819D01*
X104892681Y-93663585D01*
X104926166Y-93724908D01*
X104929000Y-93751266D01*
X104929000Y-95245325D01*
X104909315Y-95312364D01*
X104856511Y-95358119D01*
X104787353Y-95368063D01*
X104723797Y-95339038D01*
X104717319Y-95333006D01*
X103817244Y-94432931D01*
X103817240Y-94432928D01*
X103713489Y-94363603D01*
X103713480Y-94363598D01*
X103598193Y-94315845D01*
X103598185Y-94315843D01*
X103475806Y-94291500D01*
X103475802Y-94291500D01*
X101774198Y-94291500D01*
X101774194Y-94291500D01*
X101651811Y-94315843D01*
X101651806Y-94315845D01*
X101618040Y-94329829D01*
X101618041Y-94329830D01*
X101536518Y-94363598D01*
X101536514Y-94363600D01*
X101432763Y-94432924D01*
X101432755Y-94432930D01*
X100789687Y-95076001D01*
X100708667Y-95157021D01*
X100685373Y-95180315D01*
X100620427Y-95245260D01*
X100551103Y-95349010D01*
X100551098Y-95349019D01*
X100503345Y-95464306D01*
X100503343Y-95464314D01*
X100479000Y-95586693D01*
X100479000Y-98259897D01*
X100503343Y-98382276D01*
X100503345Y-98382284D01*
X100551098Y-98497571D01*
X100551103Y-98497580D01*
X100620428Y-98601331D01*
X100620431Y-98601335D01*
X102687930Y-100668833D01*
X102698487Y-100679390D01*
X102731972Y-100740713D01*
X102726988Y-100810405D01*
X102723533Y-100817638D01*
X102723767Y-100817739D01*
X102720667Y-100824901D01*
X102717126Y-100837093D01*
X102679520Y-100895979D01*
X102616048Y-100925187D01*
X102598049Y-100926500D01*
X99485329Y-100926500D01*
X99418290Y-100906815D01*
X99374845Y-100858795D01*
X99363999Y-100837508D01*
X99236461Y-100661967D01*
X99101860Y-100527366D01*
X99068375Y-100466043D01*
X99073359Y-100396351D01*
X99115231Y-100340418D01*
X99124444Y-100334146D01*
X99127735Y-100332115D01*
X99127738Y-100332115D01*
X99278652Y-100239030D01*
X99404030Y-100113652D01*
X99497115Y-99962738D01*
X99552887Y-99794426D01*
X99563500Y-99690545D01*
X99563499Y-98349456D01*
X99552887Y-98245574D01*
X99497115Y-98077262D01*
X99404030Y-97926348D01*
X99278652Y-97800970D01*
X99127738Y-97707885D01*
X99127735Y-97707884D01*
X98959427Y-97652113D01*
X98855545Y-97641500D01*
X97064462Y-97641500D01*
X97064446Y-97641501D01*
X96960572Y-97652113D01*
X96792264Y-97707884D01*
X96792259Y-97707886D01*
X96641346Y-97800971D01*
X96515971Y-97926346D01*
X96422886Y-98077259D01*
X96422884Y-98077264D01*
X96367113Y-98245572D01*
X96356500Y-98349447D01*
X96356500Y-99690537D01*
X96356501Y-99690553D01*
X96367113Y-99794427D01*
X96391953Y-99869390D01*
X96422885Y-99962738D01*
X96502395Y-100091644D01*
X96515971Y-100113653D01*
X96641347Y-100239029D01*
X96641351Y-100239032D01*
X96795555Y-100334147D01*
X96842280Y-100386095D01*
X96853501Y-100455057D01*
X96825658Y-100519139D01*
X96818140Y-100527366D01*
X96683538Y-100661968D01*
X96556001Y-100837507D01*
X96457495Y-101030837D01*
X96390442Y-101237203D01*
X96356500Y-101451504D01*
X96356500Y-101668495D01*
X96390442Y-101882796D01*
X96390443Y-101882800D01*
X96447823Y-102059397D01*
X96457495Y-102089162D01*
X96490446Y-102153833D01*
X96556001Y-102282492D01*
X96683539Y-102458033D01*
X96836967Y-102611461D01*
X96970240Y-102708289D01*
X96999684Y-102729682D01*
X97042349Y-102785012D01*
X97048328Y-102854626D01*
X97015722Y-102916421D01*
X96999684Y-102930318D01*
X96976620Y-102947075D01*
X96836967Y-103048539D01*
X96836965Y-103048541D01*
X96836964Y-103048541D01*
X96683541Y-103201964D01*
X96683541Y-103201965D01*
X96683539Y-103201967D01*
X96648641Y-103250000D01*
X96556001Y-103377507D01*
X96457495Y-103570837D01*
X96390442Y-103777203D01*
X96356500Y-103991504D01*
X96356500Y-104208495D01*
X96379128Y-104351362D01*
X96390443Y-104422800D01*
X96457494Y-104629160D01*
X96556001Y-104822492D01*
X96683539Y-104998033D01*
X96836967Y-105151461D01*
X97012508Y-105278999D01*
X97205840Y-105377506D01*
X97412200Y-105444557D01*
X97412203Y-105444557D01*
X97412204Y-105444558D01*
X97581897Y-105471434D01*
X97645032Y-105501363D01*
X97681964Y-105560674D01*
X97686500Y-105593907D01*
X97686500Y-106598207D01*
X97666815Y-106665246D01*
X97665602Y-106667098D01*
X97613603Y-106744918D01*
X97613598Y-106744927D01*
X97565845Y-106860214D01*
X97565843Y-106860222D01*
X97547947Y-106950191D01*
X97515562Y-107012102D01*
X97454846Y-107046676D01*
X97426332Y-107050000D01*
X97365676Y-107050000D01*
X97248371Y-107065442D01*
X97248366Y-107065444D01*
X97102414Y-107125899D01*
X96977075Y-107222075D01*
X96880899Y-107347413D01*
X96820444Y-107493368D01*
X96812987Y-107550000D01*
X97312500Y-107550000D01*
X97379539Y-107569685D01*
X97425294Y-107622489D01*
X97436500Y-107673999D01*
X97436501Y-107825999D01*
X97416817Y-107893039D01*
X97364013Y-107938794D01*
X97312501Y-107950000D01*
X96812990Y-107950000D01*
X96812988Y-107950001D01*
X96820442Y-108006627D01*
X96820444Y-108006633D01*
X96880899Y-108152585D01*
X96977075Y-108277924D01*
X97102413Y-108374100D01*
X97248365Y-108434554D01*
X97248369Y-108434555D01*
X97335000Y-108445961D01*
X97335000Y-108289573D01*
X97354685Y-108222534D01*
X97407489Y-108176779D01*
X97476647Y-108166835D01*
X97540203Y-108195860D01*
X97557372Y-108214082D01*
X97563858Y-108222534D01*
X97611013Y-108283987D01*
X97686487Y-108341901D01*
X97727689Y-108398329D01*
X97735000Y-108440276D01*
X97735000Y-108445959D01*
X97822474Y-108434444D01*
X97878021Y-108441758D01*
X97878296Y-108440734D01*
X97886077Y-108442818D01*
X97886116Y-108442824D01*
X97886150Y-108442838D01*
X98005115Y-108458500D01*
X98344884Y-108458499D01*
X98344886Y-108458499D01*
X98463842Y-108442839D01*
X98463841Y-108442839D01*
X98463850Y-108442838D01*
X98611876Y-108381524D01*
X98738987Y-108283987D01*
X98836524Y-108156876D01*
X98877939Y-108056891D01*
X98921780Y-108002487D01*
X98988074Y-107980422D01*
X99055773Y-107997701D01*
X99103384Y-108048838D01*
X99116500Y-108104343D01*
X99116500Y-110474669D01*
X99096815Y-110541708D01*
X99048798Y-110585152D01*
X99027510Y-110595999D01*
X98851968Y-110723538D01*
X98717366Y-110858140D01*
X98656043Y-110891624D01*
X98586351Y-110886640D01*
X98530418Y-110844768D01*
X98524147Y-110835555D01*
X98429032Y-110681351D01*
X98429029Y-110681347D01*
X98303653Y-110555971D01*
X98303652Y-110555970D01*
X98152738Y-110462885D01*
X98054830Y-110430442D01*
X97984427Y-110407113D01*
X97880545Y-110396500D01*
X96539462Y-110396500D01*
X96539446Y-110396501D01*
X96435572Y-110407113D01*
X96267264Y-110462884D01*
X96267259Y-110462886D01*
X96116346Y-110555971D01*
X95990971Y-110681346D01*
X95897886Y-110832259D01*
X95897884Y-110832264D01*
X95842113Y-111000572D01*
X95831500Y-111104447D01*
X94000000Y-111104447D01*
X94000000Y-91878711D01*
X96149500Y-91878711D01*
X96149500Y-92121288D01*
X96181161Y-92361785D01*
X96243947Y-92596104D01*
X96336773Y-92820205D01*
X96336776Y-92820212D01*
X96458064Y-93030289D01*
X96458066Y-93030292D01*
X96458067Y-93030293D01*
X96605733Y-93222736D01*
X96605739Y-93222743D01*
X96777256Y-93394260D01*
X96777262Y-93394265D01*
X96969711Y-93541936D01*
X97179788Y-93663224D01*
X97403900Y-93756054D01*
X97638211Y-93818838D01*
X97810349Y-93841500D01*
X97878711Y-93850500D01*
X97878712Y-93850500D01*
X98121289Y-93850500D01*
X98189651Y-93841500D01*
X98361789Y-93818838D01*
X98596100Y-93756054D01*
X98820212Y-93663224D01*
X99030289Y-93541936D01*
X99222738Y-93394265D01*
X99394265Y-93222738D01*
X99541936Y-93030289D01*
X99663224Y-92820212D01*
X99756054Y-92596100D01*
X99818838Y-92361789D01*
X99850500Y-92121288D01*
X99850500Y-91878712D01*
X99818838Y-91638211D01*
X99756054Y-91403900D01*
X99663224Y-91179788D01*
X99541936Y-90969711D01*
X99418559Y-90808922D01*
X99394266Y-90777263D01*
X99394260Y-90777256D01*
X99222743Y-90605739D01*
X99222736Y-90605733D01*
X99030293Y-90458067D01*
X99030292Y-90458066D01*
X99030289Y-90458064D01*
X98820212Y-90336776D01*
X98820205Y-90336773D01*
X98596104Y-90243947D01*
X98361785Y-90181161D01*
X98121289Y-90149500D01*
X98121288Y-90149500D01*
X97878712Y-90149500D01*
X97878711Y-90149500D01*
X97638214Y-90181161D01*
X97403895Y-90243947D01*
X97179794Y-90336773D01*
X97179785Y-90336777D01*
X96969706Y-90458067D01*
X96777263Y-90605733D01*
X96777256Y-90605739D01*
X96605739Y-90777256D01*
X96605733Y-90777263D01*
X96458067Y-90969706D01*
X96336777Y-91179785D01*
X96336773Y-91179794D01*
X96243947Y-91403895D01*
X96181161Y-91638214D01*
X96149500Y-91878711D01*
X94000000Y-91878711D01*
X94000000Y-91000787D01*
X94000009Y-90999267D01*
X94000372Y-90969706D01*
X94002343Y-90808922D01*
X94002930Y-90798320D01*
X94040312Y-90418772D01*
X94042097Y-90406744D01*
X94056015Y-90336777D01*
X94116346Y-90033468D01*
X94119301Y-90021670D01*
X94167054Y-89864253D01*
X94229787Y-89657447D01*
X94233885Y-89645997D01*
X94379532Y-89294372D01*
X94384730Y-89283380D01*
X94564152Y-88947708D01*
X94570390Y-88937300D01*
X94781852Y-88620825D01*
X94789091Y-88611064D01*
X95030555Y-88316838D01*
X95038707Y-88307844D01*
X95307844Y-88038707D01*
X95316838Y-88030555D01*
X95611064Y-87789091D01*
X95620825Y-87781852D01*
X95937300Y-87570390D01*
X95947708Y-87564152D01*
X96283380Y-87384730D01*
X96294363Y-87379535D01*
X96646004Y-87233882D01*
X96657447Y-87229787D01*
X97021677Y-87119299D01*
X97033468Y-87116346D01*
X97406753Y-87042095D01*
X97418772Y-87040312D01*
X97798320Y-87002930D01*
X97808922Y-87002343D01*
X97996784Y-87000039D01*
X97999267Y-87000009D01*
X98000787Y-87000000D01*
X113999213Y-87000000D01*
X114000733Y-87000008D01*
G37*
%TD.AperFunction*%
%TD*%
M02*
