%TF.GenerationSoftware,KiCad,Pcbnew,8.0.5*%
%TF.CreationDate,2025-10-04T21:28:32-05:00*%
%TF.ProjectId,horn,686f726e-2e6b-4696-9361-645f70636258,0.0*%
%TF.SameCoordinates,Original*%
%TF.FileFunction,Copper,L2,Bot*%
%TF.FilePolarity,Positive*%
%FSLAX46Y46*%
G04 Gerber Fmt 4.6, Leading zero omitted, Abs format (unit mm)*
G04 Created by KiCad (PCBNEW 8.0.5) date 2025-10-04 21:28:32*
%MOMM*%
%LPD*%
G01*
G04 APERTURE LIST*
G04 Aperture macros list*
%AMRoundRect*
0 Rectangle with rounded corners*
0 $1 Rounding radius*
0 $2 $3 $4 $5 $6 $7 $8 $9 X,Y pos of 4 corners*
0 Add a 4 corners polygon primitive as box body*
4,1,4,$2,$3,$4,$5,$6,$7,$8,$9,$2,$3,0*
0 Add four circle primitives for the rounded corners*
1,1,$1+$1,$2,$3*
1,1,$1+$1,$4,$5*
1,1,$1+$1,$6,$7*
1,1,$1+$1,$8,$9*
0 Add four rect primitives between the rounded corners*
20,1,$1+$1,$2,$3,$4,$5,0*
20,1,$1+$1,$4,$5,$6,$7,0*
20,1,$1+$1,$6,$7,$8,$9,0*
20,1,$1+$1,$8,$9,$2,$3,0*%
G04 Aperture macros list end*
%TA.AperFunction,ComponentPad*%
%ADD10RoundRect,0.250000X-0.845000X0.620000X-0.845000X-0.620000X0.845000X-0.620000X0.845000X0.620000X0*%
%TD*%
%TA.AperFunction,ComponentPad*%
%ADD11O,2.190000X1.740000*%
%TD*%
%TA.AperFunction,ComponentPad*%
%ADD12RoundRect,0.250000X-0.620000X-0.845000X0.620000X-0.845000X0.620000X0.845000X-0.620000X0.845000X0*%
%TD*%
%TA.AperFunction,ComponentPad*%
%ADD13O,1.740000X2.190000*%
%TD*%
%TA.AperFunction,ComponentPad*%
%ADD14O,2.200000X2.200000*%
%TD*%
%TA.AperFunction,ComponentPad*%
%ADD15R,2.200000X2.200000*%
%TD*%
%TA.AperFunction,ViaPad*%
%ADD16C,0.800000*%
%TD*%
G04 APERTURE END LIST*
D10*
%TO.P,J5,1,Pin_1*%
%TO.N,GND*%
X97960000Y-99020000D03*
D11*
%TO.P,J5,2,Pin_2*%
%TO.N,Net-(J2-Pin_2)*%
X97960000Y-101560000D03*
%TO.P,J5,3,Pin_3*%
%TO.N,GND*%
X97960000Y-104100000D03*
%TD*%
D12*
%TO.P,J3,1,Pin_1*%
%TO.N,Net-(J2-Pin_1)*%
X104960000Y-112000000D03*
D13*
%TO.P,J3,2,Pin_2*%
%TO.N,Net-(D1-K)*%
X107500000Y-112000000D03*
%TD*%
D14*
%TO.P,D1,2,A*%
%TO.N,+24V*%
X103090000Y-105500000D03*
D15*
%TO.P,D1,1,K*%
%TO.N,Net-(D1-K)*%
X113250000Y-105500000D03*
%TD*%
D12*
%TO.P,J1,1,Pin_1*%
%TO.N,GND*%
X107460000Y-97750000D03*
D13*
%TO.P,J1,2,Pin_2*%
%TO.N,/Control*%
X110000000Y-97750000D03*
%TD*%
D12*
%TO.P,J2,1,Pin_1*%
%TO.N,Net-(J2-Pin_1)*%
X97210000Y-112000000D03*
D13*
%TO.P,J2,2,Pin_2*%
%TO.N,Net-(J2-Pin_2)*%
X99750000Y-112000000D03*
%TD*%
D16*
%TO.N,GND*%
X112000000Y-94000000D03*
X105700000Y-103300000D03*
%TD*%
%TA.AperFunction,Conductor*%
%TO.N,GND*%
G36*
X114000733Y-87000008D02*
G01*
X114191077Y-87002343D01*
X114201681Y-87002930D01*
X114581224Y-87040312D01*
X114593249Y-87042096D01*
X114966527Y-87116345D01*
X114978329Y-87119301D01*
X115342544Y-87229785D01*
X115354002Y-87233885D01*
X115705627Y-87379532D01*
X115716626Y-87384734D01*
X116052282Y-87564147D01*
X116062713Y-87570399D01*
X116379169Y-87781849D01*
X116388942Y-87789097D01*
X116683148Y-88030544D01*
X116692165Y-88038717D01*
X116961282Y-88307834D01*
X116969455Y-88316851D01*
X117210902Y-88611057D01*
X117218150Y-88620830D01*
X117429600Y-88937286D01*
X117435856Y-88947724D01*
X117615264Y-89283372D01*
X117620467Y-89294372D01*
X117766114Y-89645997D01*
X117770214Y-89657455D01*
X117880698Y-90021670D01*
X117883654Y-90033474D01*
X117957902Y-90406744D01*
X117959688Y-90418781D01*
X117997068Y-90798304D01*
X117997656Y-90808937D01*
X117999991Y-90999266D01*
X118000000Y-91000787D01*
X118000000Y-112999212D01*
X117999991Y-113000733D01*
X117997656Y-113191062D01*
X117997068Y-113201695D01*
X117959688Y-113581218D01*
X117957902Y-113593255D01*
X117883654Y-113966525D01*
X117880698Y-113978329D01*
X117770214Y-114342544D01*
X117766114Y-114354002D01*
X117620467Y-114705627D01*
X117615264Y-114716627D01*
X117435856Y-115052275D01*
X117429600Y-115062713D01*
X117218150Y-115379169D01*
X117210902Y-115388942D01*
X116969455Y-115683148D01*
X116961282Y-115692165D01*
X116692165Y-115961282D01*
X116683148Y-115969455D01*
X116388942Y-116210902D01*
X116379169Y-116218150D01*
X116062713Y-116429600D01*
X116052275Y-116435856D01*
X115716627Y-116615264D01*
X115705627Y-116620467D01*
X115354002Y-116766114D01*
X115342544Y-116770214D01*
X114978329Y-116880698D01*
X114966525Y-116883654D01*
X114593255Y-116957902D01*
X114581218Y-116959688D01*
X114201695Y-116997068D01*
X114191062Y-116997656D01*
X114000734Y-116999991D01*
X113999213Y-117000000D01*
X98000787Y-117000000D01*
X97999266Y-116999991D01*
X97808937Y-116997656D01*
X97798304Y-116997068D01*
X97418781Y-116959688D01*
X97406744Y-116957902D01*
X97033474Y-116883654D01*
X97021670Y-116880698D01*
X96657455Y-116770214D01*
X96645997Y-116766114D01*
X96294372Y-116620467D01*
X96283372Y-116615264D01*
X95947724Y-116435856D01*
X95937286Y-116429600D01*
X95620830Y-116218150D01*
X95611057Y-116210902D01*
X95316851Y-115969455D01*
X95307834Y-115961282D01*
X95038717Y-115692165D01*
X95030544Y-115683148D01*
X94789097Y-115388942D01*
X94781849Y-115379169D01*
X94570399Y-115062713D01*
X94564143Y-115052275D01*
X94384735Y-114716627D01*
X94379532Y-114705627D01*
X94233885Y-114354002D01*
X94229785Y-114342544D01*
X94193444Y-114222743D01*
X94119300Y-113978327D01*
X94116345Y-113966525D01*
X94044135Y-113603499D01*
X94042096Y-113593249D01*
X94040311Y-113581218D01*
X94002930Y-113201681D01*
X94002343Y-113191075D01*
X94000009Y-113000732D01*
X94000000Y-112999212D01*
X94000000Y-111104447D01*
X95831500Y-111104447D01*
X95831500Y-112895537D01*
X95831501Y-112895553D01*
X95842113Y-112999427D01*
X95889310Y-113141860D01*
X95897885Y-113167738D01*
X95990970Y-113318652D01*
X96116348Y-113444030D01*
X96267262Y-113537115D01*
X96435574Y-113592887D01*
X96539455Y-113603500D01*
X97880544Y-113603499D01*
X97984426Y-113592887D01*
X98152738Y-113537115D01*
X98303652Y-113444030D01*
X98429030Y-113318652D01*
X98522115Y-113167738D01*
X98522115Y-113167735D01*
X98524146Y-113164444D01*
X98576094Y-113117720D01*
X98645057Y-113106497D01*
X98709139Y-113134341D01*
X98717366Y-113141860D01*
X98851967Y-113276461D01*
X99027508Y-113403999D01*
X99220840Y-113502506D01*
X99427200Y-113569557D01*
X99507566Y-113582285D01*
X99641505Y-113603500D01*
X99641510Y-113603500D01*
X99858495Y-113603500D01*
X99977551Y-113584642D01*
X100072800Y-113569557D01*
X100279160Y-113502506D01*
X100472492Y-113403999D01*
X100648033Y-113276461D01*
X100801461Y-113123033D01*
X100928999Y-112947492D01*
X101027506Y-112754160D01*
X101094557Y-112547800D01*
X101109642Y-112452551D01*
X101128500Y-112333495D01*
X101128500Y-111666504D01*
X101095486Y-111458067D01*
X101094557Y-111452200D01*
X101027506Y-111245840D01*
X100955463Y-111104447D01*
X103581500Y-111104447D01*
X103581500Y-112895537D01*
X103581501Y-112895553D01*
X103592113Y-112999427D01*
X103639310Y-113141860D01*
X103647885Y-113167738D01*
X103740970Y-113318652D01*
X103866348Y-113444030D01*
X104017262Y-113537115D01*
X104185574Y-113592887D01*
X104289455Y-113603500D01*
X105630544Y-113603499D01*
X105734426Y-113592887D01*
X105902738Y-113537115D01*
X106053652Y-113444030D01*
X106179030Y-113318652D01*
X106272115Y-113167738D01*
X106272115Y-113167735D01*
X106274146Y-113164444D01*
X106326094Y-113117720D01*
X106395057Y-113106497D01*
X106459139Y-113134341D01*
X106467366Y-113141860D01*
X106601967Y-113276461D01*
X106777508Y-113403999D01*
X106970840Y-113502506D01*
X107177200Y-113569557D01*
X107257566Y-113582285D01*
X107391505Y-113603500D01*
X107391510Y-113603500D01*
X107608495Y-113603500D01*
X107727551Y-113584642D01*
X107822800Y-113569557D01*
X108029160Y-113502506D01*
X108222492Y-113403999D01*
X108398033Y-113276461D01*
X108551461Y-113123033D01*
X108678999Y-112947492D01*
X108714044Y-112878711D01*
X112149500Y-112878711D01*
X112149500Y-113121288D01*
X112181161Y-113361785D01*
X112243947Y-113596104D01*
X112247011Y-113603500D01*
X112336776Y-113820212D01*
X112458064Y-114030289D01*
X112458066Y-114030292D01*
X112458067Y-114030293D01*
X112605733Y-114222736D01*
X112605739Y-114222743D01*
X112777256Y-114394260D01*
X112777262Y-114394265D01*
X112969711Y-114541936D01*
X113179788Y-114663224D01*
X113403900Y-114756054D01*
X113638211Y-114818838D01*
X113818586Y-114842584D01*
X113878711Y-114850500D01*
X113878712Y-114850500D01*
X114121289Y-114850500D01*
X114169388Y-114844167D01*
X114361789Y-114818838D01*
X114596100Y-114756054D01*
X114820212Y-114663224D01*
X115030289Y-114541936D01*
X115222738Y-114394265D01*
X115394265Y-114222738D01*
X115541936Y-114030289D01*
X115663224Y-113820212D01*
X115756054Y-113596100D01*
X115818838Y-113361789D01*
X115850500Y-113121288D01*
X115850500Y-112878712D01*
X115818838Y-112638211D01*
X115756054Y-112403900D01*
X115663224Y-112179788D01*
X115541936Y-111969711D01*
X115394265Y-111777262D01*
X115394260Y-111777256D01*
X115222743Y-111605739D01*
X115222736Y-111605733D01*
X115030293Y-111458067D01*
X115030292Y-111458066D01*
X115030289Y-111458064D01*
X114820212Y-111336776D01*
X114820205Y-111336773D01*
X114596104Y-111243947D01*
X114361785Y-111181161D01*
X114121289Y-111149500D01*
X114121288Y-111149500D01*
X113878712Y-111149500D01*
X113878711Y-111149500D01*
X113638214Y-111181161D01*
X113403895Y-111243947D01*
X113179794Y-111336773D01*
X113179785Y-111336777D01*
X112969706Y-111458067D01*
X112777263Y-111605733D01*
X112777256Y-111605739D01*
X112605739Y-111777256D01*
X112605733Y-111777263D01*
X112458067Y-111969706D01*
X112336777Y-112179785D01*
X112336773Y-112179794D01*
X112243947Y-112403895D01*
X112181161Y-112638214D01*
X112149500Y-112878711D01*
X108714044Y-112878711D01*
X108777506Y-112754160D01*
X108844557Y-112547800D01*
X108859642Y-112452551D01*
X108878500Y-112333495D01*
X108878500Y-111666504D01*
X108845486Y-111458067D01*
X108844557Y-111452200D01*
X108777506Y-111245840D01*
X108678999Y-111052508D01*
X108551461Y-110876967D01*
X108398033Y-110723539D01*
X108222492Y-110596001D01*
X108029160Y-110497494D01*
X107822800Y-110430443D01*
X107822798Y-110430442D01*
X107822796Y-110430442D01*
X107608495Y-110396500D01*
X107608490Y-110396500D01*
X107391510Y-110396500D01*
X107391505Y-110396500D01*
X107177203Y-110430442D01*
X106970837Y-110497495D01*
X106777507Y-110596001D01*
X106601968Y-110723538D01*
X106467366Y-110858140D01*
X106406043Y-110891624D01*
X106336351Y-110886640D01*
X106280418Y-110844768D01*
X106274147Y-110835555D01*
X106179032Y-110681351D01*
X106179029Y-110681347D01*
X106053653Y-110555971D01*
X106053652Y-110555970D01*
X105902738Y-110462885D01*
X105804830Y-110430442D01*
X105734427Y-110407113D01*
X105630545Y-110396500D01*
X104289462Y-110396500D01*
X104289446Y-110396501D01*
X104185572Y-110407113D01*
X104017264Y-110462884D01*
X104017259Y-110462886D01*
X103866346Y-110555971D01*
X103740971Y-110681346D01*
X103647886Y-110832259D01*
X103647884Y-110832264D01*
X103592113Y-111000572D01*
X103581500Y-111104447D01*
X100955463Y-111104447D01*
X100928999Y-111052508D01*
X100801461Y-110876967D01*
X100648033Y-110723539D01*
X100472492Y-110596001D01*
X100279160Y-110497494D01*
X100072800Y-110430443D01*
X100072798Y-110430442D01*
X100072796Y-110430442D01*
X99858495Y-110396500D01*
X99858490Y-110396500D01*
X99641510Y-110396500D01*
X99641505Y-110396500D01*
X99427203Y-110430442D01*
X99220837Y-110497495D01*
X99027507Y-110596001D01*
X98851968Y-110723538D01*
X98717366Y-110858140D01*
X98656043Y-110891624D01*
X98586351Y-110886640D01*
X98530418Y-110844768D01*
X98524147Y-110835555D01*
X98429032Y-110681351D01*
X98429029Y-110681347D01*
X98303653Y-110555971D01*
X98303652Y-110555970D01*
X98152738Y-110462885D01*
X98054830Y-110430442D01*
X97984427Y-110407113D01*
X97880545Y-110396500D01*
X96539462Y-110396500D01*
X96539446Y-110396501D01*
X96435572Y-110407113D01*
X96267264Y-110462884D01*
X96267259Y-110462886D01*
X96116346Y-110555971D01*
X95990971Y-110681346D01*
X95897886Y-110832259D01*
X95897884Y-110832264D01*
X95842113Y-111000572D01*
X95831500Y-111104447D01*
X94000000Y-111104447D01*
X94000000Y-105500000D01*
X101476526Y-105500000D01*
X101496391Y-105752406D01*
X101555495Y-105998593D01*
X101652383Y-106232502D01*
X101784668Y-106448370D01*
X101784669Y-106448372D01*
X101784670Y-106448374D01*
X101784672Y-106448376D01*
X101949102Y-106640898D01*
X102141624Y-106805328D01*
X102141626Y-106805329D01*
X102141627Y-106805330D01*
X102141629Y-106805331D01*
X102357497Y-106937616D01*
X102591406Y-107034504D01*
X102591407Y-107034504D01*
X102591409Y-107034505D01*
X102837597Y-107093609D01*
X103090000Y-107113474D01*
X103342403Y-107093609D01*
X103588591Y-107034505D01*
X103822502Y-106937616D01*
X104038376Y-106805328D01*
X104230898Y-106640898D01*
X104395328Y-106448376D01*
X104527616Y-106232502D01*
X104624505Y-105998591D01*
X104683609Y-105752403D01*
X104703474Y-105500000D01*
X104683609Y-105247597D01*
X104624505Y-105001409D01*
X104527616Y-104767498D01*
X104527616Y-104767497D01*
X104395331Y-104551629D01*
X104395330Y-104551627D01*
X104395329Y-104551626D01*
X104395328Y-104551624D01*
X104230898Y-104359102D01*
X104221816Y-104351345D01*
X111641500Y-104351345D01*
X111641500Y-106648654D01*
X111648011Y-106709202D01*
X111648011Y-106709204D01*
X111683866Y-106805331D01*
X111699111Y-106846204D01*
X111786739Y-106963261D01*
X111903796Y-107050889D01*
X112040799Y-107101989D01*
X112068050Y-107104918D01*
X112101345Y-107108499D01*
X112101362Y-107108500D01*
X114398638Y-107108500D01*
X114398654Y-107108499D01*
X114425692Y-107105591D01*
X114459201Y-107101989D01*
X114596204Y-107050889D01*
X114713261Y-106963261D01*
X114800889Y-106846204D01*
X114851989Y-106709201D01*
X114855591Y-106675692D01*
X114858499Y-106648654D01*
X114858500Y-106648637D01*
X114858500Y-104351362D01*
X114858499Y-104351345D01*
X114855157Y-104320270D01*
X114851989Y-104290799D01*
X114800889Y-104153796D01*
X114713261Y-104036739D01*
X114596204Y-103949111D01*
X114459203Y-103898011D01*
X114398654Y-103891500D01*
X114398638Y-103891500D01*
X112101362Y-103891500D01*
X112101345Y-103891500D01*
X112040797Y-103898011D01*
X112040795Y-103898011D01*
X111903795Y-103949111D01*
X111786739Y-104036739D01*
X111699111Y-104153795D01*
X111648011Y-104290795D01*
X111648011Y-104290797D01*
X111641500Y-104351345D01*
X104221816Y-104351345D01*
X104038376Y-104194672D01*
X104038374Y-104194670D01*
X104038372Y-104194669D01*
X104038370Y-104194668D01*
X103822502Y-104062383D01*
X103588593Y-103965495D01*
X103342406Y-103906391D01*
X103090000Y-103886526D01*
X102837593Y-103906391D01*
X102591406Y-103965495D01*
X102357497Y-104062383D01*
X102141629Y-104194668D01*
X102141627Y-104194669D01*
X101949102Y-104359102D01*
X101784669Y-104551627D01*
X101784668Y-104551629D01*
X101652383Y-104767497D01*
X101555495Y-105001406D01*
X101496391Y-105247593D01*
X101476526Y-105500000D01*
X94000000Y-105500000D01*
X94000000Y-101451504D01*
X96356500Y-101451504D01*
X96356500Y-101668495D01*
X96390442Y-101882796D01*
X96390443Y-101882800D01*
X96457494Y-102089160D01*
X96556001Y-102282492D01*
X96683539Y-102458033D01*
X96836967Y-102611461D01*
X96836970Y-102611463D01*
X97006914Y-102734935D01*
X97049580Y-102790265D01*
X97055559Y-102859878D01*
X97022953Y-102921673D01*
X97006915Y-102935571D01*
X96842503Y-103055024D01*
X96690025Y-103207502D01*
X96690025Y-103207503D01*
X96563271Y-103381963D01*
X96465372Y-103574098D01*
X96398733Y-103779190D01*
X96387519Y-103850000D01*
X97417291Y-103850000D01*
X97405548Y-103870339D01*
X97365000Y-104021667D01*
X97365000Y-104178333D01*
X97405548Y-104329661D01*
X97417291Y-104350000D01*
X96387519Y-104350000D01*
X96398733Y-104420809D01*
X96465372Y-104625901D01*
X96563271Y-104818036D01*
X96690025Y-104992496D01*
X96690025Y-104992497D01*
X96842502Y-105144974D01*
X97016963Y-105271728D01*
X97209098Y-105369627D01*
X97414190Y-105436265D01*
X97627180Y-105470000D01*
X97710000Y-105470000D01*
X97710000Y-104642709D01*
X97730339Y-104654452D01*
X97881667Y-104695000D01*
X98038333Y-104695000D01*
X98189661Y-104654452D01*
X98210000Y-104642709D01*
X98210000Y-105470000D01*
X98292820Y-105470000D01*
X98505809Y-105436265D01*
X98710901Y-105369627D01*
X98903036Y-105271728D01*
X99077496Y-105144974D01*
X99077497Y-105144974D01*
X99229974Y-104992497D01*
X99229974Y-104992496D01*
X99356728Y-104818036D01*
X99454627Y-104625901D01*
X99521266Y-104420809D01*
X99532481Y-104350000D01*
X98502709Y-104350000D01*
X98514452Y-104329661D01*
X98555000Y-104178333D01*
X98555000Y-104021667D01*
X98514452Y-103870339D01*
X98502709Y-103850000D01*
X99532481Y-103850000D01*
X99521266Y-103779190D01*
X99454627Y-103574098D01*
X99356728Y-103381963D01*
X99229974Y-103207503D01*
X99229974Y-103207502D01*
X99077497Y-103055025D01*
X98913084Y-102935571D01*
X98870419Y-102880241D01*
X98864440Y-102810627D01*
X98897046Y-102748832D01*
X98913081Y-102734937D01*
X99083033Y-102611461D01*
X99236461Y-102458033D01*
X99363999Y-102282492D01*
X99462506Y-102089160D01*
X99529557Y-101882800D01*
X99544642Y-101787551D01*
X99563500Y-101668495D01*
X99563500Y-101451504D01*
X99529557Y-101237203D01*
X99529557Y-101237200D01*
X99462506Y-101030840D01*
X99363999Y-100837508D01*
X99236461Y-100661967D01*
X99095682Y-100521188D01*
X99062197Y-100459865D01*
X99067181Y-100390173D01*
X99109053Y-100334240D01*
X99118267Y-100327968D01*
X99273343Y-100232317D01*
X99397315Y-100108345D01*
X99489356Y-99959124D01*
X99489358Y-99959119D01*
X99544505Y-99792697D01*
X99544506Y-99792690D01*
X99554999Y-99689986D01*
X99555000Y-99689973D01*
X99555000Y-99270000D01*
X98502709Y-99270000D01*
X98514452Y-99249661D01*
X98555000Y-99098333D01*
X98555000Y-98941667D01*
X98514452Y-98790339D01*
X98502709Y-98770000D01*
X99554999Y-98770000D01*
X99554999Y-98350028D01*
X99554998Y-98350013D01*
X99544505Y-98247302D01*
X99489358Y-98080880D01*
X99489356Y-98080875D01*
X99397315Y-97931654D01*
X99273345Y-97807684D01*
X99124124Y-97715643D01*
X99124119Y-97715641D01*
X98957697Y-97660494D01*
X98957690Y-97660493D01*
X98854986Y-97650000D01*
X98210000Y-97650000D01*
X98210000Y-98477290D01*
X98189661Y-98465548D01*
X98038333Y-98425000D01*
X97881667Y-98425000D01*
X97730339Y-98465548D01*
X97710000Y-98477290D01*
X97710000Y-97650000D01*
X97065028Y-97650000D01*
X97065012Y-97650001D01*
X96962302Y-97660494D01*
X96795880Y-97715641D01*
X96795875Y-97715643D01*
X96646654Y-97807684D01*
X96522684Y-97931654D01*
X96430643Y-98080875D01*
X96430641Y-98080880D01*
X96375494Y-98247302D01*
X96375493Y-98247309D01*
X96365000Y-98350013D01*
X96365000Y-98770000D01*
X97417291Y-98770000D01*
X97405548Y-98790339D01*
X97365000Y-98941667D01*
X97365000Y-99098333D01*
X97405548Y-99249661D01*
X97417291Y-99270000D01*
X96365001Y-99270000D01*
X96365001Y-99689986D01*
X96375494Y-99792697D01*
X96430641Y-99959119D01*
X96430643Y-99959124D01*
X96522684Y-100108345D01*
X96646656Y-100232317D01*
X96801732Y-100327968D01*
X96848457Y-100379916D01*
X96859680Y-100448878D01*
X96831836Y-100512961D01*
X96824318Y-100521188D01*
X96683538Y-100661968D01*
X96556001Y-100837507D01*
X96457495Y-101030837D01*
X96390442Y-101237203D01*
X96356500Y-101451504D01*
X94000000Y-101451504D01*
X94000000Y-96855013D01*
X106090000Y-96855013D01*
X106090000Y-97500000D01*
X106917291Y-97500000D01*
X106905548Y-97520339D01*
X106865000Y-97671667D01*
X106865000Y-97828333D01*
X106905548Y-97979661D01*
X106917291Y-98000000D01*
X106090001Y-98000000D01*
X106090001Y-98644986D01*
X106100494Y-98747697D01*
X106155641Y-98914119D01*
X106155643Y-98914124D01*
X106247684Y-99063345D01*
X106371654Y-99187315D01*
X106520875Y-99279356D01*
X106520880Y-99279358D01*
X106687302Y-99334505D01*
X106687309Y-99334506D01*
X106790019Y-99344999D01*
X107209999Y-99344999D01*
X107210000Y-99344998D01*
X107210000Y-98292709D01*
X107230339Y-98304452D01*
X107381667Y-98345000D01*
X107538333Y-98345000D01*
X107689661Y-98304452D01*
X107710000Y-98292709D01*
X107710000Y-99344999D01*
X108129972Y-99344999D01*
X108129986Y-99344998D01*
X108232697Y-99334505D01*
X108399119Y-99279358D01*
X108399124Y-99279356D01*
X108548345Y-99187315D01*
X108672317Y-99063343D01*
X108767968Y-98908267D01*
X108819916Y-98861542D01*
X108888878Y-98850319D01*
X108952960Y-98878162D01*
X108961188Y-98885682D01*
X109101967Y-99026461D01*
X109277508Y-99153999D01*
X109470840Y-99252506D01*
X109677200Y-99319557D01*
X109757566Y-99332285D01*
X109891505Y-99353500D01*
X109891510Y-99353500D01*
X110108495Y-99353500D01*
X110228421Y-99334505D01*
X110322800Y-99319557D01*
X110529160Y-99252506D01*
X110722492Y-99153999D01*
X110898033Y-99026461D01*
X111051461Y-98873033D01*
X111178999Y-98697492D01*
X111277506Y-98504160D01*
X111344557Y-98297800D01*
X111373456Y-98115338D01*
X111378500Y-98083495D01*
X111378500Y-97416504D01*
X111344557Y-97202203D01*
X111344557Y-97202200D01*
X111277506Y-96995840D01*
X111178999Y-96802508D01*
X111051461Y-96626967D01*
X110898033Y-96473539D01*
X110722492Y-96346001D01*
X110529160Y-96247494D01*
X110322800Y-96180443D01*
X110322798Y-96180442D01*
X110322796Y-96180442D01*
X110108495Y-96146500D01*
X110108490Y-96146500D01*
X109891510Y-96146500D01*
X109891505Y-96146500D01*
X109677203Y-96180442D01*
X109470837Y-96247495D01*
X109277507Y-96346001D01*
X109101968Y-96473538D01*
X108961188Y-96614318D01*
X108899865Y-96647802D01*
X108830173Y-96642818D01*
X108774240Y-96600946D01*
X108767968Y-96591732D01*
X108672317Y-96436656D01*
X108548345Y-96312684D01*
X108399124Y-96220643D01*
X108399119Y-96220641D01*
X108232697Y-96165494D01*
X108232690Y-96165493D01*
X108129986Y-96155000D01*
X107710000Y-96155000D01*
X107710000Y-97207290D01*
X107689661Y-97195548D01*
X107538333Y-97155000D01*
X107381667Y-97155000D01*
X107230339Y-97195548D01*
X107210000Y-97207290D01*
X107210000Y-96155000D01*
X106790028Y-96155000D01*
X106790012Y-96155001D01*
X106687302Y-96165494D01*
X106520880Y-96220641D01*
X106520875Y-96220643D01*
X106371654Y-96312684D01*
X106247684Y-96436654D01*
X106155643Y-96585875D01*
X106155641Y-96585880D01*
X106100494Y-96752302D01*
X106100493Y-96752309D01*
X106090000Y-96855013D01*
X94000000Y-96855013D01*
X94000000Y-91878711D01*
X96149500Y-91878711D01*
X96149500Y-92121288D01*
X96181161Y-92361785D01*
X96243947Y-92596104D01*
X96336773Y-92820205D01*
X96336776Y-92820212D01*
X96458064Y-93030289D01*
X96458066Y-93030292D01*
X96458067Y-93030293D01*
X96605733Y-93222736D01*
X96605739Y-93222743D01*
X96777256Y-93394260D01*
X96777262Y-93394265D01*
X96969711Y-93541936D01*
X97179788Y-93663224D01*
X97403900Y-93756054D01*
X97638211Y-93818838D01*
X97818586Y-93842584D01*
X97878711Y-93850500D01*
X97878712Y-93850500D01*
X98121289Y-93850500D01*
X98169388Y-93844167D01*
X98361789Y-93818838D01*
X98596100Y-93756054D01*
X98820212Y-93663224D01*
X99030289Y-93541936D01*
X99222738Y-93394265D01*
X99394265Y-93222738D01*
X99541936Y-93030289D01*
X99663224Y-92820212D01*
X99756054Y-92596100D01*
X99818838Y-92361789D01*
X99850500Y-92121288D01*
X99850500Y-91878712D01*
X99818838Y-91638211D01*
X99756054Y-91403900D01*
X99663224Y-91179788D01*
X99541936Y-90969711D01*
X99418559Y-90808922D01*
X99394266Y-90777263D01*
X99394260Y-90777256D01*
X99222743Y-90605739D01*
X99222736Y-90605733D01*
X99030293Y-90458067D01*
X99030292Y-90458066D01*
X99030289Y-90458064D01*
X98820212Y-90336776D01*
X98820205Y-90336773D01*
X98596104Y-90243947D01*
X98361785Y-90181161D01*
X98121289Y-90149500D01*
X98121288Y-90149500D01*
X97878712Y-90149500D01*
X97878711Y-90149500D01*
X97638214Y-90181161D01*
X97403895Y-90243947D01*
X97179794Y-90336773D01*
X97179785Y-90336777D01*
X96969706Y-90458067D01*
X96777263Y-90605733D01*
X96777256Y-90605739D01*
X96605739Y-90777256D01*
X96605733Y-90777263D01*
X96458067Y-90969706D01*
X96336777Y-91179785D01*
X96336773Y-91179794D01*
X96243947Y-91403895D01*
X96181161Y-91638214D01*
X96149500Y-91878711D01*
X94000000Y-91878711D01*
X94000000Y-91000787D01*
X94000009Y-90999267D01*
X94000372Y-90969706D01*
X94002343Y-90808922D01*
X94002930Y-90798320D01*
X94040312Y-90418772D01*
X94042097Y-90406744D01*
X94056015Y-90336777D01*
X94116346Y-90033468D01*
X94119301Y-90021670D01*
X94229785Y-89657455D01*
X94233885Y-89645997D01*
X94379532Y-89294372D01*
X94384730Y-89283380D01*
X94564152Y-88947708D01*
X94570390Y-88937300D01*
X94781852Y-88620825D01*
X94789091Y-88611064D01*
X95030555Y-88316838D01*
X95038707Y-88307844D01*
X95307844Y-88038707D01*
X95316838Y-88030555D01*
X95611064Y-87789091D01*
X95620825Y-87781852D01*
X95937300Y-87570390D01*
X95947708Y-87564152D01*
X96283380Y-87384730D01*
X96294363Y-87379535D01*
X96646004Y-87233882D01*
X96657447Y-87229787D01*
X97021677Y-87119299D01*
X97033468Y-87116346D01*
X97406753Y-87042095D01*
X97418772Y-87040312D01*
X97798320Y-87002930D01*
X97808922Y-87002343D01*
X97996784Y-87000039D01*
X97999267Y-87000009D01*
X98000787Y-87000000D01*
X113999213Y-87000000D01*
X114000733Y-87000008D01*
G37*
%TD.AperFunction*%
%TD*%
M02*
